<svg xmlns="http://www.w3.org/2000/svg" xmlns:xlink="http://www.w3.org/1999/xlink" version="1.1" x="0px" y="0px" viewBox="0 0 100 125" enable-background="new 0 0 100 100" xml:space="preserve"><path fill="#ffffff" d="M25.993,84.064l-5.148,5.146c-0.781,0.781-0.781,2.047-0.001,2.829c0.391,0.391,0.903,0.586,1.415,0.586  s1.023-0.195,1.414-0.585l5.148-5.146c0.781-0.781,0.781-2.047,0.001-2.829C28.041,83.283,26.774,83.284,25.993,84.064z   M13.114,77.379c0.512,0,1.023-0.195,1.414-0.586l4.574-4.574c0.781-0.781,0.781-2.047,0-2.828s-2.047-0.781-2.828,0L11.7,73.965  c-0.781,0.781-0.781,2.047,0,2.828C12.091,77.184,12.603,77.379,13.114,77.379z M22.151,78.539c-0.781-0.781-2.047-0.781-2.828,0  L8.649,89.21c-0.781,0.781-0.781,2.047,0,2.829c0.391,0.391,0.902,0.586,1.414,0.586s1.023-0.195,1.414-0.585l10.674-10.671  C22.933,80.586,22.933,79.32,22.151,78.539z M72.384,17.378c-2.285,0-4.433,0.888-6.051,2.503c-0.01,0.009-0.017,0.02-0.026,0.029  c-0.178,0.119-0.347,0.254-0.494,0.423L48.006,40.767c-0.906,1.041-0.799,2.621,0.242,3.528c0.533,0.464,1.206,0.662,1.858,0.606  c0.623-0.054,1.227-0.34,1.67-0.848l12.792-14.679c0.414,0.943,0.999,1.828,1.77,2.599c0.786,0.787,1.701,1.398,2.695,1.821  L53.896,47.203c-1.033,0.915-1.13,2.495-0.214,3.529c0.52,0.586,1.251,0.87,1.978,0.84c0.554-0.023,1.104-0.229,1.551-0.626  l20.648-18.291c0.198-0.176,0.352-0.381,0.48-0.597c0.029-0.029,0.063-0.054,0.092-0.083c3.331-3.333,3.331-8.758-0.002-12.095  C76.816,18.267,74.669,17.378,72.384,17.378z M91.866,10.351l-0.063-0.974c-0.064-1.002-0.862-1.802-1.865-1.868l-0.97-0.064  c-0.174-0.012-1.118-0.07-2.63-0.07c-7.177,0-25.137,1.266-36.855,12.988c-1.438,1.438-2.808,2.924-4.086,4.437  c-1.592-0.77-3.436-1.183-5.354-1.183c-3.456,0-6.719,1.281-8.95,3.515L18.9,39.326c-1.38,1.375-0.962,3.036-0.737,3.928  c0.04,0.161,0.083,0.326,0.115,0.493c0.19,1.013,0.676,1.933,1.404,2.662c0.438,0.438,0.956,0.792,1.557,1.062l10.859,4.762  l-10.711,10.71c-0.354,0.354-0.563,0.828-0.584,1.328c-0.009,0.195-0.152,4.828,4.48,9.462c4.272,4.272,8.545,4.482,9.339,4.482  c0.067,0,0.11-0.002,0.125-0.002c0.5-0.022,0.974-0.23,1.327-0.584l10.898-10.899l5.051,11.515c0.249,0.583,0.606,1.11,1.065,1.573  c0.731,0.731,1.653,1.217,2.661,1.402c0.31,0.058,0.626,0.087,0.94,0.087c1.356,0,2.633-0.527,3.599-1.489l12.32-12.323  c3.657-3.656,4.38-9.233,1.986-13.651c1.502-1.278,2.96-2.623,4.35-4.015C93.386,35.397,91.935,11.36,91.866,10.351z M72.25,50.557  c-1.333,0.933-9.796,6.779-16.287,9.5c-2.871,1.204-6.909,1.648-8.045,1.754c-0.007,0-0.013-0.003-0.02-0.003  c-3.23-0.037-5.788-0.976-7.601-2.789c-1.742-1.746-2.671-4.181-2.776-7.229c0,0,0.337-4.995,1.729-8.374  c2.888-7.012,9.298-16.112,9.426-16.293c1.143-1.337,2.359-2.654,3.636-3.931C62.974,12.527,79.66,11.375,86.339,11.375  c0.649,0,1.18,0.012,1.574,0.025c0.15,4.204,0.154,23.657-11.796,35.602C74.883,48.238,73.578,49.416,72.25,50.557z"/><text x="0" y="115" fill="#000000" font-size="5px" font-weight="bold" font-family="'Helvetica Neue', Helvetica, Arial-Unicode, Arial, Sans-serif">Created by iconomania</text><text x="0" y="120" fill="#000000" font-size="5px" font-weight="bold" font-family="'Helvetica Neue', Helvetica, Arial-Unicode, Arial, Sans-serif">from the Noun Project</text></svg>