<!-- Generated by IcoMoon.io -->
<svg version="1.1" xmlns="http://www.w3.org/2000/svg" width="768" height="768" viewBox="0 0 768 768">
<title></title>
<g id="icomoon-ignore">
</g>
<path fill="#ffffff" d="M475.5 418.5q69-48 69-130.5 0-66-47.25-113.25t-113.25-47.25-113.25 47.25-47.25 113.25q0 34.5 20.25 72t48.75 58.5l27 19.5v73.5h129v-73.5zM384 64.5q93 0 158.25 65.25t65.25 158.25q0 117-96 183v73.5q0 13.5-9 22.5t-22.5 9h-192q-13.5 0-22.5-9t-9-22.5v-73.5q-96-66-96-183 0-93 65.25-158.25t158.25-65.25zM288 672v-31.5h192v31.5q0 13.5-9 22.5t-22.5 9h-129q-13.5 0-22.5-9t-9-22.5z"></path>
</svg>
