<svg xmlns="http://www.w3.org/2000/svg" version="1.1" xmlns:xlink="http://www.w3.org/1999/xlink" width="512" height="512" x="0" y="0" viewBox="0 0 512 512" style="enable-background:new 0 0 512 512" xml:space="preserve" class=""><g><path d="M256 0c-55.124 0-99.973 44.849-99.973 99.973v169.896c0 55.124 44.849 99.973 99.973 99.973s99.973-45.109 99.973-100.551V99.973C355.973 44.849 311.13 0 256 0zm65.3 269.291c0 36.325-29.293 65.878-65.3 65.878s-65.3-29.298-65.3-65.3V99.973c0-36.008 29.293-65.3 65.3-65.3s65.3 29.293 65.3 65.3v169.318zM238.664 420.117h34.673v78.591h-34.673z" fill="#000000" opacity="1" data-original="#000000" class=""></path><path d="M327.657 477.327H184.343c-9.575 0-17.336 7.761-17.336 17.336s7.761 17.336 17.336 17.336h143.314c9.575 0 17.336-7.761 17.336-17.336s-7.761-17.336-17.336-17.336zM402.203 184.343c-9.575 0-17.336 7.761-17.336 17.336v68.19c0 71.056-57.805 128.867-128.867 128.867s-128.867-57.811-128.867-128.867v-68.19c0-9.576-7.761-17.336-17.336-17.336s-17.336 7.761-17.336 17.336v68.19c0 90.178 73.362 163.539 163.539 163.539s163.539-73.362 163.539-163.539v-68.19c0-9.575-7.76-17.336-17.336-17.336z" fill="#000000" opacity="1" data-original="#000000" class=""></path><path d="M467.047 44.953c-6.773-6.773-17.741-6.773-24.514 0l-397.58 397.58c-6.773 6.767-6.773 17.747 0 24.514a17.268 17.268 0 0 0 12.257 5.08c4.432 0 8.876-1.693 12.257-5.08l397.58-397.58c6.773-6.767 6.773-17.747 0-24.514z" fill="#000000" opacity="1" data-original="#000000" class=""></path></g></svg>
