<svg xmlns="http://www.w3.org/2000/svg" version="1.1" xmlns:xlink="http://www.w3.org/1999/xlink" width="512" height="512" x="0" y="0" viewBox="0 0 512 512" style="enable-background:new 0 0 512 512" xml:space="preserve" class=""><g><path d="M256 0c-49.456 0-89.693 40.237-89.693 89.693v176.279c0 49.45 40.237 89.687 89.693 89.687 49.456 0 89.693-39.957 89.693-89.071V89.693C345.693 40.237 305.456 0 256 0zm52.315 266.583c0 28.503-23.47 51.698-52.315 51.698s-52.321-23.464-52.321-52.315V89.693c0-28.851 23.47-52.321 52.321-52.321s52.321 23.47 52.315 52.321v176.89zM237.314 409.226h37.372v84.088h-37.372z" fill="#000000" opacity="1" data-original="#000000" class=""></path><path d="M305.207 474.628h-98.414c-10.321 0-18.686 8.365-18.686 18.686S196.472 512 206.793 512h98.414c10.321 0 18.686-8.365 18.686-18.686s-8.365-18.686-18.686-18.686zM397.392 234.822c-10.321 0-18.686 8.365-18.686 18.686v14.949c0 67.656-55.049 122.706-122.706 122.706-67.662 0-122.706-55.049-122.706-122.706v-14.949c0-10.321-8.365-18.686-18.686-18.686s-18.686 8.365-18.686 18.686v14.949c0 88.267 71.811 160.078 160.078 160.078s160.078-71.811 160.078-160.078v-14.949c0-10.32-8.365-18.686-18.686-18.686z" fill="#000000" opacity="1" data-original="#000000" class=""></path></g></svg>
