<svg xmlns="http://www.w3.org/2000/svg" version="1.1" xmlns:xlink="http://www.w3.org/1999/xlink" width="512" height="512" x="0" y="0" viewBox="0 0 24 24" style="enable-background:new 0 0 512 512" xml:space="preserve" class=""><g><path d="M2 8c-.6 0-1 .4-1 1v6c0 .6.4 1 1 1s1-.4 1-1V9c0-.6-.4-1-1-1zm10-7c-.6 0-1 .4-1 1v20c0 .6.4 1 1 1s1-.4 1-1V2c0-.6-.4-1-1-1zM7 5c-.6 0-1 .4-1 1v12c0 .6.4 1 1 1s1-.4 1-1V6c0-.6-.4-1-1-1zm15 3c-.6 0-1 .4-1 1v6c0 .6.4 1 1 1s1-.4 1-1V9c0-.6-.4-1-1-1zm-5-3c-.6 0-1 .4-1 1v12c0 .6.4 1 1 1s1-.4 1-1V6c0-.6-.4-1-1-1z" fill="#ffffff" opacity="1" data-original="#000000" class=""></path></g></svg>
