<!-- Generated by IcoMoon.io -->
<svg version="1.1" xmlns="http://www.w3.org/2000/svg" width="768" height="768" viewBox="0 0 768 768">
<title></title>
<g id="icomoon-ignore">
</g>
<path fill="#fff" d="M704 367.904v-15.904c0-0.544-0.032-1.216-0.064-1.856-4.352-74.816-35.616-142.752-84.544-193.632-51.264-53.344-122.048-88.064-201.632-92.448-0.512-0.032-1.152-0.064-1.76-0.064h-15.648c-44.96-0.512-92.224 9.92-136.448 32.256-39.136 19.872-73.312 47.616-100.448 81.12-42.304 52.288-67.424 118.56-67.456 190.272-0.448 40.8 8.096 83.52 26.368 124.064l-56.704 170.144c-2.112 6.272-2.304 13.376 0 20.224 5.6 16.768 23.712 25.824 40.48 20.224l170.048-56.672c37.12 16.864 79.488 26.432 124.032 26.336 43.904-0.288 86.848-9.856 126.112-27.712 61.184-27.872 113.28-75.936 145.312-140 20.608-39.968 32.48-86.88 32.352-136.352zM640 368.096c0.096 39.2-9.344 76-25.248 106.848-25.632 51.264-66.624 89.12-114.944 111.104-31.040 14.144-65.12 21.728-100.032 21.952-39.072 0.096-75.872-9.344-106.72-25.248-7.968-4.128-16.896-4.544-24.8-1.92l-121.696 40.576 40.576-121.696c2.816-8.416 1.92-17.184-1.792-24.544-17.664-35.008-25.728-72.128-25.344-106.816 0.032-57.248 19.808-109.44 53.216-150.688 21.472-26.528 48.576-48.544 79.68-64.32 34.944-17.664 72.064-25.728 106.752-25.344h14.592c62.784 3.424 118.528 30.752 159.008 72.864 38.464 40.032 63.104 93.312 66.752 152.096z"></path>
</svg>
