<svg xmlns="http://www.w3.org/2000/svg" version="1.1" xmlns:xlink="http://www.w3.org/1999/xlink" width="512" height="512" x="0" y="0" viewBox="0 0 32 32" style="enable-background:new 0 0 512 512" xml:space="preserve" class=""><g><g data-name="44 Visibility"><path d="M16 21c-6.6 0-6.6-10 0-10 6.525 0 6.807 10 0 10zm0-8c-4 0-4 6 0 6s4-6 0-6z" fill="#ffffff" opacity="1" data-original="#000000" class=""></path><path d="M16 25c-4.949 0-9.688-2.629-13-7.214a3.043 3.043 0 0 1 0-3.572C6.312 9.629 11.051 7 16 7s9.688 2.629 13 7.214a3.043 3.043 0 0 1 0 3.572C25.688 22.371 20.949 25 16 25zM4.617 16.614C7.595 20.732 11.637 23 16 23s8.405-2.268 11.383-6.386a1.047 1.047 0 0 0 0-1.229C24.405 11.268 20.363 9 16 9s-8.405 2.268-11.383 6.386a1.047 1.047 0 0 0 0 1.229z" fill="#ffffff" opacity="1" data-original="#000000" class=""></path></g></g></svg>
