<?xml version="1.0" encoding="utf-8"?>
<!-- Generator: Adobe Illustrator 24.0.0, SVG Export Plug-In . SVG Version: 6.00 Build 0)  -->
<svg version="1.1" id="Layer_1" xmlns="http://www.w3.org/2000/svg" xmlns:xlink="http://www.w3.org/1999/xlink" x="0px" y="0px"
	 viewBox="0 0 566.9 283.5" style="enable-background:new 0 0 566.9 283.5;" xml:space="preserve">
<style type="text/css">
	.st0{fill:#FFFFFF;}
	.st1{fill:#0075BF;}
</style>
<g>
	<path class="st0" d="M119.5,137.5h-18.7V54.3h18.7L119.5,137.5L119.5,137.5z"/>
</g>
<g>
	<path class="st0" d="M183.5,54.3l0.2,57.4c-1.3-2.2-2.7-4.5-4.2-6.8l-33-50.6H125v83.2h19.1l-0.2-59.2c0.8,1.6,2.2,3.8,4.2,6.9
		l34.3,52.3h20.3V54.3H183.5z"/>
</g>
<g>
	<path class="st0" d="M364.3,71.1h-23.7v66.5h-18.8V71.1h-23.6V54.3h66V71.1z"/>
</g>
<g>
	<polygon class="st0" points="274,120.9 227,120.9 227,71 274,71 274,120.9 293,120.9 293,54.3 208,54.3 208,137.5 274,137.5 	"/>
</g>
<g>
	<path class="st1" d="M417.5,137.5h-47.9V54.3h47.9v16.8h-29.2v16.6h29.2v16.7h-29.2v16.7h29.2V137.5z"/>
</g>
<g>
	<path class="st1" d="M95.6,104.2V54.3h-67v83.2h19v-33.3H54v16.6h20.7v-16.6H95.6z M47.6,87.6V70.8h29v16.8L47.6,87.6L47.6,87.6z"
		/>
</g>
<g>
	<rect x="74.7" y="120.9" class="st1" width="20.7" height="16.6"/>
</g>
<g>
	<polygon class="st1" points="422.7,137.5 447,137.5 516.1,54.3 491.9,54.3 	"/>
</g>
<g>
	<rect x="495.2" y="120.9" class="st1" width="20.7" height="16.6"/>
</g>
<g>
	<rect x="474.6" y="104.3" class="st1" width="20.7" height="16.6"/>
</g>
<g>
	<rect x="443.4" y="71" class="st1" width="20.7" height="16.7"/>
</g>
<g>
	<rect x="422.8" y="54.3" class="st1" width="20.7" height="16.7"/>
</g>
<g>
	<path class="st0" d="M542.3,98.2c0,6.8,0,13.5,0,20.3c-1,0.3-18.1,0.4-21.1,0.2c-0.3-0.9-0.4-17.5-0.1-20.3
		C522,98.1,539.3,98,542.3,98.2z M525.3,113.9c4.3,0,8.5,0,12.7,0c0-3.7,0-7.4,0-11.1c-4.3,0-8.5,0-12.7,0
		C525.3,106.6,525.3,110.2,525.3,113.9z"/>
</g>
<g>
	<path class="st0" d="M529.5,96.6c0-4.4,0-8.6,0-12.9c-1.5,0-2.9,0-4.4,0c0,4.3,0,8.6,0,12.9c-1.5,0-2.8,0-4.2,0
		c0-5.8,0-11.5,0-17.3c0.9-0.3,11.3-0.4,12.8-0.1c0,4.2,0,8.4,0,12.8c0.8,0,1.5,0.1,2.2,0.1c0.7,0,1.3,0,2.2,0c0.1-4.3,0-8.6,0.1-13
		c1.4-0.2,2.7-0.1,4.1,0c0,5.8,0,11.6,0,17.4C538,96.6,533.9,96.6,529.5,96.6z"/>
</g>
<g>
	<path class="st0" d="M521,120.2c4.2,0,8.4,0,12.7,0c0.1,1.4,0,2.9,0.1,4.3c0,1.4,0,2.8,0,4.2c0,1.4,0,2.9,0,4.4c1.5,0,2.8,0,4.3,0
		c0-4.3,0-8.5,0-12.9c1.4-0.2,2.8-0.1,4.1,0c0,5.8,0,11.6,0,17.4c-4.2,0-8.3,0-12.6,0c0-4.3,0-8.6,0-12.9c-1.5,0-2.9,0-4.4,0
		c0,4.3,0,8.6,0,12.9c-1.4,0-2.7,0-4,0C520.9,136.7,520.8,122.9,521,120.2z"/>
</g>
<g>
	<path class="st0" d="M521,54.5c-0.3,2.8-0.1,19.4,0.1,20.3c0.7,0.1,2.3,0.1,4.2,0.1V59h3.9v12.8h4.2V59h4.6v15.8
		c2.3,0,4-0.1,4.3-0.2V54.4c-0.5,0-1.2-0.1-2.2-0.1H540c-0.3,0-0.6,0-1,0c-1.1,0-2.4,0-3.7,0C529.2,54.3,521.6,54.4,521,54.5z"/>
</g>
<g>
	<path class="st0" d="M47,173.4c0,5.2-3.2,7.8-9.5,7.8c-4.9,0-7.4-2.1-7.4-6.3c0-0.8,0.2-2,0.5-3.4c0.5-1.8,1-2.7,1.6-2.7
		c0.7,0,1,0.4,1,1.2c0,0.3,0,0.6-0.1,1.2s-0.1,0.9-0.1,1.2c0,2.3,2,3.4,6,3.4c2,0,3.9-0.3,5.7-0.9c0.3-0.1,0.5-0.2,0.5-0.4
		c0-0.2-0.2-0.3-0.6-0.3l-4.1-0.4c-1.7-0.3-2.5-1.1-2.5-2.3c0-1.3,0.5-2.9,1.4-4.6c1.2-2.2,2.6-3.3,4.2-3.3c1,0,1.9,0.5,2.7,1.6
		c0.6,0.8,0.9,1.6,0.9,2.3c0,0.8-0.1,1.2-0.4,1.2c-0.1,0-0.5-0.1-1.3-0.4s-1.5-0.4-1.9-0.4c-0.8,0-1.6,0.2-2.2,0.6
		c-0.5,0.4-0.7,0.7-0.7,0.9c0,0.2,0.6,0.4,1.7,0.5c1.7,0.2,2.7,0.4,2.9,0.4C46.4,170.7,47,171.7,47,173.4z"/>
	<path class="st0" d="M62,174.9H61c-1.6,0-2.9-1-3.9-3.1c-0.7,1.3-1.3,2.1-2,2.6c-0.7,0.6-1.7,0.9-2.8,0.9c-2.5,0-3.8-1.5-3.8-4.4
		c0-0.6,0.1-1.3,0.3-2c0.3-1,0.6-1.5,1-1.5c0.5,0,0.8,0.2,0.9,0.7c0.2,0.8,0.4,1.2,0.5,1.3c0.3,0.4,0.9,0.7,1.8,0.7
		c0.6,0,1.2-0.1,1.7-0.3c0.7-0.2,1.1-0.5,1.1-0.8c0-0.1,0-0.1,0-0.2l-2-4.9l2.8-2.8c0.1-0.1,0.2-0.2,0.3-0.2c0.1,0,0.1,0.1,0.2,0.3
		l2.3,6.4c0.4,1.1,1,1.7,1.8,1.7h0.9L62,174.9L62,174.9z"/>
	<path class="st0" d="M77.6,174.9H61.3v-5.6h16.3L77.6,174.9L77.6,174.9z"/>
	<path class="st0" d="M84.7,174.9h-0.9c-1.2,0-2.1-0.6-2.8-1.7c-0.6,1.1-1.6,1.7-2.9,1.7h-1.2v-5.6h0.8c0.9,0,1.5-0.3,1.8-0.8
		c0.1-0.1,0.3-0.6,0.5-1.4c0.2-0.5,0.4-0.8,0.8-0.8c0.4,0,0.7,0.3,0.8,0.8c0.2,0.8,0.3,1.3,0.4,1.4c0.3,0.5,0.9,0.8,1.8,0.8h0.9
		C84.7,169.3,84.7,174.9,84.7,174.9z M83.9,178.6c0.1,0.1,0.1,0.2,0,0.3l-1.5,1.4c-0.1,0.1-0.2,0.1-0.3,0l-1.4-1.4l-1.4,1.4
		c-0.1,0.1-0.2,0.1-0.3,0l-1.5-1.4c-0.1-0.1-0.1-0.3,0-0.4l1.4-1.4c0.1-0.1,0.3-0.1,0.4,0l1.4,1.3l1.3-1.3c0.1-0.1,0.3-0.1,0.4,0
		L83.9,178.6z"/>
	<path class="st0" d="M97.3,168.4c0,1.5-0.2,2.8-0.7,4c-0.6,1.7-1.5,2.5-2.7,2.5c-1,0-1.8-0.5-2.5-1.6c-0.5,1.1-1.2,1.6-2,1.6
		c-1.2,0-2-0.6-2.4-1.7c-0.5,1.1-1.2,1.7-2.2,1.7h-1v-5.5h0.9c0.6,0,1-0.2,1.2-0.7c0.1-0.4,0.2-0.8,0.4-1.2c0.2-0.5,0.5-0.8,0.8-0.8
		c0.4,0,0.6,0.2,0.8,0.7l0.4,1.3c0.2,0.5,0.7,0.7,1.3,0.7c0.5,0,0.8-0.2,1-0.7c0.1-0.2,0.1-0.7,0.3-1.3c0.1-0.5,0.4-0.7,0.8-0.7
		c0.4,0,0.6,0.3,0.7,0.7l0.3,1.4c0.2,0.5,0.7,0.7,1.3,0.7c0.8,0,1.2-0.3,1.2-0.8c0-0.3-0.1-0.7-0.2-1c-0.1-0.2-0.2-0.5-0.4-0.9
		l1.6-1.8c0.2-0.2,0.3-0.2,0.4,0C97.1,166.1,97.3,167.3,97.3,168.4z M88.5,161.6c-0.1-0.1-0.1-0.2,0-0.3l1.5-1.4
		c0.1-0.1,0.2-0.1,0.3,0l1.4,1.4l1.4-1.4c0.1-0.1,0.2-0.1,0.3,0l1.5,1.4c0.1,0.1,0.1,0.2,0,0.3l-1.4,1.4c-0.1,0.1-0.2,0.1-0.3,0
		l-1.5-1.4l0,0l-1.3,1.4c-0.1,0.1-0.2,0.1-0.4,0L88.5,161.6z M90.1,158.8c-0.1-0.1-0.1-0.2,0-0.3l1.5-1.5c0.1-0.1,0.2-0.1,0.3,0
		l1.5,1.4c0.1,0.1,0.1,0.2-0.1,0.4l-1.3,1.4c-0.1,0.1-0.2,0.1-0.4,0L90.1,158.8z"/>
	<path class="st0" d="M108.4,173.9c0,3.1-0.8,5.5-2.4,7.2c-0.2,0.2-0.4,0.3-0.8,0.3h-5.8c-0.7,0-1-0.3-1-0.8c0-0.3,0.1-0.5,0.4-0.7
		c1.1-0.5,2.4-1.3,4-2.4c2.1-1.4,3.1-2.4,3.1-3c0-0.5-0.9-1.6-2.8-3.3l2-4.1c0.1-0.2,0.3-0.3,0.5-0.1c1,0.9,1.7,1.8,2.1,2.8
		C108.2,170.7,108.4,172.1,108.4,173.9z"/>
	<path class="st0" d="M129.3,174.9h-1.5c-1.3,0-2.4-0.5-3.2-1.5c-0.7-0.8-1.1-1.8-1.3-3c-0.9,0.4-1.6,1-2.2,1.9
		c-0.6,0.9-0.9,1.8-0.9,2.7c0,1.4,0.6,2.5,1.8,3.2c1,0.6,2.2,0.9,3.8,0.9c0.1,0,0.3,0,0.6,0c0.3,0,0.5,0,0.6,0
		c1.1,0,1.7,0.3,1.7,0.8c0,1.1-1.9,1.6-5.8,1.6c-5.4,0-8.2-1.9-8.2-5.9c0-1.5,0.5-2.8,1.4-3.9c0.8-0.9,1.8-1.5,3-2
		c0.5-0.2,1.4-0.5,2.8-0.9c-0.6-0.8-1.1-1.3-1.6-1.6c-0.1,0-0.3-0.1-0.9-0.3c-0.2-0.1-0.3-0.2-0.3-0.5c0-0.8,0.4-1.5,1.2-2.2
		c0.9-0.8,2-1.1,3.3-1.1c1,0,1.8,0.2,2.6,0.7c0.9,0.5,1.3,1.3,1.3,2.2c0,0.6-0.3,1.1-0.8,1.7c0,0-0.4,0.4-1.3,1.3
		c0.4,0.2,1,0.3,1.7,0.3h2L129.3,174.9L129.3,174.9z"/>
	<path class="st0" d="M134.8,168.4c0,2.3-0.3,3.9-1,4.9c-0.8,1.1-2.2,1.6-4.2,1.6h-1v-5.6h2.8c0.5,0,0.7-0.1,0.7-0.4
		c0-0.1-0.1-0.3-0.2-0.5c-0.5-0.7-1.2-1.4-2-2.1c-0.1-0.1-0.1-0.3,0-0.4l2.3-3.4c0.1-0.2,0.2-0.3,0.3-0.3c0.1,0,0.2,0.1,0.3,0.3
		C134.1,164.1,134.8,166.1,134.8,168.4z M133.9,178.5c0.1,0.1,0.1,0.2,0,0.3l-1.7,1.7c-0.1,0.1-0.2,0.1-0.4,0l-1.7-1.6
		c-0.1-0.1-0.1-0.3,0-0.4l1.6-1.6c0.1-0.1,0.3-0.1,0.4,0L133.9,178.5z"/>
	<path class="st0" d="M145.8,173.9c0,3.1-0.8,5.5-2.4,7.2c-0.2,0.2-0.4,0.3-0.8,0.3h-5.8c-0.7,0-1-0.3-1-0.8c0-0.3,0.1-0.5,0.4-0.7
		c1.1-0.5,2.4-1.3,4-2.4c2.1-1.4,3.1-2.4,3.1-3c0-0.5-0.9-1.6-2.8-3.3l2-4.1c0.1-0.2,0.3-0.3,0.5-0.1c1,0.9,1.7,1.8,2.1,2.8
		C145.6,170.7,145.8,172.1,145.8,173.9z"/>
	<path class="st0" d="M169.2,173.4c0,5.2-3.2,7.8-9.5,7.8c-4.9,0-7.4-2.1-7.4-6.3c0-0.8,0.2-2,0.5-3.4c0.4-1.8,1-2.7,1.6-2.7
		c0.7,0,1,0.4,1,1.2c0,0.3,0,0.6-0.1,1.2s-0.1,0.9-0.1,1.2c0,2.3,2,3.4,5.9,3.4c2,0,3.9-0.3,5.7-0.9c0.3-0.1,0.5-0.2,0.5-0.4
		c0-0.2-0.2-0.3-0.6-0.3l-4.1-0.4c-1.7-0.3-2.6-1.1-2.6-2.3c0-1.3,0.5-2.9,1.4-4.6c1.2-2.2,2.6-3.3,4.2-3.3c1.1,0,1.9,0.5,2.7,1.6
		c0.6,0.8,0.9,1.6,0.9,2.3c0,0.8-0.1,1.2-0.4,1.2c-0.1,0-0.6-0.1-1.4-0.4s-1.4-0.4-1.9-0.4c-0.9,0-1.6,0.2-2.1,0.6
		c-0.5,0.4-0.7,0.7-0.7,0.9c0,0.2,0.6,0.4,1.7,0.5c1.7,0.2,2.7,0.4,2.9,0.4C168.5,170.7,169.2,171.7,169.2,173.4z"/>
	<path class="st0" d="M180.3,173.9c0,3.1-0.8,5.5-2.4,7.2c-0.2,0.2-0.4,0.3-0.8,0.3h-5.8c-0.7,0-1-0.3-1-0.8c0-0.3,0.1-0.5,0.4-0.7
		c1.1-0.5,2.4-1.3,4-2.4c2.1-1.4,3.1-2.4,3.1-3c0-0.5-0.9-1.6-2.8-3.3l2-4.1c0.1-0.2,0.3-0.3,0.5-0.1c1,0.9,1.7,1.8,2.1,2.8
		C180.1,170.7,180.3,172.1,180.3,173.9z"/>
	<path class="st0" d="M191.2,172.5c0,4.1-0.8,7-2.3,8.6c-0.2,0.2-0.4,0.3-0.7,0.3h-5.8c-0.7,0-1-0.3-1-0.8c0-0.3,0.1-0.5,0.4-0.7
		c1.1-0.5,2.4-1.2,3.9-2.2c2-1.3,3.1-2.2,3.1-2.7c-1.7,0-2.8-0.1-3.3-0.3c-1.1-0.4-1.6-1.4-1.6-3c0-1.4,0.2-2.8,0.7-4
		c0.7-1.7,1.6-2.6,2.9-2.6c1.4,0,2.5,0.9,3.1,2.8C190.9,169.2,191.2,170.7,191.2,172.5z M188.6,170.3c0-0.3-0.2-0.5-0.6-0.8
		c-0.4-0.2-0.7-0.3-1-0.3c-0.8,0-1.1,0.3-1.1,0.9c0,0.3,0.5,0.5,1.4,0.5C188.1,170.6,188.6,170.5,188.6,170.3z"/>
	<path class="st0" d="M199.2,174.9h-1.3c-3.1,0-4.6-1.6-4.6-4.9c0-1.4-0.1-3.2-0.1-5.4c-0.1-2.4-0.2-3.9-0.3-4.7
		c-0.1-0.4,0-0.6,0.2-0.8l3.6-2.5c0.3-0.2,0.4-0.3,0.5-0.3c0.1,0,0.2,0.1,0.2,0.3v10.9c0,1.2,0.5,1.8,1.6,1.8h0.4L199.2,174.9
		L199.2,174.9z"/>
	<path class="st0" d="M214.8,174.9h-16.3v-5.6h16.3V174.9z"/>
	<path class="st0" d="M221.9,174.9h-0.9c-1.2,0-2.1-0.6-2.8-1.7c-0.6,1.1-1.6,1.7-2.9,1.7H214v-5.6h0.8c0.9,0,1.5-0.3,1.8-0.8
		c0.1-0.1,0.3-0.6,0.5-1.4c0.2-0.5,0.4-0.8,0.9-0.8c0.4,0,0.6,0.3,0.8,0.8c0.2,0.8,0.3,1.3,0.4,1.4c0.3,0.5,0.9,0.8,1.8,0.8h0.9
		V174.9z M219.6,161.3c0.1,0.1,0.1,0.2,0,0.4l-1.6,1.7c-0.1,0.1-0.3,0.1-0.4,0l-1.7-1.6c-0.1-0.1-0.1-0.3,0.1-0.4l1.6-1.6
		c0.1-0.1,0.3-0.1,0.4,0L219.6,161.3z"/>
	<path class="st0" d="M229.8,167.7c0,4.8-2.4,7.3-7.1,7.3h-1.6v-5.6h1.6c2.7,0,4.3-0.1,4.7-0.5c0.2-0.1,0.3-0.3,0.3-0.4
		c0-0.2-0.1-0.3-0.4-0.3c-0.1,0-0.1,0-0.2,0.1c-0.3,0.1-0.9,0.2-1.9,0.2c-2.1,0-3.2-0.9-3.2-2.6c0-1.1,0.3-2.3,0.9-3.4
		c0.7-1.3,1.5-2,2.6-2c1.5,0,2.7,0.9,3.5,2.8C229.5,164.5,229.8,166,229.8,167.7z M227.2,156.9c0.1,0.1,0.1,0.2,0,0.4l-1.7,1.7
		c-0.1,0.1-0.2,0.1-0.4,0l-1.7-1.6c-0.1-0.1-0.1-0.3,0-0.4l1.6-1.6c0.1-0.1,0.3-0.1,0.4,0L227.2,156.9z M226.9,164.9
		c0-0.3-0.2-0.5-0.6-0.7c-0.4-0.2-0.7-0.3-0.9-0.3c-0.3,0-0.5,0.1-0.8,0.2c-0.3,0.1-0.4,0.4-0.4,0.6c0,0.3,0.5,0.4,1.4,0.4
		C226.5,165.1,226.9,165.1,226.9,164.9z"/>
	<path class="st0" d="M245.6,172.5c0,4.1-0.8,7-2.3,8.6c-0.2,0.2-0.4,0.3-0.7,0.3h-5.8c-0.7,0-1-0.3-1-0.8c0-0.3,0.1-0.5,0.4-0.7
		c1.1-0.5,2.4-1.2,3.9-2.2c2-1.3,3.1-2.2,3.1-2.7c-1.7,0-2.8-0.1-3.3-0.3c-1.1-0.4-1.6-1.4-1.6-3c0-1.4,0.2-2.8,0.7-4
		c0.7-1.7,1.6-2.6,2.9-2.6c1.4,0,2.5,0.9,3.1,2.8C245.4,169.2,245.6,170.7,245.6,172.5z M243,170.3c0-0.3-0.2-0.5-0.6-0.8
		c-0.4-0.2-0.7-0.3-1-0.3c-0.8,0-1.1,0.3-1.1,0.9c0,0.3,0.5,0.5,1.4,0.5C242.6,170.6,243,170.5,243,170.3z"/>
	<path class="st0" d="M269,173.4c0,5.2-3.2,7.8-9.5,7.8c-4.9,0-7.4-2.1-7.4-6.3c0-0.8,0.2-2,0.5-3.4c0.4-1.8,1-2.7,1.6-2.7
		c0.7,0,1,0.4,1,1.2c0,0.3,0,0.6-0.1,1.2s-0.1,0.9-0.1,1.2c0,2.3,2,3.4,6,3.4c2,0,3.9-0.3,5.7-0.9c0.3-0.1,0.5-0.2,0.5-0.4
		c0-0.2-0.2-0.3-0.6-0.3l-4.1-0.4c-1.7-0.3-2.5-1.1-2.5-2.3c0-1.3,0.5-2.9,1.4-4.6c1.2-2.2,2.6-3.3,4.2-3.3c1,0,1.9,0.5,2.7,1.6
		c0.6,0.8,0.9,1.6,0.9,2.3c0,0.8-0.1,1.2-0.4,1.2c-0.1,0-0.5-0.1-1.4-0.4c-0.8-0.3-1.5-0.4-1.9-0.4c-0.9,0-1.6,0.2-2.1,0.6
		c-0.5,0.4-0.7,0.7-0.7,0.9c0,0.2,0.6,0.4,1.7,0.5c1.7,0.2,2.7,0.4,2.9,0.4C268.4,170.7,269,171.7,269,173.4z"/>
	<path class="st0" d="M280.1,173.9c0,3.1-0.8,5.5-2.4,7.2c-0.2,0.2-0.4,0.3-0.8,0.3h-5.8c-0.7,0-1-0.3-1-0.8c0-0.3,0.1-0.5,0.4-0.7
		c1.1-0.5,2.4-1.3,4-2.4c2.1-1.4,3.1-2.4,3.1-3c0-0.5-0.9-1.6-2.8-3.3l2-4.1c0.1-0.2,0.3-0.3,0.5-0.1c1,0.9,1.7,1.8,2.1,2.8
		C279.9,170.7,280.1,172.1,280.1,173.9z"/>
	<path class="st0" d="M291,172.5c0,4.1-0.8,7-2.3,8.6c-0.2,0.2-0.4,0.3-0.7,0.3h-5.8c-0.7,0-1-0.3-1-0.8c0-0.3,0.1-0.5,0.5-0.7
		c1.1-0.5,2.4-1.2,3.9-2.2c2-1.3,3.1-2.2,3.1-2.7c-1.7,0-2.8-0.1-3.3-0.3c-1.1-0.4-1.6-1.4-1.6-3c0-1.4,0.2-2.8,0.7-4
		c0.7-1.7,1.6-2.6,2.9-2.6c1.4,0,2.5,0.9,3.1,2.8C290.8,169.2,291,170.7,291,172.5z M288.4,170.3c0-0.3-0.2-0.5-0.6-0.8
		c-0.4-0.2-0.7-0.3-1-0.3c-0.8,0-1.1,0.3-1.1,0.9c0,0.3,0.5,0.5,1.4,0.5C288,170.6,288.4,170.5,288.4,170.3z"/>
	<path class="st0" d="M303.6,154.9c0,0.6-0.7,1.3-2,2c-1.4,0.8-2.8,1.1-4.2,1.1c-0.4,0-1-0.1-1.7-0.3s-1.3-0.3-1.7-0.3
		c-0.2,0-0.5,0.2-0.7,0.6s-0.5,0.6-0.6,0.6c-0.4,0-0.6-0.3-0.6-0.9c0-0.4,0.3-1.1,0.8-2c0.6-1,1.1-1.5,1.6-1.5c-0.3,0-0.4,0-0.4,0.1
		c0,0.1,0.6,0.2,1.8,0.5c1.7,0.4,2.9,0.5,3.5,0.5c0.5,0,1.2-0.2,2.2-0.5c0.9-0.3,1.5-0.5,1.7-0.5
		C303.5,154.5,303.6,154.6,303.6,154.9z M299.8,158.7c0,1.3,0,3.1-0.1,5.4c-0.1,2.9-0.1,4.6-0.2,5.2c-0.1,0.6-0.3,1.4-0.6,2.4
		c-0.3,0.9-0.7,1.7-1,2.3c-0.4,0.7-0.8,1.1-1,1.1c-0.3,0-0.6-0.4-0.8-1.3c-0.3-1.3-0.6-5.7-0.7-13.4l3.9-2c0.2-0.1,0.4-0.2,0.5-0.2
		C299.8,158.1,299.8,158.3,299.8,158.7z"/>
	<path class="st0" d="M315.1,174.9h-1.3c-0.2,2.8-1,4.8-2.2,6.1c-0.2,0.2-0.4,0.3-0.7,0.3H305c-0.7,0-1-0.3-1-0.8
		c0-0.3,0.1-0.5,0.5-0.7c1.1-0.5,2.4-1.2,3.9-2.2c2-1.3,3.1-2.2,3.1-2.7c-1.7,0-2.8-0.1-3.3-0.3c-1.1-0.4-1.7-1.4-1.7-3
		c0-1.4,0.2-2.8,0.7-4c0.7-1.7,1.6-2.6,2.9-2.6c1.8,0,3,1.4,3.5,4.2h1.5L315.1,174.9L315.1,174.9z M311.2,170.4
		c0-0.3-0.2-0.5-0.6-0.8c-0.4-0.2-0.7-0.3-1-0.3c-0.8,0-1.1,0.3-1.1,0.9c0,0.3,0.5,0.5,1.4,0.5C310.8,170.6,311.2,170.5,311.2,170.4
		z"/>
	<path class="st0" d="M330.7,174.9h-16.3v-5.6h16.3V174.9z"/>
	<path class="st0" d="M336,168.4c0,2.3-0.3,3.9-1,4.9c-0.8,1.1-2.2,1.6-4.2,1.6h-1v-5.6h2.8c0.5,0,0.7-0.1,0.7-0.4
		c0-0.1-0.1-0.3-0.2-0.5c-0.5-0.7-1.2-1.4-2-2.1c-0.1-0.1-0.1-0.3,0-0.4l2.3-3.4c0.1-0.2,0.2-0.3,0.3-0.3c0.1,0,0.2,0.1,0.3,0.3
		C335.4,164.1,336,166.1,336,168.4z M334.6,158.3c0.1,0.1,0.1,0.2,0,0.4l-1.7,1.6c-0.1,0.1-0.2,0.1-0.4,0l-1.7-1.6
		c-0.1-0.1-0.1-0.3,0-0.4l1.5-1.6c0.1-0.1,0.3-0.1,0.4,0L334.6,158.3z"/>
	<path class="st0" d="M351.9,168.9c0,1.7-0.4,3.1-1.2,4.2c-0.9,1.2-2.2,1.8-3.8,1.8c-2.9,0-4.4-1.4-4.4-4.1c0-1,0.3-2.4,0.9-4.3
		c0.7-2.2,1.5-3.3,2.2-3.3c1.3,0,2.6,0.4,3.9,1.4C351.1,165.6,351.9,167.1,351.9,168.9z M349.4,169.3c0-0.3-0.5-0.7-1.4-1.1
		c-0.9-0.4-1.5-0.6-1.9-0.6c-0.3,0-0.5,0.2-0.6,0.5c-0.1,0.3-0.2,0.6-0.2,0.9c0,0.7,0.8,1.1,2.2,1.1
		C348.8,170,349.4,169.8,349.4,169.3z"/>
	<path class="st0" d="M359.9,174.9h-1.3c-3.1,0-4.6-1.6-4.6-4.9c0-1.4,0-3.2-0.1-5.4c-0.1-2.4-0.2-3.9-0.3-4.7
		c-0.1-0.4,0-0.6,0.2-0.8l3.6-2.5c0.3-0.2,0.4-0.3,0.5-0.3c0.1,0,0.2,0.1,0.2,0.3v10.9c0,1.2,0.5,1.8,1.6,1.8h0.4L359.9,174.9
		L359.9,174.9z"/>
	<path class="st0" d="M371.6,174.9h-1c-0.8,0-1.6-0.3-2.6-0.9c-0.8-0.5-1.5-1.2-2.1-1.9c-0.9,1.9-2.6,2.8-5,2.8h-1.8v-5.6h1.3
		c1.1,0,2-0.1,2.4-0.2c0.2-0.1,0.3-0.2,0.3-0.3c0-0.1-0.1-0.2-0.2-0.4c-0.7-0.9-1.7-1.9-2.9-3.2l0.6-3.1c0-0.1,0-0.1,0.1-0.2l9.3-3
		c0.1,0,0.2,0,0.2,0c0,0,0,0.1,0,0.3l-0.3,3.4c0,0.2,0,0.3,0,0.3c0,0.1-0.1,0.1-0.3,0.2l-5.2,1.6l3.1,3.7c0.8,0.7,1.7,1.1,2.7,1.1
		h1.3L371.6,174.9L371.6,174.9z M370.4,156.9l-0.1,1.1l-9.5,3.1l0.2-1.3L370.4,156.9z"/>
	<path class="st0" d="M387.2,174.9h-16.3v-5.6h16.3L387.2,174.9L387.2,174.9z"/>
	<path class="st0" d="M401.6,174.9h-1c-0.8,0-1.6-0.5-2.3-1.6c-0.8,1.1-1.5,1.6-2.2,1.6c-0.4,0-0.9-0.2-1.3-0.5
		c-0.4-0.3-0.7-0.7-0.9-1.1c-0.8,1.1-1.4,1.7-2.1,1.7c-0.9,0-1.7-0.6-2.2-1.7c-0.7,1.1-1.5,1.7-2.4,1.7h-1v-5.6h0.9
		c0.6,0,1-0.3,1.3-0.8c0.1-0.4,0.2-0.9,0.4-1.3c0.2-0.6,0.5-0.8,0.9-0.8c0.4,0,0.7,0.3,0.8,0.8c0,0.2,0.2,0.6,0.4,1.4
		c0.2,0.5,0.6,0.8,1.1,0.8c0.5,0,0.8-0.3,1-0.7c0.1-0.3,0.2-0.7,0.4-1.4c0.1-0.5,0.4-0.7,0.8-0.7c0.4,0,0.7,0.2,0.8,0.7
		c0.1,0.3,0.2,0.7,0.3,1.4c0.2,0.5,0.5,0.7,1,0.7c0.5,0,0.8-0.2,1-0.7c0.1-0.4,0.2-0.9,0.3-1.4s0.4-0.7,0.8-0.7
		c0.4,0,0.6,0.2,0.8,0.7c0,0.2,0.2,0.6,0.4,1.4c0.2,0.5,0.6,0.7,1.1,0.7h0.9L401.6,174.9L401.6,174.9z M390.9,161.6
		c-0.1-0.1-0.1-0.2,0-0.3l1.5-1.4c0.1-0.1,0.2-0.1,0.3,0l1.4,1.4l1.4-1.4c0.1-0.1,0.2-0.1,0.3,0l1.5,1.4c0.1,0.1,0.1,0.2,0,0.3
		l-1.4,1.4c-0.1,0.1-0.2,0.1-0.3,0l-1.5-1.4l0,0l-1.3,1.4c-0.1,0.1-0.2,0.1-0.4,0L390.9,161.6z M392.5,158.8c-0.1-0.1-0.1-0.2,0-0.3
		l1.5-1.5c0.1-0.1,0.2-0.1,0.3,0l1.5,1.4c0.1,0.1,0.1,0.2,0,0.4l-1.3,1.4c-0.1,0.1-0.2,0.1-0.4,0L392.5,158.8z"/>
	<path class="st0" d="M407.1,168.4c0,2.3-0.3,3.9-1,4.9c-0.8,1.1-2.2,1.6-4.2,1.6h-1v-5.6h2.8c0.5,0,0.7-0.1,0.7-0.4
		c0-0.1-0.1-0.3-0.2-0.5c-0.5-0.7-1.2-1.4-2-2.1c-0.1-0.1-0.1-0.3,0-0.4l2.3-3.4c0.1-0.2,0.2-0.3,0.3-0.3c0.1,0,0.2,0.1,0.3,0.3
		C406.4,164.1,407.1,166.1,407.1,168.4z M408,178.6c0.1,0.1,0.1,0.2,0,0.3l-1.5,1.4c-0.1,0.1-0.2,0.1-0.3,0l-1.4-1.4l-1.4,1.4
		c-0.1,0.1-0.2,0.1-0.3,0l-1.5-1.4c-0.1-0.1-0.1-0.3,0-0.4l1.4-1.4c0.1-0.1,0.3-0.1,0.4,0l1.4,1.3l1.3-1.3c0.1-0.1,0.3-0.1,0.4,0
		L408,178.6z"/>
	<path class="st0" d="M415.9,174.9h-1.3c-3.1,0-4.6-1.6-4.6-4.9c0-1.4,0-3.2-0.1-5.4c-0.1-2.4-0.2-3.9-0.3-4.7
		c-0.1-0.4,0-0.6,0.2-0.8l3.6-2.5c0.3-0.2,0.4-0.3,0.5-0.3c0.1,0,0.2,0.1,0.2,0.3v10.9c0,1.2,0.5,1.8,1.6,1.8h0.4L415.9,174.9
		L415.9,174.9z"/>
	<path class="st0" d="M427.3,174.9h-0.7c-0.4,0-0.9-0.2-1.3-0.7c-0.4-0.4-0.7-0.8-0.8-1.3c-0.6,1.3-1.6,2-2.9,2
		c-1.4,0-2.5-0.6-3.3-1.9c-0.6,1.3-1.3,1.9-2.3,1.9h-0.8v-5.6h0.4c1,0,1.6-0.3,1.6-1c0-0.9,0.3-1.6,0.7-2.3c0.7-1,1.6-1.5,2.9-1.5
		c1.1,0,2,0.4,2.6,1.2c0.2,0.2,0.6,0.9,1.3,2.3c0.4,0.8,0.9,1.2,1.5,1.2h1L427.3,174.9L427.3,174.9z M423.3,170
		c0-0.5-0.1-1.1-0.4-1.7c-0.4-0.7-0.8-1.1-1.2-1.1c-0.3,0-0.5,0.1-0.6,0.3c-0.2,0.2-0.3,0.4-0.3,0.7c0,0.6,0.1,1.2,0.4,1.8
		c0.4,0.8,0.8,1.1,1.4,1.1C423.1,171.1,423.3,170.8,423.3,170z"/>
	<path class="st0" d="M432.7,168.4c0,2.3-0.3,3.9-1,4.9c-0.8,1.1-2.2,1.6-4.2,1.6h-1v-5.6h2.8c0.5,0,0.7-0.1,0.7-0.4
		c0-0.1-0.1-0.3-0.2-0.5c-0.5-0.7-1.2-1.4-2-2.1c-0.1-0.1-0.1-0.3,0-0.4l2.3-3.4c0.1-0.2,0.2-0.3,0.3-0.3c0.1,0,0.2,0.1,0.3,0.3
		C432.1,164.1,432.7,166.1,432.7,168.4z M431.3,158.3c0.1,0.1,0.1,0.2,0,0.4l-1.7,1.6c-0.1,0.1-0.2,0.1-0.4,0l-1.7-1.6
		c-0.1-0.1-0.1-0.3,0-0.4l1.5-1.6c0.1-0.1,0.3-0.1,0.4,0L431.3,158.3z"/>
	<path class="st0" d="M455.4,174.9h-0.7c-0.4,0-0.8-0.2-1-0.6c0,4.5-2.5,6.8-7.5,6.8c-2,0-3.7-0.4-4.9-1.2c-1.4-0.9-2.1-2.4-2.1-4.3
		c0-1,0.2-2.1,0.6-3.4c0.5-1.5,1-2.3,1.5-2.3c0.4,0,0.6,0.1,0.7,0.5c0,0.2,0.1,0.4,0.1,0.9c0,0.2,0,0.6-0.1,1s-0.1,0.8-0.1,1
		c0,1.6,1.6,2.4,4.9,2.4c1,0,1.9-0.1,2.8-0.3c1.3-0.3,1.9-0.9,1.9-1.6c0-0.6-0.8-1.6-2.5-2.9l1.9-3.8c0.1-0.1,0.1-0.2,0.2-0.2
		s0.1,0.1,0.3,0.2c1.3,1.4,2.3,2,3,2h1L455.4,174.9L455.4,174.9z M447.6,165.4c0.1,0.1,0.1,0.2,0,0.3l-1.6,1.7
		c-0.1,0.1-0.2,0.1-0.4,0l-1.7-1.6c-0.1-0.1-0.1-0.3,0-0.4l1.6-1.6c0.1-0.1,0.3-0.1,0.4,0L447.6,165.4z"/>
	<path class="st0" d="M471,174.9h-16.3v-5.6H471V174.9z"/>
	<path class="st0" d="M478,174.9h-1c-1.2,0-2.1-0.6-2.8-1.7c-0.6,1.1-1.6,1.7-2.9,1.7h-1.2v-5.6h0.8c0.9,0,1.5-0.3,1.8-0.8
		c0.1-0.1,0.3-0.6,0.5-1.4c0.2-0.5,0.4-0.8,0.9-0.8c0.4,0,0.6,0.3,0.8,0.8c0.2,0.8,0.3,1.3,0.4,1.4c0.3,0.5,0.9,0.8,1.8,0.8h1
		L478,174.9L478,174.9z M477.2,178.6c0.1,0.1,0.1,0.2,0,0.3l-1.5,1.4c-0.1,0.1-0.2,0.1-0.3,0L474,179l-1.4,1.4
		c-0.1,0.1-0.2,0.1-0.3,0l-1.5-1.4c-0.1-0.1-0.1-0.3,0-0.4l1.4-1.4c0.1-0.1,0.3-0.1,0.4,0l1.4,1.3l1.3-1.3c0.1-0.1,0.3-0.1,0.4,0
		L477.2,178.6z"/>
	<path class="st0" d="M489.4,174.9h-0.7c-0.4,0-0.9-0.2-1.3-0.7c-0.4-0.4-0.7-0.8-0.8-1.3c-0.6,1.3-1.6,2-2.9,2
		c-1.4,0-2.5-0.6-3.3-1.9c-0.6,1.3-1.3,1.9-2.3,1.9h-0.8v-5.6h0.4c1,0,1.6-0.3,1.6-1c0-0.9,0.3-1.6,0.7-2.3c0.7-1,1.6-1.5,2.9-1.5
		c1.1,0,2,0.4,2.6,1.2c0.2,0.2,0.6,0.9,1.3,2.3c0.4,0.8,0.9,1.2,1.5,1.2h1L489.4,174.9L489.4,174.9z M485.4,170
		c0-0.5-0.1-1.1-0.4-1.7c-0.4-0.7-0.8-1.1-1.2-1.1c-0.3,0-0.5,0.1-0.6,0.3c-0.2,0.2-0.3,0.4-0.3,0.7c0,0.6,0.1,1.2,0.4,1.8
		c0.4,0.8,0.8,1.1,1.4,1.1C485.1,171.1,485.4,170.8,485.4,170z"/>
	<path class="st0" d="M500.8,170.3c0,0.8-0.3,1.8-0.8,2.8c-0.7,1.3-1.5,1.9-2.5,1.9c-0.7,0-1.8-0.5-3.4-1.6
		c-1.2,1.1-2.3,1.6-3.3,1.6h-2.2v-5.6h1.5c-0.2-0.3-0.3-0.7-0.3-1.1c0-1.1,0.4-1.8,1.2-2.2l-0.7-0.5l1.7-3.8
		c0.2-0.4,0.4-0.6,0.6-0.6c0.1,0,0.4,0.1,0.7,0.3c2.2,1.3,3.9,2.4,5,3.5C500,166.7,500.8,168.4,500.8,170.3z M494.8,168.3
		c0-0.3-0.1-0.6-0.4-0.8c-0.3-0.2-0.6-0.3-0.9-0.3c-0.3,0-0.6,0.1-1,0.3c-0.4,0.2-0.6,0.5-0.6,0.7c0,0.2,0.2,0.5,0.6,0.7
		c0.4,0.2,0.7,0.4,1,0.4c0.3,0,0.5-0.1,0.8-0.3S494.8,168.6,494.8,168.3z M498.4,170.8c0-0.6-0.6-1.3-1.8-2.1c0,0.1,0,0.2,0,0.3
		c0,0.8-0.3,1.4-0.8,1.7c0.2,0.2,0.5,0.4,1,0.6c0.5,0.3,0.8,0.4,1,0.4C498.2,171.6,498.4,171.4,498.4,170.8z"/>
	<path class="st0" d="M512.8,168.8c0,4-1.9,6.1-5.6,6.1c-3.2,0-4.8-1.4-4.8-4.2c0-1.1,0.2-2.1,0.6-3.1c0.2-0.4,0.4-0.6,0.7-0.6
		c0.3,0,0.5,0.2,0.7,0.7c0.2,0.8,0.5,1.3,0.9,1.4c0.4,0.2,1.3,0.3,2.6,0.3c1.6,0,2.4-0.2,2.4-0.6c0-0.2-0.1-0.4-0.4-0.6
		c-0.9-0.9-2.4-2-4.6-3.1l1.9-4.1c0.1-0.2,0.2-0.4,0.3-0.4c0.1,0,0.2,0,0.3,0.1c0.9,0.4,1.8,1.2,2.7,2.3
		C512,164.8,512.8,166.7,512.8,168.8z"/>
	<path class="st0" d="M523.8,173.9c0,3.1-0.8,5.5-2.4,7.2c-0.2,0.2-0.4,0.3-0.8,0.3h-5.8c-0.7,0-1-0.3-1-0.8c0-0.3,0.1-0.5,0.4-0.7
		c1.1-0.5,2.4-1.3,4-2.4c2.1-1.4,3.1-2.4,3.1-3c0-0.5-0.9-1.6-2.8-3.3l2-4.1c0.1-0.2,0.3-0.3,0.5-0.1c1,0.9,1.7,1.8,2.1,2.8
		C523.6,170.7,523.8,172.1,523.8,173.9z M521.6,162.3c0.1,0.1,0.1,0.2,0,0.3l-1.7,1.7c-0.1,0.1-0.2,0.1-0.3,0l-1.7-1.6
		c-0.1-0.1-0.1-0.3,0-0.4l1.5-1.6c0.1-0.1,0.3-0.1,0.4,0L521.6,162.3z"/>
	<path class="st0" d="M531.8,174.9h-1.3c-3.1,0-4.6-1.6-4.6-4.9c0-1.4,0-3.2-0.2-5.4c-0.1-2.4-0.2-3.9-0.3-4.7
		c-0.1-0.4,0-0.6,0.2-0.8l3.6-2.5c0.3-0.2,0.4-0.3,0.5-0.3c0.1,0,0.2,0.1,0.2,0.3v10.9c0,1.2,0.5,1.8,1.6,1.8h0.4L531.8,174.9
		L531.8,174.9z"/>
	<path class="st0" d="M537.3,168.4c0,2.3-0.3,3.9-1,4.9c-0.8,1.1-2.2,1.6-4.2,1.6h-1v-5.6h2.8c0.5,0,0.7-0.1,0.7-0.4
		c0-0.1-0.1-0.3-0.2-0.5c-0.5-0.7-1.2-1.4-2-2.1c-0.1-0.1-0.1-0.3,0-0.4l2.3-3.4c0.1-0.2,0.2-0.3,0.3-0.3c0.1,0,0.2,0.1,0.3,0.3
		C536.6,164.1,537.3,166.1,537.3,168.4z M538.2,178.6c0.1,0.1,0.1,0.2,0,0.3l-1.5,1.4c-0.1,0.1-0.2,0.1-0.3,0L535,179l-1.4,1.4
		c-0.1,0.1-0.2,0.1-0.3,0l-1.5-1.4c-0.1-0.1-0.1-0.3,0-0.4l1.4-1.4c0.1-0.1,0.3-0.1,0.4,0l1.4,1.3l1.3-1.3c0.1-0.1,0.3-0.1,0.4,0
		L538.2,178.6z"/>
</g>
<g>
	<path class="st0" d="M32.4,215.9v-12.8h-3.7v-2.6h10v2.6h-3.7v12.8H32.4z"/>
	<path class="st0" d="M42.7,200.6v5.6c0.4-0.6,0.8-1,1.3-1.3s1-0.4,1.5-0.4c0.7,0,1.3,0.2,1.8,0.6c0.5,0.4,0.8,0.9,1,1.6
		c0.2,0.5,0.2,1.4,0.2,2.6v6.5h-2.4V210c0-1.4-0.1-2.2-0.3-2.6c-0.2-0.5-0.7-0.7-1.2-0.7c-0.6,0-1.1,0.3-1.5,0.8
		c-0.3,0.5-0.5,1.4-0.5,2.8v5.6h-2.4v-15.3L42.7,200.6L42.7,200.6z"/>
	<path class="st0" d="M56.3,212.4l2.4,0.5c-0.3,1.1-0.8,1.9-1.5,2.5c-0.7,0.5-1.5,0.8-2.5,0.8c-1.3,0-2.4-0.4-3.1-1.4
		c-0.9-1.1-1.3-2.5-1.3-4.4c0-1.9,0.4-3.4,1.3-4.5c0.7-0.9,1.7-1.4,2.9-1.4c1.3,0,2.3,0.5,3.1,1.4c0.8,1.1,1.3,2.7,1.3,4.9l0,0.3h-6
		c0,0.9,0.2,1.6,0.6,2.1s0.8,0.7,1.4,0.7C55.6,214,56.1,213.4,56.3,212.4z M56.5,209.4c0-0.9-0.2-1.5-0.5-2
		c-0.3-0.4-0.8-0.7-1.3-0.7c-0.5,0-0.9,0.2-1.3,0.7c-0.4,0.5-0.5,1.1-0.5,1.9L56.5,209.4L56.5,209.4z"/>
	<path class="st0" d="M71.4,215.9h-2.4v-11.1c-0.9,1-1.9,1.8-3.1,2.2v-2.7c0.7-0.3,1.4-0.8,2.1-1.5c0.7-0.7,1.2-1.5,1.5-2.4h1.9
		C71.4,200.5,71.4,215.9,71.4,215.9z"/>
	<path class="st0" d="M80.2,215.9h-2.4v-11.1c-0.9,1-1.9,1.8-3.1,2.2v-2.7c0.7-0.3,1.4-0.8,2.1-1.5c0.7-0.7,1.2-1.5,1.5-2.4h1.9
		C80.2,200.5,80.2,215.9,80.2,215.9z"/>
	<path class="st0" d="M86.2,202.3v1.4h-1v2.6c0,0.6,0,0.9,0,1c0.1,0.2,0.2,0.3,0.3,0.3c0.1,0,0.3-0.1,0.6-0.2l0.1,1.3
		c-0.3,0.2-0.7,0.3-1.1,0.3c-0.4,0-0.7-0.1-0.9-0.3c-0.2-0.2-0.4-0.4-0.4-0.7c-0.1-0.2-0.1-0.7-0.1-1.4v-2.8h-0.7v-1.4h0.7V201
		l1.4-1v2.3H86.2z"/>
	<path class="st0" d="M88.6,199.8v3.3c0.2-0.3,0.5-0.6,0.7-0.7c0.3-0.2,0.6-0.2,0.9-0.2c0.4,0,0.8,0.1,1.1,0.3
		c0.3,0.2,0.5,0.5,0.6,0.9c0.1,0.3,0.1,0.8,0.1,1.5v3.8h-1.4v-3.4c0-0.8-0.1-1.3-0.2-1.5c-0.1-0.3-0.4-0.4-0.7-0.4
		c-0.4,0-0.6,0.1-0.8,0.4c-0.2,0.3-0.3,0.8-0.3,1.6v3.3h-1.4v-8.9H88.6z"/>
	<path class="st0" d="M96.8,215.9v-15.3h5.3c1.4,0,2.3,0.1,2.9,0.4c0.6,0.3,1.1,0.8,1.4,1.4c0.4,0.7,0.6,1.5,0.6,2.4
		c0,1.2-0.3,2.2-0.9,2.9s-1.4,1.2-2.4,1.4c0.5,0.4,1,0.8,1.3,1.3c0.4,0.5,0.8,1.3,1.4,2.5l1.5,3h-3l-1.8-3.3c-0.7-1.2-1.1-2-1.3-2.3
		c-0.2-0.3-0.5-0.5-0.8-0.6c-0.3-0.1-0.7-0.2-1.3-0.2h-0.5v6.4L96.8,215.9L96.8,215.9z M99.4,207.1h1.9c1.2,0,1.9-0.1,2.2-0.1
		c0.3-0.1,0.6-0.3,0.8-0.6s0.3-0.7,0.3-1.2c0-0.5-0.1-0.9-0.3-1.2c-0.2-0.3-0.5-0.5-0.8-0.6c-0.2-0.1-0.9-0.1-2.1-0.1h-2L99.4,207.1
		L99.4,207.1z"/>
	<path class="st0" d="M111.3,208.2l-2.2-0.5c0.3-1.1,0.7-1.9,1.3-2.4s1.5-0.7,2.6-0.7c1,0,1.8,0.1,2.3,0.4c0.5,0.3,0.9,0.7,1.2,1.2
		s0.3,1.4,0.3,2.7l0,3.4c0,1,0,1.7,0.1,2.1s0.2,1,0.4,1.5H115l-0.3-1.2c-0.4,0.5-0.8,0.9-1.3,1.1c-0.5,0.3-1,0.4-1.5,0.4
		c-0.9,0-1.6-0.3-2.2-0.9c-0.6-0.6-0.8-1.4-0.8-2.4c0-0.6,0.1-1.2,0.3-1.6c0.2-0.5,0.6-0.8,1-1.1s1.1-0.5,2-0.7
		c1.1-0.3,1.9-0.5,2.3-0.7c0-0.6,0-1-0.1-1.2c-0.1-0.2-0.3-0.4-0.5-0.5s-0.6-0.2-1-0.2s-0.8,0.1-1,0.3S111.4,207.6,111.3,208.2z
		 M114.5,210.6c-0.3,0.1-0.8,0.3-1.4,0.4c-0.8,0.2-1.2,0.4-1.5,0.6c-0.2,0.2-0.3,0.6-0.3,0.9c0,0.4,0.1,0.8,0.4,1.1
		c0.3,0.3,0.6,0.4,1,0.4c0.3,0,0.7-0.1,1-0.4s0.6-0.5,0.7-0.8s0.2-0.9,0.2-1.8C114.5,211.2,114.5,210.6,114.5,210.6z"/>
	<path class="st0" d="M119.2,215.9v-15.3h2.4v5.5c0.4-0.5,0.8-0.9,1.2-1.2s0.9-0.4,1.4-0.4c1.1,0,2,0.5,2.7,1.5s1.1,2.4,1.1,4.3
		c0,1.9-0.4,3.3-1.1,4.4s-1.7,1.5-2.7,1.5c-0.5,0-1-0.2-1.6-0.5s-0.9-0.8-1.3-1.4v1.6L119.2,215.9L119.2,215.9z M121.6,210.1
		c0,1,0.1,1.7,0.3,2.2s0.4,0.9,0.8,1.1s0.7,0.4,1.1,0.4c0.5,0,1-0.3,1.4-0.8c0.4-0.6,0.6-1.4,0.6-2.6c0-1.3-0.2-2.2-0.6-2.7
		s-0.9-0.8-1.4-0.8c-0.6,0-1,0.3-1.4,0.8C121.8,208.1,121.6,209,121.6,210.1z"/>
	<path class="st0" d="M129.9,200.6h2.4v2.1c0,1.2-0.1,2.1-0.4,2.6c-0.3,0.7-0.9,1.2-1.7,1.6l-0.5-1.2c0.5-0.2,0.8-0.5,1-0.8
		s0.3-0.8,0.3-1.4h-1.2V200.6z"/>
	<path class="st0" d="M140.2,212.4l2.4,0.5c-0.3,1.1-0.8,1.9-1.5,2.5c-0.7,0.5-1.5,0.8-2.5,0.8c-1.4,0-2.4-0.4-3.1-1.4
		c-0.9-1.1-1.3-2.5-1.3-4.4c0-1.9,0.4-3.4,1.3-4.5c0.7-0.9,1.7-1.4,2.9-1.4c1.3,0,2.3,0.5,3.1,1.4c0.9,1.1,1.3,2.7,1.3,4.9l0,0.3h-6
		c0,0.9,0.2,1.6,0.6,2.1c0.4,0.5,0.8,0.7,1.4,0.7C139.4,214,139.9,213.4,140.2,212.4z M140.3,209.4c0-0.9-0.2-1.5-0.6-2
		c-0.4-0.4-0.8-0.7-1.3-0.7c-0.5,0-0.9,0.2-1.3,0.7c-0.4,0.5-0.5,1.1-0.5,1.9L140.3,209.4L140.3,209.4z"/>
	<path class="st0" d="M149.6,215.9v-15.3h5.4c1.4,0,2.3,0.1,2.9,0.4c0.6,0.3,1.1,0.8,1.4,1.4c0.4,0.7,0.6,1.5,0.6,2.4
		c0,1.2-0.3,2.2-0.9,2.9s-1.4,1.2-2.4,1.4c0.5,0.4,1,0.8,1.4,1.3c0.4,0.5,0.8,1.3,1.4,2.5l1.5,3h-3l-1.8-3.3c-0.7-1.2-1.1-2-1.4-2.3
		c-0.2-0.3-0.5-0.5-0.8-0.6c-0.3-0.1-0.7-0.2-1.3-0.2h-0.5v6.4L149.6,215.9L149.6,215.9z M152.1,207.1h1.9c1.1,0,1.9-0.1,2.2-0.1
		c0.3-0.1,0.6-0.3,0.8-0.6s0.3-0.7,0.3-1.2c0-0.5-0.1-0.9-0.3-1.2c-0.2-0.3-0.5-0.5-0.8-0.6c-0.2-0.1-0.9-0.1-2.1-0.1h-2
		L152.1,207.1L152.1,207.1z"/>
	<path class="st0" d="M164,208.2l-2.2-0.5c0.3-1.1,0.7-1.9,1.3-2.4s1.5-0.7,2.6-0.7c1,0,1.8,0.1,2.3,0.4c0.5,0.3,0.9,0.7,1.1,1.2
		s0.4,1.4,0.4,2.7l0,3.4c0,1,0,1.7,0.1,2.1s0.2,1,0.4,1.5h-2.4l-0.3-1.2c-0.4,0.5-0.9,0.9-1.3,1.1c-0.5,0.3-1,0.4-1.5,0.4
		c-0.9,0-1.6-0.3-2.2-0.9c-0.6-0.6-0.9-1.4-0.9-2.4c0-0.6,0.1-1.2,0.4-1.6c0.2-0.5,0.6-0.8,1-1.1s1.1-0.5,2-0.7
		c1.1-0.3,1.9-0.5,2.3-0.7c0-0.6,0-1-0.1-1.2c-0.1-0.2-0.3-0.4-0.5-0.5s-0.6-0.2-1-0.2c-0.4,0-0.8,0.1-1,0.3S164.2,207.6,164,208.2z
		 M167.3,210.6c-0.3,0.1-0.8,0.3-1.4,0.4c-0.8,0.2-1.2,0.4-1.5,0.6c-0.2,0.2-0.4,0.6-0.4,0.9c0,0.4,0.1,0.8,0.4,1.1
		c0.3,0.3,0.6,0.4,1,0.4c0.3,0,0.7-0.1,1-0.4s0.6-0.5,0.7-0.8c0.1-0.3,0.2-0.9,0.2-1.8L167.3,210.6L167.3,210.6z"/>
	<path class="st0" d="M171.2,212.7l2.4-0.4c0.2,1.2,0.9,1.8,1.9,1.8c0.6,0,1-0.1,1.3-0.3c0.3-0.2,0.4-0.5,0.4-0.9
		c0-0.3-0.1-0.4-0.2-0.6s-0.4-0.3-0.8-0.4c-2-0.5-3.2-1-3.8-1.5c-0.7-0.6-1-1.4-1-2.4s0.3-1.9,1-2.5c0.7-0.6,1.6-0.9,2.9-0.9
		c1.2,0,2.1,0.2,2.7,0.7s1.1,1.2,1.3,2.3l-2.3,0.5c-0.2-0.9-0.8-1.3-1.7-1.3c-0.6,0-1,0.1-1.3,0.3s-0.4,0.4-0.4,0.7
		c0,0.3,0.1,0.4,0.4,0.6c0.2,0.2,0.9,0.4,2.1,0.8c1.4,0.4,2.3,0.8,2.7,1.4c0.5,0.5,0.7,1.3,0.7,2.1c0,1.1-0.4,2-1.1,2.7
		c-0.7,0.7-1.8,1.1-3.1,1.1c-1.2,0-2.1-0.3-2.9-0.9C171.9,214.7,171.4,213.9,171.2,212.7z"/>
	<path class="st0" d="M184.2,200.6v5.6c0.4-0.6,0.8-1,1.3-1.3s1-0.4,1.5-0.4c0.7,0,1.3,0.2,1.8,0.6c0.5,0.4,0.8,0.9,1.1,1.6
		c0.1,0.5,0.2,1.4,0.2,2.6v6.5h-2.4V210c0-1.4-0.1-2.2-0.3-2.6c-0.2-0.5-0.7-0.7-1.2-0.7c-0.6,0-1.1,0.3-1.4,0.8
		c-0.3,0.5-0.5,1.4-0.5,2.8v5.6h-2.4v-15.3L184.2,200.6L184.2,200.6z"/>
	<path class="st0" d="M192.5,203.3v-2.7h2.4v2.7H192.5z M192.5,215.9v-11.1h2.4v11.1H192.5z"/>
	<path class="st0" d="M205.8,215.9h-2.2v-1.6c-0.4,0.6-0.8,1.1-1.3,1.4c-0.5,0.3-1,0.5-1.6,0.5c-1,0-1.9-0.5-2.7-1.5
		s-1.1-2.5-1.1-4.4c0-1.9,0.4-3.3,1.1-4.3s1.6-1.4,2.7-1.4c0.5,0,1,0.1,1.4,0.4c0.4,0.3,0.9,0.6,1.2,1.2v-5.5h2.4L205.8,215.9
		L205.8,215.9z M199.3,210.1c0,1,0.1,1.8,0.3,2.3c0.2,0.5,0.4,0.9,0.7,1.1c0.3,0.3,0.7,0.4,1.1,0.4c0.5,0,1-0.3,1.4-0.9
		s0.6-1.4,0.6-2.6c0-1.3-0.2-2.2-0.6-2.8s-0.9-0.8-1.4-0.8c-0.6,0-1,0.3-1.4,0.8S199.3,209,199.3,210.1z"/>
	<path class="st0" d="M208.1,203.3v-2.7h2.4v2.7H208.1z M208.1,215.9v-11.1h2.4v11.1H208.1z"/>
	<path class="st0" d="M217.9,215.9v-15.3h2.5v15.3H217.9z"/>
	<path class="st0" d="M231.1,215.9h-2.4v-5.7c0-1.1-0.1-1.9-0.1-2.3s-0.3-0.7-0.5-0.9s-0.5-0.3-0.8-0.3c-0.4,0-0.8,0.1-1.1,0.4
		s-0.6,0.6-0.7,1.1s-0.2,1.3-0.2,2.6v5h-2.4v-11.1h2.2v1.6c0.4-0.6,0.9-1.1,1.3-1.4c0.5-0.3,1.1-0.5,1.7-0.5c0.7,0,1.3,0.2,1.8,0.6
		c0.5,0.4,0.8,0.8,1,1.4c0.2,0.6,0.3,1.4,0.3,2.5L231.1,215.9L231.1,215.9z"/>
	<path class="st0" d="M241.8,215.9h-2.4v-5.7c0-1.1-0.1-1.9-0.1-2.3s-0.3-0.7-0.5-0.9s-0.5-0.3-0.8-0.3c-0.4,0-0.8,0.1-1.1,0.4
		s-0.6,0.6-0.7,1.1s-0.2,1.3-0.2,2.6v5h-2.4v-11.1h2.2v1.6c0.4-0.6,0.9-1.1,1.3-1.4c0.5-0.3,1.1-0.5,1.7-0.5c0.7,0,1.3,0.2,1.8,0.6
		c0.5,0.4,0.8,0.8,1,1.4c0.2,0.6,0.3,1.4,0.3,2.5L241.8,215.9L241.8,215.9z"/>
	<path class="st0" d="M243.7,210.2c0-1.1,0.2-2.1,0.6-3s1-1.6,1.7-2c0.7-0.4,1.5-0.7,2.4-0.7c1.5,0,2.6,0.6,3.4,1.7
		c0.8,1.1,1.3,2.5,1.3,4c0,1.1-0.2,2.2-0.6,3.1s-1,1.6-1.7,2.1s-1.5,0.7-2.3,0.7c-1.4,0-2.5-0.5-3.4-1.6S243.7,212.1,243.7,210.2z
		 M246.2,210.3c0,1.1,0.2,2,0.7,2.6s1,0.9,1.6,0.9c0.6,0,1.1-0.3,1.6-0.9s0.6-1.4,0.6-2.6c0-1.1-0.2-1.9-0.7-2.5s-1-0.9-1.6-0.9
		s-1.1,0.3-1.6,0.9C246.4,208.4,246.2,209.2,246.2,210.3z"/>
	<path class="st0" d="M257.5,215.9l-3.7-11.1h2.5l1.7,5.7l0.5,1.9l0.5-1.9l1.8-5.7h2.5l-3.6,11.1H257.5z"/>
	<path class="st0" d="M266.6,208.2l-2.2-0.5c0.3-1.1,0.7-1.9,1.3-2.4s1.5-0.7,2.6-0.7c1,0,1.8,0.1,2.3,0.4c0.5,0.3,0.9,0.7,1.1,1.2
		c0.2,0.5,0.4,1.4,0.4,2.7l0,3.4c0,1,0,1.7,0.1,2.1s0.2,1,0.4,1.5h-2.4l-0.3-1.2c-0.4,0.5-0.9,0.9-1.3,1.1c-0.5,0.3-1,0.4-1.5,0.4
		c-0.9,0-1.6-0.3-2.2-0.9c-0.6-0.6-0.9-1.4-0.9-2.4c0-0.6,0.1-1.2,0.4-1.6s0.5-0.8,1-1.1s1.1-0.5,2-0.7c1.1-0.3,1.9-0.5,2.3-0.7
		c0-0.6,0-1-0.1-1.2c-0.1-0.2-0.3-0.4-0.5-0.5s-0.6-0.2-1-0.2s-0.8,0.1-1,0.3S266.8,207.6,266.6,208.2z M269.8,210.6
		c-0.3,0.1-0.8,0.3-1.4,0.4c-0.8,0.2-1.2,0.4-1.5,0.6c-0.2,0.2-0.4,0.6-0.4,0.9c0,0.4,0.1,0.8,0.4,1.1c0.3,0.3,0.6,0.4,1,0.4
		c0.3,0,0.7-0.1,1-0.4s0.6-0.5,0.7-0.8s0.2-0.9,0.2-1.8V210.6z"/>
	<path class="st0" d="M278.7,204.8v2.3h-1.6v4.5c0,1,0,1.5,0.1,1.7c0.1,0.3,0.3,0.4,0.6,0.4c0.2,0,0.5-0.1,1-0.3l0.2,2.3
		c-0.6,0.3-1.2,0.4-1.9,0.4c-0.6,0-1.1-0.1-1.5-0.4c-0.4-0.3-0.6-0.7-0.7-1.3c-0.1-0.4-0.1-1.2-0.1-2.5v-4.9h-1.1v-2.3h1.1v-2.2
		l2.4-1.7v3.9L278.7,204.8L278.7,204.8z"/>
	<path class="st0" d="M280.4,203.3v-2.7h2.4v2.7H280.4z M280.4,215.9v-11.1h2.4v11.1H280.4z"/>
	<path class="st0" d="M284.8,210.2c0-1.1,0.2-2.1,0.6-3s1-1.6,1.7-2s1.5-0.7,2.4-0.7c1.5,0,2.6,0.6,3.5,1.7c0.8,1.1,1.3,2.5,1.3,4
		c0,1.1-0.2,2.2-0.6,3.1c-0.4,0.9-1,1.6-1.7,2.1s-1.5,0.7-2.3,0.7c-1.4,0-2.5-0.5-3.4-1.6C285.2,213.6,284.8,212.1,284.8,210.2z
		 M287.2,210.3c0,1.1,0.2,2,0.7,2.6s1,0.9,1.6,0.9c0.6,0,1.1-0.3,1.6-0.9s0.6-1.4,0.6-2.6c0-1.1-0.2-1.9-0.7-2.5s-1-0.9-1.6-0.9
		s-1.1,0.3-1.6,0.9S287.2,209.2,287.2,210.3z"/>
	<path class="st0" d="M304.3,215.9h-2.4v-5.7c0-1.1,0-1.9-0.1-2.3s-0.3-0.7-0.5-0.9s-0.5-0.3-0.8-0.3c-0.4,0-0.8,0.1-1.1,0.4
		s-0.6,0.6-0.7,1.1s-0.2,1.3-0.2,2.6v5H296v-11.1h2.2v1.6c0.4-0.6,0.9-1.1,1.3-1.4c0.5-0.3,1-0.5,1.7-0.5c0.7,0,1.3,0.2,1.8,0.6
		c0.5,0.4,0.8,0.8,1,1.4c0.2,0.6,0.3,1.4,0.3,2.5L304.3,215.9L304.3,215.9z"/>
	<path class="st0" d="M313.5,208.2l-2.2-0.5c0.3-1.1,0.7-1.9,1.3-2.4s1.5-0.7,2.6-0.7c1,0,1.8,0.1,2.3,0.4c0.5,0.3,0.9,0.7,1.1,1.2
		c0.2,0.5,0.4,1.4,0.4,2.7l0,3.4c0,1,0,1.7,0.1,2.1c0.1,0.5,0.2,1,0.4,1.5h-2.4l-0.3-1.2c-0.4,0.5-0.9,0.9-1.3,1.1
		c-0.5,0.3-1,0.4-1.5,0.4c-0.9,0-1.6-0.3-2.2-0.9c-0.6-0.6-0.9-1.4-0.9-2.4c0-0.6,0.1-1.2,0.3-1.6c0.2-0.5,0.5-0.8,1-1.1
		s1.1-0.5,2-0.7c1.1-0.3,1.9-0.5,2.3-0.7c0-0.6,0-1-0.1-1.2c-0.1-0.2-0.3-0.4-0.5-0.5s-0.6-0.2-1-0.2s-0.8,0.1-1,0.3
		C313.8,207.3,313.6,207.6,313.5,208.2z M316.7,210.6c-0.3,0.1-0.8,0.3-1.4,0.4c-0.8,0.2-1.2,0.4-1.5,0.6c-0.2,0.2-0.4,0.6-0.4,0.9
		c0,0.4,0.1,0.8,0.4,1.1s0.6,0.4,1,0.4c0.3,0,0.7-0.1,1-0.4s0.6-0.5,0.7-0.8s0.2-0.9,0.2-1.8L316.7,210.6L316.7,210.6z"/>
	<path class="st0" d="M329.7,215.9h-2.4v-5.7c0-1.1,0-1.9-0.1-2.3s-0.3-0.7-0.5-0.9s-0.5-0.3-0.8-0.3c-0.4,0-0.8,0.1-1.1,0.4
		s-0.6,0.6-0.7,1.1s-0.2,1.3-0.2,2.6v5h-2.4v-11.1h2.2v1.6c0.4-0.6,0.9-1.1,1.3-1.4c0.5-0.3,1-0.5,1.7-0.5c0.7,0,1.3,0.2,1.8,0.6
		c0.5,0.4,0.8,0.8,1,1.4c0.2,0.6,0.3,1.4,0.3,2.5L329.7,215.9L329.7,215.9z"/>
	<path class="st0" d="M340.5,215.9h-2.2v-1.6c-0.4,0.6-0.8,1.1-1.3,1.4s-1,0.5-1.5,0.5c-1,0-1.9-0.5-2.7-1.5s-1.1-2.5-1.1-4.4
		c0-1.9,0.4-3.3,1.1-4.3s1.6-1.4,2.7-1.4c0.5,0,1,0.1,1.4,0.4s0.9,0.6,1.2,1.2v-5.5h2.4L340.5,215.9L340.5,215.9z M334.1,210.1
		c0,1,0.1,1.8,0.3,2.3s0.4,0.9,0.7,1.1s0.7,0.4,1.1,0.4c0.5,0,1-0.3,1.4-0.9s0.6-1.4,0.6-2.6c0-1.3-0.2-2.2-0.6-2.8
		c-0.4-0.6-0.9-0.8-1.5-0.8c-0.6,0-1,0.3-1.4,0.8S334.1,209,334.1,210.1z"/>
	<path class="st0" d="M350.7,215.9v-12.8h-3.7v-2.6h10v2.6h-3.7v12.8H350.7z"/>
	<path class="st0" d="M362.5,212.4l2.4,0.5c-0.3,1.1-0.8,1.9-1.5,2.5c-0.7,0.5-1.5,0.8-2.5,0.8c-1.4,0-2.4-0.4-3.1-1.4
		c-0.9-1.1-1.3-2.5-1.3-4.4c0-1.9,0.4-3.4,1.3-4.5c0.7-0.9,1.7-1.4,2.9-1.4c1.3,0,2.3,0.5,3.1,1.4c0.9,1.1,1.3,2.7,1.3,4.9l0,0.3h-6
		c0,0.9,0.2,1.6,0.6,2.1s0.8,0.7,1.4,0.7C361.8,214,362.3,213.4,362.5,212.4z M362.7,209.4c0-0.9-0.2-1.5-0.5-2s-0.8-0.7-1.3-0.7
		c-0.5,0-0.9,0.2-1.3,0.7c-0.4,0.5-0.5,1.1-0.5,1.9L362.7,209.4L362.7,209.4z"/>
	<path class="st0" d="M375,208.1l-2.4,0.5c-0.2-1.2-0.7-1.8-1.6-1.8c-0.6,0-1.1,0.3-1.4,0.8s-0.5,1.4-0.5,2.6c0,1.3,0.2,2.3,0.5,2.8
		c0.4,0.5,0.9,0.8,1.5,0.8c0.5,0,0.8-0.2,1.1-0.5s0.5-0.9,0.6-1.6l2.4,0.5c-0.5,2.7-1.9,4-4.2,4c-1.5,0-2.6-0.6-3.3-1.7
		s-1.1-2.5-1.1-4.1c0-1.9,0.4-3.4,1.2-4.4s1.9-1.5,3.2-1.5c1.1,0,1.9,0.3,2.6,0.9C374.2,205.9,374.7,206.8,375,208.1z"/>
	<path class="st0" d="M379.2,200.6v5.6c0.4-0.6,0.8-1,1.3-1.3s1-0.4,1.5-0.4c0.7,0,1.3,0.2,1.8,0.6c0.5,0.4,0.8,0.9,1,1.6
		c0.1,0.5,0.2,1.4,0.2,2.6v6.5h-2.4V210c0-1.4-0.1-2.2-0.3-2.6c-0.2-0.5-0.7-0.7-1.2-0.7c-0.6,0-1.1,0.3-1.5,0.8
		c-0.3,0.5-0.5,1.4-0.5,2.8v5.6h-2.4v-15.3L379.2,200.6L379.2,200.6z"/>
	<path class="st0" d="M395.8,215.9h-2.4v-5.7c0-1.1,0-1.9-0.1-2.3s-0.3-0.7-0.5-0.9s-0.5-0.3-0.8-0.3c-0.4,0-0.8,0.1-1.1,0.4
		c-0.3,0.3-0.6,0.6-0.7,1.1s-0.2,1.3-0.2,2.6v5h-2.4v-11.1h2.2v1.6c0.4-0.6,0.9-1.1,1.4-1.4s1-0.5,1.7-0.5c0.7,0,1.3,0.2,1.8,0.6
		c0.5,0.4,0.8,0.8,1,1.4c0.2,0.6,0.3,1.4,0.3,2.5L395.8,215.9L395.8,215.9z"/>
	<path class="st0" d="M397.7,210.2c0-1.1,0.2-2.1,0.6-3s1-1.6,1.7-2c0.7-0.4,1.5-0.7,2.4-0.7c1.5,0,2.6,0.6,3.5,1.7
		c0.8,1.1,1.3,2.5,1.3,4c0,1.1-0.2,2.2-0.6,3.1c-0.4,0.9-1,1.6-1.7,2.1s-1.5,0.7-2.3,0.7c-1.4,0-2.5-0.5-3.4-1.6
		C398.2,213.6,397.7,212.1,397.7,210.2z M400.2,210.3c0,1.1,0.2,2,0.7,2.6s1,0.9,1.6,0.9c0.6,0,1.1-0.3,1.6-0.9s0.6-1.4,0.6-2.6
		c0-1.1-0.2-1.9-0.7-2.5s-1-0.9-1.6-0.9s-1.1,0.3-1.6,0.9C400.4,208.4,400.2,209.2,400.2,210.3z"/>
	<path class="st0" d="M409,215.9v-15.3h2.4v15.3H409z"/>
	<path class="st0" d="M413.3,210.2c0-1.1,0.2-2.1,0.6-3s1-1.6,1.7-2c0.7-0.4,1.5-0.7,2.4-0.7c1.5,0,2.6,0.6,3.5,1.7
		c0.8,1.1,1.3,2.5,1.3,4c0,1.1-0.2,2.2-0.6,3.1c-0.4,0.9-1,1.6-1.7,2.1s-1.5,0.7-2.3,0.7c-1.4,0-2.5-0.5-3.4-1.6
		C413.8,213.6,413.3,212.1,413.3,210.2z M415.8,210.3c0,1.1,0.2,2,0.7,2.6s1,0.9,1.6,0.9c0.6,0,1.1-0.3,1.6-0.9s0.6-1.4,0.6-2.6
		c0-1.1-0.2-1.9-0.7-2.5s-1-0.9-1.6-0.9s-1.1,0.3-1.6,0.9C416,208.4,415.8,209.2,415.8,210.3z"/>
	<path class="st0" d="M424.4,216.6l2.8,0.4c0,0.4,0.2,0.7,0.4,0.9s0.5,0.3,1,0.3c0.5,0,1-0.1,1.3-0.3c0.2-0.1,0.4-0.3,0.5-0.6
		c0.1-0.3,0.2-0.8,0.2-1.6v-1.6c-0.4,0.6-0.8,1.1-1.2,1.4s-1,0.4-1.5,0.4c-1,0-1.9-0.5-2.5-1.4c-0.8-1.1-1.2-2.5-1.2-4.3
		c0-1.9,0.4-3.3,1.1-4.3s1.7-1.4,2.7-1.4c0.6,0,1.1,0.1,1.5,0.5c0.5,0.3,0.9,0.8,1.2,1.4v-1.6h2.3v10c0,1.6-0.1,2.8-0.4,3.5
		c-0.3,0.7-0.8,1.3-1.4,1.6s-1.5,0.6-2.5,0.6c-1,0-1.8-0.1-2.4-0.4c-0.6-0.3-1.1-0.7-1.4-1.2s-0.5-1.1-0.5-1.8L424.4,216.6
		L424.4,216.6z M426.6,210.1c0,1.2,0.2,2.1,0.6,2.6c0.4,0.5,0.8,0.8,1.4,0.8c0.6,0,1.1-0.3,1.5-0.8c0.4-0.6,0.6-1.4,0.6-2.5
		c0-1.2-0.2-2-0.6-2.6s-0.9-0.8-1.5-0.8c-0.6,0-1,0.3-1.4,0.8C426.8,208.1,426.6,209,426.6,210.1z"/>
	<path class="st0" d="M434.2,204.8h2.6l2.2,7.9l2.1-7.9h2.5l-3.2,10.7l-0.6,2.1c-0.3,0.8-0.5,1.4-0.8,1.7c-0.3,0.4-0.6,0.6-1,0.8
		s-0.9,0.3-1.5,0.3c-0.5,0-0.9-0.1-1.4-0.2l-0.2-2.3c0.4,0.1,0.7,0.1,1,0.1c0.5,0,0.8-0.1,1.1-0.5c0.3-0.3,0.5-0.9,0.7-1.7
		L434.2,204.8z"/>
	<path class="st0" d="M450.1,215.9v-15.3h9.3v2.6h-6.8v3.4h6.3v2.6h-6.3v4.2h7v2.6L450.1,215.9L450.1,215.9z"/>
	<path class="st0" d="M460.6,215.9l3.3-5.7l-3.1-5.4h3l1.7,2.9l1.6-2.9h2.8l-3.1,5.3l3.4,5.8h-3l-1.9-3.2l-1.9,3.2L460.6,215.9
		L460.6,215.9z"/>
	<path class="st0" d="M473.9,200.6v5.6c0.4-0.6,0.8-1,1.3-1.3s1-0.4,1.5-0.4c0.7,0,1.3,0.2,1.8,0.6c0.5,0.4,0.8,0.9,1,1.6
		c0.1,0.5,0.2,1.4,0.2,2.6v6.5h-2.4V210c0-1.4-0.1-2.2-0.3-2.6c-0.2-0.5-0.7-0.7-1.2-0.7c-0.6,0-1.1,0.3-1.5,0.8
		c-0.3,0.5-0.5,1.4-0.5,2.8v5.6h-2.4v-15.3L473.9,200.6L473.9,200.6z"/>
	<path class="st0" d="M482.3,203.3v-2.7h2.4v2.7H482.3z M482.3,215.9v-11.1h2.4v11.1H482.3z"/>
	<path class="st0" d="M487,215.9v-15.3h2.4v5.5c0.4-0.5,0.8-0.9,1.2-1.2c0.4-0.3,0.9-0.4,1.4-0.4c1.1,0,2,0.5,2.7,1.5
		s1.1,2.4,1.1,4.3c0,1.9-0.4,3.3-1.1,4.4s-1.6,1.5-2.7,1.5c-0.5,0-1-0.2-1.5-0.5c-0.5-0.3-0.9-0.8-1.3-1.4v1.6L487,215.9L487,215.9z
		 M489.4,210.1c0,1,0.1,1.7,0.3,2.2s0.4,0.9,0.8,1.1s0.7,0.4,1.1,0.4c0.5,0,1-0.3,1.4-0.8c0.4-0.6,0.6-1.4,0.6-2.6
		c0-1.3-0.2-2.2-0.6-2.7c-0.4-0.6-0.9-0.8-1.5-0.8c-0.6,0-1,0.3-1.4,0.8S489.4,209,489.4,210.1z"/>
	<path class="st0" d="M497.9,203.3v-2.7h2.4v2.7H497.9z M497.9,215.9v-11.1h2.4v11.1H497.9z"/>
	<path class="st0" d="M507,204.8v2.3h-1.6v4.5c0,1,0,1.5,0.1,1.7c0.1,0.3,0.3,0.4,0.6,0.4c0.2,0,0.5-0.1,1-0.3l0.2,2.3
		c-0.6,0.3-1.2,0.4-1.9,0.4c-0.6,0-1.1-0.1-1.5-0.4c-0.4-0.3-0.6-0.7-0.7-1.3c-0.1-0.4-0.1-1.2-0.1-2.5v-4.9h-1.1v-2.3h1.1v-2.2
		l2.4-1.7v3.9L507,204.8L507,204.8z"/>
	<path class="st0" d="M508.6,203.3v-2.7h2.4v2.7H508.6z M508.6,215.9v-11.1h2.4v11.1H508.6z"/>
	<path class="st0" d="M513,210.2c0-1.1,0.2-2.1,0.7-3s1-1.6,1.7-2c0.7-0.4,1.5-0.7,2.4-0.7c1.5,0,2.6,0.6,3.5,1.7
		c0.8,1.1,1.3,2.5,1.3,4c0,1.1-0.2,2.2-0.7,3.1c-0.4,0.9-1,1.6-1.7,2.1c-0.7,0.5-1.5,0.7-2.3,0.7c-1.3,0-2.5-0.5-3.4-1.6
		C513.4,213.6,513,212.1,513,210.2z M515.4,210.3c0,1.1,0.2,2,0.7,2.6s1,0.9,1.6,0.9c0.6,0,1.1-0.3,1.6-0.9s0.7-1.4,0.7-2.6
		c0-1.1-0.2-1.9-0.7-2.5s-1-0.9-1.6-0.9c-0.6,0-1.1,0.3-1.6,0.9C515.7,208.4,515.4,209.2,515.4,210.3z"/>
	<path class="st0" d="M532.5,215.9h-2.4v-5.7c0-1.1,0-1.9-0.1-2.3s-0.3-0.7-0.5-0.9s-0.5-0.3-0.8-0.3c-0.4,0-0.8,0.1-1.1,0.4
		c-0.3,0.3-0.6,0.6-0.7,1.1s-0.2,1.3-0.2,2.6v5h-2.4v-11.1h2.2v1.6c0.4-0.6,0.8-1.1,1.3-1.4s1-0.5,1.7-0.5c0.7,0,1.3,0.2,1.8,0.6
		c0.5,0.4,0.8,0.8,1,1.4c0.2,0.6,0.3,1.4,0.3,2.5L532.5,215.9L532.5,215.9z"/>
</g>
</svg>
