<svg xmlns="http://www.w3.org/2000/svg" version="1.1" xmlns:xlink="http://www.w3.org/1999/xlink" width="512" height="512" x="0" y="0" viewBox="0 0 682.667 682.667" style="enable-background:new 0 0 512 512" xml:space="preserve" class=""><g><defs><clipPath id="a" clipPathUnits="userSpaceOnUse"><path d="M0 512h512V0H0Z" fill="#2fd4ff" opacity="1" data-original="#000000" class=""></path></clipPath></defs><path d="M118.286 15H15v103.286h103.286zM359.286 393.714H152.714V497h206.572z" style="fill-opacity:1;fill-rule:nonzero;stroke:none" transform="matrix(1.33333 0 0 -1.33333 0 682.667)" fill="#2fd4ff" data-original="#000000" opacity="1" class=""></path><path d="m0 0-73.034 73.034L0 146.068l73.034-73.034Z" style="fill-opacity:1;fill-rule:nonzero;stroke:none" transform="matrix(1.33333 0 0 -1.33333 341.333 479.048)" fill="#2fd4ff" data-original="#000000" opacity="1" class=""></path><g clip-path="url(#a)" transform="matrix(1.33333 0 0 -1.33333 0 682.667)"><path d="M0 0c0-28.521-23.121-51.643-51.643-51.643-28.521 0-51.643 23.122-51.643 51.643s23.122 51.644 51.643 51.644C-23.121 51.644 0 28.521 0 0" style="fill-opacity:1;fill-rule:nonzero;stroke:none" transform="translate(497 66.643)" fill="#2fd4ff" data-original="#000000" opacity="1" class=""></path><path d="M118.286 15H15v103.286h103.286zM359.286 393.714H152.714V497h206.572z" style="stroke-width:30;stroke-linecap:butt;stroke-linejoin:miter;stroke-miterlimit:10;stroke-dasharray:none;stroke-opacity:1" fill="none" stroke="#2fd4ff" stroke-width="30" stroke-linecap="butt" stroke-linejoin="miter" stroke-miterlimit="10" stroke-dasharray="none" stroke-opacity="" data-original="#000000" class="" opacity="1"></path><path d="m0 0-73.034 73.034L0 146.068l73.034-73.034Z" style="stroke-width:30;stroke-linecap:butt;stroke-linejoin:miter;stroke-miterlimit:10;stroke-dasharray:none;stroke-opacity:1" transform="translate(256 152.714)" fill="none" stroke="#2fd4ff" stroke-width="30" stroke-linecap="butt" stroke-linejoin="miter" stroke-miterlimit="10" stroke-dasharray="none" stroke-opacity="" data-original="#000000" class="" opacity="1"></path><path d="M0 0v94.932" style="stroke-width:30;stroke-linecap:butt;stroke-linejoin:miter;stroke-miterlimit:10;stroke-dasharray:none;stroke-opacity:1" transform="translate(256 298.782)" fill="none" stroke="#2fd4ff" stroke-width="30" stroke-linecap="butt" stroke-linejoin="miter" stroke-miterlimit="10" stroke-dasharray="none" stroke-opacity="" data-original="#000000" class="" opacity="1"></path><path d="M0 0h-116.323v-107.462" style="stroke-width:30;stroke-linecap:butt;stroke-linejoin:miter;stroke-miterlimit:10;stroke-dasharray:none;stroke-opacity:1" transform="translate(182.966 225.748)" fill="none" stroke="#2fd4ff" stroke-width="30" stroke-linecap="butt" stroke-linejoin="miter" stroke-miterlimit="10" stroke-dasharray="none" stroke-opacity="" data-original="#000000" class="" opacity="1"></path><path d="M0 0h116.323v-107.462" style="stroke-width:30;stroke-linecap:butt;stroke-linejoin:miter;stroke-miterlimit:10;stroke-dasharray:none;stroke-opacity:1" transform="translate(329.034 225.748)" fill="none" stroke="#2fd4ff" stroke-width="30" stroke-linecap="butt" stroke-linejoin="miter" stroke-miterlimit="10" stroke-dasharray="none" stroke-opacity="" data-original="#000000" class="" opacity="1"></path><path d="M0 0c0-28.521-23.121-51.643-51.643-51.643-28.521 0-51.643 23.122-51.643 51.643s23.122 51.644 51.643 51.644C-23.121 51.644 0 28.521 0 0Z" style="stroke-width:30;stroke-linecap:butt;stroke-linejoin:miter;stroke-miterlimit:10;stroke-dasharray:none;stroke-opacity:1" transform="translate(497 66.643)" fill="none" stroke="#2fd4ff" stroke-width="30" stroke-linecap="butt" stroke-linejoin="miter" stroke-miterlimit="10" stroke-dasharray="none" stroke-opacity="" data-original="#000000" class="" opacity="1"></path></g></g></svg>