<svg xmlns="http://www.w3.org/2000/svg" version="1.1" xmlns:xlink="http://www.w3.org/1999/xlink" width="512" height="512" x="0" y="0" viewBox="0 0 512.018 512.018" style="enable-background:new 0 0 512 512" xml:space="preserve" class=""><g><path d="M343.845 223.885c0-48.431-39.402-87.833-87.833-87.833-116.362 4.416-116.331 171.268.001 175.666 48.43 0 87.832-39.402 87.832-87.833zM256.012 311.718c-87.082 0-157.927 70.846-157.927 157.927 0 23.979 19.563 42.374 42.374 42.374h231.106c22.818 0 42.374-18.4 42.374-42.374 0-87.081-70.845-157.927-157.927-157.927z" fill="#2fd4ff" opacity="1" data-original="#000000" class=""></path><path d="M256.012 64.285c-113.531-1.76-193.626 121.773-145.763 224.622 3.375 7.564 12.244 10.959 19.808 7.585 7.565-3.376 10.962-12.245 7.586-19.811C98.801 193.166 163.809 92.85 256.014 94.286c92.188-1.432 157.226 98.883 118.366 182.396-3.374 7.564.022 16.433 7.588 19.809 10.304 4.597 17.884-3.269 19.811-7.586 47.839-102.85-32.22-226.386-145.767-224.62z" fill="#2fd4ff" opacity="1" data-original="#000000" class=""></path><path d="M256.012.018C85.354-2.151-25.422 191.892 63.158 337.548c4.215 7.13 13.418 9.489 20.544 5.271 7.131-4.218 9.491-13.417 5.273-20.547-76.65-126.121 19.258-294.149 167.04-292.252 147.761-1.886 243.705 166.133 167.032 292.253-4.215 7.129-1.855 16.328 5.276 20.546 8.167 4.832 17.011.704 20.547-5.273C537.423 191.889 426.688-2.163 256.012.018z" fill="#2fd4ff" opacity="1" data-original="#000000" class=""></path></g></svg>