<svg xmlns="http://www.w3.org/2000/svg" version="1.1" xmlns:xlink="http://www.w3.org/1999/xlink" width="512" height="512" x="0" y="0" viewBox="0 0 24 24" style="enable-background:new 0 0 512 512" xml:space="preserve" fill-rule="evenodd" class=""><g><path d="M18.34 15.913a4.751 4.751 0 0 0-4.624-3.663h-3.432a4.751 4.751 0 0 0-4.624 3.663l-.812 3.458a2.746 2.746 0 0 0 2.677 3.379h8.95a2.746 2.746 0 0 0 2.677-3.379zM16.75 5A3.75 3.75 0 0 0 13 1.25h-2A3.75 3.75 0 0 0 7.25 5v2a4.75 4.75 0 1 0 9.5 0zM19.47 10.53 20.939 12l-1.469 1.47a.749.749 0 1 0 1.06 1.06l2-2a.749.749 0 0 0 0-1.06l-2-2a.749.749 0 1 0-1.06 1.06zM3.47 9.47l-2 2a.749.749 0 0 0 0 1.06l2 2a.749.749 0 1 0 1.06-1.06L3.061 12l1.469-1.47a.749.749 0 1 0-1.06-1.06z" fill="#2fd4ff" opacity="1" data-original="#000000" class=""></path></g></svg>