<svg xmlns="http://www.w3.org/2000/svg" version="1.1" xmlns:xlink="http://www.w3.org/1999/xlink" width="512" height="512" x="0" y="0" viewBox="0 0 48 48" style="enable-background:new 0 0 512 512" xml:space="preserve" class=""><g><path d="M42 7H6a2 2 0 0 0-2 2v30a2 2 0 0 0 2 2h36a2 2 0 0 0 2-2V9a2 2 0 0 0-2-2zM12.62 32.78a1 1 0 0 1-1.25-1.56l9-7.22-9-7.22a1 1 0 1 1 1.25-1.56l10 8a1 1 0 0 1 0 1.56zM36 33H24a1 1 0 0 1 0-2h12a1 1 0 0 1 0 2z" fill="#2fd4ff" opacity="1" data-original="#000000" class=""></path></g></svg>