<svg xmlns="http://www.w3.org/2000/svg" version="1.1" xmlns:xlink="http://www.w3.org/1999/xlink" width="512" height="512" x="0" y="0" viewBox="0 0 24 24" style="enable-background:new 0 0 512 512" xml:space="preserve" class=""><g><circle cx="12" cy="15" r="1.5" fill="#2fd4ff" opacity="1" data-original="#000000" class=""></circle><path d="M19 4.5H5c-.83 0-1.5.67-1.5 1.5v12c0 .83.67 1.5 1.5 1.5h14c.83 0 1.5-.67 1.5-1.5V6c0-.83-.67-1.5-1.5-1.5zm-7 13a2.5 2.5 0 0 1 0-5 2.5 2.5 0 0 1 0 5zm6.05-.02c-.19.19-.51.2-.71 0l-1.2-1.2a.51.51 0 0 1-.15-.35v-1.87c0-.13.05-.26.15-.35l.93-.92-.62-1.07-1.26.34a.5.5 0 0 1-.38-.05l-1.62-.93a.486.486 0 0 1-.23-.3l-.34-1.26h-1.24l-.34 1.26c-.03.13-.12.24-.23.3l-1.62.93c-.12.07-.25.08-.38.05l-1.26-.34-.62 1.08.93.92c.09.09.15.22.15.35v1.87c0 .13-.05.26-.15.35l-1.2 1.2c-.2.19-.51.19-.71 0a.513.513 0 0 1 0-.71L7 15.73v-1.45l-.78-.78a1 1 0 0 1-.16-1.21l.62-1.07c.23-.39.69-.58 1.13-.47l1.06.29 1.26-.73.28-1.06c.12-.44.51-.74.97-.74h1.24c.45 0 .85.31.97.74l.28 1.06 1.26.73 1.06-.29c.44-.12.9.08 1.13.47l.62 1.07a1 1 0 0 1-.16 1.21l-.78.78v1.45l1.05 1.05c.2.2.2.51 0 .71zM19.5 6.5h-15V6c0-.28.22-.5.5-.5h14c.28 0 .5.22.5.5z" fill="#2fd4ff" opacity="1" data-original="#000000" class=""></path></g></svg>