<svg xmlns="http://www.w3.org/2000/svg" version="1.1" xmlns:xlink="http://www.w3.org/1999/xlink" width="512" height="512" x="0" y="0" viewBox="0 0 512 512" style="enable-background:new 0 0 512 512" xml:space="preserve" class=""><g><path fill-rule="evenodd" d="M256 0C114.84 0 0 114.84 0 256s114.839 256 256 256 256-114.84 256-256S397.159 0 256 0zm24.734 398.5c-88.348 0-160.235-71.885-160.235-160.233A160.754 160.754 0 0 1 202.326 98.5a178.72 178.72 0 0 0-14.415 70.446c0 98.685 80.282 178.969 178.971 178.969a179.951 179.951 0 0 0 33.618-3.149A159.349 159.349 0 0 1 280.734 398.5z" fill="#2fd4ff" opacity="1" data-original="#000000" class=""></path></g></svg>