<svg xmlns="http://www.w3.org/2000/svg" version="1.1" xmlns:xlink="http://www.w3.org/1999/xlink" width="512" height="512" x="0" y="0" viewBox="0 0 64 64" style="enable-background:new 0 0 512 512" xml:space="preserve" class=""><g><path d="M60 32a8.74 8.74 0 0 0-2.344-5.959 4.796 4.796 0 0 1-1.353-3.95.941.941 0 0 0 .007-.118 8.793 8.793 0 0 0-7.802-8.715 9.095 9.095 0 0 0-2.852-5.546A8.629 8.629 0 0 0 33 8.762V23h4.322a3.003 3.003 0 0 0 3-3v-2.58a3 3 0 1 1 2 0V20a5.006 5.006 0 0 1-5 5H33v3.396h11.316a3.003 3.003 0 0 0 3-3v-2.58a3 3 0 1 1 2 0v2.58a5.006 5.006 0 0 1-5 5H33v3.208h11.316a5.006 5.006 0 0 1 5 5v2.58a3 3 0 1 1-2 0v-2.58a3.003 3.003 0 0 0-3-3H33V39h4.322a5.006 5.006 0 0 1 5 5v2.58a3 3 0 1 1-2 0V44a3.003 3.003 0 0 0-3-3H33v14.237a8.6 8.6 0 0 0 6.23 3.313q.275.017.548.017a8.689 8.689 0 0 0 5.984-2.367 8.813 8.813 0 0 0 2.723-5.43 8.818 8.818 0 0 0 7.825-8.747 1.106 1.106 0 0 0-.007-.114 4.809 4.809 0 0 1 1.366-3.963A8.726 8.726 0 0 0 60 32ZM24.773 5.45a8.65 8.65 0 0 0-6.432 2.265 9.005 9.005 0 0 0-2.29 3.366 8.622 8.622 0 0 0 2.389 3.85 7.494 7.494 0 0 0 6.056 1.531 1 1 0 1 1 .234 1.987 13.49 13.49 0 0 1-1.584.096 8.86 8.86 0 0 1-6.03-2.114 9.72 9.72 0 0 1-2.292-3.067 8.79 8.79 0 0 0-7.134 8.61 4.864 4.864 0 0 1-1.36 4.082 8.748 8.748 0 0 0 .014 11.904 4.846 4.846 0 0 1 1.346 4.064 8.768 8.768 0 0 0 6.994 8.603 8.231 8.231 0 0 1 1.67-2.026c2.007-1.746 4.783-2.384 8.248-1.902a1 1 0 0 1-.278 1.98c-2.862-.399-5.095.078-6.646 1.421a6.653 6.653 0 0 0-1.748 2.494 8.793 8.793 0 0 0 2.305 3.604 8.688 8.688 0 0 0 5.989 2.369A8.6 8.6 0 0 0 31 55.239V29.342a12.961 12.961 0 0 1-2.51.257 10.517 10.517 0 0 1-2.684-.336c-.54-.014-4.305-.05-5.602 2.182a1 1 0 1 1-1.728-1.005 6.475 6.475 0 0 1 4.217-2.834 7.34 7.34 0 0 1-1.988-3.143 1 1 0 0 1 1.897-.638c1.54 4.585 6.548 3.899 8.398 3.472V8.762a8.598 8.598 0 0 0-6.227-3.311Z" fill="#2fd4ff" opacity="1" data-original="#000000" class=""></path></g></svg>