<svg xmlns="http://www.w3.org/2000/svg" version="1.1" xmlns:xlink="http://www.w3.org/1999/xlink" width="512" height="512" x="0" y="0" viewBox="0 0 24 24" style="enable-background:new 0 0 512 512" xml:space="preserve" class=""><g><path d="m23.78 20.47-2.25-2.25a.75.75 0 0 0-1.28.53V20H4V3.75h1.25a.75.75 0 0 0 .53-1.28L3.53.22a.75.75 0 0 0-1.061 0L.22 2.47a.75.75 0 0 0 .53 1.28H2V20H1a1 1 0 1 0 0 2h1v1a1 1 0 1 0 2 0v-1h16.25v1.25c0 .669.811.999 1.28.53l2.25-2.25a.749.749 0 0 0 0-1.06z" fill="#2fd4ff" opacity="1" data-original="#000000" class=""></path><path d="m13 4 7 3-7 3-7-3zM12 11.747 6 9.176V15a.5.5 0 0 0 .32.467L12 17.651zM14 11.747v5.904l5.68-2.185A.497.497 0 0 0 20 15V9.176z" fill="#2fd4ff" opacity="1" data-original="#000000" class=""></path></g></svg>