<svg xmlns="http://www.w3.org/2000/svg" version="1.1" xmlns:xlink="http://www.w3.org/1999/xlink" width="512" height="512" x="0" y="0" viewBox="0 0 24 24" style="enable-background:new 0 0 512 512" xml:space="preserve" class=""><g><path d="M19.25 1.25H4.75a1.5 1.5 0 0 0-1.5 1.5V20a1.72 1.72 0 0 0 1 1.56 1.66 1.66 0 0 0 .78.19 1.77 1.77 0 0 0 1-.35l5.35-4a1 1 0 0 1 1.2 0l5.35 4a1.75 1.75 0 0 0 2.8-1.4V2.75a1.5 1.5 0 0 0-1.48-1.5z" data-name="Layer 2" fill="#2fd4ff" opacity="1" data-original="#000000" class=""></path></g></svg>