<svg xmlns="http://www.w3.org/2000/svg" version="1.1" xmlns:xlink="http://www.w3.org/1999/xlink" width="512" height="512" x="0" y="0" viewBox="0 0 512 512" style="enable-background:new 0 0 512 512" xml:space="preserve" class=""><g><path d="M45.176 60.235h421.647c24.95 0 45.176 20.226 45.176 45.176v301.176c0 24.95-20.226 45.176-45.176 45.176H45.176C20.226 451.765 0 431.539 0 406.588V105.412c0-24.951 20.226-45.177 45.176-45.177zm225.883 225.883H90.353c-8.317 0-15.059 6.742-15.059 15.059s6.742 15.059 15.059 15.059h180.706c8.317 0 15.059-6.742 15.059-15.059s-6.742-15.059-15.059-15.059zM90.353 376.471h105.412c8.317 0 15.059-6.742 15.059-15.059s-6.742-15.059-15.059-15.059H90.353c-8.317 0-15.059 6.742-15.059 15.059s6.742 15.059 15.059 15.059z" fill="#2fd4ff" opacity="1" data-original="#000000" class=""></path></g></svg>