<svg id="visual" viewBox="0 0 900 600" width="900" height="600" xmlns="http://www.w3.org/2000/svg" xmlns:xlink="http://www.w3.org/1999/xlink" version="1.1"><path d="M863 600L863 600L863 574L899 574L899 548L854 548L854 522L872 522L872 496L899 496L899 470L845 470L845 443L899 443L899 417L890 417L890 391L836 391L836 365L854 365L854 339L881 339L881 313L827 313L827 287L872 287L872 261L863 261L863 235L881 235L881 209L881 209L881 183L890 183L890 157L899 157L899 130L836 130L836 104L854 104L854 78L845 78L845 52L863 52L863 26L881 26L881 0L900 0L900 26L900 26L900 52L900 52L900 78L900 78L900 104L900 104L900 130L900 130L900 157L900 157L900 183L900 183L900 209L900 209L900 235L900 235L900 261L900 261L900 287L900 287L900 313L900 313L900 339L900 339L900 365L900 365L900 391L900 391L900 417L900 417L900 443L900 443L900 470L900 470L900 496L900 496L900 522L900 522L900 548L900 548L900 574L900 574L900 600L900 600Z" fill="#00060e"></path><path d="M827 600L854 600L854 574L827 574L827 548L827 548L827 522L836 522L836 496L881 496L881 470L809 470L809 443L836 443L836 417L881 417L881 391L827 391L827 365L836 365L836 339L872 339L872 313L827 313L827 287L836 287L836 261L863 261L863 235L881 235L881 209L836 209L836 183L863 183L863 157L818 157L818 130L836 130L836 104L791 104L791 78L809 78L809 52L800 52L800 26L827 26L827 0L882 0L882 26L864 26L864 52L846 52L846 78L855 78L855 104L837 104L837 130L900 130L900 157L891 157L891 183L882 183L882 209L882 209L882 235L864 235L864 261L873 261L873 287L828 287L828 313L882 313L882 339L855 339L855 365L837 365L837 391L891 391L891 417L900 417L900 443L846 443L846 470L900 470L900 496L873 496L873 522L855 522L855 548L900 548L900 574L864 574L864 600L864 600Z" fill="#010814"></path><path d="M791 600L836 600L836 574L809 574L809 548L755 548L755 522L755 522L755 496L881 496L881 470L728 470L728 443L773 443L773 417L818 417L818 391L791 391L791 365L827 365L827 339L791 339L791 313L773 313L773 287L782 287L782 261L863 261L863 235L800 235L800 209L782 209L782 183L818 183L818 157L755 157L755 130L764 130L764 104L791 104L791 78L737 78L737 52L737 52L737 26L809 26L809 0L828 0L828 26L801 26L801 52L810 52L810 78L792 78L792 104L837 104L837 130L819 130L819 157L864 157L864 183L837 183L837 209L882 209L882 235L864 235L864 261L837 261L837 287L828 287L828 313L873 313L873 339L837 339L837 365L828 365L828 391L882 391L882 417L837 417L837 443L810 443L810 470L882 470L882 496L837 496L837 522L828 522L828 548L828 548L828 574L855 574L855 600L828 600Z" fill="#040a19"></path><path d="M782 600L692 600L692 574L773 574L773 548L629 548L629 522L629 522L629 496L863 496L863 470L683 470L683 443L764 443L764 417L755 417L755 391L665 391L665 365L809 365L809 339L773 339L773 313L755 313L755 287L710 287L710 261L836 261L836 235L800 235L800 209L701 209L701 183L674 183L674 157L674 157L674 130L692 130L692 104L773 104L773 78L656 78L656 52L692 52L692 26L737 26L737 0L810 0L810 26L738 26L738 52L738 52L738 78L792 78L792 104L765 104L765 130L756 130L756 157L819 157L819 183L783 183L783 209L801 209L801 235L864 235L864 261L783 261L783 287L774 287L774 313L792 313L792 339L828 339L828 365L792 365L792 391L819 391L819 417L774 417L774 443L729 443L729 470L882 470L882 496L756 496L756 522L756 522L756 548L810 548L810 574L837 574L837 600L792 600Z" fill="#090c1d"></path><path d="M719 600L566 600L566 574L647 574L647 548L323 548L323 522L251 522L251 496L557 496L557 470L575 470L575 443L431 443L431 417L701 417L701 391L395 391L395 365L593 365L593 339L701 339L701 313L584 313L584 287L575 287L575 261L701 261L701 235L620 235L620 209L458 209L458 183L332 183L332 157L431 157L431 130L575 130L575 104L539 104L539 78L629 78L629 52L584 52L584 26L710 26L710 0L738 0L738 26L693 26L693 52L657 52L657 78L774 78L774 104L693 104L693 130L675 130L675 157L675 157L675 183L702 183L702 209L801 209L801 235L837 235L837 261L711 261L711 287L756 287L756 313L774 313L774 339L810 339L810 365L666 365L666 391L756 391L756 417L765 417L765 443L684 443L684 470L864 470L864 496L630 496L630 522L630 522L630 548L774 548L774 574L693 574L693 600L783 600Z" fill="#0f0c21"></path><path d="M629 600L476 600L476 574L548 574L548 548L278 548L278 522L215 522L215 496L350 496L350 470L440 470L440 443L368 443L368 417L620 417L620 391L305 391L305 365L413 365L413 339L575 339L575 313L485 313L485 287L449 287L449 261L521 261L521 235L476 235L476 209L341 209L341 183L188 183L188 157L431 157L431 130L503 130L503 104L467 104L467 78L593 78L593 52L485 52L485 26L683 26L683 0L711 0L711 26L585 26L585 52L630 52L630 78L540 78L540 104L576 104L576 130L432 130L432 157L333 157L333 183L459 183L459 209L621 209L621 235L702 235L702 261L576 261L576 287L585 287L585 313L702 313L702 339L594 339L594 365L396 365L396 391L702 391L702 417L432 417L432 443L576 443L576 470L558 470L558 496L252 496L252 522L324 522L324 548L648 548L648 574L567 574L567 600L720 600Z" fill="#140d24"></path><path d="M602 600L377 600L377 574L512 574L512 548L278 548L278 522L215 522L215 496L269 496L269 470L350 470L350 443L359 443L359 417L548 417L548 391L305 391L305 365L395 365L395 339L539 339L539 313L476 313L476 287L431 287L431 261L485 261L485 235L476 235L476 209L332 209L332 183L134 183L134 157L359 157L359 130L431 130L431 104L377 104L377 78L557 78L557 52L404 52L404 26L575 26L575 0L684 0L684 26L486 26L486 52L594 52L594 78L468 78L468 104L504 104L504 130L432 130L432 157L189 157L189 183L342 183L342 209L477 209L477 235L522 235L522 261L450 261L450 287L486 287L486 313L576 313L576 339L414 339L414 365L306 365L306 391L621 391L621 417L369 417L369 443L441 443L441 470L351 470L351 496L216 496L216 522L279 522L279 548L549 548L549 574L477 574L477 600L630 600Z" fill="#1a0d26"></path><path d="M557 600L332 600L332 574L422 574L422 548L242 548L242 522L179 522L179 496L233 496L233 470L314 470L314 443L323 443L323 417L503 417L503 391L242 391L242 365L323 365L323 339L494 339L494 313L377 313L377 287L350 287L350 261L431 261L431 235L449 235L449 209L242 209L242 183L98 183L98 157L314 157L314 130L377 130L377 104L305 104L305 78L521 78L521 52L341 52L341 26L548 26L548 0L576 0L576 26L405 26L405 52L558 52L558 78L378 78L378 104L432 104L432 130L360 130L360 157L135 157L135 183L333 183L333 209L477 209L477 235L486 235L486 261L432 261L432 287L477 287L477 313L540 313L540 339L396 339L396 365L306 365L306 391L549 391L549 417L360 417L360 443L351 443L351 470L270 470L270 496L216 496L216 522L279 522L279 548L513 548L513 574L378 574L378 600L603 600Z" fill="#200c27"></path><path d="M332 600L116 600L116 574L242 574L242 548L215 548L215 522L161 522L161 496L206 496L206 470L125 470L125 443L161 443L161 417L278 417L278 391L152 391L152 365L215 365L215 339L296 339L296 313L278 313L278 287L269 287L269 261L197 261L197 235L197 235L197 209L188 209L188 183L98 183L98 157L224 157L224 130L62 130L62 104L242 104L242 78L287 78L287 52L242 52L242 26L242 26L242 0L549 0L549 26L342 26L342 52L522 52L522 78L306 78L306 104L378 104L378 130L315 130L315 157L99 157L99 183L243 183L243 209L450 209L450 235L432 235L432 261L351 261L351 287L378 287L378 313L495 313L495 339L324 339L324 365L243 365L243 391L504 391L504 417L324 417L324 443L315 443L315 470L234 470L234 496L180 496L180 522L243 522L243 548L423 548L423 574L333 574L333 600L558 600Z" fill="#270a28"></path><path d="M278 600L116 600L116 574L206 574L206 548L152 548L152 522L98 522L98 496L188 496L188 470L80 470L80 443L125 443L125 417L260 417L260 391L143 391L143 365L134 365L134 339L260 339L260 313L269 313L269 287L242 287L242 261L152 261L152 235L179 235L179 209L107 209L107 183L62 183L62 157L224 157L224 130L53 130L53 104L224 104L224 78L233 78L233 52L224 52L224 26L170 26L170 0L243 0L243 26L243 26L243 52L288 52L288 78L243 78L243 104L63 104L63 130L225 130L225 157L99 157L99 183L189 183L189 209L198 209L198 235L198 235L198 261L270 261L270 287L279 287L279 313L297 313L297 339L216 339L216 365L153 365L153 391L279 391L279 417L162 417L162 443L126 443L126 470L207 470L207 496L162 496L162 522L216 522L216 548L243 548L243 574L117 574L117 600L333 600Z" fill="#2e0827"></path><path d="M161 600L98 600L98 574L134 574L134 548L98 548L98 522L44 522L44 496L170 496L170 470L17 470L17 443L44 443L44 417L233 417L233 391L62 391L62 365L98 365L98 339L197 339L197 313L179 313L179 287L134 287L134 261L62 261L62 235L53 235L53 209L35 209L35 183L17 183L17 157L116 157L116 130L8 130L8 104L179 104L179 78L233 78L233 52L143 52L143 26L107 26L107 0L171 0L171 26L225 26L225 52L234 52L234 78L225 78L225 104L54 104L54 130L225 130L225 157L63 157L63 183L108 183L108 209L180 209L180 235L153 235L153 261L243 261L243 287L270 287L270 313L261 313L261 339L135 339L135 365L144 365L144 391L261 391L261 417L126 417L126 443L81 443L81 470L189 470L189 496L99 496L99 522L153 522L153 548L207 548L207 574L117 574L117 600L279 600Z" fill="#340426"></path><path d="M0 600L0 600L0 574L0 574L0 548L0 548L0 522L0 522L0 496L0 496L0 470L0 470L0 443L0 443L0 417L0 417L0 391L0 391L0 365L0 365L0 339L0 339L0 313L0 313L0 287L0 287L0 261L0 261L0 235L0 235L0 209L0 209L0 183L0 183L0 157L0 157L0 130L0 130L0 104L0 104L0 78L0 78L0 52L0 52L0 26L0 26L0 0L108 0L108 26L144 26L144 52L234 52L234 78L180 78L180 104L9 104L9 130L117 130L117 157L18 157L18 183L36 183L36 209L54 209L54 235L63 235L63 261L135 261L135 287L180 287L180 313L198 313L198 339L99 339L99 365L63 365L63 391L234 391L234 417L45 417L45 443L18 443L18 470L171 470L171 496L45 496L45 522L99 522L99 548L135 548L135 574L99 574L99 600L162 600Z" fill="#3b0023"></path></svg>