<svg xmlns="http://www.w3.org/2000/svg" version="1.1" xmlns:xlink="http://www.w3.org/1999/xlink" xmlns:svgjs="http://svgjs.dev/svgjs" viewBox="0 0 800 800"><defs><linearGradient x1="50%" y1="0%" x2="50%" y2="100%" id="ccchaos-grad"><stop stop-color="hsl(180, 69%, 40%)" stop-opacity="1" offset="0%"></stop><stop stop-color="hsl(237, 69%, 60%)" stop-opacity="1" offset="100%"></stop></linearGradient></defs><g stroke-width="2" stroke="url(#ccchaos-grad)" fill="none" stroke-linecap="round"><path d="M383.6 82.15Q395.12 87.69 407.19 92.49 419.72 96.54 432.61 99.89 445.76 102.62 459.05 104.86 472.33 106.77 485.47 108.53 498.35 110.35 510.82 112.42 522.75 114.94 534.04 118.07 544.6 121.96 554.34 126.68 563.21 132.31 571.2 138.82 578.29 146.16 584.52 154.22 589.94 162.85 594.65 171.86 598.74 181.02 602.35 190.1 608.75 206.74 615.17 221.24 623.4 230.96 633.69 237.66 645.21 245.23 656.15 261.46 665.76 271.9 677.74 282.34 690.69 292.77 703.09 303.21 713.48 313.65 720.66 324.09 723.77 334.52 722.46 344.96 716.87 355.4 707.67 365.84 695.93 376.28 683.02 386.71 670.46 397.15 659.72 407.59 652.06 418.03 648.38 428.47 649.1 438.9 654.15 449.34 662.93 459.78 674.41 470.22 687.25 480.66 699.95 491.1 711 501.53 719.13 511.97 723.37 522.41 723.24 532.85 718.74 543.29 710.4 553.72 699.2 564.16 686.46 574.6 671.11 586.7 656.1 597.91 641.6 607.89 627.76 616.33 614.71 623.03 602.56 627.86 591.37 630.83 581.19 632.04 564.33 629.7 550.28 624.82 533.64 620 523.43 623.37 519.46 628.89 515.22 636.41 510.6 645.82 505.46 656.9 499.72 669.31 493.29 682.65 486.12 696.44 478.2 710.2 469.5 723.4 460.06 735.58 449.92 746.32 439.14 755.28 427.8 762.21 416 766.98 409.14 758.94 401.65 748.96 393.52 737.36 384.74 724.52 375.34 710.89 365.37 696.98 354.87 683.3 343.93 670.33 332.62 658.53 321.05 648.25 309.3 639.79 297.47 633.31 285.66 628.87 273.96 626.4 262.45 625.73 251.2 626.58 240.28 628.58 229.72 631.3 219.56 634.28 209.82 637.05 200.48 639.15 191.55 640.17 174.9 636.74 159.09 627.89 151.54 620.23 144.08 610.91 136.67 600.18 129.24 588.39 121.72 575.93 114.08 563.23 116.48 552.93 118.59 542.63 120.16 532.34 121 522.04 121.03 511.74 120.23 501.45 118.7 491.15 116.62 480.85 114.23 470.55 111.82 460.26 109.65 449.96 108 439.66 107.05 429.37 106.92 419.07 107.61 408.77 109.05 398.48 111.07 388.18 113.43 377.88 115.86 367.59 118.07 357.29 119.81 346.99 120.86 336.69 121.1 326.4 120.52 316.1 119.17 305.8 117.21 295.51 114.88 285.21 112.44 274.91 110.19 264.62 108.38 254.32 111.35 238.54 124.33 232.1 133.46 230.62 142.9 228.41 152.65 225.33 162.7 221.26 173.04 216.17 183.64 210.07 194.46 203.04 205.44 195.21 216.52 186.75 227.63 177.87 238.7 168.79 249.64 159.75 260.38 150.96 270.83 142.64 280.94 134.95 290.64 128.02 299.88 121.95 308.61 116.75 324.26 109.21 338.4 103.67 350.42 99.81 361.61 95.84 377.99 86.05 383.6 82.15" stroke-dasharray="10 8" transform="rotate(0, 400, 400)" opacity="0.05"></path><path d="M391.37 95.31Q403.4 100.67 415.72 105.31 428.23 109.23 440.82 112.47 453.39 115.1 465.81 117.25 477.96 119.04 489.74 120.65 501.04 122.25 511.76 124.03 521.82 126.17 531.16 128.84 547.11 136.67 560.7 146.97 566.18 153.58 570.99 160.96 575.24 168.98 579.01 177.49 582.45 186.31 585.68 195.23 588.85 204.04 592.11 212.53 599.8 227.33 609.11 239.66 622.31 247.22 638.36 252.07 642.59 262.2 650.34 272.34 660.76 282.47 672.72 292.61 684.93 302.74 696.06 312.88 704.91 323.01 710.51 333.15 712.27 343.29 709.98 353.42 703.9 363.56 694.68 373.69 683.34 383.83 671.08 393.96 659.25 404.1 649.13 414.23 641.81 424.37 638.09 434.5 638.37 444.64 642.62 454.78 650.39 464.91 660.81 475.05 672.78 485.18 684.99 495.32 696.11 505.45 704.95 515.59 710.53 525.72 712.27 535.86 709.96 546 703.86 556.13 694.63 566.27 683.27 576.4 668.55 586.88 653.93 596.18 639.56 604.04 625.6 610.29 612.19 614.84 599.45 617.7 587.47 618.95 576.33 618.78 566.07 617.46 556.72 615.3 541.11 610.21 527.95 606.19 511.71 613.87 501.5 628.24 497.49 637.96 493.24 649.09 488.65 661.3 483.62 674.21 478.05 687.41 471.88 700.44 465.07 712.87 457.59 724.29 449.43 734.34 440.6 742.73 431.13 749.25 421.08 753.81 413.04 746.15 404.38 736.71 395.12 725.77 385.32 713.64 375.02 700.74 364.3 687.49 353.24 674.35 341.92 661.73 330.44 650.06 318.88 639.69 307.33 630.87 295.89 623.82 284.62 618.61 273.61 615.25 262.9 613.62 252.54 613.54 242.57 614.72 233 616.82 223.85 619.45 215.1 622.2 198.87 625.9 183.58 626.54 169.31 619.68 155.32 607.74 148.33 598.98 141.26 588.9 134.07 577.8 126.71 566.03 129.06 556.02 130.97 546 132.23 535.99 132.71 525.98 132.35 515.97 131.2 505.96 129.37 495.95 127.06 485.94 124.54 475.93 122.06 465.92 119.9 455.91 118.29 445.89 117.41 435.88 117.35 425.87 118.12 415.86 119.64 405.85 121.74 395.84 124.18 385.83 126.72 375.82 129.07 365.81 130.98 355.8 132.24 345.79 132.71 335.78 132.35 325.77 131.19 315.76 129.36 305.75 127.05 295.74 124.52 285.72 122.05 275.71 119.89 265.7 121.85 250.24 133.63 243.34 142.1 241.19 150.86 238.19 159.92 234.25 169.29 229.34 178.97 223.48 188.94 216.73 199.18 209.2 209.66 201.05 220.32 192.47 231.11 183.65 241.96 174.82 252.82 166.17 263.59 157.9 274.22 150.18 284.63 143.14 294.74 136.89 304.49 131.47 313.82 126.88 330.83 120.32 346.32 115.51 359.34 112.07 371.1 108.4 386.39 99.05 391.37 95.31" stroke-dasharray="5 7" transform="rotate(4.04, 400, 400)" opacity="0.09"></path><path d="M400.67 108.48Q412.55 113.64 424.46 118.12 436.3 121.92 447.98 125.06 459.38 127.6 470.43 129.66 481.03 131.35 491.09 132.83 509.06 135.9 524.99 139.8 537.46 146.48 547.99 155.4 555.98 168.25 562.99 183.14 566.22 191.48 569.49 200.08 572.93 208.75 576.67 217.29 580.84 225.52 585.56 233.25 590.93 240.33 597.05 246.62 603.99 252.02 611.81 256.5 620.53 260.05 630.18 262.71 636.31 272.52 645.22 282.33 656 292.14 667.58 301.94 678.8 311.75 688.54 321.56 695.83 331.37 699.93 341.17 700.44 350.98 697.31 360.79 690.84 370.6 681.69 380.4 670.77 390.21 659.17 400.02 648.06 409.82 638.54 419.63 631.56 429.44 627.83 439.25 627.71 449.05 631.22 458.86 638.01 468.67 647.4 478.47 658.44 488.28 670.05 498.09 681.04 507.9 690.33 517.7 696.99 527.51 700.35 537.32 700.07 547.12 696.19 556.93 689.09 566.74 679.48 576.54 665.65 585.07 651.71 592.26 637.8 597.96 624.07 602.11 610.66 604.72 597.67 605.9 585.24 605.79 573.44 604.62 562.35 602.69 552.02 600.31 534.19 595.95 518.72 593.42 506.8 596.82 496.58 604.93 492.22 611.88 488.12 620.4 484.16 630.31 480.23 641.38 476.22 653.31 472.02 665.74 467.53 678.3 462.67 690.6 457.35 702.26 451.52 712.94 445.14 722.32 438.17 730.16 430.6 736.3 422.44 740.65 413.24 733.35 403.53 724.44 393.36 714.14 382.82 702.72 371.96 690.54 360.88 677.96 349.66 665.38 338.38 653.17 327.12 641.71 315.98 631.32 305.01 622.26 294.28 614.74 283.85 608.86 273.76 604.68 264.05 602.14 254.73 601.12 237.51 603.13 221.43 607.33 206.97 611.7 193.21 614.1 180.08 610.59 167 602.57 160.35 595.87 153.58 587.75 146.64 578.4 139.5 568.05 141.68 558.34 143.29 548.63 144.17 538.93 144.23 529.22 143.47 519.51 141.96 509.8 139.86 500.09 137.37 490.39 134.74 480.68 132.24 470.97 130.11 461.26 128.57 451.55 127.78 441.84 127.8 432.14 128.65 422.43 130.23 412.72 132.39 403.01 134.9 393.3 137.53 383.59 140 373.88 142.08 364.18 143.54 354.47 144.25 344.76 144.13 335.05 143.21 325.34 141.55 315.63 139.35 305.92 136.81 296.22 134.18 286.51 131.74 276.8 132.73 261.51 143.33 253.76 151.13 250.77 159.19 246.89 167.53 242.08 176.17 236.38 185.11 229.84 194.37 222.56 203.92 214.69 213.75 206.39 223.83 197.84 234.12 189.24 244.58 180.78 255.14 172.63 265.74 164.96 276.32 157.9 286.81 151.55 297.14 145.98 307.24 141.2 317.04 137.21 326.5 133.94 335.54 131.3 352.01 127.55 367 124.43 379.57 120.77 390.86 115.92 398.28 110.51 400.67 108.48" stroke-dasharray="5 10" transform="rotate(8.08, 400, 400)" opacity="0.13"></path><path d="M409.86 121.66Q420.96 126.63 431.86 130.95 442.49 134.62 452.76 137.66 462.6 140.13 471.96 142.11 488.71 145.03 503.65 147.64 522.76 155.53 533.84 164.18 540.73 175.51 547.34 188.95 550.76 196.68 554.42 204.8 558.43 213.16 562.89 221.57 567.89 229.86 573.53 237.85 579.87 245.39 586.97 252.33 594.86 258.54 603.57 263.94 613.09 268.48 623.41 272.13 630.97 281.58 640.56 291.02 651.28 300.47 662.16 309.92 672.2 319.37 680.48 328.82 686.23 338.27 688.92 347.71 688.32 357.16 684.47 366.61 677.72 376.06 668.71 385.51 658.25 394.96 647.31 404.41 636.89 413.85 627.95 423.3 621.31 432.75 617.58 442.2 617.11 451.65 619.94 461.09 625.8 470.54 634.16 479.99 644.25 489.44 655.15 498.89 665.85 508.34 675.36 517.78 682.82 527.23 687.55 536.68 689.09 546.13 687.32 555.58 682.4 565.02 674.77 574.47 662.05 580.9 649.04 585.95 635.89 589.61 622.71 591.89 609.62 592.87 596.76 592.73 584.22 591.64 572.11 589.87 560.51 587.7 549.51 585.43 539.15 583.38 529.48 581.84 512.63 582.06 497.88 586.02 486.25 597.26 476.14 612.83 471.76 622.82 467.62 633.74 463.64 645.3 459.7 657.2 455.72 669.1 451.6 680.66 447.25 691.57 442.61 701.51 431.92 716.79 419.84 727.47 409.75 720.54 399.34 712.14 388.67 702.46 377.81 691.74 366.86 680.26 355.87 668.36 344.94 656.37 334.13 644.62 323.51 633.44 313.13 623.12 303.05 613.92 293.31 606.03 283.93 599.6 274.95 594.68 258.35 590.02 242.89 589.26 229.05 592.81 215.97 597.26 203.63 600.14 191.42 600.43 178.96 594.56 166.08 584.51 159.33 577.13 152.35 568.57 154.23 559.19 155.45 549.8 155.89 540.42 155.5 531.04 154.34 521.66 152.5 512.28 150.15 502.9 147.52 493.51 144.83 484.13 142.34 474.75 140.28 465.37 138.83 455.99 138.14 446.61 138.25 437.22 139.17 427.84 140.81 418.46 143.01 409.08 145.58 399.7 148.28 390.31 150.86 380.93 153.08 371.55 154.74 362.17 155.69 352.79 155.84 343.4 155.18 334.02 153.76 324.64 151.72 315.26 149.25 305.87 146.56 296.49 143.92 287.11 144.04 271.91 153.5 263.05 160.65 259.15 168.01 254.38 175.62 248.77 183.5 242.38 191.66 235.3 200.14 227.67 208.91 219.63 217.99 211.35 227.36 203 237 194.76 246.86 186.79 256.92 179.23 267.13 172.22 277.43 165.86 287.76 160.22 298.07 155.33 308.28 151.18 318.33 147.75 328.16 144.98 337.71 142.75 355.54 139.55 372.09 136.81 386.3 133.37 399.07 128.76 407.26 123.59 409.86 121.66" stroke-dasharray="9 10" transform="rotate(12.12, 400, 400)" opacity="0.16"></path><path d="M417.29 134.83Q436.57 143.76 454.22 150.26 469.91 154.58 483.45 157.39 494.84 159.62 504.3 162.37 512.21 166.65 519.14 173.3 525.75 182.75 532.8 195 541.03 209.55 551.11 225.5 563.59 241.68 578.83 256.85 596.95 269.89 617.82 279.98 636.11 298.1 656.33 316.22 671.83 334.34 677.5 352.46 671.48 370.57 655.74 388.69 635.47 406.81 617.36 424.93 607.36 443.04 608.77 461.16 621.13 479.28 640.36 497.4 660.13 515.51 673.93 533.63 677.21 551.75 668.89 569.86 645.54 577.29 621.01 579.88 596.16 578.55 571.81 574.9 548.72 570.94 527.5 568.79 508.57 570.3 492.14 576.76 478.19 588.63 466.47 605.51 456.58 626.14 447.97 648.6 440.01 670.64 432.04 690.04 423.45 704.97 413.73 714.3 392.62 699.83 371.3 680.71 350.31 658.71 330.13 636.07 311.16 615.07 293.62 597.68 277.61 585.26 263.08 578.31 249.84 576.42 237.6 578.39 226 582.38 214.66 586.28 203.2 588.01 191.28 585.91 178.66 578.99 165.17 567.03 167.4 548.98 166.52 530.92 162.83 512.87 157.55 494.81 152.41 476.75 149.1 458.7 148.73 440.64 151.4 422.59 156.24 404.53 161.66 386.47 165.87 368.42 167.48 350.36 165.96 332.3 161.82 314.25 156.41 296.19 151.52 278.13 164.22 270.96 177.44 260.59 191.45 247.37 206.48 232.15 222.69 216.05 240.09 200.31 258.59 186.04 277.97 174.11 297.9 164.95 317.97 158.51 337.71 154.34 356.65 151.58 374.36 149.22 390.49 146.19 411.06 138.21 417.29 134.83" stroke-dasharray="0 1" transform="rotate(16.16, 400, 400)" opacity="0.20"></path><path d="M421.68 148Q437.71 156.58 451.95 162.86 464.3 167.06 474.82 169.74 490.93 174.54 504.8 182.81 511.87 190.77 519.98 201.41 529.71 214.46 541.53 229.29 555.74 244.94 572.49 260.34 591.71 274.37 613.13 286.12 631.64 303.4 649.96 320.68 662.57 337.96 665.68 355.24 658.35 372.52 642.79 389.8 623.68 407.08 606.77 424.36 597.15 441.64 597.72 458.92 608.3 476.2 625.71 493.48 644.71 510.76 659.59 528.04 665.86 545.32 661.64 562.6 640.88 566.45 618.56 566.44 595.34 563.76 571.95 560.04 549.09 557.08 527.38 556.63 507.32 560.07 489.27 568.22 473.4 581.2 459.72 598.4 448.04 618.55 438.04 639.92 429.28 660.53 421.25 678.51 413.39 692.35 405.19 701.13 384.59 687.5 364.48 669.62 345.28 649 327.31 627.51 310.76 607.14 295.69 589.66 282.03 576.39 269.6 567.98 258.15 564.35 247.33 564.71 236.8 567.68 226.2 571.53 215.22 574.41 203.59 574.68 191.16 571.1 177.83 563.04 179.05 545.75 177.24 528.46 172.95 511.17 167.46 493.89 162.43 476.6 159.37 459.31 159.21 442.02 161.99 424.73 166.87 407.44 172.39 390.15 176.88 372.86 179 355.57 178.1 338.28 174.46 320.99 169.17 303.7 163.83 286.41 175.52 277.39 187.53 265.55 200.13 251.5 213.59 236.18 228.08 220.65 243.73 206 260.54 193.14 278.42 182.68 297.16 174.85 316.46 169.49 335.93 166.06 355.17 163.77 373.74 161.67 391.22 158.82 414.48 151.22 421.68 148" stroke-dasharray="11 6" transform="rotate(20.200000000000003, 400, 400)" opacity="0.24"></path><path d="M422.23 161.17Q434.99 169.39 446.11 175.46 463.45 181.73 477.94 185.71 484.6 188.38 491.71 192.71 499.8 199.25 509.34 208.28 520.71 219.71 534.17 233.15 549.85 247.88 567.72 263.01 587.56 277.53 609.02 290.52 626.94 306.91 642.96 323.3 652.7 339.7 653.49 356.09 645.11 372.48 629.86 388.88 611.91 405.27 596.18 421.66 586.96 438.06 586.78 454.45 595.68 470.84 611.24 487.23 629.2 503.63 644.63 520.02 653.33 536.41 652.9 552.8 634.83 553.78 614.96 552.01 593.82 548.8 571.96 545.64 550 544.08 528.51 545.46 508.02 550.73 488.94 560.36 471.59 574.17 456.14 591.44 442.59 610.95 430.85 631.13 420.66 650.31 411.7 666.92 403.54 679.72 395.74 687.96 376.69 675.15 358.64 658.48 341.85 639.21 326.45 618.92 312.47 599.3 299.81 581.93 288.3 568.04 277.7 558.37 267.69 553.1 257.95 551.76 248.15 553.4 238.01 556.66 227.29 559.99 215.8 561.86 203.45 560.97 190.22 556.42 190.35 539.96 187.65 523.49 182.85 507.03 177.26 490.56 172.42 474.1 169.65 457.63 169.71 441.17 172.58 424.7 177.47 408.24 183.05 391.77 187.8 375.31 190.4 358.84 190.16 342.38 187.13 325.91 182.15 309.44 176.57 292.98 187.38 282.3 198.32 269.38 209.64 254.94 221.59 239.93 234.41 225.3 248.25 211.96 263.22 200.6 279.31 191.61 296.44 185.07 314.43 180.69 333.02 177.93 351.86 176.04 370.59 174.15 388.81 171.46 414.18 164.23 422.23 161.17" stroke-dasharray="5 7" transform="rotate(24.24, 400, 400)" opacity="0.28"></path><path d="M418.86 174.33Q428.76 182.2 437.41 188.06 451.8 194.13 465.24 197.65 472.44 199.69 480.58 203.03 490.05 208.24 501.14 215.69 514.06 225.44 528.92 237.29 545.68 250.76 564.18 265.15 584.14 279.62 605.17 293.3 621.79 308.77 635.25 324.24 642.21 339.71 640.95 355.18 631.78 370.65 616.97 386.12 600.19 401.59 585.59 417.06 576.78 432.53 575.94 448 583.29 463.47 597 478.94 613.67 494.41 629.19 509.88 633.46 532.55 609.92 537.1 591.14 534.08 571.26 532.01 550.79 532.1 530.2 535.33 510 542.29 490.6 553.12 472.38 567.49 455.61 584.59 440.46 603.3 426.97 622.24 415.08 640 404.64 655.28 395.4 667.07 387.04 674.8 370.34 662.78 354.91 647.29 340.83 629.36 328.07 610.29 316.53 591.53 306.03 574.44 296.33 560.16 287.14 549.48 278.18 542.71 269.14 539.68 259.77 539.79 249.84 542.03 239.19 545.17 227.71 547.88 215.38 548.91 202.22 547.25 201.24 531.65 197.73 516.06 192.55 500.47 186.98 484.88 182.4 469.29 179.95 453.69 180.23 438.1 183.17 422.51 188.04 406.92 193.65 391.32 198.59 375.73 201.66 360.14 202.08 344.55 199.75 328.95 195.26 313.36 189.71 297.77 199.77 285.81 209.78 272.27 219.97 257.92 230.57 243.61 241.82 230.17 253.9 218.31 266.98 208.49 281.13 200.94 296.37 195.59 312.62 192.11 329.75 189.94 347.52 188.38 365.66 186.67 383.83 184.12 401.68 180.14 418.86 174.33 418.86 174.33 418.86 174.33" stroke-dasharray="6 5" transform="rotate(28.28, 400, 400)" opacity="0.32"></path><path d="M412.16 187.5Q426.78 199.78 440.13 207.03 454.67 209.91 471.95 213.74 482.88 217.76 495.43 223.7 509.64 231.77 525.5 241.91 542.86 253.85 561.49 267.09 581.08 280.97 601.23 294.76 616 309.29 626.75 323.81 631.11 338.33 628.09 352.86 618.37 367.38 604.12 381.91 588.51 396.43 575 410.96 566.62 425.48 565.22 440.01 571.12 454.53 583 469.05 598.22 483.58 613.39 498.1 621.53 518.8 603.22 522.24 586.93 520.03 569.34 519.42 550.81 521.29 531.71 526.29 512.47 534.7 493.48 546.46 475.11 561.09 457.67 577.81 441.42 595.58 426.51 613.23 413.02 629.58 400.95 643.58 390.21 654.41 380.63 661.63 366.73 650.4 354.11 636.05 342.7 619.42 332.37 601.61 322.93 583.79 314.16 567.16 305.8 552.73 297.58 541.27 289.25 533.2 280.57 528.58 271.34 527.05 261.42 527.96 250.7 530.37 239.16 533.2 226.82 535.35 213.73 535.8 211.69 521.11 207.49 506.43 202.06 491.75 196.62 477.07 192.37 462.38 190.26 447.7 190.76 433.02 193.76 418.33 198.59 403.65 204.18 388.97 209.28 374.29 212.75 359.6 213.83 344.92 212.27 330.24 208.43 315.56 203.14 300.88 212.61 288.14 221.86 274.5 231.1 260.69 240.53 247.44 250.38 235.42 260.84 225.12 272.1 216.85 284.29 210.67 297.49 206.43 311.74 203.73 326.98 202.06 343.1 200.78 359.94 199.22 377.25 196.79 394.76 192.99 412.16 187.5 412.16 187.5 412.16 187.5" stroke-dasharray="5 10" transform="rotate(32.32, 400, 400)" opacity="0.35"></path><path d="M403.3 200.68Q416.34 212.45 429.66 219.52 437.18 220.99 445.62 221.98 455.19 223.08 466.06 224.85 478.34 227.81 492.05 232.38 507.15 238.82 523.53 247.21 540.98 257.43 559.24 269.18 578.01 282 596.91 295.3 609.41 308.87 617.44 322.45 619.42 336.02 614.95 349.6 604.91 363.17 591.31 376.74 576.85 390.32 564.41 403.89 556.46 417.47 554.59 431.04 559.17 444.62 569.28 458.19 582.92 471.77 597.37 485.34 608.37 504.49 594.75 507.94 580.96 507.01 565.81 508.07 549.51 511.71 532.35 518.3 514.65 527.9 496.74 540.27 478.94 554.9 461.57 571.03 444.89 587.76 429.13 604.08 414.46 619.05 400.97 631.81 388.71 641.73 377.63 648.45 366.58 637.98 356.59 624.74 347.51 609.4 339.16 592.84 331.33 576.06 323.77 560.03 316.25 545.67 308.55 533.69 300.47 524.57 291.84 518.5 282.53 515.36 272.47 514.75 261.62 516.02 249.99 518.35 237.65 520.83 224.69 522.56 221.69 508.81 216.95 495.06 211.43 481.31 206.21 467.56 202.34 453.8 200.59 440.05 201.31 426.3 204.35 412.55 209.11 398.8 214.64 385.05 219.84 371.3 223.67 357.55 225.38 343.81 224.63 330.06 221.56 316.31 216.78 302.56 225.78 289.61 234.44 276.39 242.93 263.53 251.41 251.64 260.08 241.18 269.13 232.5 278.74 225.74 289.07 220.84 300.26 217.58 312.39 215.57 325.51 214.31 339.59 213.24 354.56 211.8 370.29 209.48 394.96 203.27 403.3 200.68" stroke-dasharray="8 6" transform="rotate(36.36, 400, 400)" opacity="0.39"></path><path d="M393.87 213.85Q407 225.1 421.59 232 430.25 233.45 439.96 234.34 450.82 235.13 462.9 236.32 476.19 238.38 490.65 241.73 506.15 246.65 522.53 253.32 539.56 261.74 557 271.78 574.55 283.14 591.91 295.41 601.89 308.04 607.3 320.68 607.18 333.31 601.55 345.95 591.41 358.58 578.55 371.22 565.24 383.85 553.82 396.49 546.32 409.12 544.06 421.76 547.44 434.4 555.87 447.03 567.84 459.67 581.26 472.3 583.61 492.8 560.37 498.11 546.45 503.41 531.51 511.34 515.77 521.81 499.49 534.5 482.91 548.86 466.31 564.23 449.95 579.82 434.06 594.81 418.84 608.42 404.45 620 391.01 629.04 378.59 635.28 370.03 625.56 362.2 613.38 354.9 599.29 347.94 584 341.12 568.31 334.22 553.03 327.07 538.94 319.49 526.69 311.35 516.78 302.55 509.48 293.02 504.82 282.75 502.63 271.76 502.5 260.08 503.85 247.8 505.99 235.04 508.16 231.23 495.35 226.13 482.53 220.66 469.72 215.77 456.91 212.34 444.1 210.96 431.29 211.88 418.48 214.94 405.67 219.6 392.86 225.03 380.05 230.28 367.24 234.41 354.43 236.71 341.62 236.76 328.81 234.55 316 230.48 303.19 239.14 290.6 247.37 278.28 255.3 266.73 263.06 256.4 270.8 247.6 278.69 240.51 286.91 235.16 295.61 231.42 304.95 229.02 315.04 227.58 325.99 226.65 337.85 225.75 350.62 224.4 364.27 222.17 386.3 216.29 393.87 213.85" stroke-dasharray="8 9" transform="rotate(40.400000000000006, 400, 400)" opacity="0.43"></path><path d="M385.51 227.02Q392.28 233.42 399.62 238.42 407.69 242.06 416.6 244.49 426.47 245.95 437.35 246.78 449.26 247.37 462.18 248.13 476.03 249.47 490.72 251.76 506.1 255.33 521.97 260.38 538.13 267.01 554.35 275.22 570.38 284.85 585.98 295.64 593.36 307.36 596.33 319.08 594.43 330.8 587.95 342.52 577.9 354.24 565.85 365.95 553.66 377.67 543.23 389.39 536.19 401.11 533.63 412.83 535.94 424.55 542.78 436.27 553.06 447.99 565.21 459.71 571.13 481.01 552.89 489.61 541.33 496.34 528.72 505.31 515.19 516.33 500.92 529.02 486.08 542.9 470.88 557.35 455.53 571.73 440.24 585.38 425.21 597.68 410.62 608.13 396.61 616.34 383.32 622.11 376.65 613.11 370.3 601.97 364.12 589.1 357.92 575.07 351.53 560.51 344.8 546.09 337.61 532.46 329.84 520.2 321.44 509.77 312.34 501.49 302.55 495.51 292.08 491.8 280.98 490.14 269.34 490.18 257.23 491.43 244.77 493.32 240.34 481.44 235.08 469.56 229.8 457.68 225.33 445.8 222.36 433.93 221.35 422.05 222.47 410.17 225.53 398.29 230.06 386.41 235.36 374.54 240.59 362.66 244.96 350.78 247.78 338.9 248.6 327.03 247.31 315.15 244.1 303.27 252.52 291.57 260.47 280.54 268.02 270.55 275.27 261.9 289.42 249.96 303.86 242.42 320.23 239.91 338.52 238.3 349.01 237.01 360.34 234.86 379.02 229.3 385.51 227.02" stroke-dasharray="9 3" transform="rotate(44.44, 400, 400)" opacity="0.47"></path><path d="M379.72 240.18Q387.39 246.21 395.78 250.98 404.96 254.53 414.97 256.96 425.84 258.46 437.57 259.3 450.1 259.77 463.36 260.23 477.26 261.01 491.65 262.46 506.39 264.86 521.3 268.45 536.2 273.4 550.9 279.76 565.2 287.52 578.93 296.55 583.77 307.38 584.57 318.22 581.22 329.05 574.18 339.88 564.4 350.72 553.2 361.55 542.12 372.39 532.64 383.22 526.07 394.06 523.28 404.89 524.66 415.73 530.02 426.56 538.64 437.4 549.34 448.23 557.41 470.73 543.37 482.57 534.02 490.43 523.69 500.1 512.44 511.33 500.37 523.76 487.6 536.94 474.25 550.36 460.48 563.48 446.45 575.8 432.34 586.84 418.29 596.21 404.47 603.63 391 608.94 385.45 600.65 379.87 590.5 374.14 578.81 368.11 566.02 361.67 552.64 354.74 539.18 347.23 526.18 339.1 514.14 330.33 503.47 320.92 494.51 310.89 487.44 300.31 482.36 289.22 479.19 277.73 477.76 265.92 477.75 253.89 478.79 249.07 467.82 243.83 456.85 238.89 445.89 234.91 434.92 232.43 423.96 231.79 412.99 233.08 402.02 236.12 391.06 240.5 380.09 245.62 369.13 250.79 358.16 255.31 347.2 258.57 336.23 260.11 325.27 259.74 314.3 257.51 303.34 265.76 292.96 273.52 283.51 280.84 275.24 287.78 268.3 300.82 259.22 313.59 253.81 327.16 252.16 341.93 250.88 350.29 249.63 359.34 247.56 374.43 242.32 379.72 240.18" stroke-dasharray="4 7" transform="rotate(48.48, 400, 400)" opacity="0.51"></path><path d="M377.5 253.35Q386.2 259 395.59 263.53 405.69 266.98 416.5 269.41 427.97 270.96 440.06 271.84 452.68 272.29 465.75 272.56 479.15 272.96 492.75 273.75 506.42 275.21 520 277.56 533.35 280.99 546.33 285.62 558.8 291.51 570.62 298.62 573.11 308.61 572.06 318.6 567.61 328.58 560.27 338.57 550.91 348.56 540.62 358.55 530.61 368.54 522.05 378.53 515.95 388.51 513.01 398.5 513.59 408.49 517.61 418.48 524.61 428.47 533.77 438.46 546.78 454.55 544.42 464.44 538.58 469.85 531.98 476.93 524.56 485.56 516.32 495.58 507.25 506.71 497.4 518.62 486.81 530.92 475.56 543.21 463.75 555.06 451.48 566.07 438.87 575.89 426.05 584.24 413.14 590.9 400.27 595.78 395.09 588.18 389.63 578.98 383.79 568.43 377.5 556.87 370.69 544.67 363.32 532.25 355.37 520.03 346.83 508.43 337.72 497.79 328.08 488.44 317.94 480.59 307.38 474.37 296.46 469.84 285.28 466.93 273.91 465.48 262.44 465.27 257.48 455.19 252.46 445.11 247.96 435.02 244.53 424.94 242.56 414.86 242.27 404.78 243.71 394.69 246.71 384.61 250.91 374.53 255.82 364.45 260.87 354.36 265.46 344.28 269.06 334.2 271.25 324.12 271.76 314.03 270.54 303.95 278.66 295.2 286.31 287.5 300.1 276.3 312.8 268.69 324.4 265.83 335.88 264.56 348.21 263.21 361.67 260.25 373.39 255.34 377.5 253.35" stroke-dasharray="3 8" transform="rotate(52.52, 400, 400)" opacity="0.54"></path><path d="M379.26 266.52Q388.77 271.78 398.85 276.07 409.46 279.4 420.57 281.82 432.11 283.44 444.01 284.4 456.19 284.88 468.54 285.09 480.97 285.24 493.36 285.58 505.61 286.32 517.61 287.68 529.24 289.83 540.4 292.92 556.2 304.25 558.87 320.64 553.65 329.82 546.27 339 537.46 348.18 528.11 357.36 519.14 366.54 511.46 375.72 505.83 384.9 502.82 394.08 502.73 403.26 505.56 412.44 511.04 421.62 518.61 430.79 530.28 446.45 528.83 458.1 524.17 464.66 518.97 472.52 513.16 481.56 506.72 491.57 499.6 502.31 491.81 513.48 483.34 524.77 474.24 535.86 464.54 546.42 454.3 556.17 443.59 564.84 432.49 572.22 412.59 576.93 398.27 567.4 391.98 557.96 385.18 547.59 377.85 536.58 370 525.26 361.63 513.94 352.77 502.96 343.45 492.61 333.73 483.16 323.67 474.84 313.32 467.8 302.76 462.15 292.05 457.9 281.29 455.02 270.53 453.39 265.65 444.15 261.02 434.92 257.08 425.69 254.23 416.45 252.75 407.22 252.8 397.98 254.37 388.75 257.3 379.52 261.29 370.28 265.96 361.05 270.83 351.81 275.42 342.58 279.26 333.34 281.97 324.11 283.29 314.87 283.07 305.64 291.06 298.68 298.62 292.76 312.28 284.64 324.78 279.45 343.49 277.3 356.38 276.1 373.3 269.53 379.26 266.52" stroke-dasharray="5 11" transform="rotate(56.56, 400, 400)" opacity="0.58"></path><path d="M384.68 279.7Q404.82 288.59 426.24 294.2 448.47 296.94 470.89 297.74 492.87 297.85 513.75 298.72 532.95 301.69 550 307.79 545.08 324.6 532.22 341.41 515.67 358.22 500.87 375.03 492.7 391.84 493.85 408.65 503.95 425.46 519.65 442.27 512.7 453.6 504.72 469.16 495.17 487.91 483.65 508.25 469.98 528.28 454.17 546.1 436.4 560.14 417.04 569.43 404.67 555.77 390.44 538.16 374.41 518.15 356.8 497.64 337.93 478.55 318.23 462.55 298.18 450.76 278.24 443.57 269.58 426.73 264.02 409.89 263.38 393.05 267.89 376.21 276.05 359.37 285.18 342.53 292.27 325.69 294.98 308.85 310.25 299.45 324.04 293.64 336.33 290.85 347.26 290.01 357.1 289.77 366.28 288.73 379.98 282.68 384.68 279.7" stroke-dasharray="4 2" transform="rotate(60.599999999999994, 400, 400)" opacity="0.62"></path><path d="M392.8 292.87Q412.33 301.09 432.35 306.52 452.4 309.42 472.03 310.42 490.75 310.44 508.16 310.55 523.89 311.84 537.72 315.26 530.78 330.58 518.16 345.9 503.31 361.22 490.28 376.54 482.65 391.86 482.5 407.17 489.87 422.49 502.75 437.81 496.43 450.72 489.71 466.6 482.12 484.42 473.27 502.85 462.87 520.45 450.78 535.87 436.98 548.02 421.57 556.26 408 544.09 392.91 528.61 376.48 510.92 359.02 492.38 340.84 474.45 322.33 458.47 303.85 445.48 285.75 436.12 278.24 420.84 273.93 405.56 274.02 390.28 278.48 375 286.08 359.71 294.75 344.43 302.12 329.15 306.17 313.87 321.04 307.62 334.7 304.15 347.03 302.78 358.06 302.57 367.89 302.45 376.74 301.34 388.86 295.61 392.8 292.87" stroke-dasharray="10 5" transform="rotate(64.64, 400, 400)" opacity="0.66"></path><path d="M402.19 306.04Q420.01 313.57 437.69 318.77 454.9 321.81 471.33 323.09 486.68 323.23 500.71 323 514.68 330.86 504.14 352.37 491.03 366.23 479.69 380.1 472.66 393.96 471.48 407.82 476.43 421.68 486.4 435.55 480.39 449.14 474.42 464.56 468.13 480.9 461.18 497.17 453.29 512.33 444.26 525.46 433.94 535.85 422.29 543.09 407.95 532.35 392.57 518.91 376.4 503.5 359.7 487.08 342.76 470.68 325.86 455.33 309.27 441.91 293.21 431.07 287.05 417.29 284 403.52 284.72 389.74 289.07 375.97 296.07 362.19 304.16 348.42 311.55 334.65 316.58 320.87 330.87 317.24 344.23 315.56 356.53 315.17 367.7 315.3 377.75 315.14 386.74 313.93 398.51 308.54 402.19 306.04" stroke-dasharray="2 3" transform="rotate(68.68, 400, 400)" opacity="0.70"></path><path d="M411.2 319.2Q426.44 326.02 441.18 330.95 455.21 334.08 468.35 335.66 480.45 336.08 491.41 335.84 501.16 341.83 490.17 360.56 478.83 372.98 469.1 385.4 462.71 397.83 460.79 410.25 463.67 422.68 470.85 435.1 464.94 448.47 459.35 462.73 453.82 477.19 448.09 491.15 441.94 503.91 435.15 514.89 427.57 523.65 419.08 529.93 404.72 520.57 389.83 509.06 374.62 495.87 359.31 481.65 344.09 467.07 329.15 452.89 314.68 439.76 300.79 428.26 296.11 415.96 294.23 403.66 295.49 391.35 299.66 379.05 306 366.75 313.41 354.45 320.56 342.15 326.19 329.84 339.66 328.19 352.48 327.71 364.53 327.88 375.71 328.1 385.96 327.81 395.26 326.49 407.42 321.46 411.2 319.2" stroke-dasharray="1 8" transform="rotate(72.72, 400, 400)" opacity="0.73"></path><path d="M418.23 332.37Q430.44 338.44 442.01 343.04 452.86 346.2 462.9 348.06 482.98 353.85 476.31 370.03 466.71 381.01 458.51 391.99 452.82 402.97 450.41 413.95 451.6 424.94 456.25 435.92 450.39 448.25 444.97 460.8 439.82 473.11 434.78 484.71 429.67 495.17 424.35 504.15 418.66 511.39 412.5 516.76 399 508.73 385.39 499.05 371.81 488 358.39 475.98 345.27 463.44 332.56 450.84 320.34 438.67 308.68 427.36 305.48 416.51 304.66 405.67 306.32 394.82 310.25 383.97 315.9 373.13 322.51 362.28 329.19 351.43 335.02 340.59 347.4 340.23 359.39 340.43 370.88 340.79 381.78 340.92 392.01 340.43 401.51 339.01 414.24 334.37 418.23 332.37" stroke-dasharray="9 9" transform="rotate(76.76, 400, 400)" opacity="0.77"></path><path d="M422.03 345.54Q431.17 350.84 439.73 355.04 454.73 359.75 467.91 361.78 472.15 366.19 462.57 380.25 454.68 389.77 447.92 399.29 442.97 408.8 440.32 418.32 440.23 427.83 442.73 437.35 436.98 448.01 431.67 458.49 426.72 468.5 422.01 477.78 412.93 492.6 403.71 503.59 391.89 496.85 380.22 488.88 368.77 479.86 357.61 470.02 346.81 459.6 336.43 448.9 326.51 438.22 317.06 427.85 315.24 418.46 315.3 409.08 317.23 399.69 320.83 390.3 325.75 380.91 331.49 371.53 337.49 362.14 343.13 352.75 354.16 353.05 365 353.47 375.58 353.76 385.81 353.67 395.62 352.97 404.96 351.47 417.91 347.28 422.03 345.54" stroke-dasharray="9 9" transform="rotate(80.80000000000001, 400, 400)" opacity="0.81"></path><path d="M421.95 358.72Q434.3 366.94 445.04 372.04 454.3 374.35 462.32 374.56 449 390.6 437.33 406.64 430.49 422.67 430.36 438.71 419.78 455.52 410.51 470.34 402.15 482.17 394.25 490.41 375.38 478.56 357.6 463.67 341.13 446.77 326.07 429.11 326.17 413.3 331.42 397.48 340.38 381.66 350.61 365.84 369.45 366.59 387.87 366.27 413.72 361.3 421.95 358.72" stroke-dasharray="5 5" transform="rotate(84.84, 400, 400)" opacity="0.85"></path><path d="M417.99 371.89Q433.06 382.53 445.98 387.49 435.62 400.45 426.74 413.41 420.91 426.36 419.15 439.32 409.5 451.66 400.84 462.34 393.01 470.94 385.82 477.24 371.92 468.07 358.94 456.89 346.93 444.16 335.87 430.46 337.29 417.67 342.01 404.88 349.2 392.08 357.59 379.28 372.95 379.52 388.27 378.65 410.67 374.05 417.99 371.89" stroke-dasharray="1 1" transform="rotate(88.88, 400, 400)" opacity="0.89"></path><path d="M410.85 385.05Q421.57 401.57 416.15 418.99 411.54 428.79 409.07 438.59 400.92 446.72 393.37 453.75 378.55 458.49 362.11 449.62 354.07 440.82 346.55 431.23 348.66 421.54 352.61 411.84 357.99 402.14 364.26 392.45 375.81 392.01 387.48 390.73 405.02 386.75 410.85 385.05" stroke-dasharray="10 6" transform="rotate(92.92, 400, 400)" opacity="0.92"></path><path d="M401.79 398.22Q407.96 405.07 414.02 409.78 405.57 422.91 400.01 436.06 388.23 444.6 377.52 450.91 367.39 441.83 358.19 430.81 363.2 417.76 370.81 404.73 393.95 400.34 401.79 398.22" stroke-dasharray="1 1" transform="rotate(96.96, 400, 400)" opacity="0.96"></path></g></svg>