<?xml version="1.0" standalone="no"?>
<!DOCTYPE svg PUBLIC "-//W3C//DTD SVG 1.1//EN" "http://www.w3.org/Graphics/SVG/1.1/DTD/svg11.dtd" >
<svg xmlns="http://www.w3.org/2000/svg" xmlns:xlink="http://www.w3.org/1999/xlink" version="1.1">
<metadata>
Created by FontForge 20190801 at Mon Aug  2 22:45:28 2021
 By Unknown
Copyright (c) 2021 by www.fontiran.com All rights reserved.
</metadata>
<defs>
<font id="KalamehWebFaNum-Regular" horiz-adv-x="0" >
  <font-face 
    font-family="KalamehWebFaNum"
    font-weight="400"
    font-stretch="normal"
    units-per-em="1000"
    panose-1="0 0 0 0 0 0 0 0 0 0"
    ascent="800"
    descent="-200"
    x-height="493"
    cap-height="684"
    bbox="-189 -557 1354 1193"
    underline-thickness="50"
    underline-position="-175"
    unicode-range="U+000D-FEFC"
  />
<missing-glyph horiz-adv-x="495" 
d="M45 705h405v-705h-405v705zM235.5 313.5q4.5 8.5 8.5 20.5t6 19l-18 13q-7 -5 -18 -13t-19 -16t-18 -22l-35 -49l39 -29l36 49q14 19 18.5 27.5zM189.5 367q9.5 -1 21.5 -1h21l7 19q-6 5 -17 13.5t-21.5 13.5t-26.5 10l-59 19l-15 -47l58 -18q22 -8 31.5 -9zM356 266
l-35 49q-14 18 -21 25t-17 14t-17 12l-16 -13q7 -28 11 -36.5t20 -30.5l35 -49zM267.5 406q4.5 13 5.5 24.5t1 28.5v61h-49v-61q0 -23 1.5 -32.5t5.5 -21.5t7 -20h21q3 8 7.5 21zM398 393l-15 47l-58 -19q-22 -7 -30.5 -11.5t-18.5 -12t-16 -12.5l6 -19l27 -1q16 0 47 10z
" />
    <glyph glyph-name="uniFDF2" unicode="&#x627;&#xfedf;&#xfee0;&#xfeea;" horiz-adv-x="1398" arabic-form="isolated" 
d="M166.5 55q-44.5 26 -71 71t-26.5 98q0 52 26.5 95t71 68t97.5 25v0h108v57h81v-245q0 -53 -25 -98t-68 -71t-96 -26v0q-53 0 -97.5 26zM341 147.5q31 31.5 31 76.5v106h-108v0q-44 0 -75.5 -31t-31.5 -75q0 -45 31.5 -76.5t75.5 -31.5v0q46 0 77 31.5zM456.5 22.5
q-35.5 22.5 -55 60.5t-19.5 84v157h71v-154q0 -34 24.5 -58.5t58.5 -24.5h47q10 0 10 -10v-67q0 -10 -10 -10h-47q-44 0 -79.5 22.5zM573 10v67q0 10 10 10h46q35 0 59.5 24.5t24.5 58.5v299h82v-299q0 -34 24.5 -58.5t59.5 -24.5h47q10 0 10 -10v-67q0 -10 -10 -10h-47
q-41 0 -74 20.5t-51 54.5q-18 -34 -51 -54.5t-74 -20.5h-46q-10 0 -10 10zM916 10v67q0 10 10 10h38q35 0 60 25t25 61v392h82v-397q0 -46 -22.5 -84.5t-60.5 -61t-84 -22.5h-38q-10 0 -10 10zM633 576.5q-26 26.5 -26 62.5v71h58v-71q0 -13 9 -22t22 -9t22 9t9 22v62h56
v-62q0 -13 9 -22t22 -9t22 9t9 22v71h58v-71q0 -36 -26 -62.5t-63 -26.5q-19 0 -34.5 9t-24.5 25q-9 -16 -24.5 -25t-34.5 -9q-37 0 -63 26.5zM727 909h56v-160h-56v160zM1257 659h82v-659h-82v659z" />
    <glyph glyph-name="uni06440622" unicode="&#xfedf;&#xfe82;" horiz-adv-x="523" arabic-form="isolated" 
d="M66 87h235q35 0 59.5 24.5t24.5 59.5v465h82v-469q0 -45 -22.5 -83.5t-60.5 -61t-84 -22.5h-234v87zM83 575l80 20l108 -444l-79 -21zM1.5 701.5q22.5 22.5 57.5 22.5h173v-65h-166q-12 0 -21 -8.5t-9 -21.5v-41h-57v56q0 35 22.5 57.5z" />
    <glyph glyph-name="uni06440622.fina" unicode="&#xfee0;&#xfe82;" horiz-adv-x="597" arabic-form="final" 
d="M66 87h235q35 0 59.5 24.5t24.5 58.5v465h82v-465q0 -34 24.5 -58.5t59.5 -24.5h46q10 0 10 -10v-67q0 -10 -10 -10h-46q-41 0 -74.5 20.5t-50.5 54.5q-17 -34 -50.5 -54.5t-74.5 -20.5h-235v87zM83 575l80 20l108 -444l-79 -21zM1.5 701.5q22.5 22.5 57.5 22.5h173v-65
h-166q-12 0 -21 -8.5t-9 -21.5v-41h-57v56q0 35 22.5 57.5z" />
    <glyph glyph-name="uni06440623" unicode="&#xfedf;&#xfe84;" horiz-adv-x="523" arabic-form="isolated" 
d="M66 87h235q35 0 59.5 24.5t24.5 59.5v465h82v-469q0 -45 -22.5 -83.5t-60.5 -61t-84 -22.5h-234v87zM83 575l80 20l108 -444l-79 -21zM5 704l99 36q-34 15 -46 48q-6 15 -6 33q0 32 20 59.5t54 39.5l67 25l22 -61l-61 -23q-15 -5 -23.5 -17.5t-8.5 -27.5
q0 -22 14.5 -35.5t35.5 -13.5q7 0 19 4l83 30l22 -60l-269 -98z" />
    <glyph glyph-name="uni06440623.fina" unicode="&#xfee0;&#xfe84;" horiz-adv-x="597" arabic-form="final" 
d="M66 87h235q35 0 59.5 24.5t24.5 58.5v465h82v-465q0 -34 24.5 -58.5t59.5 -24.5h46q10 0 10 -10v-67q0 -10 -10 -10h-46q-41 0 -74.5 20.5t-50.5 54.5q-17 -34 -50.5 -54.5t-74.5 -20.5h-235v87zM83 575l80 20l108 -444l-79 -21zM5 704l99 36q-34 15 -46 48q-6 15 -6 33
q0 32 20 59.5t54 39.5l67 25l22 -61l-61 -23q-15 -5 -23.5 -17.5t-8.5 -27.5q0 -22 14.5 -35.5t35.5 -13.5q7 0 19 4l83 30l22 -60l-269 -98z" />
    <glyph glyph-name="uni06440625" unicode="&#xfedf;&#xfe88;" horiz-adv-x="523" arabic-form="isolated" 
d="M66 87h235q35 0 59.5 24.5t24.5 59.5v465h82v-469q0 -45 -22.5 -83.5t-60.5 -61t-84 -22.5h-234v87zM66 -293l100 37q-14 5 -26.5 17t-20.5 30q-6 16 -6 33q0 32 20 60t54 40l67 24l22 -61l-61 -23q-15 -5 -23.5 -17t-8.5 -27q0 -22 14.5 -35.5t34.5 -13.5q11 0 20 3
l84 30l22 -60l-270 -98zM77 599l79 21l115 -469l-79 -21z" />
    <glyph glyph-name="uni06440625.fina" unicode="&#xfee0;&#xfe88;" horiz-adv-x="597" arabic-form="final" 
d="M66 87h235q35 0 59.5 24.5t24.5 58.5v465h82v-465q0 -34 24.5 -58.5t59.5 -24.5h46q10 0 10 -10v-67q0 -10 -10 -10h-46q-41 0 -74.5 20.5t-50.5 54.5q-17 -34 -50.5 -54.5t-74.5 -20.5h-235v87zM66 -293l100 37q-14 5 -26.5 17t-20.5 30q-6 16 -6 33q0 32 20 60t54 40
l67 24l22 -61l-61 -23q-15 -5 -23.5 -17t-8.5 -27q0 -22 14.5 -35.5t34.5 -13.5q11 0 20 3l84 30l22 -60l-270 -98zM77 599l79 21l115 -469l-79 -21z" />
    <glyph glyph-name="uni06440627" unicode="&#xfedf;&#xfe8e;" horiz-adv-x="523" arabic-form="isolated" 
d="M66 87h235q35 0 59.5 24.5t24.5 59.5v465h82v-469q0 -45 -22.5 -83.5t-60.5 -61t-84 -22.5h-234v87zM77 599l79 21l115 -469l-79 -21z" />
    <glyph glyph-name="uni06440627.fina" unicode="&#xfee0;&#xfe8e;" horiz-adv-x="597" arabic-form="final" 
d="M66 87h235q35 0 59.5 24.5t24.5 58.5v465h82v-465q0 -34 24.5 -58.5t59.5 -24.5h46q10 0 10 -10v-67q0 -10 -10 -10h-46q-41 0 -74.5 20.5t-50.5 54.5q-17 -34 -50.5 -54.5t-74.5 -20.5h-235v87zM77 599l79 21l115 -469l-79 -21z" />
    <glyph glyph-name="uni06440671" unicode="&#xfedf;&#xfb51;" horiz-adv-x="523" 
d="M66 87h235q35 0 59.5 24.5t24.5 59.5v465h82v-469q0 -45 -22.5 -83.5t-60.5 -61t-84 -22.5h-234v87zM83 575l80 20l108 -444l-79 -21zM-24 740l132 79l26 -47l3 -6l-130 -78zM116.5 665.5q-24.5 25.5 -24.5 62.5v28l46 9v-31q0 -13 12.5 -25t28.5 -12h78q15 0 27 12
t12 28q0 20 -11 32t-31 12q-7 0 -16.5 -5t-22.5 -13l-99 -60l-20 53l102 62q15 9 27.5 13t31.5 4q39 0 67.5 -28t28.5 -68q0 -42 -28 -70.5t-68 -28.5h-80q-36 0 -60.5 25.5z" />
    <glyph glyph-name="uni06440671.fina" unicode="&#xfee0;&#xfb51;" horiz-adv-x="597" 
d="M66 87h235q35 0 59.5 24.5t24.5 58.5v465h82v-465q0 -34 24.5 -58.5t59.5 -24.5h46q10 0 10 -10v-67q0 -10 -10 -10h-46q-41 0 -74.5 20.5t-50.5 54.5q-17 -34 -50.5 -54.5t-74.5 -20.5h-235v87zM83 575l80 20l108 -444l-79 -21zM-24 740l132 79l26 -47l3 -6l-130 -78z
M116.5 665.5q-24.5 25.5 -24.5 62.5v28l46 9v-31q0 -13 12.5 -25t28.5 -12h78q15 0 27 12t12 28q0 20 -11 32t-31 12q-7 0 -16.5 -5t-22.5 -13l-99 -60l-20 53l102 62q15 9 27.5 13t31.5 4q39 0 67.5 -28t28.5 -68q0 -42 -28 -70.5t-68 -28.5h-80q-36 0 -60.5 25.5z" />
    <glyph glyph-name="uni0621" unicode="&#x621;" horiz-adv-x="517" arabic-form="isolated" 
d="M258 99q-42 0 -74.5 21t-47.5 62q-9 26 -9 50q0 44 26.5 79.5t73.5 52.5l104 38l28 -78l-102 -37q-21 -7 -33 -24.5t-12 -39.5q0 -30 19.5 -49t47.5 -19q11 0 24 5l137 49l14 -50l-131 -48q-33 -12 -65 -12zM52 68l388 141l29 -78l-389 -141z" />
    <glyph glyph-name="uni0622" unicode="&#x622;" horiz-adv-x="200" arabic-form="isolated" 
d="M68 595h82v-595h-82v595zM-20 718.5q22 22.5 57 22.5h196v-66h-189q-12 0 -21 -8.5t-9 -21.5v-41h-56v57q0 35 22 57.5z" />
    <glyph glyph-name="uni0623" unicode="&#x623;" horiz-adv-x="210" arabic-form="isolated" 
d="M71 595h82v-595h-82v595zM-53 679l99 36q-33 14 -46 48q-6 17 -6 33q0 32 20 60t54 40l67 24l22 -61l-62 -23q-14 -5 -22.5 -17.5t-8.5 -27.5q0 -22 14.5 -35t34.5 -13q10 0 20 3l83 30l22 -60l-270 -98z" />
    <glyph glyph-name="uni0624" unicode="&#x624;" horiz-adv-x="505" arabic-form="isolated" 
d="M281.5 -123q44.5 25 64.5 52.5t20 70.5h-107v0q-53 0 -97.5 25t-71 68t-26.5 96t26.5 97.5t71 71t97.5 26.5v0q52 0 96 -26.5t69 -71t25 -97.5v-158q0 -79 -30 -128t-85.5 -82.5t-167.5 -82.5l-25 73q96 41 140.5 66zM259 83h107v107q0 45 -31 76.5t-76 31.5v0
q-45 0 -76 -31.5t-31 -76.5t31 -76t76 -31v0zM121 525l100 37q-14 5 -26.5 17t-20.5 30q-6 17 -6 33q0 32 20 59.5t54 40.5l68 24l22 -60l-62 -23q-15 -5 -23.5 -17.5t-8.5 -27.5q0 -22 15 -35.5t35 -13.5q11 0 19 4l84 30l22 -61l-270 -98z" />
    <glyph glyph-name="uni0625" unicode="&#x625;" horiz-adv-x="208" arabic-form="isolated" 
d="M-42 -296l99 36q-33 14 -46 48q-6 16 -6 33q0 32 20 60t54 40l67 24l22 -61l-62 -23q-14 -5 -22.5 -17.5t-8.5 -27.5q0 -22 14.5 -35t34.5 -13q10 0 20 3l83 30l22 -60l-270 -98zM71 659h82v-659h-82v659z" />
    <glyph glyph-name="uni0626" unicode="&#x626;" horiz-adv-x="734" arabic-form="isolated" 
d="M181 -195q-51 30 -80.5 80.5t-29.5 111.5v210h82v-205q0 -38 18.5 -70.5t50.5 -51t70 -18.5h217q38 0 62 24.5t24 61.5q0 29 -18 53t-48 31l-234 53v105q0 49 25 91t67.5 67t92.5 25h157v-82h-158q-42 0 -72 -30t-30 -72v-38q98 -21 179 -41q56 -15 90.5 -61.5
t34.5 -103.5q0 -46 -23 -85t-62 -62t-86 -23h-218q-60 0 -111 30zM73 387l99 36q-33 14 -46 48q-6 17 -6 33q0 32 20 60t54 40l67 24l22 -61l-62 -23q-14 -5 -22.5 -17.5t-8.5 -27.5q0 -22 14.5 -35t34.5 -13q10 0 20 3l83 30l22 -60l-270 -98z" />
    <glyph glyph-name="uni0627" unicode="&#x627;" horiz-adv-x="209" arabic-form="isolated" 
d="M71 659h82v-659h-82v659z" />
    <glyph glyph-name="uni0628" unicode="&#x628;" horiz-adv-x="874" arabic-form="isolated" 
d="M181 30q-51 30 -80.5 80.5t-29.5 111.5v102h82v-97q0 -38 18.5 -70.5t50.5 -51t70 -18.5h345q45 0 76 31.5t31 76.5v129h82v-129q0 -53 -25 -98t-68 -71t-96 -26h-345q-60 0 -111 30zM510 -181h-88v89h88v-89z" />
    <glyph glyph-name="uni0629" unicode="&#x629;" horiz-adv-x="498" arabic-form="isolated" 
d="M78 116q-14 34 -14 70q0 39 15.5 75.5t44.5 65.5l75 75l-42 41l59 59l175 -175q29 -29 44 -65.5t15 -75.5q0 -36 -14 -70t-41 -61q-28 -28 -64 -42.5t-74 -14.5t-74 14.5t-64 42.5q-27 27 -41 61zM258 85q45 0 76 32q31 30 31 74q0 45 -32 77l-76 76l-75 -75
q-32 -34 -32 -77q0 -44 31 -75q32 -32 77 -32zM104 676h88v-88h-88v88zM244 676h88v-88h-88v88z" />
    <glyph glyph-name="uni062A" unicode="&#x62a;" horiz-adv-x="874" arabic-form="isolated" 
d="M181 30q-51 30 -80.5 80.5t-29.5 111.5v102h82v-97q0 -38 18.5 -70.5t50.5 -51t70 -18.5h345q45 0 76 31.5t31 76.5v129h82v-129q0 -53 -25 -98t-68 -71t-96 -26h-345q-60 0 -111 30zM336 412h88v-88h-88v88zM476 412h88v-88h-88v88z" />
    <glyph glyph-name="uni062B" unicode="&#x62b;" horiz-adv-x="874" arabic-form="isolated" 
d="M181 30q-51 30 -80.5 80.5t-29.5 111.5v102h82v-97q0 -38 18.5 -70.5t50.5 -51t70 -18.5h345q45 0 76 31.5t31 76.5v129h82v-129q0 -53 -25 -98t-68 -71t-96 -26h-345q-60 0 -111 30zM423 412v-88h-88v88h88zM563 412v-88h-88v88h88zM493 554v-88h-88v88h88z" />
    <glyph glyph-name="uni062C" unicode="&#x62c;" horiz-adv-x="693" arabic-form="isolated" 
d="M185.5 -301q-50.5 30 -80.5 80t-30 109q0 49 21.5 93t59.5 75l305 226l-159 76q-26 11 -42 11q-18 0 -35 -8t-30 -22l-64 -71l-57 50l64 77q21 26 53 41t69 15q24 0 39.5 -5t34.5 -15l218 -102q8 -3 18 -3h75v-81h-98l-332 -245q-52 -42 -52 -111q0 -37 19 -69t51 -50.5
t69 -18.5h291v-82h-298q-59 0 -109.5 30zM370 -34h88v-88h-88v88z" />
    <glyph glyph-name="uni062D" unicode="&#x62d;" horiz-adv-x="693" arabic-form="isolated" 
d="M185.5 -301q-50.5 30 -80.5 80t-30 109q0 49 21.5 93t59.5 75l305 226l-159 76q-26 11 -42 11q-18 0 -35 -8t-30 -22l-64 -71l-57 50l64 77q21 26 53 41t69 15q24 0 39.5 -5t34.5 -15l218 -102q8 -3 18 -3h75v-81h-98l-332 -245q-52 -42 -52 -111q0 -37 19 -69t51 -50.5
t69 -18.5h291v-82h-298q-59 0 -109.5 30z" />
    <glyph glyph-name="uni062E" unicode="&#x62e;" horiz-adv-x="693" arabic-form="isolated" 
d="M185.5 -301q-50.5 30 -80.5 80t-30 109q0 49 21.5 93t59.5 75l305 226l-159 76q-26 11 -42 11q-18 0 -35 -8t-30 -22l-64 -71l-57 50l64 77q21 26 53 41t69 15q24 0 39.5 -5t34.5 -15l218 -102q8 -3 18 -3h75v-81h-98l-332 -245q-52 -42 -52 -111q0 -37 19 -69t51 -50.5
t69 -18.5h291v-82h-298q-59 0 -109.5 30zM212 628h89v-88h-89v88z" />
    <glyph glyph-name="uni062F" unicode="&#x62f;" horiz-adv-x="506" arabic-form="isolated" 
d="M64 87h229q35 0 58.5 24t23.5 58q0 45 -46 74l-187 129l46 68l200 -138q70 -50 70 -131q0 -48 -23.5 -87t-63 -61.5t-85.5 -22.5h-222v87z" />
    <glyph glyph-name="uni0630" unicode="&#x630;" horiz-adv-x="506" arabic-form="isolated" 
d="M64 87h229q35 0 58.5 24t23.5 58q0 45 -46 74l-187 129l46 68l200 -138q70 -50 70 -131q0 -48 -23.5 -87t-63 -61.5t-85.5 -22.5h-222v87zM149 619h89v-88h-89v88z" />
    <glyph glyph-name="uni0631" unicode="&#x631;" horiz-adv-x="272" arabic-form="isolated" 
d="M75 -129q32 23 48.5 56.5t16.5 91.5v305h82v-305q0 -74 -22 -122t-68 -82.5t-132 -76.5l-31 69q74 41 106 64z" />
    <glyph glyph-name="uni0632" unicode="&#x632;" horiz-adv-x="279" arabic-form="isolated" 
d="M75 -129q32 23 48.5 56.5t16.5 91.5v305h82v-305q0 -74 -22 -122t-68 -82.5t-132 -76.5l-31 69q74 41 106 64zM136 507h88v-88h-88v88z" />
    <glyph glyph-name="uni0633" unicode="&#x633;" horiz-adv-x="1178" arabic-form="isolated" 
d="M215 -153q-66 39 -105 105.5t-39 144.5v187h82v-182q0 -56 28 -103.5t75 -75.5t103 -28t104 28t76 75.5t28 103.5v222h79v-227q0 -78 -38.5 -144.5t-104 -105.5t-144.5 -39q-78 0 -144 39zM632 45q-36 47 -36 120v159h54v-156q0 -34 24.5 -58.5t59.5 -24.5q34 0 59 24.5
t25 58.5v156h66v-159q0 -46 -18.5 -84t-52.5 -60.5t-79 -22.5q-66 0 -102 47zM904.5 22.5q-34.5 22.5 -53 60.5t-18.5 84v157h67v-154q0 -35 24.5 -59t59.5 -24h63v268h82v-355h-145q-45 0 -79.5 22.5z" />
    <glyph glyph-name="uni0634" unicode="&#x634;" horiz-adv-x="1178" arabic-form="isolated" 
d="M215 -153q-66 39 -105 105.5t-39 144.5v187h82v-182q0 -56 28 -103.5t75 -75.5t103 -28t104 28t76 75.5t28 103.5v222h79v-227q0 -78 -38.5 -144.5t-104 -105.5t-144.5 -39q-78 0 -144 39zM632 45q-36 47 -36 120v159h54v-156q0 -34 24.5 -58.5t59.5 -24.5q34 0 59 24.5
t25 58.5v156h66v-159q0 -46 -18.5 -84t-52.5 -60.5t-79 -22.5q-66 0 -102 47zM904.5 22.5q-34.5 22.5 -53 60.5t-18.5 84v157h67v-154q0 -35 24.5 -59t59.5 -24h63v268h82v-355h-145q-45 0 -79.5 22.5zM745 501h88v-88h-88v88zM885 501h88v-88h-88v88zM815 642h88v-88h-88
v88z" />
    <glyph glyph-name="uni0635" unicode="&#x635;" horiz-adv-x="1262" arabic-form="isolated" 
d="M215.5 -153q-66.5 39 -105.5 105.5t-39 144.5v187h82v-182q0 -56 28 -103.5t75.5 -75.5t103.5 -28t103.5 28t75.5 75.5t28 103.5v222h80v-227q0 -78 -38.5 -144.5t-104 -105.5t-144.5 -39q-78 0 -144.5 39zM668 26.5q-41 26.5 -63 71.5t-22 100v126h67v-135q0 -42 30 -72
t72 -30h267q46 0 78 32.5t32 79.5q0 46 -32.5 79t-79.5 33q-17 0 -35.5 -6t-43.5 -21l-292 -175l-30 74l283 169q36 21 61.5 30.5t58.5 9.5q53 0 98 -26.5t71 -71t26 -97.5q0 -54 -26.5 -99t-71.5 -71.5t-98 -26.5h-256q-53 0 -94 26.5z" />
    <glyph glyph-name="uni0636" unicode="&#x636;" horiz-adv-x="1262" arabic-form="isolated" 
d="M215.5 -153q-66.5 39 -105.5 105.5t-39 144.5v187h82v-182q0 -56 28 -103.5t75.5 -75.5t103.5 -28t103.5 28t75.5 75.5t28 103.5v222h80v-227q0 -78 -38.5 -144.5t-104 -105.5t-144.5 -39q-78 0 -144.5 39zM668 26.5q-41 26.5 -63 71.5t-22 100v126h67v-135q0 -42 30 -72
t72 -30h267q46 0 78 32.5t32 79.5q0 46 -32.5 78.5t-77.5 32.5q-20 0 -39 -5t-43 -19l-293 -174l-28 71l294 176q54 33 109 33q53 0 98 -26.5t71 -71t26 -97.5q0 -54 -26.5 -99t-71.5 -71.5t-98 -26.5h-256q-53 0 -94 26.5zM974 571h88v-88h-88v88z" />
    <glyph glyph-name="uni0637" unicode="&#x637;" horiz-adv-x="684" arabic-form="isolated" 
d="M64 87h377q46 0 78 32.5t32 79.5q0 46 -32.5 78.5t-79.5 32.5q-17 0 -35.5 -6t-43.5 -21l-249 -148l-39 69l249 148q36 21 61.5 30.5t58.5 9.5q53 0 98 -26.5t71 -71t26 -97.5q0 -54 -26.5 -99t-71.5 -71.5t-98 -26.5h-376v87zM186 289q6 22 6 53v317h83v-255
q0 -36 -8 -64t-18 -38l-89 -46q20 11 26 33z" />
    <glyph glyph-name="uni0638" unicode="&#x638;" horiz-adv-x="684" arabic-form="isolated" 
d="M64 87h377q46 0 78 32.5t32 79.5q0 46 -32.5 78.5t-79.5 32.5q-17 0 -35.5 -6t-43.5 -21l-257 -153l-31 74l249 148q36 21 61.5 30.5t58.5 9.5q53 0 98 -26.5t71 -71t26 -97.5q0 -54 -26.5 -99t-71.5 -71.5t-98 -26.5h-376v87zM186 289q6 22 6 53v318h83v-256
q0 -37 -6.5 -62.5t-16.5 -35.5l-92 -50q20 11 26 33zM402 571h88v-88h-88v88z" />
    <glyph glyph-name="uni0639" unicode="&#x639;" horiz-adv-x="556" arabic-form="isolated" 
d="M195 -401q-60 35 -95.5 95t-35.5 131q0 66 31.5 119.5t85.5 85.5t120 39q4 0 12 9t13 9h154v-87h-154q-47 0 -87 -23.5t-63.5 -63.5t-23.5 -88q0 -47 23.5 -87t63.5 -63.5t87 -23.5h182v-87h-182q-71 0 -131 35zM233.5 41q-47.5 24 -75.5 67.5t-28 97.5q0 56 28 102.5
t76 73t105 26.5h109v-81h-109q-51 0 -86 -34.5t-35 -85.5t34.5 -85.5t85.5 -34.5l1 -70q-58 0 -105.5 24z" />
    <glyph glyph-name="uni063A" unicode="&#x63a;" horiz-adv-x="556" arabic-form="isolated" 
d="M195 -401q-60 35 -95.5 95t-35.5 131q0 66 31.5 119.5t85.5 85.5t120 39q4 0 12 9t13 9h154v-87h-154q-47 0 -87 -23.5t-63.5 -63.5t-23.5 -88q0 -47 23.5 -87t63.5 -63.5t87 -23.5h182v-87h-182q-71 0 -131 35zM233.5 41q-47.5 24 -75.5 67.5t-28 97.5q0 56 28 102.5
t76 73t105 26.5h109v-81h-109q-51 0 -86 -34.5t-35 -85.5t34.5 -85.5t85.5 -34.5l1 -70q-58 0 -105.5 24zM288 579h89v-88h-89v88z" />
    <glyph glyph-name="uni0641" unicode="&#x641;" horiz-adv-x="874" arabic-form="isolated" 
d="M181 30q-51 30 -80.5 80.5t-29.5 111.5v102h82v-97q0 -38 18.5 -70.5t50.5 -51t70 -18.5h368q35 0 59.5 24.5t24.5 59.5v20h-89v0q-49 0 -89.5 23t-64.5 62t-24 87q0 49 24 90t65 65t89 24v0q48 0 87 -24t61.5 -65t22.5 -90v-196q0 -45 -22.5 -83.5t-60.5 -61t-84 -22.5
h-367q-60 0 -111 30zM749 269v97q0 40 -28 68t-68 28v0q-42 0 -69.5 -27.5t-27.5 -68.5q0 -42 28 -69.5t69 -27.5v0h96zM611 721h88v-88h-88v88z" />
    <glyph glyph-name="uni0642" unicode="&#x642;" horiz-adv-x="702" arabic-form="isolated" 
d="M290.5 286.5q26.5 44.5 71.5 71t98 26.5v0q52 0 95.5 -26.5t68.5 -71t25 -97.5v-199q0 -78 -39 -144.5t-105.5 -105.5t-145.5 -39q-78 0 -144 39t-105 105.5t-39 144.5v187h82v-182q0 -56 28 -103.5t75 -75.5t103 -28t104 28t76 75.5t28 103.5v5h-107v0q-53 0 -98 25
t-71.5 68t-26.5 96t26.5 97.5zM382.5 118q31.5 -31 77.5 -31v0h107v107q0 45 -31.5 76.5t-75.5 31.5v0q-46 0 -77.5 -31.5t-31.5 -76.5t31.5 -76zM345 566h89v-88h-89v88zM486 566h88v-88h-88v88z" />
    <glyph glyph-name="uni0643" unicode="&#x643;" horiz-adv-x="879" arabic-form="isolated" 
d="M181 30q-51 30 -80.5 80.5t-29.5 111.5v102h82v-97q0 -38 18.5 -70.5t50.5 -51t70 -18.5h345q45 0 76 31.5t31 76.5v441h82v-441q0 -53 -25 -98t-68 -71t-96 -26h-345q-60 0 -111 30zM352 314l114 41q11 4 17.5 12.5t6.5 18.5q0 28 -28 35l-110 26l-25 45l166 119l29 -49
l-101 -72l48 -11q26 -7 45.5 -22t26.5 -36q6 -18 6 -35q0 -30 -17 -54.5t-47 -35.5l-109 -41z" />
    <glyph glyph-name="uni0644" unicode="&#x644;" horiz-adv-x="705" arabic-form="isolated" 
d="M215 -153q-66 39 -105 105.5t-39 144.5v187h82v-182q0 -56 28 -103.5t75 -75.5t103 -28t104 28t76 75.5t28 103.5v559h82v-564q0 -78 -39 -144.5t-105.5 -105.5t-145.5 -39q-78 0 -144 39z" />
    <glyph glyph-name="uni0645" unicode="&#x645;" horiz-adv-x="716" arabic-form="isolated" 
d="M94 295q23 40 63 63.5t88 23.5h228v0q53 0 98 -25t71 -68t26 -96t-26 -98t-71 -71t-98 -26v0q-53 0 -96 26t-68 71t-25 98v106h-40q-37 0 -64 -26.5t-27 -64.5v-458h-82v458q0 47 23 87zM549.5 116.5q31.5 31.5 31.5 76.5q0 44 -31.5 75.5t-76.5 31.5v0h-107v-107
q0 -45 31 -76.5t76 -31.5v0q45 0 76.5 31.5z" />
    <glyph glyph-name="uni0646" unicode="&#x646;" horiz-adv-x="705" arabic-form="isolated" 
d="M215 -153q-66 39 -105 105.5t-39 144.5v187h82v-182q0 -56 28 -103.5t75 -75.5t103 -28t104 28t76 75.5t28 103.5v222h82v-227q0 -78 -39 -144.5t-105.5 -105.5t-145.5 -39q-78 0 -144 39zM314 383h88v-88h-88v88z" />
    <glyph glyph-name="uni0647" unicode="&#x647;" horiz-adv-x="504" arabic-form="isolated" 
d="M84.5 116q-13.5 34 -13.5 70q0 39 15 75.5t44 65.5l76 75l-42 41l58 59l176 -175q28 -29 43 -65.5t15 -75.5q0 -36 -14 -70t-41 -61q-28 -28 -63.5 -42.5t-73.5 -14.5t-74 14.5t-65 42.5q-27 27 -40.5 61zM264 85q45 0 76 32q31 30 31 74q0 45 -32 77l-76 76l-75 -75
q-32 -34 -32 -77q0 -44 31 -75q34 -32 77 -32z" />
    <glyph glyph-name="uni0648" unicode="&#x648;" horiz-adv-x="505" arabic-form="isolated" 
d="M281.5 -123q44.5 25 64.5 52.5t20 70.5h-107v0q-53 0 -97.5 25t-71 68t-26.5 96t26.5 97.5t71 71t97.5 26.5v0q52 0 96 -26.5t69 -71t25 -97.5v-158q0 -79 -30 -128t-85.5 -82.5t-167.5 -82.5l-25 73q96 41 140.5 66zM366 83v107q0 45 -31 76.5t-76 31.5v0
q-45 0 -76 -31.5t-31 -76.5t31 -76t76 -31v0h107z" />
    <glyph glyph-name="uni0649" unicode="&#x649;" horiz-adv-x="734" arabic-form="isolated" 
d="M181 -195q-51 30 -80.5 80.5t-29.5 111.5v210h82v-205q0 -38 18.5 -70.5t50.5 -51t70 -18.5h217q38 0 62 24.5t24 61.5q0 29 -18 53t-48 31l-234 53v105q0 49 25 91t67.5 67t92.5 25h157v-82h-158q-42 0 -72 -30t-30 -72v-38q98 -21 179 -41q56 -15 90.5 -61.5
t34.5 -103.5q0 -46 -23 -85t-62 -62t-86 -23h-218q-60 0 -111 30z" />
    <glyph glyph-name="uni064A" unicode="&#x64a;" horiz-adv-x="734" arabic-form="isolated" 
d="M181 -195q-51 30 -80.5 80.5t-29.5 111.5v210h82v-205q0 -38 18.5 -70.5t50.5 -51t70 -18.5h217q38 0 62 24.5t24 61.5q0 29 -18 53t-48 31l-234 53v105q0 49 25 91t67.5 67t92.5 25h157v-82h-158q-42 0 -72 -30t-30 -72v-38q98 -21 179 -41q56 -15 90.5 -61.5
t34.5 -103.5q0 -46 -23 -85t-62 -62t-86 -23h-218q-60 0 -111 30zM262 -319h88v-89h-88v89zM402 -319h88v-89h-88v89z" />
    <glyph glyph-name="uni066E.init" unicode="&#x66e;" horiz-adv-x="261" 
d="M-10 10v67q0 10 10 10h47q35 0 59.5 25t24.5 61v182h82v-187q0 -46 -22.5 -84.5t-60.5 -61t-84 -22.5h-46q-10 0 -10 10z" />
    <glyph glyph-name="uni066E.medi" unicode="&#x66e;" horiz-adv-x="350" 
d="M0 87h50q35 0 59.5 24.5t24.5 58.5v154h82v-154q0 -34 24.5 -58.5t59.5 -24.5h50q10 0 10 -10v-67q0 -10 -10 -10h-50q-41 0 -74.5 21t-50.5 55q-17 -34 -50.5 -55t-74.5 -21h-50q-10 0 -10 10v67q0 10 10 10z" />
    <glyph glyph-name="uni066E.fina" unicode="&#x66e;" horiz-adv-x="957" 
d="M181 30q-51 30 -80.5 80.5t-29.5 111.5v102h82v-97q0 -38 18.5 -70.5t50.5 -51t70 -18.5h345q45 0 76 31.5t31 76.5v129h68v-129q0 -54 -21.5 -98.5t-61 -70.5t-92.5 -26h-345q-60 0 -111 30zM831.5 22.5q-34.5 22.5 -53 60.5t-18.5 84v157h66v-154q0 -34 25 -58.5
t59 -24.5h47q10 0 10 -10v-67q0 -10 -10 -10h-47q-44 0 -78.5 22.5z" />
    <glyph glyph-name="uni066F.fina" unicode="&#x66f;" horiz-adv-x="704" 
d="M215 -260q-66 39 -105 105.5t-39 144.5v187h82v-182q0 -56 28 -103.5t75 -75.5t103 -28t104 28t76 75.5t28 103.5v5h-107v0q-53 0 -98 25t-71.5 68t-26.5 96t26.5 97.5t71.5 71t98 26.5v0q52 0 95.5 -26.5t68.5 -71t25 -97.5v-199q0 -78 -39 -144.5t-105.5 -105.5
t-145.5 -39q-78 0 -144 39zM567 87v107q0 45 -31.5 76.5t-75.5 31.5v0q-46 0 -77.5 -31.5t-31.5 -76.5t31.5 -76t77.5 -31v0h107zM649 87h55q10 0 10 -10v-67q0 -10 -10 -10h-55v87z" />
    <glyph glyph-name="uni0671" unicode="&#x671;" horiz-adv-x="209" arabic-form="isolated" 
d="M68 595h82v-595h-82v595zM51.5 654.5q-24.5 25.5 -24.5 62.5v30l45 6l2 -34q2 -13 13 -23t27 -10h77q16 0 28 12t12 28q0 19 -11 31t-31 12q-8 0 -17.5 -4.5t-22.5 -12.5l-98 -60l-20 53l102 62q15 9 27.5 13t30.5 4q40 0 68 -28.5t28 -68.5q0 -41 -28 -69.5t-68 -28.5
h-80q-35 0 -59.5 25.5zM-89 729l132 79l26 -47l3 -7l-130 -78z" />
    <glyph glyph-name="uni0679" unicode="&#x679;" horiz-adv-x="875" arabic-form="isolated" 
d="M181.5 30q-50.5 30 -80.5 80.5t-30 111.5v102h82v-97q0 -38 19 -70.5t51 -51t70 -18.5h345q45 0 76 31.5t31 76.5v129h82v-129q0 -53 -25 -98t-68 -71t-96 -26h-345q-61 0 -111.5 30zM351 382h143q16 0 27.5 11.5t11.5 27.5q0 20 -10.5 32t-30.5 12q-8 0 -17.5 -5
t-22.5 -13l-99 -59l-19 52l102 62q27 17 58 17q40 0 68 -28t28 -68q0 -41 -28 -70t-68 -29h-143v58zM379 484.5q5 18.5 5 47.5v69h59v-63v38q0 -32 -8 -56t-20 -32l-54 -31q13 9 18 27.5z" />
    <glyph glyph-name="uni067E" unicode="&#x67e;" horiz-adv-x="874" arabic-form="isolated" 
d="M181 30q-51 30 -80.5 80.5t-29.5 111.5v102h82v-97q0 -38 18.5 -70.5t50.5 -51t70 -18.5h345q45 0 76 31.5t31 76.5v129h82v-129q0 -53 -25 -98t-68 -71t-96 -26h-345q-60 0 -111 30zM423 -233h88v-89h-88v89zM352 -92h88v-89h-88v89zM493 -92h88v-89h-88v89z" />
    <glyph glyph-name="uni0686" unicode="&#x686;" horiz-adv-x="693" arabic-form="isolated" 
d="M185.5 -301q-50.5 30 -80.5 80t-30 109q0 49 21.5 93t59.5 75l305 226l-159 76q-26 11 -42 11q-18 0 -35 -8t-30 -22l-64 -71l-57 50l64 77q21 26 53 41t69 15q24 0 39.5 -5t34.5 -15l218 -102q8 -3 18 -3h75v-81h-98l-332 -245q-52 -42 -52 -111q0 -37 19 -69t51 -50.5
t69 -18.5h291v-82h-298q-59 0 -109.5 30zM409 -97h78v-73h-78v73zM352 22h78v-79h-78v79zM470 22h78v-79h-78v79z" />
    <glyph glyph-name="uni0688" unicode="&#x688;" horiz-adv-x="506" arabic-form="isolated" 
d="M64 87h229q35 0 58.5 24t23.5 58q0 45 -46 74l-187 129l46 68l200 -138q70 -50 70 -131q0 -48 -23.5 -87t-63 -61.5t-85.5 -22.5h-222v87zM87 597h144q16 0 27.5 11.5t11.5 27.5q0 20 -10.5 32t-30.5 12q-8 0 -17.5 -5t-22.5 -13l-99 -59l-20 52l103 62q14 9 27 13.5
t31 4.5q40 0 68 -28.5t28 -68.5q0 -41 -28 -70t-68 -29h-144v58zM121 747v69h58v-63v38q0 -32 -7.5 -56t-19.5 -31l-54 -32q23 17 23 75z" />
    <glyph glyph-name="uni0691" unicode="&#x691;" horiz-adv-x="272" arabic-form="isolated" 
d="M75 -129q32 23 48.5 56.5t16.5 91.5v305h82v-305q0 -74 -22 -122t-68 -82.5t-132 -76.5l-31 69q74 41 106 64zM59 485h144q16 0 27.5 12t11.5 28q0 19 -10.5 31t-30.5 12q-8 0 -16.5 -4t-23.5 -13l-99 -60l-20 53l103 62q27 17 58 17q40 0 68 -28t28 -68q0 -42 -28 -70.5
t-68 -28.5h-144v57zM93 636v69h59v-63v38q0 -32 -8 -56t-20 -32l-54 -31q23 17 23 75z" />
    <glyph glyph-name="uni0695.fina" unicode="&#x695;" horiz-adv-x="352" 
d="M75 -129q32 23 48.5 56.5t16.5 91.5v305h82v-305q0 -74 -22 -122t-68 -82.5t-132 -76.5l-31 69q74 41 106 64zM200.5 47.5q-38.5 47.5 -38.5 119.5v157h60v-154q0 -34 24.5 -58.5t59.5 -24.5h46q10 0 10 -10v-67q0 -10 -10 -10h-46q-67 0 -105.5 47.5zM119 -453
q6 101 136 105v-65q-56 -4 -82 -28.5t-26 -87.5h-55q0 63 -26 87.5t-82 28.5v65q130 -4 135 -105z" />
    <glyph glyph-name="uni0698" unicode="&#x698;" horiz-adv-x="298" arabic-form="isolated" 
d="M75 -129q32 23 48.5 56.5t16.5 91.5v305h82v-305q0 -74 -22 -122t-68 -82.5t-132 -76.5l-31 69q74 41 106 64zM68 507h88v-88h-88v88zM204 507h89v-88h-89v88zM136 648h89v-88h-89v88z" />
    <glyph glyph-name="uni06A1.init" unicode="&#x6a1;" horiz-adv-x="453" 
d="M-10 10v67q0 10 10 10h238q35 0 59.5 24.5t24.5 59.5v20h-89v0q-49 0 -89.5 23t-64.5 62t-24 87q0 49 24 90t65 65t89 24v0q48 0 87.5 -24t62 -65t22.5 -90v-196q0 -45 -22.5 -83.5t-60.5 -61t-84 -22.5h-238q-10 0 -10 10zM231 269h96v97q0 40 -28 68t-68 28v0
q-41 0 -69 -27.5t-28 -68.5q0 -42 28 -69.5t69 -27.5v0z" />
    <glyph glyph-name="uni06A1.medi" unicode="&#x6a1;" horiz-adv-x="447" 
d="M53 293q26 44 71 69t98 25v0q53 0 97.5 -25.5t71 -69t26.5 -96.5q0 -54 -26 -97t-71 -67t-98 -24v0q-54 0 -98.5 24t-70.5 67t-26 97q0 53 26 97zM-10 10v67q0 10 10 10h447q10 0 10 -10v-67q0 -10 -10 -10h-447q-10 0 -10 10zM145.5 117.5q31.5 -30.5 76.5 -30.5v0
q45 0 76.5 30.5t31.5 75.5q0 44 -32 75.5t-76 31.5v0q-45 0 -76.5 -31.5t-31.5 -75.5q0 -45 31.5 -75.5z" />
    <glyph glyph-name="uni06A1.fina" unicode="&#x6a1;" horiz-adv-x="872" 
d="M181 30q-51 30 -80.5 80.5t-29.5 111.5v102h82v-97q0 -38 18.5 -70.5t50.5 -51t70 -18.5h580q10 0 10 -10v-67q0 -10 -10 -10h-580q-60 0 -111 30zM819 99q-26 -43 -70.5 -67t-97.5 -24v0q-54 0 -98.5 24t-70.5 67t-26 97q0 53 26 97t71 69t98 25v0q53 0 97.5 -25
t70.5 -69t26 -97q0 -54 -26 -97zM726 268.5q-32 31.5 -76 31.5v0q-44 0 -75.5 -31.5t-31.5 -75.5q0 -45 31 -75.5t76 -30.5v0q45 0 76.5 30.5t31.5 75.5q0 44 -32 75.5z" />
    <glyph glyph-name="uni06A9" unicode="&#x6a9;" horiz-adv-x="876" arabic-form="isolated" 
d="M181 30q-51 30 -80.5 80.5t-29.5 111.5v101h82v-96q0 -38 18.5 -70.5t50.5 -51t70 -18.5h355q40 0 69 28.5t29 70.5q0 55 -52 87l-239 157v68l192 203l57 -53l-167 -174l210 -138q38 -25 60 -64.5t22 -87.5q0 -50 -24.5 -92t-66.5 -67t-91 -25h-354q-60 0 -111 30z" />
    <glyph glyph-name="uni06AF" unicode="&#x6af;" horiz-adv-x="876" arabic-form="isolated" 
d="M181 30q-51 30 -80.5 80.5t-29.5 111.5v101h82v-96q0 -38 18.5 -70.5t50.5 -51t70 -18.5h355q40 0 69 28.5t29 70.5q0 55 -52 87l-239 157v68l192 203l57 -53l-167 -174l210 -138q38 -25 60 -64.5t22 -87.5q0 -50 -24.5 -92t-66.5 -67t-91 -25h-354q-60 0 -111 30z
M371 566l176 186l41 -42l-176 -186z" />
    <glyph glyph-name="uni06B5.init" unicode="&#x6b5;" horiz-adv-x="261" 
d="M-10 10v67q0 10 10 10h39q35 0 59.5 25t24.5 61v486h82v-491q0 -46 -22.5 -84.5t-60.5 -61t-84 -22.5h-38q-10 0 -10 10zM115 829.5q-26 24.5 -82 28.5v65q130 -4 135 -105q6 101 136 105v-65q-56 -4 -82 -28.5t-26 -87.5h-55q0 63 -26 87.5z" />
    <glyph glyph-name="uni06B5.medi" unicode="&#x6b5;" horiz-adv-x="343" 
d="M-10 10v67q0 10 10 10h46q35 0 59.5 24.5t24.5 58.5v489h83v-489q0 -35 24.5 -59t59.5 -24h46q10 0 10 -10v-67q0 -10 -10 -10h-46q-42 0 -75 20.5t-51 54.5q-18 -35 -50.5 -55t-74.5 -20h-46q-10 0 -10 10zM121 829.5q-26 24.5 -82 28.5v65q130 -4 135 -105
q6 101 137 105v-65q-56 -4 -82 -28.5t-26 -87.5h-56q0 63 -26 87.5z" />
    <glyph glyph-name="uni06B5.fina" unicode="&#x6b5;" horiz-adv-x="780" 
d="M215 -153q-66 39 -105 105.5t-39 144.5v187h82v-182q0 -56 28 -103.5t75 -75.5t103 -28t104 28t76 75.5t28 103.5v559h80v-564q0 -78 -38.5 -144.5t-104.5 -105.5t-145 -39q-78 0 -144 39zM633 47q-35 47 -35 120v492h52v-489q0 -34 24.5 -58.5t59.5 -24.5h46
q10 0 10 -10v-67q0 -10 -10 -10h-46q-66 0 -101 47zM553 829.5q-26 24.5 -82 28.5v65q130 -4 135 -105q6 101 136 105v-65q-56 -4 -81.5 -28.5t-25.5 -87.5h-56q0 63 -26 87.5z" />
    <glyph glyph-name="uni06BA" unicode="&#x6ba;" horiz-adv-x="705" arabic-form="isolated" 
d="M215 -153q-66 39 -105 105.5t-39 144.5v187h82v-182q0 -56 28 -103.5t75 -75.5t103 -28t104 28t76 75.5t28 103.5v222h82v-227q0 -78 -39 -144.5t-105.5 -105.5t-145.5 -39q-78 0 -144 39z" />
    <glyph glyph-name="uni06C0" unicode="&#x6c0;" horiz-adv-x="526" arabic-form="isolated" 
d="M84.5 116q-13.5 34 -13.5 70q0 39 15 75.5t44 65.5l76 75l-42 41l58 59l176 -175q28 -29 43 -65.5t15 -75.5q0 -36 -14 -70t-41 -61q-28 -28 -63.5 -42.5t-73.5 -14.5t-74 14.5t-65 42.5q-27 27 -40.5 61zM264 85q45 0 76 32q31 30 31 74q0 45 -32 77l-76 76l-75 -75
q-32 -34 -32 -77q0 -44 31 -75q34 -32 77 -32zM151 613l110 30q12 3 18.5 11.5t6.5 19.5q0 14 -10 24.5t-24 9.5l-122 -4l-17 54q-3 14 -3 26q0 32 20.5 59t52.5 36l81 22l17 -55l-83 -23q-17 -4 -25 -17.5t-5 -28.5l4 -15l39 2l45 1q37 0 63 -25t26 -65q0 -32 -18.5 -57
t-48.5 -33l-110 -29z" />
    <glyph glyph-name="uni06C1" unicode="&#x6c1;" horiz-adv-x="498" arabic-form="isolated" 
d="M78 116q-14 34 -14 70q0 39 15.5 75.5t44.5 65.5l75 75l-42 41l59 59l175 -175q29 -29 44 -65.5t15 -75.5q0 -36 -14 -70t-41 -61q-28 -28 -64 -42.5t-74 -14.5t-74 14.5t-64 42.5q-27 27 -41 61zM258 85q45 0 76 32q31 30 31 74q0 45 -32 77l-76 76l-75 -75
q-32 -34 -32 -77q0 -44 31 -75q32 -32 77 -32z" />
    <glyph glyph-name="uni06C2.fina" unicode="&#x6c2;" horiz-adv-x="577" 
d="M160 55q-45 26 -71.5 71t-26.5 98q0 52 26.5 95t71.5 68t98 25v0h107v57h82v-245q0 -53 -25 -98t-68 -71t-96 -26v0q-53 0 -98 26zM334.5 147.5q31.5 31.5 31.5 76.5v106h-108v0q-45 0 -76.5 -31t-31.5 -75q0 -45 31.5 -76.5t76.5 -31.5v0q45 0 76.5 31.5zM450.5 22.5
q-35.5 22.5 -55 60.5t-19.5 84v157h71v-154q0 -34 24.5 -58.5t59.5 -24.5h46q10 0 10 -10v-67q0 -10 -10 -10h-46q-45 0 -80.5 22.5zM108 563l99 36q-34 15 -46 48q-6 15 -6 33q0 32 20 59.5t54 39.5l67 25l22 -61l-61 -23q-15 -5 -23.5 -17.5t-8.5 -27.5q0 -22 14.5 -35.5
t35.5 -13.5q7 0 19 4l83 30l22 -60l-269 -98z" />
    <glyph glyph-name="uni06C3.fina" unicode="&#x6c3;" horiz-adv-x="540" 
d="M309 444h88v-88h-88v88zM169 444h88v-88h-88v88zM550 77v-67q0 -10 -10 -10h-46q-49 0 -88.5 21.5t-64.5 60.5l-65 99l-175 -166l-53 56l204 193h68l82 -124q32 -53 87 -53h51q10 0 10 -10z" />
    <glyph glyph-name="uni06CC" unicode="&#x6cc;" horiz-adv-x="734" arabic-form="isolated" 
d="M181 -195q-51 30 -80.5 80.5t-29.5 111.5v210h82v-205q0 -38 18.5 -70.5t50.5 -51t70 -18.5h217q38 0 62 24.5t24 61.5q0 29 -18 53t-48 31l-234 53v105q0 49 25 91t67.5 67t92.5 25h157v-82h-158q-42 0 -72 -30t-30 -72v-38q98 -21 179 -41q56 -15 90.5 -61.5
t34.5 -103.5q0 -46 -23 -85t-62 -62t-86 -23h-218q-60 0 -111 30z" />
    <glyph glyph-name="uni06ce.init" unicode="&#x6ce;" horiz-adv-x="323" 
d="M-10 10v67q0 10 10 10h89q35 0 59.5 25t24.5 61v182h82v-187q0 -46 -22.5 -84.5t-60.5 -61t-84 -22.5h-88q-10 0 -10 10zM104.5 558q-26.5 25 -82.5 29v64q131 -3 136 -104q6 101 136 104v-64q-56 -4 -82 -29t-26 -88h-55q0 63 -26.5 88zM0 -95h88v-88h-88v88zM140 -95
h88v-88h-88v88z" />
    <glyph glyph-name="uni06ce.medi" unicode="&#x6ce;" horiz-adv-x="365" 
d="M127.5 523q-26.5 25 -81.5 29v64q130 -3 136 -104q5 101 136 104v-64q-55 -4 -81.5 -29t-26.5 -87h-56q0 62 -26.5 87zM-10 10v67q0 10 10 10h58q34 0 59 24.5t25 58.5v154h82v-154q0 -35 24.5 -59t59.5 -24h57q10 0 10 -10v-67q0 -10 -10 -10h-57q-41 0 -74 19t-52 52
q-18 -33 -50.5 -52t-73.5 -19h-58q-10 0 -10 10zM68 -95h88v-88h-88v88zM208 -95h88v-88h-88v88z" />
    <glyph glyph-name="uni06ce.fina" unicode="&#x6ce;" horiz-adv-x="735" 
d="M155 432q-26 25 -82 29v64q131 -3 136 -104q5 101 136 104v-64q-56 -4 -82 -29t-26 -88h-56q0 63 -26 88zM181 -224q-51 30 -80.5 81t-29.5 112v210h82v-206q0 -38 18.5 -70t50.5 -50.5t70 -18.5h220q35 0 59 24t24 59q0 34 -24.5 58.5t-58.5 24.5h-160v70h159
q47 0 86 -19t61.5 -53.5t22.5 -80.5t-23 -85.5t-62 -62.5t-85 -23h-219q-60 0 -111 30zM324 87h411q10 0 10 -10v-67q0 -10 -10 -10h-411v87z" />
    <glyph glyph-name="uni06D2" unicode="&#x6d2;" horiz-adv-x="645" arabic-form="isolated" 
d="M133.5 23q-39.5 23 -62.5 62t-23 85q0 57 34.5 103.5t90.5 61.5q95 23 179 41l26 -79l-178 -40q-30 -7 -48 -31t-18 -53q0 -36 24.5 -61t61.5 -25h375v-87h-376q-46 0 -85.5 23z" />
    <glyph glyph-name="uni06d5.fina" unicode="&#x6d5;" horiz-adv-x="583" 
d="M166.5 55q-44.5 26 -71 71t-26.5 98q0 52 26.5 95t71 68t97.5 25v0h108v57h81v-245q0 -53 -25 -98t-68 -71t-96 -26v0q-53 0 -97.5 26zM341 147.5q31 31.5 31 76.5v106h-108v0q-44 0 -75.5 -31t-31.5 -75q0 -45 31.5 -76.5t75.5 -31.5v0q46 0 77 31.5zM456.5 22.5
q-35.5 22.5 -55 60.5t-19.5 84v157h71v-154q0 -34 24.5 -58.5t58.5 -24.5h47q10 0 10 -10v-67q0 -10 -10 -10h-47q-44 0 -79.5 22.5z" />
    <glyph glyph-name="uni0671.fina" unicode="&#x671;" horiz-adv-x="282" arabic-form="final" 
d="M154 22.5q-38 22.5 -60.5 61t-22.5 84.5v427h82v-422q0 -36 24.5 -61t59.5 -25h45q10 0 10 -10v-67q0 -10 -10 -10h-44q-46 0 -84 22.5zM-89 729l132 79l26 -47l3 -7l-130 -78zM51.5 654.5q-24.5 25.5 -24.5 62.5v28l45 8v-31q0 -12 13 -24t29 -12h77q16 0 28 12t12 28
q0 19 -11 31t-31 12q-8 0 -17.5 -4.5t-22.5 -12.5l-98 -60l-20 53l102 62q15 9 27.5 13t30.5 4q40 0 68 -28.5t28 -68.5q0 -41 -28 -69.5t-68 -28.5h-80q-35 0 -59.5 25.5z" />
    <glyph glyph-name="uni067E.fina" unicode="&#x67e;" horiz-adv-x="957" arabic-form="final" 
d="M181 30q-51 30 -80.5 80.5t-29.5 111.5v102h82v-97q0 -38 18.5 -70.5t50.5 -51t70 -18.5h345q45 0 76 31.5t31 76.5v129h68v-129q0 -54 -21.5 -98.5t-61 -70.5t-92.5 -26h-345q-60 0 -111 30zM423 -233h88v-89h-88v89zM352 -92h88v-89h-88v89zM493 -92h88v-89h-88v89z
M831.5 22.5q-34.5 22.5 -53 60.5t-18.5 84v157h66v-154q0 -34 25 -58.5t59 -24.5h47q10 0 10 -10v-67q0 -10 -10 -10h-47q-44 0 -78.5 22.5z" />
    <glyph glyph-name="uni067E.init" unicode="&#x67e;" horiz-adv-x="292" arabic-form="initial" 
d="M-10 10v67q0 10 10 10h74q35 0 59.5 25t24.5 61v182h82v-187q0 -46 -22.5 -84.5t-60.5 -61t-84 -22.5h-73q-10 0 -10 10zM71 -233h88v-89h-88v89zM0 -92h88v-89h-88v89zM141 -92h88v-89h-88v89z" />
    <glyph glyph-name="uni067E.medi" unicode="&#x67e;" horiz-adv-x="365" arabic-form="medial" 
d="M0 87h58q34 0 59 24.5t25 58.5v154h82v-154q0 -35 24.5 -59t59.5 -24h57q10 0 10 -10v-67q0 -10 -10 -10h-57q-41 0 -74 19t-52 52q-18 -33 -50.5 -52t-73.5 -19h-58q-10 0 -10 10v67q0 10 10 10zM137 -233h88v-89h-88v89zM67 -92h88v-89h-88v89zM207 -92h89v-89h-89v89z
" />
    <glyph glyph-name="uni0679.fina" unicode="&#x679;" horiz-adv-x="957" arabic-form="final" 
d="M181 30q-51 30 -80.5 80.5t-29.5 111.5v102h82v-97q0 -38 18.5 -70.5t50.5 -51t70 -18.5h345q45 0 76 31.5t31 76.5v129h68v-129q0 -54 -21.5 -98.5t-61 -70.5t-92.5 -26h-345q-60 0 -111 30zM831.5 22.5q-34.5 22.5 -53 60.5t-18.5 84v157h66v-154q0 -34 25 -58.5
t59 -24.5h47q10 0 10 -10v-67q0 -10 -10 -10h-47q-44 0 -78.5 22.5zM343 385h144q16 0 27.5 12t11.5 28q0 19 -10.5 31t-30.5 12q-8 0 -16.5 -4t-23.5 -13l-99 -60l-20 53l103 62q14 9 26.5 13t31.5 4q40 0 68 -28t28 -68q0 -42 -28 -70.5t-68 -28.5h-144v57zM377 536v69h58
v-63v38q0 -32 -7.5 -56.5t-19.5 -31.5l-54 -31q23 17 23 75z" />
    <glyph glyph-name="uni0679.init" unicode="&#x679;" horiz-adv-x="261" arabic-form="initial" 
d="M-10 10v67q0 10 10 10h47q35 0 59.5 25t24.5 61v182h82v-187q0 -46 -22.5 -84.5t-60.5 -61t-84 -22.5h-46q-10 0 -10 10zM5 513h144q16 0 27.5 11.5t11.5 27.5q0 20 -10.5 32t-30.5 12q-8 0 -17.5 -5t-22.5 -13l-99 -59l-20 52l103 62q14 9 27 13.5t31 4.5q40 0 68 -28.5
t28 -68.5q0 -41 -28 -70t-68 -29h-144v58zM39 663v69h59v-63v38q0 -32 -8 -56t-20 -32l-54 -31q23 17 23 75z" />
    <glyph glyph-name="uni0679.medi" unicode="&#x679;" horiz-adv-x="350" arabic-form="medial" 
d="M0 87h50q35 0 59.5 24.5t24.5 58.5v154h82v-154q0 -34 24.5 -58.5t59.5 -24.5h50q10 0 10 -10v-67q0 -10 -10 -10h-50q-41 0 -74.5 21t-50.5 55q-17 -34 -50.5 -55t-74.5 -21h-50q-10 0 -10 10v67q0 10 10 10zM77 482h144q15 0 27 11.5t12 27.5q0 20 -10.5 32t-30.5 12
q-8 0 -17.5 -5t-22.5 -13l-99 -59l-20 52l102 62q15 9 27.5 13t31.5 4q40 0 68 -28t28 -68q0 -41 -28 -70t-68 -29h-144v58zM111 632v69h58v-63v38q0 -32 -7.5 -56t-19.5 -32l-54 -31q23 17 23 75z" />
    <glyph glyph-name="uni06A4.fina" unicode="&#x6a4;" horiz-adv-x="872" arabic-form="final" 
d="M181 30q-51 30 -80.5 80.5t-29.5 111.5v102h82v-97q0 -38 18.5 -70.5t50.5 -51t70 -18.5h580q10 0 10 -10v-67q0 -10 -10 -10h-580q-60 0 -111 30zM819 99q-26 -43 -70.5 -67t-97.5 -24v0q-54 0 -98.5 24t-70.5 67t-26 97q0 53 26 97t71 69t98 25v0q53 0 97.5 -25
t70.5 -69t26 -97q0 -54 -26 -97zM726 268.5q-32 31.5 -76 31.5v0q-44 0 -75.5 -31.5t-31.5 -75.5q0 -45 31 -75.5t76 -30.5v0q45 0 76.5 30.5t31.5 75.5q0 44 -32 75.5zM537 566h88v-88h-88v88zM677 566h88v-88h-88v88zM607 707h89v-88h-89v88z" />
    <glyph glyph-name="uni06A4.init" unicode="&#x6a4;" horiz-adv-x="453" arabic-form="initial" 
d="M-10 10v67q0 10 10 10h238q35 0 59.5 24.5t24.5 59.5v20h-89v0q-49 0 -89.5 23t-64.5 62t-24 87q0 49 24 90t65 65t89 24v0q48 0 87.5 -24t62 -65t22.5 -90v-196q0 -45 -22.5 -83.5t-60.5 -61t-84 -22.5h-238q-10 0 -10 10zM231 269h96v97q0 40 -28 68t-68 28v0
q-41 0 -69 -27.5t-28 -68.5q0 -42 28 -69.5t69 -27.5v0zM118 722h88v-88h-88v88zM258 722h88v-88h-88v88zM188 863h88v-89h-88v89z" />
    <glyph glyph-name="uni06A4.medi" unicode="&#x6a4;" horiz-adv-x="447" arabic-form="medial" 
d="M53 293q26 44 71 69t98 25v0q53 0 97.5 -25.5t71 -69t26.5 -96.5q0 -54 -26 -97t-71 -67t-98 -24v0q-54 0 -98.5 24t-70.5 67t-26 97q0 53 26 97zM-10 10v67q0 10 10 10h447q10 0 10 -10v-67q0 -10 -10 -10h-447q-10 0 -10 10zM145.5 117.5q31.5 -30.5 76.5 -30.5v0
q45 0 76.5 30.5t31.5 75.5q0 44 -32 75.5t-76 31.5v0q-45 0 -76.5 -31.5t-31.5 -75.5q0 -45 31.5 -75.5zM108 566h88v-88h-88v88zM248 566h88v-88h-88v88zM178 707h88v-88h-88v88z" />
    <glyph glyph-name="uni0686.fina" unicode="&#x686;" horiz-adv-x="698" arabic-form="final" 
d="M185.5 -301q-50.5 30 -80.5 80t-30 109q0 49 21.5 93t59.5 75l305 226l-159 76q-26 11 -42 11q-18 0 -35 -8t-30 -22l-64 -71l-57 50l64 77q21 26 53 41t69 15q24 0 39.5 -5t34.5 -15l218 -102q8 -3 18 -3h75v-81h-98l-46 -34v-41q0 -34 24.5 -58.5t59.5 -24.5h113
q10 0 10 -10v-67q0 -10 -10 -10h-113q-66 0 -107.5 40.5t-42.5 105.5v16l-220 -162q-52 -42 -52 -111q0 -37 19 -69t51 -50.5t69 -18.5h291v-82h-298q-59 0 -109.5 30zM322 -129h60v-60h-60v60zM273 -27h60v-60h-60v60zM372 -27h61v-60h-61v60z" />
    <glyph glyph-name="uni0686.init" unicode="&#x686;" horiz-adv-x="683" arabic-form="initial" 
d="M-10 10v67q0 10 10 10h183q44 0 83 14.5t68 40.5l126 115l-176 84q-24 11 -42 11q-17 0 -34.5 -8t-30.5 -21l-72 -82l-57 49l72 88q22 26 54 41t69 15q23 0 38 -5t35 -15l218 -102q6 -3 18 -3h83v-81h-93l-162 -150q-41 -38 -95.5 -58t-114.5 -20h-170q-10 0 -10 10z
M210 -235h88v-88h-88v88zM140 -94h88v-89h-88v89zM281 -94h88v-89h-88v89z" />
    <glyph glyph-name="uni0686.medi" unicode="&#x686;" horiz-adv-x="681" arabic-form="medial" 
d="M-10 10v67q0 10 10 10h183q44 0 83 14.5t68 40.5l126 115l-176 84q-24 11 -42 11t-35.5 -8t-29.5 -21l-72 -82l-57 49l72 88q22 26 54 41t69 15q23 0 38 -5t35 -15l218 -102q9 -3 18 -3h83v-81h-95l-44 -40v-18q0 -34 24.5 -58.5t59.5 -24.5h101q10 0 10 -10v-67
q0 -10 -10 -10h-101q-57 0 -97.5 36.5t-48.5 91.5l-54 -50q-41 -38 -95.5 -58t-114.5 -20h-170q-10 0 -10 10zM210 -233h88v-89h-88v89zM140 -92h88v-89h-88v89zM281 -92h88v-89h-88v89z" />
    <glyph glyph-name="uni0688.fina" unicode="&#x688;" horiz-adv-x="563" arabic-form="final" 
d="M64 87h226q33 0 55.5 21t22.5 53q0 9 -6 29l-88 242l78 28l114 -314q9 -26 32 -42.5t51 -16.5h14q10 0 10 -10v-67q0 -10 -10 -10h-17q-43 0 -77 20.5t-50 52.5q-43 -73 -129 -73h-226v87zM200 618h144q16 0 27.5 12t11.5 28q0 19 -10.5 31t-30.5 12q-8 0 -16.5 -4
t-23.5 -13l-99 -60l-20 53l102 62q15 9 27.5 13t31.5 4q40 0 68 -28.5t28 -68.5q0 -41 -28 -69.5t-68 -28.5h-144v57zM234 769v69h58v-63v37q0 -32 -7.5 -56t-19.5 -31l-54 -31q23 15 23 75z" />
    <glyph glyph-name="uni0698.fina" unicode="&#x698;" horiz-adv-x="375" arabic-form="final" 
d="M75 -129q32 23 48.5 56.5t16.5 91.5v305h82v-305q0 -74 -22 -122t-68 -82.5t-132 -76.5l-31 69q74 41 106 64zM200.5 47.5q-38.5 47.5 -38.5 119.5v157h60v-154q0 -34 24.5 -58.5t59.5 -24.5h69q10 0 10 -10v-67q0 -10 -10 -10h-69q-67 0 -105.5 47.5zM70 507h89v-88h-89
v88zM211 507h88v-88h-88v88zM141 648h88v-88h-88v88z" />
    <glyph glyph-name="uni0691.fina" unicode="&#x691;" horiz-adv-x="352" arabic-form="final" 
d="M75 -129q32 23 48.5 56.5t16.5 91.5v305h82v-305q0 -74 -22 -122t-68 -82.5t-132 -76.5l-31 69q74 41 106 64zM200.5 47.5q-38.5 47.5 -38.5 119.5v157h60v-154q0 -34 24.5 -58.5t59.5 -24.5h46q10 0 10 -10v-67q0 -10 -10 -10h-46q-67 0 -105.5 47.5zM80 485h143
q16 0 28 12t12 28q0 19 -11 31t-31 12q-8 0 -16.5 -4t-23.5 -13l-99 -60l-19 53l102 62q15 9 27.5 13t30.5 4q40 0 68 -28.5t28 -68.5q0 -41 -28 -69.5t-68 -28.5h-143v57zM108 587.5q5 18.5 5 47.5v69h59v-63v39q0 -32 -8 -56.5t-19 -31.5l-55 -32q13 9 18 27.5z" />
    <glyph glyph-name="uni06A9.fina" unicode="&#x6a9;" horiz-adv-x="958" arabic-form="final" 
d="M181 30q-51 30 -80.5 80.5t-29.5 111.5v101h82v-96q0 -38 18.5 -70.5t50.5 -51t70 -18.5h355q40 0 69 28.5t29 70.5q0 55 -52 87l-239 157v68l192 203l57 -53l-167 -174l210 -138q38 -25 60 -64.5t22 -87.5q0 -50 -24.5 -92t-66.5 -67t-91 -25h-354q-60 0 -111 30z
M832.5 22.5q-34.5 22.5 -53 60.5t-18.5 84v18h67v-15q-1 -34 24 -58.5t59 -24.5h47q10 0 10 -10v-67q0 -10 -10 -10h-47q-44 0 -78.5 22.5z" />
    <glyph glyph-name="uni06A9.init" unicode="&#x6a9;" horiz-adv-x="448" arabic-form="initial" 
d="M0 87h218q41 0 70 28.5t29 70.5q0 55 -53 87l-238 157v68l192 203l56 -53l-166 -174l210 -138q38 -25 60 -64.5t22 -87.5q0 -50 -24.5 -92t-66.5 -67t-91 -25h-218q-10 0 -10 10v67q0 10 10 10z" />
    <glyph glyph-name="uni06A9.medi" unicode="&#x6a9;" horiz-adv-x="530" arabic-form="medial" 
d="M-10 10v67q0 10 10 10h218q41 0 70 28.5t29 70.5q0 55 -53 87l-238 157v68l192 203l56 -53l-166 -174l210 -138q38 -25 60 -64.5t22 -87.5q0 -50 -24.5 -92t-66.5 -67t-91 -25h-218q-10 0 -10 10zM404.5 22.5q-34.5 22.5 -53 60.5t-18.5 84v18h67v-15q0 -34 24.5 -58.5
t59.5 -24.5h46q10 0 10 -10v-67q0 -10 -10 -10h-46q-45 0 -79.5 22.5z" />
    <glyph glyph-name="uni06AF.fina" unicode="&#x6af;" horiz-adv-x="958" arabic-form="final" 
d="M832.5 22.5q-34.5 22.5 -53 60.5t-18.5 84v18h67v-15q-1 -34 24 -58.5t59 -24.5h47q10 0 10 -10v-67q0 -10 -10 -10h-47q-44 0 -78.5 22.5zM371 566l176 186l41 -42l-176 -186zM180.5 29.5q-50.5 29.5 -80 79.5t-29.5 111v103h82v-98q0 -38 18.5 -69.5t50.5 -50t70 -18.5
h355q40 0 69 28.5t29 70.5q0 55 -52 87l-239 157v68l192 203l57 -53l-167 -174l210 -138q38 -25 60 -64.5t22 -87.5q0 -50 -24.5 -92t-66.5 -67t-91 -25h-354q-61 0 -111.5 29.5z" />
    <glyph glyph-name="uni06AF.init" unicode="&#x6af;" horiz-adv-x="550" arabic-form="initial" 
d="M-10 10v67q0 10 10 10h320q41 0 70 28.5t29 70.5q0 55 -53 87l-239 157v68l192 203l57 -53l-167 -174l211 -138q38 -25 60 -64.5t22 -87.5q0 -50 -24.5 -92t-66.5 -67t-91 -25h-320q-10 0 -10 10zM46 566l176 186l41 -42l-176 -186z" />
    <glyph glyph-name="uni06AF.medi" unicode="&#x6af;" horiz-adv-x="631" arabic-form="medial" 
d="M-10 10v67q0 10 10 10h320q41 0 70 28.5t29 70.5q0 55 -53 87l-239 157v68l192 203l57 -53l-167 -174l211 -138q38 -25 60 -64.5t22 -87.5q0 -50 -24.5 -92t-66.5 -67t-91 -25h-320q-10 0 -10 10zM505.5 22.5q-34.5 22.5 -53 60.5t-18.5 84v18l68 -1v-14
q-1 -34 23.5 -58.5t59.5 -24.5h46q10 0 10 -10v-67q0 -10 -10 -10h-46q-45 0 -79.5 22.5zM46 566l176 186l41 -42l-176 -186z" />
    <glyph glyph-name="uni06BA.fina" unicode="&#x6ba;" horiz-adv-x="780" arabic-form="final" 
d="M215 -153q-66 39 -105 105.5t-39 144.5v187h82v-182q0 -56 28 -103.5t75 -75.5t103 -28t104 28t76 75.5t28 103.5v223h79v-228q0 -78 -38.5 -144.5t-104 -105.5t-144.5 -39q-78 0 -144 39zM632 47q-36 47 -36 120v158h54v-155q0 -34 24.5 -58.5t59.5 -24.5h46
q10 0 10 -10v-67q0 -10 -10 -10h-46q-66 0 -102 47z" />
    <glyph glyph-name="uni06C0.fina" unicode="&#x6c0;" horiz-adv-x="583" arabic-form="final" 
d="M166.5 55q-44.5 26 -71 71t-26.5 98q0 52 26.5 95t71 68t97.5 25v0h108v57h81v-245q0 -53 -25 -98t-68 -71t-96 -26v0q-53 0 -97.5 26zM341 147.5q31 31.5 31 76.5v106h-108v0q-44 0 -75.5 -31t-31.5 -75q0 -45 31.5 -76.5t75.5 -31.5v0q46 0 77 31.5zM456.5 22.5
q-35.5 22.5 -55 60.5t-19.5 84v157h71v-154q0 -34 24.5 -58.5t58.5 -24.5h47q10 0 10 -10v-67q0 -10 -10 -10h-47q-44 0 -79.5 22.5zM99 526l110 29q11 3 18 12t7 20q0 14 -10.5 24.5t-24.5 9.5l-121 -4l-17 54q-4 11 -4 26q0 32 21 59t53 36l81 22l16 -55l-82 -23
q-17 -5 -25 -17.5t-5 -28.5l4 -15l29 1l55 2q36 0 62 -25.5t26 -65.5q0 -31 -18.5 -56t-48.5 -33l-109 -29z" />
    <glyph glyph-name="uni06C1.fina" unicode="&#x6c1;" horiz-adv-x="540" arabic-form="final" 
d="M550 77v-67q0 -10 -10 -10h-46q-49 0 -88.5 21.5t-64.5 60.5l-65 99l-175 -166l-53 56l204 193h68l82 -124q32 -53 87 -53h51q10 0 10 -10z" />
    <glyph glyph-name="uni06C1.init" unicode="&#x6c1;" horiz-adv-x="261" arabic-form="initial" 
d="M-10 10v67q0 10 10 10h47q35 0 59.5 25t24.5 61v182h82v-187q0 -46 -22.5 -84.5t-60.5 -61t-84 -22.5h-46q-10 0 -10 10zM15.5 -365.5q-17.5 18.5 -17.5 46.5q0 87 97 225l49 -34q-39 -56 -56.5 -95t-20.5 -44q20 2 37.5 -14.5t17.5 -40.5q0 -26 -18 -44t-44 -18
q-27 0 -44.5 18.5z" />
    <glyph glyph-name="uni06C1.medi" unicode="&#x6c1;" horiz-adv-x="573" arabic-form="medial" 
d="M255.5 -123.5q27.5 -27.5 65.5 -27.5h176v-82h-175q-48 0 -88.5 23.5t-64.5 64t-24 87.5v279h83v-279q0 -38 27.5 -65.5zM369.5 -9.5q24.5 44.5 67 70.5t95.5 26h41q10 0 10 -10v-67q0 -10 -10 -10h-47q-45 0 -75 -31.5t-30 -76.5v-106h-76v106q0 54 24.5 98.5zM203.5 97
q-24.5 -45 -67 -71t-95.5 -26h-41q-10 0 -10 10v67q0 10 10 10h40q45 0 75 31.5t30 76.5v51h83v-51q0 -53 -24.5 -98z" />
    <glyph glyph-name="uni06BE.fina" unicode="&#x6be;" horiz-adv-x="536" arabic-form="final" 
d="M193 37q-44 24 -70 65t-26 89t26 89.5t70 66t96 24.5v0q51 0 91.5 -24.5t63.5 -65.5t23 -90q0 -48 -23 -89t-63.5 -65t-91.5 -24v0q-52 0 -96 24zM193 -263q-44 24 -70 65.5t-26 89.5t26 89t70 65.5t96 24.5v0q51 0 91.5 -24t63.5 -65t23 -90t-23 -90t-63.5 -65
t-91.5 -24v0q-52 0 -96 24zM363 -180.5q31 31.5 31 74.5q0 44 -31 75t-74 31v0q-44 0 -75.5 -31t-31.5 -75t31.5 -75t75.5 -31v0q43 0 74 31.5zM236 87h300q10 0 10 -10v-67q0 -10 -10 -10h-300v87zM363 118.5q31 31.5 31 75.5q0 43 -31 74.5t-74 31.5v0q-44 0 -75.5 -31
t-31.5 -75t31.5 -75.5t75.5 -31.5v0q43 0 74 31.5zM62 371h227l-51 -83h-176v83z" />
    <glyph glyph-name="uni06BE.init" unicode="&#x6be;" horiz-adv-x="771" arabic-form="initial" 
d="M286 87q31 0 55 15.5t37.5 40.5t13.5 51t-13 50.5t-37.5 40t-55.5 15.5q-45 0 -76 -31t-31 -75q0 -33 16 -57t41 -37t50 -13h242q45 0 76.5 31t31.5 76q0 44 -32 75t-76 31h-469v83h469q53 0 97.5 -25t71 -68.5t26.5 -95.5q0 -53 -26.5 -97.5t-71.5 -70.5t-97 -26h-246
q-54 0 -97 27.5t-67 72.5t-24 94q0 45 25 86.5t69 67.5t98 26q60 0 100 -30.5t59.5 -72.5t19.5 -77q0 -57 -27 -101.5t-69 -68.5t-87 -24h-284l1 87h287z" />
    <glyph glyph-name="uni06BE.medi" unicode="&#x6be;" horiz-adv-x="853" arabic-form="medial" 
d="M696.5 96.5q-26.5 -44.5 -71.5 -70.5t-97 -26h-528q-10 0 -10 10v67q0 10 10 10h528q45 0 76.5 31t31.5 76q0 44 -32 75t-76 31h-469v83h469q53 0 97.5 -25t71 -68.5t26.5 -95.5q0 -53 -26.5 -97.5zM442 102q-23 -41 -64 -65t-92 -24v0q-52 0 -96 24t-70 65t-26 89
t26 89.5t70.5 66t95.5 24.5v0q51 0 92 -24.5t64 -65.5t23 -90q0 -48 -23 -89zM361 269q-31 31 -75 31v0q-44 0 -75.5 -31t-31.5 -75t31.5 -75.5t75.5 -31.5v0q44 0 75 31.5t31 75.5t-31 75zM727.5 22.5q-34.5 22.5 -53 60.5t-18.5 84v25h67v-22q0 -34 24.5 -58.5t59.5 -24.5
h46q10 0 10 -10v-67q0 -10 -10 -10h-46q-45 0 -79.5 22.5z" />
    <glyph glyph-name="uni06D2.fina" unicode="&#x6d2;" horiz-adv-x="532" arabic-form="final" 
d="M94 2q23 39 62 62t86 23h290q10 0 10 -10v-67q0 -10 -10 -10h-292q-34 0 -58.5 -24.5t-24.5 -58.5t24.5 -58.5t58.5 -24.5h251v-88h-249q-47 0 -86 23t-62 62.5t-23 85.5t23 85z" />
    <glyph glyph-name="uni06D3.fina" unicode="&#x6d3;" horiz-adv-x="532" arabic-form="final" 
d="M94 2q23 39 62 62t86 23h290q10 0 10 -10v-67q0 -10 -10 -10h-292q-34 0 -58.5 -24.5t-24.5 -58.5t24.5 -58.5t58.5 -24.5h251v-88h-249q-47 0 -86 23t-62 62.5t-23 85.5t23 85zM73 188l99 36q-33 14 -46 48q-6 15 -6 33q0 32 20 60t54 40l67 24l22 -61l-62 -23
q-14 -5 -22.5 -17.5t-8.5 -27.5q0 -22 14.5 -35t34.5 -13q10 0 20 3l83 30l22 -60l-270 -98z" />
    <glyph glyph-name="uni06C7.fina" unicode="&#x6c7;" horiz-adv-x="505" arabic-form="final" 
d="M281.5 -123q44.5 25 64.5 52.5t20 70.5h-107v0q-53 0 -97.5 25t-71 68t-26.5 96t26.5 97.5t71 71t97.5 26.5v0q52 0 96 -26.5t69 -71t25 -97.5v-158q0 -79 -30 -128t-85.5 -82.5t-167.5 -82.5l-25 73q96 41 140.5 66zM366 83v107q0 45 -31 76.5t-76 31.5v0
q-45 0 -76 -31.5t-31 -76.5t31 -76t76 -31v0h107zM444 87h61q10 0 10 -10v-67q0 -10 -10 -10h-61v87zM191 594q-13 20 -13 45q0 47 33 80t80 33t80.5 -33t33.5 -80q0 -37 -20.5 -66t-57.5 -42l-184 -67l-22 61l105 39q-22 10 -35 30zM254 604q15 -15 38 -15q22 0 37 15
t15 37t-15 37.5t-37 15.5t-37.5 -15t-15.5 -38q0 -22 15 -37z" />
    <glyph glyph-name="uni06C6.fina" unicode="&#x6c6;" horiz-adv-x="505" arabic-form="final" 
d="M281.5 -123q44.5 25 64.5 52.5t20 70.5h-107v0q-53 0 -97.5 25t-71 68t-26.5 96t26.5 97.5t71 71t97.5 26.5v0q52 0 96 -26.5t69 -71t25 -97.5v-158q0 -79 -30 -128t-85.5 -82.5t-167.5 -82.5l-25 73q96 41 140.5 66zM366 83v107q0 45 -31 76.5t-76 31.5v0
q-45 0 -76 -31.5t-31 -76.5t31 -76t76 -31v0h107zM444 87h61q10 0 10 -10v-67q0 -10 -10 -10h-61v87zM206 576q-26 25 -82 29v64q130 -4 135 -105q6 101 136 105v-64q-55 -4 -81 -29t-26 -88h-56q0 63 -26 88z" />
    <glyph glyph-name="uni06CC.fina" unicode="&#x6cc;" horiz-adv-x="735" arabic-form="final" 
d="M71 179h82v-206q0 -38 18.5 -70t50.5 -50.5t70 -18.5h220q35 0 59 24t24 59q0 34 -24.5 58.5t-58.5 24.5h-160v70h159q47 0 86 -19t61.5 -53.5t22.5 -80.5t-23 -85.5t-62 -62.5t-85 -23h-219q-60 0 -111 30t-80.5 81t-29.5 112v210zM324 0v87h411q10 0 10 -10v-67
q0 -10 -10 -10h-411z" />
    <glyph glyph-name="uni06CC.init" unicode="&#x6cc;" horiz-adv-x="291" arabic-form="initial" 
d="M-10 10v67q0 10 10 10h74q35 0 59.5 25t24.5 61v182h82v-187q0 -46 -22.5 -84.5t-60.5 -61t-84 -22.5h-73q-10 0 -10 10zM1 -95h88v-88h-88v88zM141 -95h88v-88h-88v88z" />
    <glyph glyph-name="uni06CC.medi" unicode="&#x6cc;" horiz-adv-x="365" arabic-form="medial" 
d="M0 87h58q34 0 59 24.5t25 58.5v154h82v-154q0 -35 24.5 -59t59.5 -24h57q10 0 10 -10v-67q0 -10 -10 -10h-57q-41 0 -74 19t-52 52q-18 -33 -50.5 -52t-73.5 -19h-58q-10 0 -10 10v67q0 10 10 10zM67 -95h88v-88h-88v88zM207 -95h88v-88h-88v88z" />
    <glyph glyph-name="uniFDFC" unicode="&#xfdfc;" horiz-adv-x="1408" arabic-form="isolated" 
d="M215 -153q-66 39 -105 105.5t-39 144.5v187h82v-182q0 -56 28 -103.5t75 -75.5t103 -28t104 28t76 75.5t28 103.5v559h82v-564q0 -78 -39 -144.5t-105.5 -105.5t-145.5 -39q-78 0 -144 39zM846 -95h88v-88h-88v88zM986 -95h88v-88h-88v88zM848 22.5q-38 22.5 -60.5 61
t-22.5 84.5v264q0 43 -9 65.5t-26.5 35t-57.5 31.5q-35 16 -57 28l34 69l20 -10q77 -36 110.5 -58.5t50.5 -59t17 -102.5v-258q0 -36 25 -61t60 -25h44q10 0 10 -10v-67q0 -10 -10 -10h-44q-46 0 -84 22.5zM966 10v67q0 10 10 10h36q36 0 60.5 25t24.5 61v182h82v-187
q0 -46 -22.5 -84.5t-60.5 -61t-84 -22.5h-36q-10 0 -10 10zM1197 -129q32 23 48.5 56.5t16.5 91.5v305h82v-305q0 -74 -22 -122t-68 -82.5t-132 -76.5l-31 69q74 41 106 64z" />
    <glyph glyph-name="uni0622.fina" unicode="&#x622;" horiz-adv-x="282" arabic-form="final" 
d="M154 22.5q-38 22.5 -60.5 61t-22.5 84.5v427h82v-422q0 -36 24.5 -61t59.5 -25h45q10 0 10 -10v-67q0 -10 -10 -10h-44q-46 0 -84 22.5zM-20 718.5q22 22.5 57 22.5h196v-66h-189q-12 0 -21 -8.5t-9 -21.5v-41h-56v57q0 35 22 57.5z" />
    <glyph glyph-name="uni0623.fina" unicode="&#x623;" horiz-adv-x="282" arabic-form="final" 
d="M154 22.5q-38 22.5 -60.5 61t-22.5 84.5v427h82v-422q0 -36 24.5 -61t59.5 -25h45q10 0 10 -10v-67q0 -10 -10 -10h-44q-46 0 -84 22.5zM-19 679l99 36q-33 14 -47 48q-6 17 -6 33q0 32 20.5 60t54.5 40l67 24l22 -61l-62 -23q-14 -5 -22.5 -17.5t-8.5 -27.5
q0 -22 14.5 -35t34.5 -13q10 0 20 3l83 30l22 -60l-270 -98z" />
    <glyph glyph-name="uni0624.fina" unicode="&#x624;" horiz-adv-x="505" arabic-form="final" 
d="M281.5 -123q44.5 25 64.5 52.5t20 70.5h-107v0q-53 0 -97.5 25t-71 68t-26.5 96t26.5 97.5t71 71t97.5 26.5v0q52 0 96 -26.5t69 -71t25 -97.5v-158q0 -79 -30 -128t-85.5 -82.5t-167.5 -82.5l-25 73q96 41 140.5 66zM366 83v107q0 45 -31 76.5t-76 31.5v0
q-45 0 -76 -31.5t-31 -76.5t31 -76t76 -31v0h107zM444 87h61q10 0 10 -10v-67q0 -10 -10 -10h-61v87zM121 525l100 37q-14 5 -26.5 17t-20.5 30q-6 17 -6 33q0 32 20 59.5t54 40.5l68 24l22 -60l-62 -23q-15 -5 -23.5 -17.5t-8.5 -27.5q0 -22 15 -35.5t35 -13.5q11 0 19 4
l84 30l22 -61l-270 -98z" />
    <glyph glyph-name="uni0625.fina" unicode="&#x625;" horiz-adv-x="282" arabic-form="final" 
d="M154 22.5q-38 22.5 -60.5 61t-22.5 84.5v491h82v-486q0 -36 24.5 -61t59.5 -25h45q10 0 10 -10v-67q0 -10 -10 -10h-44q-46 0 -84 22.5zM-11 -296l99 36q-33 14 -46 48q-6 16 -6 33q0 32 20 60t54 40l67 24l22 -61l-61 -23q-15 -5 -23.5 -17.5t-8.5 -27.5q0 -22 14.5 -35
t34.5 -13q11 0 20 3l83 30l22 -60l-269 -98z" />
    <glyph glyph-name="uni0626.fina" unicode="&#x626;" horiz-adv-x="735" arabic-form="final" 
d="M181 -224q-51 30 -80.5 81t-29.5 112v210h82v-206q0 -38 18.5 -70t50.5 -50.5t70 -18.5h220q35 0 59 24t24 59q0 34 -24.5 58.5t-58.5 24.5h-160v70h159q47 0 86 -19t61.5 -53.5t22.5 -80.5t-23 -85.5t-62 -62.5t-85 -23h-219q-60 0 -111 30zM324 87h411q10 0 10 -10v-67
q0 -10 -10 -10h-411v87zM71 327l99 37q-14 5 -26.5 17t-20.5 30q-6 17 -6 33q0 32 20 59.5t54 40.5l68 24l22 -60l-62 -23q-14 -6 -22.5 -18.5t-8.5 -26.5q0 -22 14.5 -35.5t34.5 -13.5q10 0 20 3l83 31l22 -61l-270 -98z" />
    <glyph glyph-name="uni0626.init" unicode="&#x626;" horiz-adv-x="318" arabic-form="initial" 
d="M-10 10v67q0 10 10 10h89q35 0 59.5 25t24.5 61v182h82v-187q0 -46 -22.5 -84.5t-60.5 -61t-84 -22.5h-88q-10 0 -10 10zM-11 506l100 37q-14 5 -26.5 17t-20.5 30q-6 17 -6 33q0 32 20 59.5t54 40.5l68 24l22 -60l-62 -23q-14 -6 -23 -18.5t-9 -26.5q0 -22 15 -35.5
t35 -13.5q10 0 20 3l83 31l22 -61l-270 -98z" />
    <glyph glyph-name="uni0626.medi" unicode="&#x626;" horiz-adv-x="365" arabic-form="medial" 
d="M-10 10v67q0 10 10 10h58q34 0 59 24.5t25 58.5v154h82v-154q0 -35 24.5 -59t59.5 -24h57q10 0 10 -10v-67q0 -10 -10 -10h-57q-41 0 -74 19t-52 52q-18 -33 -50.5 -52t-73.5 -19h-58q-10 0 -10 10zM33 472l99 36q-33 14 -46 48q-6 17 -6 33q0 32 20 60t54 40l67 24
l22 -61l-62 -23q-14 -5 -22.5 -17.5t-8.5 -27.5q0 -22 14.5 -35t34.5 -13q10 0 20 3l83 30l22 -60l-270 -98z" />
    <glyph glyph-name="uni0627.fina" unicode="&#x627;" horiz-adv-x="282" arabic-form="final" 
d="M154 22.5q-38 22.5 -60.5 61t-22.5 84.5v491h82v-486q0 -36 24.5 -61t59.5 -25h45q10 0 10 -10v-67q0 -10 -10 -10h-44q-46 0 -84 22.5z" />
    <glyph glyph-name="uni0628.fina" unicode="&#x628;" horiz-adv-x="957" arabic-form="final" 
d="M181 30q-51 30 -80.5 80.5t-29.5 111.5v102h82v-97q0 -38 18.5 -70.5t50.5 -51t70 -18.5h345q45 0 76 31.5t31 76.5v129h82v-154q0 -34 25 -58.5t59 -24.5h47q10 0 10 -10v-67q0 -10 -10 -10h-47q-44 0 -77.5 21.5t-51.5 58.5q-22 -37 -59.5 -58.5t-84.5 -21.5h-345
q-60 0 -111 30zM427 -92h88v-89h-88v89z" />
    <glyph glyph-name="uni0628.init" unicode="&#x628;" horiz-adv-x="261" arabic-form="initial" 
d="M-10 10v67q0 10 10 10h47q35 0 59.5 25t24.5 61v182h82v-187q0 -46 -22.5 -84.5t-60.5 -61t-84 -22.5h-46q-10 0 -10 10zM0 -92h88v-89h-88v89z" />
    <glyph glyph-name="uni0628.medi" unicode="&#x628;" horiz-adv-x="343" arabic-form="medial" 
d="M-10 10v67q0 10 10 10h46q35 0 59.5 24.5t24.5 58.5v154h83v-154q0 -35 24.5 -59t59.5 -24h46q10 0 10 -10v-67q0 -10 -10 -10h-46q-42 0 -74.5 19t-51.5 52q-18 -33 -51 -52t-74 -19h-46q-10 0 -10 10zM126 -92h88v-88h-88v88z" />
    <glyph glyph-name="uni0629.fina" unicode="&#x629;" horiz-adv-x="577" arabic-form="final" 
d="M160 55q-45 26 -71.5 71t-26.5 98q0 52 26.5 95t71.5 68t98 25v0h107v57h82v-245q0 -53 -25 -98t-68 -71t-96 -26v0q-53 0 -98 26zM334.5 147.5q31.5 31.5 31.5 76.5v106h-108v0q-45 0 -76.5 -31t-31.5 -75q0 -45 31.5 -76.5t76.5 -31.5v0q45 0 76.5 31.5zM450.5 22.5
q-35.5 22.5 -55 60.5t-19.5 84v157h71v-154q0 -34 24.5 -58.5t59.5 -24.5h46q10 0 10 -10v-67q0 -10 -10 -10h-46q-45 0 -80.5 22.5zM158 665h88v-88h-88v88zM298 665h88v-88h-88v88z" />
    <glyph glyph-name="uni062A.fina" unicode="&#x62a;" horiz-adv-x="957" arabic-form="final" 
d="M71 324h82v-97q0 -38 18.5 -70.5t50.5 -51t70 -18.5h345q45 0 76 31.5t31 76.5v129h82v-154q0 -34 25 -58.5t59 -24.5h47q10 0 10 -10v-67q0 -10 -10 -10h-47q-44 0 -77.5 21.5t-51.5 58.5q-22 -37 -59.5 -58.5t-84.5 -21.5h-345q-60 0 -111 30t-80.5 80.5t-29.5 111.5
v102zM336 412h88v-88h-88v88zM476 412h88v-88h-88v88z" />
    <glyph glyph-name="uni062A.init" unicode="&#x62a;" horiz-adv-x="288" arabic-form="initial" 
d="M-10 10v67q0 10 10 10h74q35 0 59.5 25t24.5 61v182h82v-187q0 -46 -22.5 -84.5t-60.5 -61t-84 -22.5h-73q-10 0 -10 10zM9 538h88v-88h-88v88zM149 538h89v-88h-89v88z" />
    <glyph glyph-name="uni062A.medi" unicode="&#x62a;" horiz-adv-x="365" arabic-form="medial" 
d="M0 87h58q34 0 59 24.5t25 58.5v154h82v-154q0 -35 24.5 -59t59.5 -24h57q10 0 10 -10v-67q0 -10 -10 -10h-57q-41 0 -74 19t-52 52q-18 -33 -50.5 -52t-73.5 -19h-58q-10 0 -10 10v67q0 10 10 10zM69 509h89v-89h-89v89zM210 509h88v-89h-88v89z" />
    <glyph glyph-name="uni062B.fina" unicode="&#x62b;" horiz-adv-x="957" arabic-form="final" 
d="M181 30q-51 30 -80.5 80.5t-29.5 111.5v102h82v-97q0 -38 18.5 -70.5t50.5 -51t70 -18.5h345q45 0 76 31.5t31 76.5v129h68v-129q0 -54 -21.5 -98.5t-61 -70.5t-92.5 -26h-345q-60 0 -111 30zM831.5 22.5q-34.5 22.5 -53 60.5t-18.5 84v157h66v-154q0 -34 25 -58.5
t59 -24.5h47q10 0 10 -10v-67q0 -10 -10 -10h-47q-44 0 -78.5 22.5zM335 412h88v-88h-88v88zM475 412h89v-88h-89v88zM405 554h89v-88h-89v88z" />
    <glyph glyph-name="uni062B.init" unicode="&#x62b;" horiz-adv-x="288" arabic-form="initial" 
d="M-10 10v67q0 10 10 10h74q35 0 59.5 25t24.5 61v182h82v-187q0 -46 -22.5 -84.5t-60.5 -61t-84 -22.5h-73q-10 0 -10 10zM9 538h88v-88h-88v88zM149 538h89v-88h-89v88zM79 679h88v-88h-88v88z" />
    <glyph glyph-name="uni062B.medi" unicode="&#x62b;" horiz-adv-x="365" arabic-form="medial" 
d="M-10 10v67q0 10 10 10h58q34 0 59 24.5t25 58.5v154h82v-154q0 -35 24.5 -59t59.5 -24h57q10 0 10 -10v-67q0 -10 -10 -10h-57q-42 0 -75.5 21t-50.5 55q-17 -34 -50 -55t-74 -21h-58q-10 0 -10 10zM68 507h88v-88h-88v88zM208 507h88v-88h-88v88zM138 649h88v-88h-88v88
z" />
    <glyph glyph-name="uni062C.fina" unicode="&#x62c;" horiz-adv-x="698" arabic-form="final" 
d="M185.5 -301q-50.5 30 -80.5 80t-30 109q0 49 21.5 93t59.5 75l305 226l-159 76q-26 11 -42 11q-18 0 -35 -8t-30 -22l-64 -71l-57 50l64 77q21 26 53 41t69 15q24 0 39.5 -5t34.5 -15l218 -102q8 -3 18 -3h75v-81h-98l-46 -34v-41q0 -34 24.5 -58.5t59.5 -24.5h113
q10 0 10 -10v-67q0 -10 -10 -10h-113q-66 0 -107.5 40.5t-42.5 105.5v16l-220 -162q-52 -42 -52 -111q0 -37 19 -69t51 -50.5t69 -18.5h291v-82h-298q-59 0 -109.5 30zM338 -54h77v-79h-77v79z" />
    <glyph glyph-name="uni062C.init" unicode="&#x62c;" horiz-adv-x="683" arabic-form="initial" 
d="M-10 10v67q0 10 10 10h183q44 0 83 14.5t68 40.5l126 115l-176 84q-24 11 -42 11q-17 0 -34.5 -8t-30.5 -21l-72 -82l-57 49l72 88q22 26 54 41t69 15q23 0 38 -5t35 -15l218 -102q6 -3 18 -3h83v-81h-93l-162 -150q-41 -38 -95.5 -58t-114.5 -20h-170q-10 0 -10 10z
M208 -92h84v-87h-84v87z" />
    <glyph glyph-name="uni062C.medi" unicode="&#x62c;" horiz-adv-x="681" arabic-form="medial" 
d="M-10 10v67q0 10 10 10h183q44 0 83 14.5t68 40.5l126 115l-176 84q-24 11 -42 11q-17 0 -34.5 -8t-30.5 -21l-72 -82l-57 49l72 88q22 26 54 41t69 15q23 0 38 -5t35 -15l218 -102q6 -3 18 -3h83v-81h-95l-44 -40v-18q0 -34 24.5 -58.5t59.5 -24.5h101q10 0 10 -10v-67
q0 -10 -10 -10h-101q-57 0 -96.5 36t-50.5 92l-53 -50q-41 -38 -95.5 -58t-114.5 -20h-170q-10 0 -10 10zM198 -92h88v-89h-88v89z" />
    <glyph glyph-name="uni062D.fina" unicode="&#x62d;" horiz-adv-x="698" arabic-form="final" 
d="M185.5 -301q-50.5 30 -80.5 80t-30 109q0 49 21.5 93t59.5 75l305 226l-159 76q-26 11 -42 11q-18 0 -35 -8t-30 -22l-64 -71l-57 50l64 77q21 26 53 41t69 15q24 0 39.5 -5t34.5 -15l218 -102q8 -3 18 -3h75v-81h-98l-46 -34v-41q0 -34 24.5 -58.5t59.5 -24.5h113
q10 0 10 -10v-67q0 -10 -10 -10h-113q-66 0 -107.5 40.5t-42.5 105.5v16l-220 -162q-52 -42 -52 -111q0 -37 19 -69t51 -50.5t69 -18.5h291v-82h-298q-59 0 -109.5 30z" />
    <glyph glyph-name="uni062D.init" unicode="&#x62d;" horiz-adv-x="683" arabic-form="initial" 
d="M-10 10v67q0 10 10 10h183q44 0 83 14.5t68 40.5l126 115l-176 84q-24 11 -42 11q-17 0 -34.5 -8t-30.5 -21l-72 -82l-57 49l72 88q22 26 54 41t69 15q23 0 38 -5t35 -15l218 -102q6 -3 18 -3h83v-81h-93l-162 -150q-41 -38 -95.5 -58t-114.5 -20h-170q-10 0 -10 10z" />
    <glyph glyph-name="uni062D.medi" unicode="&#x62d;" horiz-adv-x="681" arabic-form="medial" 
d="M-10 10v67q0 10 10 10h183q44 0 83 14.5t68 40.5l126 115l-176 84q-24 11 -42 11q-17 0 -34.5 -8t-30.5 -21l-72 -82l-57 49l72 88q22 26 54 41t69 15q23 0 38 -5t35 -15l218 -102q6 -3 18 -3h83v-81h-95l-44 -40v-18q0 -34 24.5 -58.5t59.5 -24.5h101q10 0 10 -10v-67
q0 -10 -10 -10h-101q-57 0 -97.5 36.5t-48.5 91.5l-54 -50q-41 -38 -95.5 -58t-114.5 -20h-170q-10 0 -10 10z" />
    <glyph glyph-name="uni062E.fina" unicode="&#x62e;" horiz-adv-x="698" arabic-form="final" 
d="M185.5 -301q-50.5 30 -80.5 80t-30 109q0 49 21.5 93t59.5 75l305 226l-159 76q-26 11 -42 11q-18 0 -35 -8t-30 -22l-64 -71l-57 50l64 77q21 26 53 41t69 15q24 0 39.5 -5t34.5 -15l218 -102q8 -3 18 -3h75v-81h-98l-46 -34v-41q0 -34 24.5 -58.5t59.5 -24.5h113
q10 0 10 -10v-67q0 -10 -10 -10h-113q-66 0 -107.5 40.5t-42.5 105.5v16l-220 -162q-52 -42 -52 -111q0 -37 19 -69t51 -50.5t69 -18.5h291v-82h-298q-59 0 -109.5 30zM212 628h89v-88h-89v88z" />
    <glyph glyph-name="uni062E.init" unicode="&#x62e;" horiz-adv-x="683" arabic-form="initial" 
d="M-10 10v67q0 10 10 10h183q44 0 83 14.5t68 40.5l126 115l-176 84q-24 11 -42 11q-17 0 -34.5 -8t-30.5 -21l-72 -82l-57 49l72 88q22 26 54 41t69 15q23 0 38 -5t35 -15l218 -102q6 -3 18 -3h83v-81h-93l-162 -150q-41 -38 -95.5 -58t-114.5 -20h-170q-10 0 -10 10z
M199 613h88v-89h-88v89z" />
    <glyph glyph-name="uni062E.medi" unicode="&#x62e;" horiz-adv-x="681" arabic-form="medial" 
d="M-10 10v67q0 10 10 10h183q44 0 83 14.5t68 40.5l126 115l-176 84q-24 11 -42 11q-17 0 -34.5 -8t-30.5 -21l-72 -82l-57 49l72 88q22 26 54 41t69 15q23 0 38 -5t35 -15l218 -102q6 -3 18 -3h83v-81h-93l-46 -41v-17q0 -34 24.5 -58.5t59.5 -24.5h101q10 0 10 -10v-67
q0 -10 -10 -10h-101q-57 0 -96.5 36t-50.5 92l-53 -50q-41 -38 -95.5 -58t-114.5 -20h-170q-10 0 -10 10zM288 524h-88v89h88v-89z" />
    <glyph glyph-name="uni062F.fina" unicode="&#x62f;" horiz-adv-x="563" arabic-form="final" 
d="M64 87h226q33 0 55.5 21t22.5 53q0 9 -6 29l-88 242l78 28l114 -314q9 -26 32 -42.5t51 -16.5h14q10 0 10 -10v-67q0 -10 -10 -10h-17q-43 0 -77 20.5t-50 52.5q-43 -73 -129 -73h-226v87z" />
    <glyph glyph-name="uni0630.fina" unicode="&#x630;" horiz-adv-x="563" arabic-form="final" 
d="M64 87h226q33 0 55.5 21t22.5 53q0 9 -6 29l-88 242l78 28l114 -314q9 -26 32 -42.5t51 -16.5h14q10 0 10 -10v-67q0 -10 -10 -10h-17q-43 0 -77 20.5t-50 52.5q-43 -73 -129 -73h-226v87zM271 626h88v-89h-88v89z" />
    <glyph glyph-name="uni0631.fina" unicode="&#x631;" horiz-adv-x="352" arabic-form="final" 
d="M75 -129q32 23 48.5 56.5t16.5 91.5v305h82v-305q0 -74 -22 -122t-68 -82.5t-132 -76.5l-31 69q74 41 106 64zM200.5 47.5q-38.5 47.5 -38.5 119.5v157h60v-154q0 -34 24.5 -58.5t59.5 -24.5h46q10 0 10 -10v-67q0 -10 -10 -10h-46q-67 0 -105.5 47.5z" />
    <glyph glyph-name="uni0632.fina" unicode="&#x632;" horiz-adv-x="352" arabic-form="final" 
d="M75 -129q32 23 48.5 56.5t16.5 91.5v305h82v-305q0 -74 -22 -122t-68 -82.5t-132 -76.5l-31 69q74 41 106 64zM200.5 47.5q-38.5 47.5 -38.5 119.5v157h60v-154q0 -34 24.5 -58.5t59.5 -24.5h46q10 0 10 -10v-67q0 -10 -10 -10h-46q-67 0 -105.5 47.5zM136 507h88v-88
h-88v88z" />
    <glyph glyph-name="uni0633.fina" unicode="&#x633;" horiz-adv-x="1280" arabic-form="final" 
d="M215 -153q-66 39 -105 105.5t-39 144.5v187h82v-182q0 -56 28 -103.5t75 -75.5t103 -28t104 28t76 75.5t28 103.5v222h79v-227q0 -78 -38.5 -144.5t-104 -105.5t-144.5 -39q-78 0 -144 39zM632 45q-36 47 -36 120v159h54v-156q0 -34 24.5 -58.5t59.5 -24.5q34 0 59 24.5
t25 58.5v156h66v-159q0 -46 -18.5 -84t-52.5 -60.5t-79 -22.5q-66 0 -102 47zM904.5 20.5q-34.5 22.5 -53 60.5t-18.5 84v159h67v-156q0 -34 24.5 -58.5t59.5 -24.5t59 24.5t24 58.5v187h68v-190q0 -46 -18.5 -84t-53 -60.5t-79.5 -22.5t-79.5 22.5zM1154.5 22.5
q-34.5 22.5 -53 60.5t-18.5 84v188h67v-185q0 -34 24.5 -58.5t59.5 -24.5h46q10 0 10 -10v-67q0 -10 -10 -10h-46q-45 0 -79.5 22.5z" />
    <glyph glyph-name="uni0633.init" unicode="&#x633;" horiz-adv-x="740" arabic-form="initial" 
d="M467.5 22.5q-34.5 22.5 -53 60.5t-18.5 84v157h66v-154q0 -34 25 -58.5t60 -24.5h63v268h82v-355h-145q-45 0 -79.5 22.5zM-10 10v67q0 10 10 10h46q35 0 59.5 24.5t24.5 58.5v154h67v-157q0 -46 -18.5 -84t-53 -60.5t-79.5 -22.5h-46q-10 0 -10 10zM217.5 20.5
q-34.5 22.5 -53.5 60.5t-19 84v159h68v-156q0 -35 24.5 -59t59.5 -24q34 0 58.5 24.5t24.5 58.5v156h67v-159q0 -46 -18.5 -84t-53 -60.5t-78.5 -22.5q-45 0 -79.5 22.5z" />
    <glyph glyph-name="uni0633.medi" unicode="&#x633;" horiz-adv-x="843" arabic-form="medial" 
d="M467.5 20.5q-34.5 22.5 -53 60.5t-18.5 84v159h66v-156q0 -34 24.5 -58.5t59.5 -24.5t59.5 24.5t24.5 58.5v187h67v-190q0 -46 -18.5 -84t-53 -60.5t-79.5 -22.5q-44 0 -78.5 22.5zM-10 10v67q0 10 10 10h46q35 0 59.5 24.5t24.5 58.5v154h67v-157q0 -46 -18.5 -84
t-53 -60.5t-79.5 -22.5h-46q-10 0 -10 10zM217.5 20.5q-34.5 22.5 -53.5 60.5t-19 84v159h68v-156q0 -35 24.5 -59t59.5 -24q34 0 58.5 24.5t24.5 58.5v156h67v-159q0 -46 -18.5 -84t-53 -60.5t-78.5 -22.5q-45 0 -79.5 22.5zM717.5 22.5q-34.5 22.5 -53 60.5t-18.5 84v188
h67v-185q0 -35 24.5 -59t59.5 -24h46q10 0 10 -10v-67q0 -10 -10 -10h-46q-45 0 -79.5 22.5z" />
    <glyph glyph-name="uni0634.fina" unicode="&#x634;" horiz-adv-x="1280" arabic-form="final" 
d="M215 -153q-66 39 -105 105.5t-39 144.5v187h82v-182q0 -56 28 -103.5t75 -75.5t103 -28t104 28t76 75.5t28 103.5v222h79v-227q0 -78 -38.5 -144.5t-104 -105.5t-144.5 -39q-78 0 -144 39zM632 45q-36 47 -36 120v159h54v-156q0 -34 24.5 -58.5t59.5 -24.5q34 0 59 24.5
t25 58.5v156h66v-159q0 -46 -18.5 -84t-52.5 -60.5t-79 -22.5q-66 0 -102 47zM904.5 20.5q-34.5 22.5 -53 60.5t-18.5 84v159h67v-156q0 -34 24.5 -58.5t59.5 -24.5t59 24.5t24 58.5v187h68v-190q0 -46 -18.5 -84t-53 -60.5t-79.5 -22.5t-79.5 22.5zM1154.5 22.5
q-34.5 22.5 -53 60.5t-18.5 84v188h67v-185q0 -34 24.5 -58.5t59.5 -24.5h46q10 0 10 -10v-67q0 -10 -10 -10h-46q-45 0 -79.5 22.5zM745 502h88v-88h-88v88zM885 502h88v-88h-88v88zM815 643h88v-88h-88v88z" />
    <glyph glyph-name="uni0634.init" unicode="&#x634;" horiz-adv-x="740" arabic-form="initial" 
d="M467.5 22.5q-34.5 22.5 -53 60.5t-18.5 84v157h66v-154q0 -34 25 -58.5t60 -24.5h63v268h82v-355h-145q-45 0 -79.5 22.5zM-10 10v67q0 10 10 10h46q35 0 59.5 24.5t24.5 58.5v154h67v-157q0 -46 -18.5 -84t-53 -60.5t-79.5 -22.5h-46q-10 0 -10 10zM217.5 20.5
q-34.5 22.5 -53.5 60.5t-19 84v159h68v-156q0 -35 24.5 -59t59.5 -24q34 0 58.5 24.5t24.5 58.5v156h67v-159q0 -46 -18.5 -84t-53 -60.5t-78.5 -22.5q-45 0 -79.5 22.5zM308 497h88v-88h-88v88zM448 497h88v-88h-88v88zM378 638h88v-88h-88v88z" />
    <glyph glyph-name="uni0634.medi" unicode="&#x634;" horiz-adv-x="843" arabic-form="medial" 
d="M467.5 20.5q-34.5 22.5 -53 60.5t-18.5 84v159h66v-156q0 -34 24.5 -58.5t59.5 -24.5t59.5 24.5t24.5 58.5v187h67v-190q0 -46 -18.5 -84t-53 -60.5t-79.5 -22.5q-44 0 -78.5 22.5zM-10 10v67q0 10 10 10h46q35 0 59.5 24.5t24.5 58.5v154h67v-157q0 -46 -18.5 -84
t-53 -60.5t-79.5 -22.5h-46q-10 0 -10 10zM217.5 20.5q-34.5 22.5 -53.5 60.5t-19 84v159h68v-156q0 -35 24.5 -59t59.5 -24q34 0 58.5 24.5t24.5 58.5v156h67v-159q0 -46 -18.5 -84t-53 -60.5t-78.5 -22.5q-45 0 -79.5 22.5zM717.5 22.5q-34.5 22.5 -53 60.5t-18.5 84v188
h67v-185q0 -35 24.5 -59t59.5 -24h46q10 0 10 -10v-67q0 -10 -10 -10h-46q-45 0 -79.5 22.5zM308 497h88v-88h-88v88zM448 497h88v-88h-88v88zM378 638h88v-88h-88v88z" />
    <glyph glyph-name="uni0635.fina" unicode="&#x635;" horiz-adv-x="1344" arabic-form="final" 
d="M215.5 -153q-66.5 39 -105.5 105.5t-39 144.5v187h82v-182q0 -56 28 -103.5t75.5 -75.5t103.5 -28t103.5 28t75.5 75.5t28 103.5v222h80v-227q0 -78 -38.5 -144.5t-104 -105.5t-144.5 -39q-78 0 -144.5 39zM668 26.5q-41 26.5 -63 71.5t-22 100v126h67v-135q0 -42 30 -72
t72 -30h267q46 0 78 32.5t32 79.5q0 46 -32.5 79t-79.5 33q-17 0 -35.5 -6t-43.5 -21l-292 -175l-30 74l283 169q36 21 61.5 30.5t58.5 9.5q53 0 98 -26.5t71 -71t26 -97.5q0 -54 -26.5 -99t-71.5 -71.5t-98 -26.5h-256q-53 0 -94 26.5zM1218.5 22.5q-34.5 22.5 -53 60.5
t-18.5 84v29h67v-26q0 -34 24.5 -58.5t59.5 -24.5h46q10 0 10 -10v-67q0 -10 -10 -10h-46q-45 0 -79.5 22.5z" />
    <glyph glyph-name="uni0635.init" unicode="&#x635;" horiz-adv-x="824" arabic-form="initial" 
d="M231 26.5q-41 26.5 -63.5 71.5t-22.5 100v126h68v-135q0 -42 29.5 -72t72.5 -30h266q46 0 78 32.5t32 79.5q0 46 -32.5 79t-78.5 33q-18 0 -36.5 -6t-43.5 -21l-292 -175l-30 74l284 169q36 21 61 30.5t58 9.5q53 0 98 -26.5t71 -71t26 -97.5q0 -54 -26.5 -99
t-71.5 -71.5t-98 -26.5h-255q-53 0 -94 26.5zM-10 10v67q0 10 10 10h46q35 0 59.5 24.5t24.5 58.5v154h67v-157q0 -46 -18.5 -84t-53 -60.5t-79.5 -22.5h-46q-10 0 -10 10z" />
    <glyph glyph-name="uni0635.medi" unicode="&#x635;" horiz-adv-x="906" arabic-form="medial" 
d="M231 26.5q-41 26.5 -63.5 71.5t-22.5 100v126h68v-135q0 -42 29.5 -72t72.5 -30h266q46 0 78 32.5t32 79.5q0 46 -32.5 79t-78.5 33q-18 0 -36.5 -6t-43.5 -21l-292 -175l-30 74l284 169q36 21 61 30.5t58 9.5q53 0 98 -26.5t71 -71t26 -97.5q0 -54 -26.5 -99
t-71.5 -71.5t-98 -26.5h-255q-53 0 -94 26.5zM-10 10v67q0 10 10 10h46q35 0 59.5 24.5t24.5 58.5v154h67v-157q0 -46 -18.5 -84t-53 -60.5t-79.5 -22.5h-46q-10 0 -10 10zM780.5 22.5q-34.5 22.5 -53 60.5t-18.5 84v29h67v-26q0 -34 24.5 -58.5t59.5 -24.5h46q10 0 10 -10
v-67q0 -10 -10 -10h-46q-45 0 -79.5 22.5z" />
    <glyph glyph-name="uni0636.fina" unicode="&#x636;" horiz-adv-x="1344" arabic-form="final" 
d="M215.5 -153q-66.5 39 -105.5 105.5t-39 144.5v187h82v-182q0 -56 28 -103.5t75.5 -75.5t103.5 -28t103.5 28t75.5 75.5t28 103.5v222h80v-227q0 -78 -38.5 -144.5t-104 -105.5t-144.5 -39q-78 0 -144.5 39zM668 26.5q-41 26.5 -63 71.5t-22 100v126h67v-135q0 -42 30 -72
t72 -30h267q46 0 78 32.5t32 79.5q0 46 -32.5 78.5t-77.5 32.5q-20 0 -39 -5t-43 -19l-293 -174l-28 71l294 176q54 33 109 33q53 0 98 -26.5t71 -71t26 -97.5q0 -54 -26.5 -99t-71.5 -71.5t-98 -26.5h-256q-53 0 -94 26.5zM1218.5 22.5q-34.5 22.5 -53 60.5t-18.5 84v29h67
v-26q0 -34 24.5 -58.5t59.5 -24.5h46q10 0 10 -10v-67q0 -10 -10 -10h-46q-45 0 -79.5 22.5zM973 571h88v-88h-88v88z" />
    <glyph glyph-name="uni0636.init" unicode="&#x636;" horiz-adv-x="824" arabic-form="initial" 
d="M231 26.5q-41 26.5 -63.5 71.5t-22.5 100v126h68v-135q0 -42 29.5 -72t72.5 -30h266q46 0 78 32.5t32 79.5q0 46 -32.5 79t-78.5 33q-18 0 -36.5 -6t-43.5 -22l-292 -174l-30 74l284 169q36 21 61 30.5t58 9.5q53 0 98 -26.5t71 -71t26 -97.5q0 -54 -26.5 -99
t-71.5 -71.5t-98 -26.5h-255q-53 0 -94 26.5zM-10 10v67q0 10 10 10h46q35 0 59.5 24.5t24.5 58.5v154h67v-157q0 -46 -18.5 -84t-53 -60.5t-79.5 -22.5h-46q-10 0 -10 10zM535 571h89v-88h-89v88z" />
    <glyph glyph-name="uni0636.medi" unicode="&#x636;" horiz-adv-x="906" arabic-form="medial" 
d="M231 26.5q-41 26.5 -63.5 71.5t-22.5 100v126h68v-135q0 -42 29.5 -72t72.5 -30h266q46 0 78 33t32 80q0 49 -33 82.5t-80 33.5q-18 0 -37 -6t-44 -22l-300 -179l-19 74l284 169q36 21 61 30.5t58 9.5q53 0 98 -26.5t71 -71t26 -97.5q0 -54 -26.5 -99t-71.5 -71.5
t-98 -26.5h-255q-53 0 -94 26.5zM-10 10v67q0 10 10 10h46q35 0 59.5 24.5t24.5 58.5v154h67v-157q0 -46 -18.5 -84t-53 -60.5t-79.5 -22.5h-46q-10 0 -10 10zM780.5 22.5q-34.5 22.5 -53 60.5t-18.5 84v29h67v-26q0 -34 24.5 -58.5t59.5 -24.5h46q10 0 10 -10v-67
q0 -10 -10 -10h-46q-45 0 -79.5 22.5zM536 571h88v-88h-88v88z" />
    <glyph glyph-name="uni0637.fina" unicode="&#x637;" horiz-adv-x="765" arabic-form="final" 
d="M64 87h377q46 0 78 32.5t32 79.5q0 46 -32.5 78.5t-79.5 32.5q-17 0 -35.5 -6t-43.5 -21l-249 -148l-39 69l249 148q36 21 61.5 30.5t58.5 9.5q53 0 98 -26.5t71 -71t26 -97.5q0 -54 -26.5 -99t-71.5 -71.5t-98 -26.5h-376v87zM186 289q6 22 6 53v317h83v-255
q0 -36 -8 -64t-18 -38l-89 -46q20 11 26 33zM639.5 22.5q-34.5 22.5 -53 60.5t-18.5 84v30h68v-27q0 -34 24.5 -58.5t58.5 -24.5h46q10 0 10 -10v-67q0 -10 -10 -10h-46q-45 0 -79.5 22.5z" />
    <glyph glyph-name="uni0637.init" unicode="&#x637;" horiz-adv-x="675" arabic-form="initial" 
d="M-10 10v67q0 10 10 10h432q46 0 78 32.5t32 79.5q0 46 -32.5 78.5t-78.5 32.5q-18 0 -36.5 -6t-43.5 -21l-257 -153l-30 74l249 148q36 21 61 30.5t58 9.5q53 0 98 -26.5t71 -71t26 -97.5q0 -54 -26.5 -99t-71.5 -71.5t-98 -26.5h-431q-10 0 -10 10zM177 289q6 22 6 53
v317h83v-255q0 -37 -6.5 -62.5t-16.5 -35.5l-92 -50q20 11 26 33z" />
    <glyph glyph-name="uni0637.medi" unicode="&#x637;" horiz-adv-x="757" arabic-form="medial" 
d="M-10 10v67q0 10 10 10h432q46 0 78 32.5t32 79.5q0 46 -32.5 78.5t-78.5 32.5q-18 0 -36.5 -6t-43.5 -21l-257 -153l-30 74l249 148q36 21 61 30.5t58 9.5q53 0 98 -26.5t71 -71t26 -97.5q0 -54 -26.5 -99t-71.5 -71.5t-98 -26.5h-431q-10 0 -10 10zM177 289q6 22 6 53
v318h83v-256q0 -37 -6.5 -62.5t-16.5 -35.5l-92 -50q20 11 26 33zM631.5 22.5q-34.5 22.5 -53 60.5t-18.5 84v30h67v-27q0 -34 24.5 -58.5t58.5 -24.5h47q10 0 10 -10v-67q0 -10 -10 -10h-47q-44 0 -78.5 22.5z" />
    <glyph glyph-name="uni0638.fina" unicode="&#x638;" horiz-adv-x="765" arabic-form="final" 
d="M64 87h377q46 0 78 32.5t32 79.5q0 46 -32.5 78.5t-79.5 32.5q-17 0 -35.5 -6t-43.5 -21l-257 -153l-31 74l249 148q36 21 61.5 30.5t58.5 9.5q53 0 98 -26.5t71 -71t26 -97.5q0 -54 -26.5 -99t-71.5 -71.5t-98 -26.5h-376v87zM186 289q6 22 6 53v317h83v-255
q0 -37 -6.5 -62.5t-16.5 -35.5l-92 -50q20 11 26 33zM639.5 22.5q-34.5 22.5 -53 60.5t-18.5 84v30h68v-27q0 -34 24.5 -58.5t58.5 -24.5h46q10 0 10 -10v-67q0 -10 -10 -10h-46q-45 0 -79.5 22.5zM403 571h88v-88h-88v88z" />
    <glyph glyph-name="uni0638.init" unicode="&#x638;" horiz-adv-x="675" arabic-form="initial" 
d="M-10 10v67q0 10 10 10h432q46 0 78 32.5t32 79.5q0 46 -32.5 78.5t-78.5 32.5q-18 0 -36.5 -6t-43.5 -21l-257 -153l-30 74l249 148q36 21 61 30.5t58 9.5q53 0 98 -26.5t71 -71t26 -97.5q0 -54 -26.5 -99t-71.5 -71.5t-98 -26.5h-431q-10 0 -10 10zM177 289q6 22 6 53
v317h83v-255q0 -37 -6.5 -62.5t-16.5 -35.5l-92 -50q20 11 26 33zM394 571h88v-88h-88v88z" />
    <glyph glyph-name="uni0638.medi" unicode="&#x638;" horiz-adv-x="757" arabic-form="medial" 
d="M-10 10v67q0 10 10 10h432q46 0 78 32.5t32 79.5q0 46 -32.5 78.5t-78.5 32.5q-18 0 -36.5 -6t-43.5 -21l-257 -153l-30 74l249 148q36 21 61 30.5t58 9.5q53 0 98 -26.5t71 -71t26 -97.5q0 -54 -26.5 -99t-71.5 -71.5t-98 -26.5h-431q-10 0 -10 10zM177 289q6 22 6 53
v318h83v-256q0 -37 -6.5 -62.5t-16.5 -35.5l-92 -50q20 11 26 33zM631.5 22.5q-34.5 22.5 -53 60.5t-18.5 84v30h67v-27q0 -34 24.5 -58.5t58.5 -24.5h47q10 0 10 -10v-67q0 -10 -10 -10h-47q-44 0 -78.5 22.5zM394 571h88v-88h-88v88z" />
    <glyph glyph-name="uni0639.fina" unicode="&#x639;" horiz-adv-x="637" arabic-form="final" 
d="M196 -401q-60 35 -95.5 95t-35.5 131q0 66 31.5 119.5t85.5 85.5t120 39q4 0 12.5 9t12.5 9h310q10 0 10 -10v-67q0 -10 -10 -10h-310q-47 0 -87 -23.5t-63.5 -63.5t-23.5 -88q0 -47 23.5 -87t63.5 -63.5t87 -23.5h182v-87h-182q-71 0 -131 35zM534 106.5
q-25 -41.5 -68 -65t-96 -23.5h-50q-53 0 -96.5 23.5t-68 65t-24.5 94.5v98h-58v83h247h50h189v-181q0 -53 -25 -94.5zM477 299h-107h-50h-107v-104q0 -45 31 -76.5t76 -31.5h50q44 0 75.5 31.5t31.5 76.5v104z" />
    <glyph glyph-name="uni0639.init" unicode="&#x639;" horiz-adv-x="481" arabic-form="initial" 
d="M171.5 41q-47.5 24 -75 67.5t-27.5 97.5q0 56 27.5 102.5t75.5 73t105 26.5h110v-81h-110q-51 0 -86 -34.5t-35 -85.5t34.5 -85.5t86.5 -34.5v-70q-58 0 -105.5 24zM-10 10v67q0 10 10 10h433v-87h-433q-10 0 -10 10z" />
    <glyph glyph-name="uni0639.medi" unicode="&#x639;" horiz-adv-x="631" arabic-form="medial" 
d="M522 106.5q-25 -41.5 -67.5 -65t-95.5 -23.5h-50q-53 0 -96.5 23.5t-68 65t-24.5 94.5v98h-58v83h247h50h188v-181q0 -53 -25 -94.5zM-10 10v67q0 10 10 10h631q10 0 10 -10v-67q0 -10 -10 -10h-631q-10 0 -10 10zM466 299h-107h-50h-108v-104q0 -45 31 -76.5t77 -31.5
h50q44 0 75.5 31.5t31.5 76.5v104z" />
    <glyph glyph-name="uni063A.fina" unicode="&#x63a;" horiz-adv-x="637" arabic-form="final" 
d="M196 -401q-60 35 -95.5 95t-35.5 131q0 66 31.5 119.5t85.5 85.5t120 39q4 0 12.5 9t12.5 9h310q10 0 10 -10v-67q0 -10 -10 -10h-310q-47 0 -87 -23.5t-63.5 -63.5t-23.5 -88q0 -47 23.5 -87t63.5 -63.5t87 -23.5h182v-87h-182q-71 0 -131 35zM223.5 41.5
q-43.5 23.5 -68 65t-24.5 94.5v98h-58v83h247h50h189v-181q0 -53 -25 -94.5t-68 -65t-96 -23.5h-50q-53 0 -96.5 23.5zM445.5 118.5q31.5 31.5 31.5 76.5v104h-107h-50h-107v-104q0 -45 31 -76.5t76 -31.5h50q44 0 75.5 31.5zM286 564h88v-88h-88v88z" />
    <glyph glyph-name="uni063A.init" unicode="&#x63a;" horiz-adv-x="481" arabic-form="initial" 
d="M215 579h88v-88h-88v88zM171.5 41q-47.5 24 -75 67.5t-27.5 97.5q0 56 27.5 102.5t75.5 73t105 26.5h110v-81h-110q-51 0 -86 -34.5t-35 -85.5t34.5 -85.5t86.5 -34.5v-70q-58 0 -105.5 24zM-10 10v67q0 10 10 10h433v-87h-433q-10 0 -10 10z" />
    <glyph glyph-name="uni063A.medi" unicode="&#x63a;" horiz-adv-x="631" arabic-form="medial" 
d="M212.5 41.5q-43.5 23.5 -68.5 65t-25 94.5v98h-58v83h248h50h188v-181q0 -53 -25 -94.5t-67.5 -65t-95.5 -23.5h-50q-53 0 -96.5 23.5zM-10 10v67q0 10 10 10h631q10 0 10 -10v-67q0 -10 -10 -10h-631q-10 0 -10 10zM434.5 118.5q31.5 31.5 31.5 76.5v104h-107h-50h-108
v-104q0 -45 31 -76.5t77 -31.5h50q44 0 75.5 31.5zM289 564h89v-88h-89v88z" />
    <glyph glyph-name="uni0641.fina" unicode="&#x641;" horiz-adv-x="872" arabic-form="final" 
d="M606 566h88v-88h-88v88zM181 30q-51 30 -80.5 80.5t-29.5 111.5v102h82v-97q0 -38 18.5 -70.5t50.5 -51t70 -18.5h580q10 0 10 -10v-67q0 -10 -10 -10h-580q-60 0 -111 30zM819 99q-26 -43 -70.5 -67t-97.5 -24v0q-54 0 -98.5 24t-70.5 67t-26 97q0 53 26 97t71 69t98 25
v0q53 0 97.5 -25t70.5 -69t26 -97q0 -54 -26 -97zM726 268.5q-32 31.5 -76 31.5v0q-44 0 -75.5 -31.5t-31.5 -75.5q0 -45 31 -75.5t76 -30.5v0q45 0 76.5 30.5t31.5 75.5q0 44 -32 75.5z" />
    <glyph glyph-name="uni0641.init" unicode="&#x641;" horiz-adv-x="453" arabic-form="initial" 
d="M-10 10v67q0 10 10 10h238q35 0 59.5 24.5t24.5 59.5v20h-89v0q-49 0 -89.5 23t-64.5 62t-24 87q0 49 24 90t65 65t89 24v0q48 0 87.5 -24t62 -65t22.5 -90v-196q0 -45 -22.5 -83.5t-60.5 -61t-84 -22.5h-238q-10 0 -10 10zM327 269v97q0 40 -28 68t-68 28v0
q-41 0 -69 -27.5t-28 -68.5q0 -42 28 -69.5t69 -27.5v0h96zM189 721h88v-88h-88v88z" />
    <glyph glyph-name="uni0641.medi" unicode="&#x641;" horiz-adv-x="494" arabic-form="medial" 
d="M78.5 292.5q26.5 43.5 71 69t97.5 25.5v0q53 0 98 -25t71 -69t26 -97q0 -54 -26 -97t-70.5 -67t-98.5 -24v0q-53 0 -98 24t-71 67t-26 97q0 53 26.5 96.5zM-10 10v67q0 10 10 10h494q10 0 10 -10v-67q0 -10 -10 -10h-494q-10 0 -10 10zM170.5 117.5
q31.5 -30.5 76.5 -30.5v0q45 0 76.5 30.5t31.5 75.5q0 44 -31.5 75.5t-76.5 31.5v0q-45 0 -76.5 -31.5t-31.5 -75.5q0 -45 31.5 -75.5zM203 566h89v-88h-89v88z" />
    <glyph glyph-name="uni0642.fina" unicode="&#x642;" horiz-adv-x="704" arabic-form="final" 
d="M215 -260q-66 39 -105 105.5t-39 144.5v187h82v-182q0 -56 28 -103.5t75 -75.5t103 -28t104 28t76 75.5t28 103.5v5h-107v0q-53 0 -98 25t-71.5 68t-26.5 96t26.5 97.5t71.5 71t98 26.5v0q52 0 95.5 -26.5t68.5 -71t25 -97.5v-199q0 -78 -39 -144.5t-105.5 -105.5
t-145.5 -39q-78 0 -144 39zM567 87v107q0 45 -31.5 76.5t-75.5 31.5v0q-46 0 -77.5 -31.5t-31.5 -76.5t31.5 -76t77.5 -31v0h107zM649 87h55q10 0 10 -10v-67q0 -10 -10 -10h-55v87zM345 566h89v-88h-89v88zM486 566h88v-88h-88v88z" />
    <glyph glyph-name="uni0642.init" unicode="&#x642;" horiz-adv-x="453" arabic-form="initial" 
d="M-10 10v67q0 10 10 10h238q35 0 59.5 24.5t24.5 59.5v20h-89v0q-49 0 -89.5 23t-64.5 62t-24 87q0 49 24 90t65 65t89 24v0q48 0 87.5 -24t62 -65t22.5 -90v-196q0 -45 -22.5 -83.5t-60.5 -61t-84 -22.5h-238q-10 0 -10 10zM327 269v97q0 40 -28 68t-68 28v0
q-41 0 -69 -27.5t-28 -68.5q0 -42 28 -69.5t69 -27.5v0h96zM119 725h88v-88h-88v88zM259 725h88v-88h-88v88z" />
    <glyph glyph-name="uni0642.medi" unicode="&#x642;" horiz-adv-x="447" arabic-form="medial" 
d="M53 293q26 44 71 69t98 25v0q53 0 97.5 -25.5t71 -69t26.5 -96.5q0 -54 -26 -97t-71 -67t-98 -24v0q-54 0 -98.5 24t-70.5 67t-26 97q0 53 26 97zM-10 10v67q0 10 10 10h447q10 0 10 -10v-67q0 -10 -10 -10h-447q-10 0 -10 10zM145.5 117.5q31.5 -30.5 76.5 -30.5v0
q45 0 76.5 30.5t31.5 75.5q0 44 -32 75.5t-76 31.5v0q-45 0 -76.5 -31.5t-31.5 -75.5q0 -45 31.5 -75.5zM107 570h88v-88h-88v88zM247 570h88v-88h-88v88z" />
    <glyph glyph-name="uni0643.fina" unicode="&#x643;" horiz-adv-x="957" arabic-form="final" 
d="M181 30q-51 30 -80.5 80.5t-29.5 111.5v102h82v-97q0 -38 18.5 -70.5t50.5 -51t70 -18.5h345q45 0 76 31.5t31 76.5v439h81v-439q0 -53 -24.5 -98t-67.5 -71t-96 -26h-345q-60 0 -111 30zM831.5 22.5q-34.5 22.5 -53 60.5t-18.5 84v467h66v-464q0 -34 25 -58.5t59 -24.5
h47q10 0 10 -10v-67q0 -10 -10 -10h-47q-44 0 -78.5 22.5zM356 314l113 41q11 4 18 12.5t7 18.5q0 28 -28 35l-111 26l-24 45l166 119l29 -49l-101 -72l47 -11q27 -7 46.5 -22t26.5 -36q6 -18 6 -35q0 -30 -17 -54.5t-47 -35.5l-109 -41z" />
    <glyph glyph-name="uni0643.init" unicode="&#x643;" horiz-adv-x="447" arabic-form="initial" 
d="M0 87h218q41 0 70 28.5t29 70.5q0 55 -53 87l-238 157v68l192 203l56 -53l-166 -174l210 -138q38 -25 60 -64.5t22 -87.5q0 -50 -24.5 -92t-66.5 -67t-91 -25h-218q-10 0 -10 10v67q0 10 10 10z" />
    <glyph glyph-name="uni0643.medi" unicode="&#x643;" horiz-adv-x="530" arabic-form="medial" 
d="M-10 10v67q0 10 10 10h218q41 0 70 28.5t29 70.5q0 55 -53 87l-238 157v68l192 203l56 -53l-166 -174l210 -138q38 -25 60 -64.5t22 -87.5q0 -50 -24.5 -92t-66.5 -67t-91 -25h-218q-10 0 -10 10zM404.5 22.5q-34.5 22.5 -53 60.5t-18.5 84v18h67v-15q0 -34 24.5 -58.5
t59.5 -24.5h46q10 0 10 -10v-67q0 -10 -10 -10h-46q-45 0 -79.5 22.5z" />
    <glyph glyph-name="uni0644.fina" unicode="&#x644;" horiz-adv-x="780" arabic-form="final" 
d="M215 -153q-66 39 -105 105.5t-39 144.5v187h82v-182q0 -56 28 -103.5t75 -75.5t103 -28t104 28t76 75.5t28 103.5v559h80v-564q0 -78 -38.5 -144.5t-104.5 -105.5t-145 -39q-78 0 -144 39zM633 47q-35 47 -35 120v492h52v-489q0 -34 24.5 -58.5t59.5 -24.5h46
q10 0 10 -10v-67q0 -10 -10 -10h-46q-66 0 -101 47z" />
    <glyph glyph-name="uni0644.init" unicode="&#x644;" horiz-adv-x="261" arabic-form="initial" 
d="M-10 10v67q0 10 10 10h39q35 0 59.5 25t24.5 61v486h82v-491q0 -46 -22.5 -84.5t-60.5 -61t-84 -22.5h-38q-10 0 -10 10z" />
    <glyph glyph-name="uni0644.medi" unicode="&#x644;" horiz-adv-x="343" arabic-form="medial" 
d="M-10 10v67q0 10 10 10h46q35 0 59.5 24.5t24.5 58.5v489h83v-489q0 -35 24.5 -59t59.5 -24h46q10 0 10 -10v-67q0 -10 -10 -10h-46q-42 0 -75 20.5t-51 54.5q-18 -35 -50.5 -55t-74.5 -20h-46q-10 0 -10 10z" />
    <glyph glyph-name="uni0645.fina" unicode="&#x645;" horiz-adv-x="798" arabic-form="final" 
d="M94 295q23 40 63 63.5t88 23.5h228v0q53 0 98 -25t71 -68t26 -96t-26 -98t-71 -71t-98 -26v0q-53 0 -96 26t-68 71t-25 98v106h-40q-37 0 -64 -26.5t-27 -64.5v-458h-82v458q0 47 23 87zM549.5 116.5q31.5 31.5 31.5 76.5q0 44 -31.5 75.5t-76.5 31.5v0h-107v-107
q0 -45 31 -76.5t76 -31.5v0q45 0 76.5 31.5zM673 22.5q-34 22.5 -52.5 60.5t-18.5 84v26h66v-23q0 -34 24.5 -58.5t59.5 -24.5h46q10 0 10 -10v-67q0 -10 -10 -10h-46q-45 0 -79 22.5z" />
    <glyph glyph-name="uni0645.init" unicode="&#x645;" horiz-adv-x="571" arabic-form="initial" 
d="M232 24q-43 26 -67.5 71t-24.5 98v106h-59v83h247v0q53 0 98 -25t71 -68t26 -96t-26 -98t-71 -71t-98 -26v0q-53 0 -96 26zM-10 10v67q0 10 10 10h56q35 0 59.5 24.5t24.5 58.5v108h66v-111q0 -46 -18.5 -84t-53 -60.5t-78.5 -22.5h-56q-10 0 -10 10zM404.5 116.5
q31.5 31.5 31.5 76.5q0 44 -31.5 75t-76.5 31v0h-107v-106q0 -45 31 -76.5t76 -31.5v0q45 0 76.5 31.5z" />
    <glyph glyph-name="uni0645.medi" unicode="&#x645;" horiz-adv-x="654" arabic-form="medial" 
d="M232 24q-43 26 -67.5 71t-24.5 98v106h-59v83h247v0q53 0 98 -25t71 -68t26 -96t-26 -98t-71 -71t-98 -26v0q-53 0 -96 26zM-10 10v67q0 10 10 10h56q35 0 59.5 24.5t24.5 58.5v110h66v-113q0 -46 -18.5 -84t-53 -60.5t-78.5 -22.5h-56q-10 0 -10 10zM404.5 116.5
q31.5 31.5 31.5 76.5q0 44 -31.5 75t-76.5 31v0h-107v-106q0 -45 31 -76.5t76 -31.5v0q45 0 76.5 31.5zM527.5 22.5q-34.5 22.5 -53 60.5t-18.5 84v26h67v-23q0 -34 24.5 -58.5t59.5 -24.5h47q10 0 10 -10v-67q0 -10 -10 -10h-47q-45 0 -79.5 22.5z" />
    <glyph glyph-name="uni0646.fina" unicode="&#x646;" horiz-adv-x="780" arabic-form="final" 
d="M215 -153q-66 39 -105 105.5t-39 144.5v187h82v-182q0 -56 28 -103.5t75 -75.5t103 -28t104 28t76 75.5t28 103.5v223h79v-228q0 -78 -38.5 -144.5t-104 -105.5t-144.5 -39q-78 0 -144 39zM314 383h88v-88h-88v88zM632 47q-36 47 -36 120v158h54v-155q0 -34 24.5 -58.5
t59.5 -24.5h46q10 0 10 -10v-67q0 -10 -10 -10h-46q-66 0 -102 47z" />
    <glyph glyph-name="uni0646.init" unicode="&#x646;" horiz-adv-x="262" arabic-form="initial" 
d="M-10 10v67q0 10 10 10h47q35 0 59.5 25t24.5 61v182h82v-187q0 -46 -22.5 -84.5t-60.5 -61t-84 -22.5h-46q-10 0 -10 10zM119 538h89v-88h-89v88z" />
    <glyph glyph-name="uni0646.medi" unicode="&#x646;" horiz-adv-x="350" arabic-form="medial" 
d="M0 87h50q35 0 59.5 24.5t24.5 58.5v154h82v-154q0 -34 24.5 -58.5t59.5 -24.5h50q10 0 10 -10v-67q0 -10 -10 -10h-50q-41 0 -73.5 19t-51.5 52q-18 -33 -51 -52t-74 -19h-50q-10 0 -10 10v67q0 10 10 10zM130 507h89v-88h-89v88z" />
    <glyph glyph-name="uni0647.fina" unicode="&#x647;" horiz-adv-x="583" arabic-form="final" 
d="M166.5 55q-44.5 26 -71 71t-26.5 98q0 52 26.5 95t71 68t97.5 25v0h108v57h81v-245q0 -53 -25 -98t-68 -71t-96 -26v0q-53 0 -97.5 26zM341 147.5q31 31.5 31 76.5v106h-108v0q-44 0 -75.5 -31t-31.5 -75q0 -45 31.5 -76.5t75.5 -31.5v0q46 0 77 31.5zM456.5 22.5
q-35.5 22.5 -55 60.5t-19.5 84v157h71v-154q0 -34 24.5 -58.5t58.5 -24.5h47q10 0 10 -10v-67q0 -10 -10 -10h-47q-44 0 -79.5 22.5z" />
    <glyph glyph-name="uni0647.init" unicode="&#x647;" horiz-adv-x="771" arabic-form="initial" 
d="M286 87q31 0 55 15.5t37.5 40.5t13.5 51t-13 50.5t-37.5 40t-55.5 15.5q-45 0 -76 -31t-31 -75q0 -33 16 -57t41 -37t50 -13h242q45 0 76.5 31t31.5 76q0 44 -32 75t-76 31h-469v83h469q53 0 97.5 -25t71 -68.5t26.5 -95.5q0 -53 -26.5 -97.5t-71.5 -70.5t-97 -26h-246
q-54 0 -97 27.5t-67 72.5t-24 94q0 45 25 86.5t69 67.5t98 26q60 0 100 -30.5t59.5 -72.5t19.5 -77q0 -57 -27 -101.5t-69 -68.5t-87 -24h-284l1 87h287z" />
    <glyph glyph-name="uni0647.medi" unicode="&#x647;" horiz-adv-x="555" arabic-form="medial" 
d="M0 87h64v105q0 53 25 98t68 71t96 26t97.5 -26t71 -71t26.5 -98q0 -52 -26.5 -96t-71 -70t-97.5 -26h-107v-58q0 -38 27.5 -65.5t65.5 -27.5h240v-82h-239q-48 0 -88.5 23.5t-64 64t-23.5 87.5v58h-64q-10 0 -10 10v67q0 10 10 10zM352 -10q24 45 67 71t95 26h41
q10 0 10 -10v-67q0 -10 -10 -10h-46q-45 0 -75 -31.5t-30 -76.5v-106h-76v106q0 53 24 98zM329.5 117.5q31.5 30.5 31.5 74.5q0 45 -31.5 76.5t-76.5 31.5t-76.5 -31t-31.5 -77v-105h108q45 0 76.5 30.5z" />
    <glyph glyph-name="uni0648.fina" unicode="&#x648;" horiz-adv-x="505" arabic-form="final" 
d="M281.5 -123q44.5 25 64.5 52.5t20 70.5h-107v0q-53 0 -97.5 25t-71 68t-26.5 96t26.5 97.5t71 71t97.5 26.5v0q52 0 96 -26.5t69 -71t25 -97.5v-158q0 -79 -30 -128t-85.5 -82.5t-167.5 -82.5l-25 73q96 41 140.5 66zM259 83h107v107q0 45 -31 76.5t-76 31.5v0
q-45 0 -76 -31.5t-31 -76.5t31 -76t76 -31v0zM445 87h60q10 0 10 -10v-67q0 -10 -10 -10h-60v87z" />
    <glyph glyph-name="uni0649.fina" unicode="&#x649;" horiz-adv-x="735" arabic-form="final" 
d="M71 179h82v-206q0 -38 18.5 -70t50.5 -50.5t70 -18.5h220q35 0 59 24t24 59q0 34 -24.5 58.5t-58.5 24.5h-160v71h159q47 0 86 -19t61.5 -54t22.5 -81t-23 -85.5t-62 -62.5t-85 -23h-219q-60 0 -111 30t-80.5 81t-29.5 112v210zM324 0v87h411q10 0 10 -10v-67
q0 -10 -10 -10h-411z" />
    <glyph glyph-name="uni064A.fina" unicode="&#x64a;" horiz-adv-x="735" arabic-form="final" 
d="M181 -224q-51 30 -80.5 81t-29.5 112v210h82v-206q0 -38 18.5 -70t50.5 -50.5t70 -18.5h220q35 0 59 24t24 59q0 34 -24.5 58.5t-58.5 24.5h-160v70h159q47 0 86 -19t61.5 -53.5t22.5 -80.5t-23 -85.5t-62 -62.5t-85 -23h-219q-60 0 -111 30zM262 -347h88v-89h-88v89z
M402 -347h88v-89h-88v89zM324 87h411q10 0 10 -10v-67q0 -10 -10 -10h-411v87z" />
    <glyph glyph-name="uni064A.init" unicode="&#x64a;" horiz-adv-x="291" arabic-form="initial" 
d="M-10 10v67q0 10 10 10h74q35 0 59.5 25t24.5 61v182h82v-187q0 -46 -22.5 -84.5t-60.5 -61t-84 -22.5h-73q-10 0 -10 10zM0 -95h88v-88h-88v88zM140 -95h88v-88h-88v88z" />
    <glyph glyph-name="uni064A.medi" unicode="&#x64a;" horiz-adv-x="365" arabic-form="medial" 
d="M0 87h58q34 0 59 24.5t25 58.5v154h82v-154q0 -35 24.5 -59t59.5 -24h57q10 0 10 -10v-67q0 -10 -10 -10h-57q-41 0 -74 19t-52 52q-18 -33 -50.5 -52t-73.5 -19h-58q-10 0 -10 10v67q0 10 10 10zM68 -95h88v-88h-88v88zM208 -95h88v-88h-88v88z" />
    <glyph glyph-name=".notdef" horiz-adv-x="495" 
d="M45 705h405v-705h-405v705zM235.5 313.5q4.5 8.5 8.5 20.5t6 19l-18 13q-7 -5 -18 -13t-19 -16t-18 -22l-35 -49l39 -29l36 49q14 19 18.5 27.5zM189.5 367q9.5 -1 21.5 -1h21l7 19q-6 5 -17 13.5t-21.5 13.5t-26.5 10l-59 19l-15 -47l58 -18q22 -8 31.5 -9zM356 266
l-35 49q-14 18 -21 25t-17 14t-17 12l-16 -13q7 -28 11 -36.5t20 -30.5l35 -49zM267.5 406q4.5 13 5.5 24.5t1 28.5v61h-49v-61q0 -23 1.5 -32.5t5.5 -21.5t7 -20h21q3 8 7.5 21zM398 393l-15 47l-58 -19q-22 -7 -30.5 -11.5t-18.5 -12t-16 -12.5l6 -19l27 -1q16 0 47 10z
" />
    <glyph glyph-name=".null" horiz-adv-x="600" 
 />
    <glyph glyph-name="nonmarkingreturn" unicode="&#xd;" horiz-adv-x="600" 
 />
    <glyph glyph-name="space" unicode=" " horiz-adv-x="206" 
 />
    <glyph glyph-name="space" unicode="&#xa0;" horiz-adv-x="206" 
 />
    <glyph glyph-name="exclam" unicode="!" horiz-adv-x="245" 
d="M151 185h-58l-17 499h92zM83.5 9q-16.5 17 -16.5 39q0 23 16 39.5t39 16.5q25 0 40.5 -16.5t15.5 -39.5q0 -24 -16.5 -40t-39.5 -16q-22 0 -38.5 17z" />
    <glyph glyph-name="quotedbl" unicode="&#x22;" horiz-adv-x="385" 
d="M137 415h-71l-7 269h85zM319 415h-71l-7 269h85z" />
    <glyph glyph-name="numbersign" unicode="#" horiz-adv-x="725" 
d="M518 248h138v-70h-147l-22 -179h-74l23 179h-186l-23 -179h-74l23 179h-139v70h147l23 186h-139v70h148l22 169h74l-22 -169h185l22 169h74l-22 -169h138v-70h-146zM258 248h186l23 186h-186z" />
    <glyph glyph-name="dollar" unicode="$" horiz-adv-x="668" 
d="M194.5 6q-72.5 21 -124.5 55l31 72q44 -28 110 -47.5t125 -19.5q81 0 128 29t47 81q0 37 -22 59.5t-57 35t-101 29.5q-87 24 -137.5 49.5t-75 62.5t-24.5 94q0 60 33.5 104t92 67t132.5 23q104 0 222 -45l-28 -75q-102 38 -194 38q-79 0 -125 -30.5t-46 -82.5
q0 -38 20.5 -60.5t56 -35.5t103.5 -30q123 -31 180 -74.5t57 -121.5q0 -93 -72 -145.5t-186 -52.5q-73 0 -145.5 21zM318 0h67v-113h-67v113zM318 799h67v-114h-67v114z" />
    <glyph glyph-name="percent" unicode="%" horiz-adv-x="849" 
d="M87 384q-45 52 -45 139q0 86 45 138t118 52t118 -52t45 -138q0 -87 -45 -139t-118 -52t-118 52zM224 0h-80l486 711h80zM275 424q26 38 26 99q0 62 -26 99t-70 37t-69.5 -38t-25.5 -98q0 -62 26 -99.5t69 -37.5q44 0 70 38zM526 46.5q-45 52.5 -45 138.5t44.5 138.5
t117.5 52.5t118 -52.5t45 -138.5t-45 -138.5t-118 -52.5q-72 0 -117 52.5zM713.5 86.5q25.5 37.5 25.5 98.5q0 62 -25.5 99t-70.5 37q-44 0 -69.5 -37.5t-25.5 -98.5q0 -62 25.5 -99t69.5 -37q45 0 70.5 37.5z" />
    <glyph glyph-name="ampersand" unicode="&#x26;" horiz-adv-x="755" 
d="M187.5 13q-53.5 22 -84.5 63.5t-31 98.5q0 61 38 108t127 101q-46 49 -66 88t-20 79q0 72 52.5 114.5t134.5 42.5q78 0 126 -39t48 -107q0 -55 -37 -97.5t-110 -85.5l176 -185q38 51 78 125l56 -33q-45 -81 -89 -140l101 -102l-52 -55l-99 101q-50 -48 -104 -73.5
t-124 -25.5q-67 0 -120.5 22zM483 137l-196 203q-66 -39 -98 -75t-32 -80q0 -53 43.5 -85.5t113.5 -32.5q104 0 169 70zM401.5 495q29.5 29 29.5 66q0 36 -25 57.5t-68 21.5q-46 0 -73 -23.5t-27 -63.5q0 -30 15 -55.5t55 -68.5q64 37 93.5 66z" />
    <glyph glyph-name="quotesingle" unicode="'" horiz-adv-x="203" 
d="M137 415h-71l-7 269h85z" />
    <glyph glyph-name="parenleft" unicode="(" horiz-adv-x="320" 
d="M109.5 38.5q-30.5 120.5 -30.5 258.5t30.5 258.5t88.5 209.5l68 -30q-101 -190 -101 -438q0 -247 101 -438l-68 -30q-58 89 -88.5 209.5z" />
    <glyph glyph-name="parenright" unicode=")" horiz-adv-x="320" 
d="M155 297q0 251 -101 438l68 30q58 -89 89 -209.5t31 -258.5t-31 -258.5t-89 -209.5l-68 30q101 189 101 438z" />
    <glyph glyph-name="asterisk" unicode="*" horiz-adv-x="491" 
d="M263.5 449.5q-5.5 12.5 -12.5 39.5l-5 20l27 21l20 -14q21 -13 31 -23t29 -37l46 -63l-64 -46l-46 63q-20 27 -25.5 39.5zM344 530q-13 -3 -26 -3t-45 3l-11 32q16 12 19 15q19 15 31.5 21.5t44.5 17.5l74 23l24 -75l-74 -23q-24 -8 -37 -11zM221 583q-10 23 -12.5 37
t-2.5 48v78h79v-78q0 -34 -2.5 -48t-12.5 -38l-8 -20h-33q-3 6 -8 21zM36 565l24 75l74 -23q32 -11 44.5 -18t32.5 -23l18 -14l-11 -32q-14 -1 -24.5 -2t-20.5 -1q-21 0 -63 14zM91 394l46 63q20 27 30 36.5t33 24.5l18 12l28 -21q-5 -12 -6 -22q-6 -24 -12.5 -36.5
t-26.5 -40.5l-46 -62z" />
    <glyph glyph-name="plus" unicode="+" horiz-adv-x="629" 
d="M274 251h-192v77h192v196h80v-196h193v-77h-193v-199h-80v199z" />
    <glyph glyph-name="comma" unicode="," horiz-adv-x="273" 
d="M110.5 -44q17.5 39 19.5 43q-20 -2 -37.5 14.5t-17.5 40.5q0 26 18.5 44t44.5 18q27 0 44 -18.5t17 -46.5q0 -90 -96 -225l-50 33q40 58 57.5 97z" />
    <glyph glyph-name="hyphen" unicode="-" horiz-adv-x="462" 
d="M78 326h306v-77h-306v77z" />
    <glyph glyph-name="period" unicode="." horiz-adv-x="273" 
d="M93.5 10.5q-18.5 18.5 -18.5 43.5t18 43t43 18q27 0 44.5 -18t17.5 -43q0 -26 -18.5 -44t-43.5 -18q-24 0 -42.5 18.5z" />
    <glyph glyph-name="slash" unicode="/" horiz-adv-x="342" 
d="M77 -100h-87l275 784h87z" />
    <glyph glyph-name="zero" unicode="0" horiz-adv-x="447" 
d="M135.5 23.5q-40.5 23.5 -64 64t-23.5 88.5t23.5 88t64 63.5t88.5 23.5t88 -23.5t63.5 -63.5t23.5 -88t-23.5 -88.5t-63.5 -64t-88 -23.5t-88.5 23.5zM290 109.5q27 27.5 27 66.5t-27 66t-66 27t-66.5 -27t-27.5 -66t27.5 -66.5t66.5 -27.5t66 27.5z" />
    <glyph glyph-name="one" unicode="1" horiz-adv-x="216" 
d="M68.5 516q-3.5 69 -20.5 130l74 15q18 -43 25.5 -136.5t7.5 -197.5v-327h-83v333q0 114 -3.5 183z" />
    <glyph glyph-name="two" unicode="2" horiz-adv-x="466" 
d="M165.5 324q-39.5 26 -61 70.5t-21.5 98.5h67q0 -45 31.5 -76.5t76.5 -31.5t76 31.5t31 76.5v158h81v-158q0 -53 -24.5 -98t-67.5 -71t-96 -26t-92.5 26zM68.5 516q-3.5 69 -20.5 130l74 15q18 -43 25.5 -136.5t7.5 -197.5v-327h-83v333q0 114 -3.5 183z" />
    <glyph glyph-name="three" unicode="3" horiz-adv-x="689" 
d="M376.5 342.5q-41.5 47.5 -41.5 118.5v160h67v-156q0 -35 24.5 -59.5t59.5 -24.5q34 0 58 24.5t24 59.5v186h82v-190q0 -45 -22 -83t-59.5 -60.5t-82.5 -22.5q-68 0 -109.5 47.5zM68.5 516q-3.5 69 -20.5 130l74 15q18 -43 25.5 -136.5t7.5 -197.5v-327h-83v333
q0 114 -3.5 183zM127 342.5q-41 47.5 -41 118.5l66 4q0 -35 24 -59.5t59 -24.5t59.5 24.5t24.5 59.5v156h67v-160q0 -71 -41.5 -118.5t-109.5 -47.5q-67 0 -108 47.5z" />
    <glyph glyph-name="four" unicode="4" horiz-adv-x="565" 
d="M68.5 516.5q-3.5 69.5 -20.5 130.5l74 15q18 -44 25.5 -137t7.5 -197v-327h-83v332q0 114 -3.5 183.5zM183.5 293.5q-41.5 25.5 -64.5 69t-23 97.5l54 3q0 -45 31.5 -76t76.5 -31h208v-88h-188q-53 0 -94.5 25.5zM330.5 294.5q-44.5 26.5 -71 71t-26.5 97.5
q0 52 26.5 95.5t71 68.5t97.5 25h78v-82h-78q-45 0 -76.5 -31.5t-31.5 -75.5q0 -45 31.5 -76t76.5 -31h105v-88h-105q-53 0 -97.5 26.5z" />
    <glyph glyph-name="five" unicode="5" horiz-adv-x="699" 
d="M366.5 34.5q-33.5 37.5 -33.5 108.5v86h58v-83q0 -30 19 -49.5t55 -19.5q42 0 73.5 21t31.5 88q0 45 -17 85.5t-58.5 91.5t-119.5 130q-7 8 -84 83l-58 58l59 56l142 -142q87 -87 132 -139.5t68 -103t23 -110.5q0 -100 -52.5 -149t-143.5 -49q-61 0 -94.5 37.5zM95 46
q-53 49 -53 149q0 60 23 111t67.5 102.5t133.5 140.5l53 56l59 -57q-42 -42 -53 -55q-79 -79 -120.5 -130t-58.5 -92t-17 -85q0 -67 32 -88t74 -21q36 0 54.5 19.5t18.5 49.5v83h58v-86q0 -71 -33.5 -108.5t-93.5 -37.5q-91 0 -144 49z" />
    <glyph glyph-name="six" unicode="6" horiz-adv-x="527" 
d="M94 19l169 294q123 211 190 265l54 -52q-37 -33 -76 -93t-89 -149l-12 -21l-166 -286zM50 384.5q-14 34.5 -14 71.5q0 38 15 74t44 65l107 103l58 -58l-106 -103q-32 -31 -32 -76t31 -76q15 -15 37 -23t45 -8q24 0 44.5 9t29.5 26l52 -42q-30 -32 -71.5 -51t-84.5 -19
q-68 0 -114 46q-27 27 -41 61.5z" />
    <glyph glyph-name="seven" unicode="7" horiz-adv-x="536" 
d="M331.5 124q-21.5 -71 -23.5 -124h-79q-4 82 83 322l124 340l78 -28l-122 -331q-39 -108 -60.5 -179zM101 662l123 -340q86 -239 84 -322h-81q-1 53 -22.5 124t-60.5 179l-122 331z" />
    <glyph glyph-name="eight" unicode="8" horiz-adv-x="536" 
d="M204.5 528q21.5 71 22.5 123h81q2 -81 -84 -322l-123 -339l-79 28l122 331q39 108 60.5 179zM436 -10l-124 339q-86 242 -83 322h79q2 -52 23.5 -123t60.5 -179l122 -331z" />
    <glyph glyph-name="nine" unicode="9" horiz-adv-x="486" 
d="M338.5 107.5q-7.5 78.5 -7.5 151.5v16h-107q-53 0 -97.5 25t-71 68.5t-26.5 95.5q0 53 26.5 97.5t71 71t97.5 26.5q52 0 95.5 -26.5t68.5 -71t25 -97.5v-150q0 -109 4 -180.5t21 -132.5l-74 -14q-18 42 -25.5 120.5zM331 357v107q0 45 -31 76t-76 31t-76 -31t-31 -76
t31 -76t76 -31h107z" />
    <glyph glyph-name="colon" unicode=":" horiz-adv-x="273" 
d="M93.5 341.5q-18.5 18.5 -18.5 43.5t18 43t43 18q27 0 44.5 -18t17.5 -43q0 -26 -18.5 -44t-43.5 -18q-24 0 -42.5 18.5zM93.5 10.5q-18.5 18.5 -18.5 43.5t18 43t43 18q27 0 44.5 -18t17.5 -43q0 -26 -18.5 -44t-43.5 -18q-24 0 -42.5 18.5z" />
    <glyph glyph-name="semicolon" unicode=";" horiz-adv-x="273" 
d="M110.5 -44q17.5 39 19.5 43q-20 -2 -37.5 14.5t-17.5 40.5q0 26 18.5 44t44.5 18q27 0 44 -18.5t17 -46.5q0 -90 -96 -225l-50 33q40 58 57.5 97zM93.5 341.5q-18.5 18.5 -18.5 43.5t18 43t43 18q27 0 44.5 -18t17.5 -43q0 -26 -18.5 -44t-43.5 -18q-24 0 -42.5 18.5z
" />
    <glyph glyph-name="less" unicode="&#x3c;" horiz-adv-x="556" 
d="M161 350l337 -139v-78l-431 177v80l431 177v-78z" />
    <glyph glyph-name="equal" unicode="=" horiz-adv-x="585" 
d="M67 506h451v-77h-451v77zM67 271h451v-77h-451v77z" />
    <glyph glyph-name="greater" unicode="&#x3e;" horiz-adv-x="556" 
d="M58 211l337 139l-337 139v78l430 -177v-80l-430 -177v78z" />
    <glyph glyph-name="question" unicode="?" horiz-adv-x="404" 
d="M181.5 277.5q13.5 37.5 45.5 84.5l15 22q27 38 38.5 63.5t11.5 60.5q0 45 -31.5 77t-76.5 32q-34 0 -62 -19.5t-40 -50.5l-8 -20l-55 21q13 61 61.5 101t112.5 40q48 0 87.5 -23t62.5 -62.5t23 -87.5q0 -49 -17 -83.5t-57 -87.5q-33 -45 -49 -79.5t-16 -80.5h-58
q-1 55 12.5 92.5zM158 9q-17 17 -17 39q0 23 16 39.5t40 16.5t39.5 -16.5t15.5 -39.5q0 -24 -16.5 -40t-38.5 -16t-39 17z" />
    <glyph glyph-name="at" unicode="@" horiz-adv-x="1034" 
d="M273 -144q-107 58 -166.5 161.5t-59.5 236.5t60.5 236t168.5 160t245 57q134 0 240 -55.5t166 -155.5t60 -229q0 -74 -20 -136t-60 -99t-96 -37q-46 0 -75 24t-36 62q0 2 -3 16.5t-3 31.5q-26 -62 -78.5 -98t-122.5 -36q-68 0 -122 34t-84.5 93t-30.5 130
q0 72 30.5 130.5t85 92t121.5 33.5q64 0 114 -30.5t76 -83.5v109h85v-370q0 -33 17 -51.5t44 -18.5q48 0 69.5 59.5t21.5 143.5q0 114 -51.5 200.5t-142 134t-205.5 47.5q-117 0 -208.5 -50t-142.5 -139.5t-51 -204.5q0 -116 50.5 -206t141 -140t206.5 -50q49 0 100.5 11.5
t93.5 33.5l21 -58q-42 -22 -100 -34.5t-115 -12.5q-137 0 -244 58zM600.5 95q39.5 24 62 65t22.5 92q0 52 -22.5 93t-62.5 64.5t-89 23.5q-50 0 -89.5 -23.5t-61.5 -65t-22 -92.5q0 -52 22.5 -93t62 -64.5t88.5 -23.5q50 0 89.5 24z" />
    <glyph glyph-name="A" unicode="A" horiz-adv-x="649" 
d="M274 684h93l-264 -684h-92zM283 684h92l263 -684h-92zM166 252h323v-82h-323v82z" />
    <glyph glyph-name="B" unicode="B" horiz-adv-x="621" 
d="M78 684h282q50 0 92.5 -24.5t67.5 -67t25 -93.5q0 -45 -22 -82t-59 -57q51 -17 82.5 -60.5t31.5 -101.5q0 -54 -26.5 -99.5t-72 -72t-99.5 -26.5h-302v684zM457.5 116q33.5 34 33.5 82t-34 82t-82 34h-210v-232h210q49 0 82.5 34zM426.5 424.5q30.5 30.5 30.5 74.5
t-30.5 74.5t-73.5 30.5h-188v-210h188q43 0 73.5 30.5z" />
    <glyph glyph-name="C" unicode="C" horiz-adv-x="768" 
d="M227.5 33q-77.5 48 -123 130t-45.5 179t45.5 179t123 130t168.5 48q75 0 141 -33t113.5 -91t67.5 -131l-75 -11q-27 81 -93.5 132.5t-148.5 51.5q-69 0 -127.5 -37t-93 -100t-34.5 -138q0 -74 34.5 -137t93 -100t127.5 -37q82 0 148.5 51.5t93.5 132.5l75 -10
q-20 -74 -67.5 -132.5t-113.5 -91.5t-141 -33q-91 0 -168.5 48z" />
    <glyph glyph-name="D" unicode="D" horiz-adv-x="686" 
d="M73 684h212q92 0 171 -46t125 -124.5t46 -170.5q0 -93 -46 -172t-125 -125t-171 -46h-212v684zM408.5 113.5q60.5 35.5 96 96.5t35.5 133q0 71 -35.5 131.5t-96 95.5t-132.5 35h-116v-527h116q72 0 132.5 35.5z" />
    <glyph glyph-name="E" unicode="E" horiz-adv-x="559" 
d="M73 684h439v-81l-353 1v-225h319v-75h-319v-224h353v-80h-439v684z" />
    <glyph glyph-name="F" unicode="F" horiz-adv-x="534" 
d="M73 684h417v-81l-331 1v-225h299v-75h-299v-304h-86v684z" />
    <glyph glyph-name="G" unicode="G" horiz-adv-x="781" 
d="M221.5 33q-77.5 48 -123 130t-45.5 179t45.5 179t123 130t168.5 48q103 0 187.5 -60.5t122.5 -158.5l-71 -24q-30 72 -93.5 116.5t-139.5 44.5q-69 0 -128 -37t-93.5 -100t-34.5 -138q0 -74 34.5 -137t93.5 -100t128 -37q65 0 121.5 33.5t91.5 91t39 126.5l80 23
q0 -97 -45.5 -179t-123 -130t-169.5 -48q-91 0 -168.5 48zM369 368h359v-26l-13 -45h-346v71z" />
    <glyph glyph-name="H" unicode="H" horiz-adv-x="677" 
d="M516 0v304h-356v-304h-87v684h87v-305h356v305h87v-684h-87z" />
    <glyph glyph-name="I" unicode="I" horiz-adv-x="233" 
d="M73 0v684h87v-684h-87z" />
    <glyph glyph-name="J" unicode="J" horiz-adv-x="211" 
d="M-115 -131h37q35 0 64.5 17.5t47 47.5t17.5 65v685h87v-681q0 -58 -28.5 -107t-76.5 -78t-105 -29h-43v80z" />
    <glyph glyph-name="K" unicode="K" horiz-adv-x="617" 
d="M590 684l-433 -445l-4 126l324 319h113zM160 684v-684h-87v684h87zM290 398l310 -398h-103l-289 368z" />
    <glyph glyph-name="L" unicode="L" horiz-adv-x="482" 
d="M461 0h-388v684h87v-604h301v-80z" />
    <glyph glyph-name="M" unicode="M" horiz-adv-x="850" 
d="M73 684h123l229 -547l229 547h123v-684h-84v549l-224 -509h-88l-224 509v-549h-84v684z" />
    <glyph glyph-name="N" unicode="N" horiz-adv-x="705" 
d="M506 0l-349 557v-557h-84v684h109l367 -592v592h83v-684h-126z" />
    <glyph glyph-name="O" unicode="O" horiz-adv-x="807" 
d="M231 33q-79 48 -125.5 130.5t-46.5 179.5q0 96 46.5 178t126 130t172.5 48t172.5 -48t126 -130t46.5 -178q0 -97 -46.5 -179.5t-126 -130.5t-172.5 -48q-94 0 -173 48zM533 105q59 37 93.5 100t34.5 138q0 74 -34.5 137t-93.5 100t-129 37t-129.5 -37t-94.5 -100
t-35 -137q0 -75 35 -138t94.5 -100t129.5 -37t129 37z" />
    <glyph glyph-name="P" unicode="P" horiz-adv-x="584" 
d="M73 684h256q59 0 109 -29t79.5 -79t29.5 -109t-29.5 -109.5t-79.5 -79.5t-109 -29h-169v-249h-87v684zM160 329h164q36 0 67 18.5t49.5 50.5t18.5 69t-18.5 68.5t-49.5 50t-67 18.5h-164v-275z" />
    <glyph glyph-name="Q" unicode="Q" horiz-adv-x="819" 
d="M233.5 39q-80.5 47 -127.5 127.5t-47 176.5q0 95 47 175t127.5 127t176.5 47q95 0 175.5 -47t127.5 -127t47 -175t-47 -176t-127.5 -128t-175.5 -47q-96 0 -176.5 47zM477 -28q-30 20 -67 20l12 35q66 0 114 -23.5t69 -74.5l19 -44l-80 -25l-23 57q-14 35 -44 55z
M542.5 110q60.5 36 95.5 98t35 135t-35 134t-95.5 97t-132.5 36q-73 0 -133.5 -36t-96 -97t-35.5 -134t35.5 -135t96 -98t133.5 -36q72 0 132.5 36z" />
    <glyph glyph-name="R" unicode="R" horiz-adv-x="616" 
d="M73 684h257q59 0 108.5 -29t78.5 -78.5t29 -108.5t-29 -106t-78.5 -73.5t-108.5 -26.5h-170v-262h-87v684zM304 261h-169v46h166q56 0 93.5 -8.5t65.5 -32t47 -68.5l83 -198h-87l-75 177q-34 84 -124 84zM391 349.5q31 18.5 49.5 50t18.5 68.5q0 36 -18.5 67.5t-49.5 50
t-67 18.5h-164v-273h164q36 0 67 18.5z" />
    <glyph glyph-name="S" unicode="S" horiz-adv-x="626" 
d="M173.5 6q-72.5 21 -124.5 55l31 72q44 -28 110 -47.5t126 -19.5q80 0 127 29t47 81q0 37 -22 59.5t-57 35t-101 29.5q-87 24 -137.5 49.5t-75 62.5t-24.5 94q0 60 33.5 104t92.5 67t133 23q104 0 222 -45l-29 -75q-102 38 -193 38q-79 0 -125.5 -30.5t-46.5 -82.5
q0 -38 20.5 -60.5t56 -35.5t103.5 -30q123 -31 180 -74.5t57 -121.5q0 -93 -72 -145.5t-186 -52.5q-73 0 -145.5 21z" />
    <glyph glyph-name="T" unicode="T" horiz-adv-x="505" 
d="M209 604h-194l-2 80h479v-80h-196v-604h-87v604z" />
    <glyph glyph-name="U" unicode="U" horiz-adv-x="631" 
d="M190 28.5q-57 33.5 -90 91t-33 124.5v440h87v-445q0 -44 21.5 -81t58.5 -58.5t81 -21.5t81.5 21.5t59 58.5t21.5 81v445h87v-440q0 -67 -33.5 -124.5t-90.5 -91t-125 -33.5t-125 33.5z" />
    <glyph glyph-name="V" unicode="V" horiz-adv-x="597" 
d="M240 0l-229 684h89l199 -587l199 587h88l-228 -684h-118z" />
    <glyph glyph-name="W" unicode="W" horiz-adv-x="852" 
d="M11 684h86l120 -592l156 544h105l157 -544l120 592h86l-149 -684h-116l-150 553l-151 -553h-116z" />
    <glyph glyph-name="X" unicode="X" horiz-adv-x="576" 
d="M113 0l451 684h-101l-452 -684h102zM564 0l-451 684h-102l452 -684h101z" />
    <glyph glyph-name="Y" unicode="Y" horiz-adv-x="578" 
d="M244 210l-233 474h96l180 -369l183 369h97l-235 -474v-210h-88v210z" />
    <glyph glyph-name="Z" unicode="Z" horiz-adv-x="556" 
d="M530 0h-503v92l393 512h-372v80h475v-92l-393 -512h399z" />
    <glyph glyph-name="bracketleft" unicode="[" horiz-adv-x="331" 
d="M78 746h198v-75h-112v-747h112v-76h-198v898z" />
    <glyph glyph-name="backslash" unicode="\" horiz-adv-x="344" 
d="M-10 684h89l275 -784h-89z" />
    <glyph glyph-name="bracketright" unicode="]" horiz-adv-x="331" 
d="M55 -152v76h112v747h-112v75h198v-898h-198z" />
    <glyph glyph-name="asciicircum" unicode="^" horiz-adv-x="584" 
d="M292 477l-138 -334h-79l177 414h80l176 -414h-78z" />
    <glyph glyph-name="underscore" unicode="_" horiz-adv-x="500" 
d="M500 -77h-500v77h500v-77z" />
    <glyph glyph-name="a" unicode="a" horiz-adv-x="627" 
d="M174.5 27q-58.5 34 -92.5 92.5t-34 127.5q0 68 34 126.5t92.5 92.5t127.5 34q67 0 118 -34t78.5 -91.5t27.5 -127.5t-27.5 -128t-78.5 -92t-118 -34q-69 0 -127.5 34zM392 98q39 23 61.5 62.5t22.5 86.5t-22.5 86t-61.5 62t-86 23t-86 -23t-62 -62t-23 -86t23 -86.5
t62 -62.5t86 -23t86 23zM490 169l-14 3v125h88v-297h-74v169zM476 320l14 4v169h74v-297h-88v124z" />
    <glyph glyph-name="b" unicode="b" horiz-adv-x="637" 
d="M216.5 27q-50.5 34 -78 92t-27.5 128t27.5 127.5t78 91.5t118.5 34q69 0 127.5 -34t92.5 -92.5t34 -126.5q0 -69 -34 -127.5t-92.5 -92.5t-127.5 -34q-68 0 -118.5 34zM73 714h87v-574l-14 -3v-137h-73v714zM417 98q39 23 61.5 62.5t22.5 86.5t-22.5 86t-61.5 62t-86 23
t-86 -23t-62 -62t-23 -86t23 -86.5t62 -62.5t86 -23t86 23z" />
    <glyph glyph-name="c" unicode="c" horiz-adv-x="592" 
d="M175 27q-58 34 -92 92.5t-34 127.5t34 127t92 92t127 34q60 0 111 -25.5t85.5 -70t45.5 -100.5l-74 -11q-15 55 -60.5 90.5t-102.5 35.5q-47 0 -86 -23t-62 -62.5t-23 -86.5t23 -87t62 -63t86 -23q57 0 102.5 35.5t60.5 90.5l74 -11q-11 -56 -45.5 -100.5t-85.5 -70
t-111 -25.5q-69 0 -127 34z" />
    <glyph glyph-name="d" unicode="d" horiz-adv-x="637" 
d="M175.5 27q-58.5 34 -92.5 92.5t-34 127.5q0 68 34 126.5t92.5 92.5t127.5 34q67 0 118 -34t78.5 -91.5t27.5 -127.5t-27.5 -128t-78.5 -92t-118 -34q-69 0 -127.5 34zM392 98q39 23 62 62.5t23 86.5t-23 86t-62 62t-85 23q-47 0 -86 -23t-62 -62t-23 -86t23 -86.5
t62 -62.5t86 -23q46 0 85 23zM491 137l-14 3v574h87v-714h-73v137z" />
    <glyph glyph-name="e" unicode="e" horiz-adv-x="589" 
d="M177 27q-58 34 -92 92.5t-34 127.5t34 127t92 92t127 34q70 0 126 -34t87.5 -92t31.5 -127q0 -18 -3 -33h-411q5 -41 29 -75.5t61 -54t80 -19.5q49 0 90 24t64 65l65 -31q-32 -60 -90 -95t-130 -35q-69 0 -127 34zM415.5 384.5q-47.5 41.5 -110.5 41.5q-64 0 -111.5 -41
t-56.5 -102h334q-8 60 -55.5 101.5z" />
    <glyph glyph-name="f" unicode="f" horiz-adv-x="393" 
d="M204 0h-87v413h-95v80h182v-493zM139.5 640q22.5 38 60.5 60.5t83 22.5h92v-77h-88q-35 0 -59 -25t-24 -61v-67h144v-80h-231v144q0 45 22.5 83z" />
    <glyph glyph-name="g" unicode="g" horiz-adv-x="620" 
d="M144 -145h186q42 0 78.5 21.5t58 58.5t21.5 81v350l3 4v123h73v-476q0 -66 -32 -122t-87.5 -88.5t-120.5 -32.5h-180v81zM175 27q-58 34 -92 92.5t-34 127.5q0 68 34 126.5t92 92.5t127 34q68 0 119 -34t78.5 -91.5t27.5 -127.5t-27.5 -128t-78.5 -92t-119 -34
q-69 0 -127 34zM392 97q39 23 62 63t23 87t-23 86t-62 62t-85 23q-47 0 -86 -23t-62 -62t-23 -86t23 -87t62 -63t86 -23q46 0 85 23z" />
    <glyph glyph-name="h" unicode="h" horiz-adv-x="576" 
d="M427.5 341.5q-19.5 33.5 -52.5 53t-72 19.5q-38 0 -71 -19.5t-52.5 -53t-19.5 -72.5h-49q0 60 25.5 112.5t72.5 84.5t107 32q61 0 110.5 -30.5t78 -82.5t28.5 -114v-271h-86v269q0 39 -19.5 72.5zM73 714h87v-714h-87v714z" />
    <glyph glyph-name="i" unicode="i" horiz-adv-x="218" 
d="M65 493h87v-493h-87v493zM60 653h98v-81h-98v81z" />
    <glyph glyph-name="j" unicode="j" horiz-adv-x="222" 
d="M-63 -113h50q34 0 58.5 25t24.5 60v521h87v-521q0 -46 -22.5 -84t-60.5 -60.5t-83 -22.5h-54v82zM66 653h97v-81h-97v81z" />
    <glyph glyph-name="k" unicode="k" horiz-adv-x="507" 
d="M212 242l54 72l219 -314h-102zM73 713h87v-713h-87v713zM160 304l199 189h108l-307 -308v119z" />
    <glyph glyph-name="l" unicode="l" horiz-adv-x="244" 
d="M108 34.5q-35 34.5 -35 84.5v594h87v-600q0 -14 9.5 -23t23.5 -9h15v-81h-15q-50 0 -85 34.5z" />
    <glyph glyph-name="m" unicode="m" horiz-adv-x="883" 
d="M735.5 349.5q-17.5 29.5 -47 47t-64.5 17.5t-64.5 -17.5t-47 -47t-17.5 -64.5h-50q0 56 24 105.5t68 79.5t101 30q56 0 102.5 -28.5t73 -77.5t26.5 -107v-287h-87v285q0 35 -17.5 64.5zM63 493h73v-132l14 -9v-352h-87v493zM390.5 349.5q-17.5 29.5 -47 47t-64.5 17.5
t-64.5 -17.5t-47 -47t-17.5 -64.5h-49q0 56 24 105.5t68 79.5t100 30t102.5 -28.5t73 -77.5t26.5 -107v-287h-87v285q0 35 -17.5 64.5z" />
    <glyph glyph-name="n" unicode="n" horiz-adv-x="566" 
d="M417.5 342.5q-19.5 33.5 -52.5 53t-72 19.5q-38 0 -71 -19.5t-52.5 -53t-19.5 -72.5h-49q0 60 25.5 113t72.5 85t107 32q61 0 110.5 -30.5t78 -82.5t28.5 -114v-273h-86v270q0 39 -19.5 72.5zM63 493h73v-132l14 -9v-352h-87v493z" />
    <glyph glyph-name="o" unicode="o" horiz-adv-x="612" 
d="M176.5 27q-59.5 34 -94 92.5t-34.5 127.5t34.5 127t94 92t129.5 34t129.5 -34t94 -92t34.5 -127t-34.5 -127.5t-94 -92.5t-129.5 -34t-129.5 34zM392 98q39 23 61.5 62.5t22.5 86.5t-22.5 86t-61.5 62t-86 23t-86 -23t-62 -62t-23 -86t23 -86.5t62 -62.5t86 -23t86 23z
" />
    <glyph glyph-name="p" unicode="p" horiz-adv-x="635" 
d="M214.5 27q-50.5 34 -77.5 92t-27 128t27 127.5t77.5 91.5t118.5 34q69 0 127.5 -34t92.5 -92.5t34 -127.5q0 -68 -34 -126.5t-92.5 -92.5t-127.5 -34q-68 0 -118.5 34zM71 493h73v-137l14 -3v-544h-87v684zM415 97q39 23 62 63t23 87t-23 86t-62 62t-86 23t-86 -23
t-62 -62t-23 -86t23 -87t62 -63t86 -23t86 23z" />
    <glyph glyph-name="q" unicode="q" horiz-adv-x="635" 
d="M174.5 27q-58.5 34 -92.5 92.5t-34 126.5q0 69 34 127.5t92.5 92.5t127.5 34q67 0 118 -34t78.5 -91.5t27.5 -127.5t-27.5 -128t-78.5 -92t-118 -34q-69 0 -127.5 34zM392 97q39 23 61.5 63t22.5 87t-22.5 86t-61.5 62t-86 23t-86 -23t-62 -62t-23 -86t23 -87t62 -63
t86 -23t86 23zM476 353l14 3v137h74v-684h-88v544z" />
    <glyph glyph-name="r" unicode="r" horiz-adv-x="377" 
d="M63 493h73v-137l14 -3v-353h-87v493zM129.5 363q28.5 59 80.5 95t120 36h23v-80h-45q-42 0 -78.5 -21.5t-58 -58t-21.5 -79.5l-49 -17q0 66 28.5 125z" />
    <glyph glyph-name="s" unicode="s" horiz-adv-x="508" 
d="M146.5 10q-55.5 18 -97.5 50l37 58q82 -54 179 -54q115 0 115 69q0 31 -28.5 46.5t-88.5 28.5q-63 14 -103 30t-63 44.5t-23 74.5q0 64 51.5 103.5t140.5 39.5q48 0 95.5 -13.5t85.5 -35.5l-31 -61q-77 37 -150 37q-50 0 -78 -18.5t-28 -52.5q0 -35 27.5 -50t91.5 -26
q89 -17 138.5 -50.5t49.5 -94.5q0 -68 -53 -105.5t-149 -37.5q-63 0 -118.5 18z" />
    <glyph glyph-name="t" unicode="t" horiz-adv-x="436" 
d="M144 412h-120v81h363v-80h-157v-249q0 -35 24.5 -59t59.5 -24h83v-81h-87q-45 0 -83.5 22t-60.5 59.5t-22 82.5v248zM144 493v145h86v-145h-86z" />
    <glyph glyph-name="u" unicode="u" horiz-adv-x="566" 
d="M149 23.5q-50 30.5 -78.5 82.5t-28.5 114v273h87v-271q0 -39 19.5 -72t52.5 -52.5t72 -19.5q38 0 71 19.5t52 52.5t19 72h49q0 -60 -25.5 -112.5t-72.5 -84.5t-107 -32t-110 30.5zM429 132l-14 8v353h88v-493h-74v132z" />
    <glyph glyph-name="v" unicode="v" horiz-adv-x="504" 
d="M198 0l-187 493h89l153 -403l151 403h90l-187 -493h-109z" />
    <glyph glyph-name="w" unicode="w" horiz-adv-x="700" 
d="M11 493h84l79 -367l140 335h76l140 -335l75 367h84l-98 -493h-90l-149 348l-149 -348h-90z" />
    <glyph glyph-name="x" unicode="x" horiz-adv-x="489" 
d="M11 493h100l366 -493h-100zM379 493h100l-367 -493h-100z" />
    <glyph glyph-name="y" unicode="y" horiz-adv-x="524" 
d="M38 -148h71q69 0 96 65l215 576h88l-220 -593q-19 -60 -64 -95.5t-111 -35.5h-75v83zM15 493h89l175 -493h-88z" />
    <glyph glyph-name="z" unicode="z" horiz-adv-x="485" 
d="M448 0h-411v85l289 328h-285v80h399v-86l-288 -327h296v-80z" />
    <glyph glyph-name="braceleft" unicode="{" horiz-adv-x="374" 
d="M216.5 326.5q-11.5 -20.5 -38.5 -29.5q27 -9 38.5 -29.5t11.5 -59.5v-207q0 -77 76 -77h23v-76h-32q-76 0 -114.5 36.5t-38.5 107.5v218q0 50 -44 50h-34v75h34q44 0 44 49v219q0 71 38.5 107t114.5 36h32v-75h-23q-76 0 -76 -78v-207q0 -39 -11.5 -59.5z" />
    <glyph glyph-name="bar" unicode="|" horiz-adv-x="295" 
d="M190 -194h-86v936h86v-936z" />
    <glyph glyph-name="braceright" unicode="}" horiz-adv-x="374" 
d="M70 671h-23v75h31q76 0 114.5 -36t38.5 -107v-219q0 -24 11.5 -36.5t33.5 -12.5h34v-75h-34q-45 0 -45 -50v-218q0 -71 -38.5 -107.5t-114.5 -36.5h-31v76h23q75 0 75 77v207q0 39 12 59.5t39 29.5q-27 9 -39 29.5t-12 59.5v207q0 78 -75 78z" />
    <glyph glyph-name="asciitilde" unicode="~" horiz-adv-x="583" 
d="M343 276q-26 13 -64 43q-30 25 -48.5 34.5t-40.5 9.5q-31 0 -49.5 -24t-19.5 -66h-65q1 77 37 120.5t91 43.5q32 0 57.5 -13t64.5 -43q30 -24 49 -34t40 -10q31 0 49.5 24t19.5 66h65q-1 -77 -36.5 -120.5t-90.5 -43.5q-33 0 -59 13z" />
    <glyph glyph-name="exclamdown" unicode="&#xa1;" horiz-adv-x="245" 
d="M94 360h58l17 -499h-92zM161.5 536q16.5 -17 16.5 -39q0 -23 -16 -39.5t-39 -16.5q-25 0 -40.5 16.5t-15.5 39.5q0 24 16.5 40t39.5 16q22 0 38.5 -17z" />
    <glyph glyph-name="cent" unicode="&#xa2;" horiz-adv-x="615" 
d="M190 27q-58 34 -92 92.5t-34 127.5t34 127t92 92t127 34q60 0 111 -25.5t85.5 -70t45.5 -100.5l-74 -11q-15 55 -60.5 90.5t-102.5 35.5q-47 0 -86 -23t-62 -62.5t-23 -86.5t23 -87t62 -63t86 -23q57 0 102.5 35.5t60.5 90.5l74 -11q-11 -56 -45.5 -100.5t-85.5 -70
t-111 -25.5q-69 0 -127 34zM286 5h65v-117h-65v117zM286 606h65v-117h-65v117z" />
    <glyph glyph-name="sterling" unicode="&#xa3;" horiz-adv-x="588" 
d="M51 80h109v230h-109v70h109v95q0 116 71 181.5t202 65.5v-77q-93 0 -142 -44.5t-51 -127.5v-93h194v-70h-194v-230h290v-77h-479v77z" />
    <glyph glyph-name="currency" unicode="&#xa4;" horiz-adv-x="700" 
d="M34 54l106 107q-28 34 -43.5 74t-15.5 84q0 43 15 83.5t43 72.5l-105 106l53 53l105 -105q71 54 158 54q43 0 84 -13.5t75 -39.5l104 104l53 -53l-104 -105q28 -33 43 -73.5t15 -83.5q0 -44 -15.5 -85t-44.5 -73l106 -107l-53 -53l-107 107q-33 -25 -73 -38t-83 -13
q-86 0 -156 51l-107 -107zM447.5 157.5q44.5 25.5 71 68.5t26.5 93q0 51 -26.5 94.5t-71.5 69t-97 25.5q-53 0 -97.5 -25.5t-70.5 -69t-26 -94.5t26.5 -94t71 -68t96.5 -25q53 0 97.5 25.5z" />
    <glyph glyph-name="yen" unicode="&#xa5;" horiz-adv-x="680" 
d="M596 273h-210v-82h210v-70h-210v-122h-91v122h-210v70h210v82h-210v70h186l-234 341h96l211 -307l210 307h89l-234 -341h187v-70z" />
    <glyph glyph-name="brokenbar" unicode="&#xa6;" horiz-adv-x="293" 
d="M190 392h-86v350h86v-350zM190 -194h-86v350h86v-350z" />
    <glyph glyph-name="section" unicode="&#xa7;" horiz-adv-x="569" 
d="M475 216.5q-27 -33.5 -67 -47.5q76 -42 76 -122q0 -71 -57.5 -110t-152.5 -39q-62 0 -118.5 18.5t-91.5 47.5l30 64q36 -26 85 -42.5t94 -16.5q122 0 122 86q0 29 -21 47.5t-53 30t-99 31.5q-74 20 -111 53t-37 92q0 47 26.5 82t68.5 51q-36 18 -54.5 48.5t-18.5 68.5
q0 75 56 114.5t160 39.5q49 0 104 -15.5t90 -39.5l-33 -61q-30 20 -72.5 32t-82.5 12q-66 0 -100.5 -22.5t-34.5 -65.5q0 -29 16 -47t43 -29t73 -23q63 -16 101 -32t62.5 -45.5t24.5 -78.5q-1 -48 -28 -81.5zM400 234q23 24 23 59q0 43 -31 63t-97 37q-36 9 -55 15
q-38 -8 -61 -31.5t-23 -58.5q0 -30 15.5 -48.5t40.5 -29t71 -22.5q41 -10 56 -16q38 8 61 32z" />
    <glyph glyph-name="copyright" unicode="&#xa9;" horiz-adv-x="819" 
d="M233 47q-81 47 -128 128t-47 177q0 95 47 176t128 128t177 47q95 0 176 -47t128 -128t47 -176q0 -96 -47 -177t-128 -128t-176 -47q-96 0 -177 47zM562.5 88.5q69.5 40.5 110 110.5t40.5 153t-40.5 152.5t-110 110t-152.5 40.5t-153 -40.5t-110.5 -110t-40.5 -152.5
t40.5 -153t110.5 -110.5t153 -40.5t152.5 40.5zM309 174.5q-45 27.5 -71.5 74.5t-26.5 103t26.5 103t71.5 74.5t98 27.5q64 0 115.5 -39.5t69.5 -101.5l-57 -10q-15 43 -49.5 68.5t-75.5 25.5q-36 0 -67 -20t-49 -54t-18 -74t18 -74t49 -54t67 -20q41 0 75.5 25.5t49.5 68.5
l57 -10q-18 -62 -69.5 -101.5t-115.5 -39.5q-53 0 -98 27.5z" />
    <glyph glyph-name="guillemotleft" unicode="&#xab;" horiz-adv-x="463" 
d="M76 259q0 149 86 283l60 -32q-68 -120 -68 -251t68 -251l-60 -32q-86 134 -86 283zM290 124q-20 64 -20 135t20 135t61 125l60 -33q-63 -106 -63 -227t63 -227l-60 -33q-41 61 -61 125z" />
    <glyph glyph-name="registered" unicode="&#xae;" horiz-adv-x="819" 
d="M233 47q-81 47 -128 128t-47 177q0 95 47 176t128 128t177 47q95 0 176 -47t128 -128t47 -176q0 -96 -47 -177t-128 -128t-176 -47q-96 0 -177 47zM562.5 88.5q69.5 40.5 110 110.5t40.5 153t-40.5 152.5t-110 110t-152.5 40.5t-153 -40.5t-110.5 -110t-40.5 -152.5
t40.5 -153t110.5 -110.5t153 -40.5t152.5 40.5zM526 147l-46 109q-20 44 -66 44h-111v42h105q48 0 78.5 -17t45.5 -52l54 -126h-60zM273 554h162q35 0 65.5 -17.5t48 -47.5t17.5 -65q0 -52 -37 -84t-94 -32h-103v-161h-59v407zM486.5 373.5q21.5 21.5 21.5 51.5
q0 31 -21.5 53t-51.5 22h-103v-148h103q30 0 51.5 21.5z" />
    <glyph glyph-name="degree" unicode="&#xb0;" horiz-adv-x="418" 
d="M126.5 404.5q-37.5 21.5 -59.5 58.5t-22 81q0 45 22 82t59.5 58.5t82.5 21.5t83 -21.5t60 -58.5t22 -82q0 -44 -22 -81t-60 -58.5t-83 -21.5t-82.5 21.5zM281.5 471.5q29.5 29.5 29.5 72.5t-29.5 73t-72.5 30t-72 -29.5t-29 -73.5q0 -43 29 -72.5t72 -29.5t72.5 29.5z
" />
    <glyph glyph-name="plusminus" unicode="&#xb1;" horiz-adv-x="573" 
d="M246 339h-179v74h179v161h81v-161h178v-74h-178v-159h-81v159zM505 0h-438v77h438v-77z" />
    <glyph glyph-name="paragraph" unicode="&#xb6;" horiz-adv-x="640" 
d="M89.5 378q-57.5 48 -57.5 128q0 83 61 130.5t161 47.5h312v-784h-87v714h-152v-714h-87v428q-93 2 -150.5 50z" />
    <glyph glyph-name="periodcentered" unicode="&#xb7;" horiz-adv-x="273" 
d="M93.5 226.5q-18.5 18.5 -18.5 43.5t18 43t43 18q27 0 44.5 -18t17.5 -43q0 -26 -18.5 -44t-43.5 -18q-24 0 -42.5 18.5z" />
    <glyph glyph-name="guillemotright" unicode="&#xbb;" horiz-adv-x="463" 
d="M309 259q0 131 -68 251l60 32q86 -134 86 -283t-86 -283l-60 32q68 120 68 251zM115 259q0 121 -63 227l60 33q41 -61 61 -125t20 -135t-20 -135t-61 -125l-60 33q63 106 63 227z" />
    <glyph glyph-name="questiondown" unicode="&#xbf;" horiz-adv-x="404" 
d="M222.5 206.5q-13.5 -37.5 -45.5 -84.5l-15 -22q-27 -39 -39 -64t-12 -60q0 -45 32 -76.5t77 -31.5q34 0 61.5 19t40.5 50l8 20l55 -21q-13 -61 -61.5 -101t-112.5 -40q-48 0 -88 23t-63 63t-23 88t16.5 82t58.5 89q33 45 49 79t16 80h58q1 -55 -12.5 -92.5zM246.5 475.5
q16.5 -16.5 16.5 -39.5t-16 -39.5t-40 -16.5t-40 16.5t-16 39.5q0 24 17 40t39 16q23 0 39.5 -16.5z" />
    <glyph glyph-name="Agrave" unicode="&#xc0;" horiz-adv-x="647" 
d="M274 684h93l-264 -684h-92zM283 684h92l263 -684h-92zM166 252h323v-82h-323v82zM135 894h95l137 -129h-83z" />
    <glyph glyph-name="Aacute" unicode="&#xc1;" horiz-adv-x="647" 
d="M274 684h93l-264 -684h-92zM283 684h92l263 -684h-92zM166 252h323v-82h-323v82zM416 894h95l-149 -129h-83z" />
    <glyph glyph-name="Acircumflex" unicode="&#xc2;" horiz-adv-x="647" 
d="M274 684h93l-264 -684h-92zM283 684h92l263 -684h-92zM166 252h323v-82h-323v82zM324 851l-100 -87h-70l124 129h92l125 -129h-70z" />
    <glyph glyph-name="Atilde" unicode="&#xc3;" horiz-adv-x="647" 
d="M274 684h93l-264 -684h-92zM283 684h92l263 -684h-92zM166 252h323v-82h-323v82zM358.5 773.5q-17.5 8.5 -42.5 28.5q-18 15 -29 21.5t-23 6.5q-22 0 -35.5 -16t-15.5 -44h-52q2 55 28 86.5t70 31.5q22 0 39.5 -8.5t41.5 -28.5q18 -15 29.5 -21.5t23.5 -6.5
q21 0 34.5 15.5t15.5 42.5h52q-2 -53 -28 -84.5t-69 -31.5q-22 0 -39.5 8.5z" />
    <glyph glyph-name="Adieresis" unicode="&#xc4;" horiz-adv-x="647" 
d="M274 684h93l-264 -684h-92zM283 684h92l263 -684h-92zM166 252h323v-82h-323v82zM222 780q-16 16 -16 38t16 37.5t38 15.5t37 -15.5t15 -37.5q0 -23 -15 -38.5t-37 -15.5t-38 16zM354 780q-16 16 -16 38t16 37.5t38 15.5t37.5 -15.5t15.5 -37.5t-15.5 -38t-37.5 -16
t-38 16z" />
    <glyph glyph-name="Aring" unicode="&#xc5;" horiz-adv-x="647" 
d="M274 684h93l-264 -684h-92zM283 684h92l263 -684h-92zM166 252h323v-82h-323v82zM247 796q-32 31 -32 75q0 45 32 77t78 32t78.5 -32t32.5 -77q0 -44 -32 -75t-79 -31q-46 0 -78 31zM372.5 825q18.5 18 18.5 46t-19 47.5t-47 19.5t-46.5 -19t-18.5 -48q0 -28 18.5 -46
t46.5 -18q29 0 47.5 18z" />
    <glyph glyph-name="AE" unicode="&#xc6;" horiz-adv-x="928" 
d="M272 684h92l-263 -684h-92zM293 604v80h259v-80h-259zM164 252h288v-82h-288v82zM442 684h439v-81l-353 1v-225h319v-75h-319v-224h353v-80h-439v684z" />
    <glyph glyph-name="Ccedilla" unicode="&#xc7;" horiz-adv-x="768" 
d="M227.5 33q-77.5 48 -123 130t-45.5 179t45.5 179t123 130t168.5 48q75 0 141 -33t113.5 -91t67.5 -131l-75 -11q-27 81 -93.5 132.5t-148.5 51.5q-69 0 -127.5 -37t-93 -100t-34.5 -138q0 -74 34.5 -137t93 -100t127.5 -37q82 0 148.5 51.5t93.5 132.5l75 -10
q-20 -74 -67.5 -132.5t-113.5 -91.5t-141 -33q-91 0 -168.5 48zM293 -238l13 48h65q27 0 41.5 12t14.5 33q0 20 -14 32.5t-38 12.5h-36l25 93h57l-16 -61q40 -4 62 -25.5t22 -54.5q0 -41 -33.5 -65.5t-87.5 -24.5h-75z" />
    <glyph glyph-name="Egrave" unicode="&#xc8;" horiz-adv-x="559" 
d="M73 684h439v-81l-353 1v-225h319v-75h-319v-224h353v-80h-439v684zM175 901h95l137 -129h-83z" />
    <glyph glyph-name="Eacute" unicode="&#xc9;" horiz-adv-x="559" 
d="M73 684h439v-81l-353 1v-225h319v-75h-319v-224h353v-80h-439v684zM374 894h95l-149 -129h-83z" />
    <glyph glyph-name="Ecircumflex" unicode="&#xca;" horiz-adv-x="559" 
d="M73 684h439v-81l-353 1v-225h319v-75h-319v-224h353v-80h-439v684zM301 851l-100 -87h-70l124 129h92l125 -129h-70z" />
    <glyph glyph-name="Edieresis" unicode="&#xcb;" horiz-adv-x="559" 
d="M73 684h439v-81l-353 1v-225h319v-75h-319v-224h353v-80h-439v684zM207 780q-16 16 -16 38t16 37.5t38 15.5t37 -15.5t15 -37.5q0 -23 -15 -38.5t-37 -15.5t-38 16zM339 780q-16 16 -16 38t16 37.5t38 15.5t37.5 -15.5t15.5 -37.5t-15.5 -38t-37.5 -16t-38 16z" />
    <glyph glyph-name="Igrave" unicode="&#xcc;" horiz-adv-x="231" 
d="M73 0v684h87v-684h-87zM-71 894h95l137 -129h-83z" />
    <glyph glyph-name="Iacute" unicode="&#xcd;" horiz-adv-x="231" 
d="M73 0v684h87v-684h-87zM209 894h95l-149 -129h-83z" />
    <glyph glyph-name="Icircumflex" unicode="&#xce;" horiz-adv-x="231" 
d="M73 0v684h87v-684h-87zM116 851l-100 -87h-70l124 129h92l125 -129h-70z" />
    <glyph glyph-name="Idieresis" unicode="&#xcf;" horiz-adv-x="231" 
d="M73 0v684h87v-684h-87zM9 780q-16 16 -16 38t16 37.5t38 15.5t37 -15.5t15 -37.5q0 -23 -15 -38.5t-37 -15.5t-38 16zM141 780q-16 16 -16 38t16 37.5t38 15.5t37.5 -15.5t15.5 -37.5t-15.5 -38t-37.5 -16t-38 16z" />
    <glyph glyph-name="Eth" unicode="&#xd0;" horiz-adv-x="737" 
d="M124 684h212q93 0 171.5 -46t124.5 -124.5t46 -170.5q0 -93 -46 -172t-124.5 -125t-171.5 -46h-212v684zM460 113.5q60 35.5 95.5 96.5t35.5 133q0 71 -35 131.5t-95.5 95.5t-132.5 35h-116v-527h116q72 0 132 35.5zM16 379h318v-75h-318v75z" />
    <glyph glyph-name="Ntilde" unicode="&#xd1;" horiz-adv-x="705" 
d="M506 0l-349 557v-557h-84v684h109l367 -592v592h83v-684h-126zM388.5 773.5q-17.5 8.5 -42.5 28.5q-18 15 -29 21.5t-23 6.5q-22 0 -35.5 -16t-15.5 -44h-52q2 55 28 86.5t70 31.5q22 0 39.5 -8.5t41.5 -28.5q18 -15 29.5 -21.5t23.5 -6.5q21 0 34.5 15.5t15.5 42.5h52
q-2 -53 -28 -84.5t-69 -31.5q-22 0 -39.5 8.5z" />
    <glyph glyph-name="Ograve" unicode="&#xd2;" horiz-adv-x="807" 
d="M231 33q-79 48 -125.5 130.5t-46.5 179.5q0 96 46.5 178t126 130t172.5 48t172.5 -48t126 -130t46.5 -178q0 -97 -46.5 -179.5t-126 -130.5t-172.5 -48q-94 0 -173 48zM533 105q59 37 93.5 100t34.5 138q0 74 -34.5 137t-93.5 100t-129 37t-129.5 -37t-94.5 -100
t-35 -137q0 -75 35 -138t94.5 -100t129.5 -37t129 37zM207 902h95l137 -129h-83z" />
    <glyph glyph-name="Oacute" unicode="&#xd3;" horiz-adv-x="807" 
d="M231 33q-79 48 -125.5 130.5t-46.5 179.5q0 96 46.5 178t126 130t172.5 48t172.5 -48t126 -130t46.5 -178q0 -97 -46.5 -179.5t-126 -130.5t-172.5 -48q-94 0 -173 48zM533 105q59 37 93.5 100t34.5 138q0 74 -34.5 137t-93.5 100t-129 37t-129.5 -37t-94.5 -100
t-35 -137q0 -75 35 -138t94.5 -100t129.5 -37t129 37zM490 902h95l-149 -129h-83z" />
    <glyph glyph-name="Ocircumflex" unicode="&#xd4;" horiz-adv-x="807" 
d="M231 33q-79 48 -125.5 130.5t-46.5 179.5q0 96 46.5 178t126 130t172.5 48t172.5 -48t126 -130t46.5 -178q0 -97 -46.5 -179.5t-126 -130.5t-172.5 -48q-94 0 -173 48zM533 105q59 37 93.5 100t34.5 138q0 74 -34.5 137t-93.5 100t-129 37t-129.5 -37t-94.5 -100
t-35 -137q0 -75 35 -138t94.5 -100t129.5 -37t129 37zM400 861l-100 -87h-70l124 129h92l125 -129h-70z" />
    <glyph glyph-name="Otilde" unicode="&#xd5;" horiz-adv-x="807" 
d="M231 33q-79 48 -125.5 130.5t-46.5 179.5q0 96 46.5 178t126 130t172.5 48t172.5 -48t126 -130t46.5 -178q0 -97 -46.5 -179.5t-126 -130.5t-172.5 -48q-94 0 -173 48zM533 105q59 37 93.5 100t34.5 138q0 74 -34.5 137t-93.5 100t-129 37t-129.5 -37t-94.5 -100
t-35 -137q0 -75 35 -138t94.5 -100t129.5 -37t129 37zM431.5 782.5q-17.5 8.5 -42.5 28.5q-18 15 -29 21.5t-23 6.5q-22 0 -35.5 -16t-15.5 -44h-52q2 55 28 86.5t70 31.5q22 0 39.5 -8.5t41.5 -28.5q18 -15 29.5 -21.5t23.5 -6.5q21 0 34.5 15.5t15.5 42.5h52
q-2 -53 -28 -84.5t-69 -31.5q-22 0 -39.5 8.5z" />
    <glyph glyph-name="Odieresis" unicode="&#xd6;" horiz-adv-x="807" 
d="M231 33q-79 48 -125.5 130.5t-46.5 179.5q0 96 46.5 178t126 130t172.5 48t172.5 -48t126 -130t46.5 -178q0 -97 -46.5 -179.5t-126 -130.5t-172.5 -48q-94 0 -173 48zM533 105q59 37 93.5 100t34.5 138q0 74 -34.5 137t-93.5 100t-129 37t-129.5 -37t-94.5 -100
t-35 -137q0 -75 35 -138t94.5 -100t129.5 -37t129 37zM302 787q-16 16 -16 38t16 37.5t38 15.5t37 -15.5t15 -37.5q0 -23 -15 -38.5t-37 -15.5t-38 16zM434 787q-16 16 -16 38t16 37.5t38 15.5t37.5 -15.5t15.5 -37.5t-15.5 -38t-37.5 -16t-38 16z" />
    <glyph glyph-name="multiply" unicode="&#xd7;" horiz-adv-x="518" 
d="M73 219l131 131l-131 131l55 55l131 -132l131 132l54 -55l-131 -131l131 -131l-54 -55l-131 132l-131 -132z" />
    <glyph glyph-name="Oslash" unicode="&#xd8;" horiz-adv-x="807" 
d="M231 33q-79 48 -125.5 130.5t-46.5 179.5q0 96 46.5 178t126 130t172.5 48t172.5 -48t126 -130t46.5 -178q0 -97 -46.5 -179.5t-126 -130.5t-172.5 -48q-94 0 -173 48zM533 105q59 37 94 100t35 138q0 74 -35 137t-94 100t-129 37t-129.5 -37t-94 -100t-34.5 -137
q0 -75 34.5 -138t94 -100t129.5 -37t129 37zM310 -49h-87l275 784h87z" />
    <glyph glyph-name="Ugrave" unicode="&#xd9;" horiz-adv-x="630" 
d="M190 28.5q-57 33.5 -90 91t-33 124.5v440h87v-445q0 -44 21.5 -81t58.5 -58.5t81 -21.5t81.5 21.5t59 58.5t21.5 81v445h87v-440q0 -67 -33.5 -124.5t-90.5 -91t-125 -33.5t-125 33.5zM138 894h95l137 -129h-83z" />
    <glyph glyph-name="Uacute" unicode="&#xda;" horiz-adv-x="630" 
d="M190 28.5q-57 33.5 -90 91t-33 124.5v440h87v-445q0 -44 21.5 -81t58.5 -58.5t81 -21.5t81.5 21.5t59 58.5t21.5 81v445h87v-440q0 -67 -33.5 -124.5t-90.5 -91t-125 -33.5t-125 33.5zM407 894h95l-149 -129h-83z" />
    <glyph glyph-name="Ucircumflex" unicode="&#xdb;" horiz-adv-x="630" 
d="M190 28.5q-57 33.5 -90 91t-33 124.5v440h87v-445q0 -44 21.5 -81t58.5 -58.5t81 -21.5t81.5 21.5t59 58.5t21.5 81v445h87v-440q0 -67 -33.5 -124.5t-90.5 -91t-125 -33.5t-125 33.5zM316 851l-100 -87h-70l124 129h92l125 -129h-70z" />
    <glyph glyph-name="Udieresis" unicode="&#xdc;" horiz-adv-x="630" 
d="M190 28.5q-57 33.5 -90 91t-33 124.5v440h87v-445q0 -44 21.5 -81t58.5 -58.5t81 -21.5t81.5 21.5t59 58.5t21.5 81v445h87v-440q0 -67 -33.5 -124.5t-90.5 -91t-125 -33.5t-125 33.5zM216 780q-16 16 -16 38t16 37.5t38 15.5t37 -15.5t15 -37.5q0 -23 -15 -38.5
t-37 -15.5t-38 16zM348 780q-16 16 -16 38t16 37.5t38 15.5t37.5 -15.5t15.5 -37.5t-15.5 -38t-37.5 -16t-38 16z" />
    <glyph glyph-name="Yacute" unicode="&#xdd;" horiz-adv-x="577" 
d="M244 210l-233 474h96l180 -369l183 369h97l-235 -474v-210h-88v210zM386 894h95l-149 -129h-83z" />
    <glyph glyph-name="Thorn" unicode="&#xde;" horiz-adv-x="575" 
d="M73 572h256q59 0 109 -29t79.5 -78.5t29.5 -108.5t-29.5 -109.5t-79.5 -80t-109 -29.5h-169v-137h-87v572zM391 236q31 19 49.5 51t18.5 69t-18.5 68t-49.5 49.5t-67 18.5h-164v-275h164q36 0 67 19zM73 684h87v-253h-87v253z" />
    <glyph glyph-name="germandbls" unicode="&#xdf;" horiz-adv-x="578" 
d="M151 -1l-77 -1v528q0 50 24.5 92.5t66.5 67.5t93 25t94 -25t68 -67.5t25 -92.5q0 -51 -25 -94t-68 -68t-94 -25l1 77q45 0 76 32t31 78q0 45 -31 77t-76 32t-76.5 -32t-31.5 -77v-527zM224 9l33 70q32 -14 59 -14q37 0 68 18.5t49 50t18 69.5q0 37 -18 68t-49 49.5
t-68 18.5h-62v65h61q60 0 109 -25.5t77.5 -71.5t28.5 -104q0 -59 -28.5 -108t-78 -78t-108.5 -29q-46 0 -91 21z" />
    <glyph glyph-name="agrave" unicode="&#xe0;" horiz-adv-x="627" 
d="M174.5 27q-58.5 34 -92.5 92.5t-34 127.5q0 68 34 126.5t92.5 92.5t127.5 34q67 0 118 -34t78.5 -91.5t27.5 -127.5t-27.5 -128t-78.5 -92t-118 -34q-69 0 -127.5 34zM392 98q39 23 61.5 62.5t22.5 86.5t-22.5 86t-61.5 62t-86 23t-86 -23t-62 -62t-23 -86t23 -86.5
t62 -62.5t86 -23t86 23zM490 169l-14 3v125h88v-297h-74v169zM476 320l14 4v169h74v-297h-88v124zM115 729h95l137 -129h-83z" />
    <glyph glyph-name="aacute" unicode="&#xe1;" horiz-adv-x="627" 
d="M174.5 27q-58.5 34 -92.5 92.5t-34 127.5q0 68 34 126.5t92.5 92.5t127.5 34q67 0 118 -34t78.5 -91.5t27.5 -127.5t-27.5 -128t-78.5 -92t-118 -34q-69 0 -127.5 34zM392 98q39 23 61.5 62.5t22.5 86.5t-22.5 86t-61.5 62t-86 23t-86 -23t-62 -62t-23 -86t23 -86.5
t62 -62.5t86 -23t86 23zM490 169l-14 3v125h88v-297h-74v169zM476 320l14 4v169h74v-297h-88v124zM385 729h95l-149 -129h-83z" />
    <glyph glyph-name="acircumflex" unicode="&#xe2;" horiz-adv-x="627" 
d="M174.5 27q-58.5 34 -92.5 92.5t-34 127.5q0 68 34 126.5t92.5 92.5t127.5 34q67 0 118 -34t78.5 -91.5t27.5 -127.5t-27.5 -128t-78.5 -92t-118 -34q-69 0 -127.5 34zM392 98q39 23 61.5 62.5t22.5 86.5t-22.5 86t-61.5 62t-86 23t-86 -23t-62 -62t-23 -86t23 -86.5
t62 -62.5t86 -23t86 23zM490 169l-14 3v125h88v-297h-74v169zM476 320l14 4v169h74v-297h-88v124zM305 685l-100 -87h-70l124 129h92l125 -129h-70z" />
    <glyph glyph-name="atilde" unicode="&#xe3;" horiz-adv-x="627" 
d="M174.5 27q-58.5 34 -92.5 92.5t-34 127.5q0 68 34 126.5t92.5 92.5t127.5 34q67 0 118 -34t78.5 -91.5t27.5 -127.5t-27.5 -128t-78.5 -92t-118 -34q-69 0 -127.5 34zM392 98q39 23 61.5 62.5t22.5 86.5t-22.5 86t-61.5 62t-86 23t-86 -23t-62 -62t-23 -86t23 -86.5
t62 -62.5t86 -23t86 23zM490 169l-14 3v125h88v-297h-74v169zM476 320l14 4v169h74v-297h-88v124zM340.5 610.5q-17.5 8.5 -42.5 28.5q-18 15 -29 21.5t-23 6.5q-22 0 -35.5 -16t-15.5 -44h-52q2 55 28 86.5t70 31.5q22 0 39.5 -8.5t41.5 -28.5q18 -15 29.5 -21.5t23.5 -6.5
q21 0 34.5 15.5t15.5 42.5h52q-2 -53 -28 -84.5t-69 -31.5q-22 0 -39.5 8.5z" />
    <glyph glyph-name="adieresis" unicode="&#xe4;" horiz-adv-x="627" 
d="M174.5 27q-58.5 34 -92.5 92.5t-34 127.5q0 68 34 126.5t92.5 92.5t127.5 34q67 0 118 -34t78.5 -91.5t27.5 -127.5t-27.5 -128t-78.5 -92t-118 -34q-69 0 -127.5 34zM392 98q39 23 61.5 62.5t22.5 86.5t-22.5 86t-61.5 62t-86 23t-86 -23t-62 -62t-23 -86t23 -86.5
t62 -62.5t86 -23t86 23zM490 169l-14 3v125h88v-297h-74v169zM476 320l14 4v169h74v-297h-88v124zM199 613q-16 16 -16 38t16 37.5t38 15.5t37 -15.5t15 -37.5q0 -23 -15 -38.5t-37 -15.5t-38 16zM331 613q-16 16 -16 38t16 37.5t38 15.5t37.5 -15.5t15.5 -37.5t-15.5 -38
t-37.5 -16t-38 16z" />
    <glyph glyph-name="aring" unicode="&#xe5;" horiz-adv-x="627" 
d="M174.5 27q-58.5 34 -92.5 92.5t-34 127.5q0 68 34 126.5t92.5 92.5t127.5 34q67 0 118 -34t78.5 -91.5t27.5 -127.5t-27.5 -128t-78.5 -92t-118 -34q-69 0 -127.5 34zM392 98q39 23 61.5 62.5t22.5 86.5t-22.5 86t-61.5 62t-86 23t-86 -23t-62 -62t-23 -86t23 -86.5
t62 -62.5t86 -23t86 23zM490 169l-14 3v125h88v-297h-74v169zM476 320l14 4v169h74v-297h-88v124zM223 630q-32 31 -32 75q0 45 32 77t78 32t78.5 -32t32.5 -77q0 -44 -32 -75t-79 -31q-46 0 -78 31zM348.5 659q18.5 18 18.5 46t-19 47.5t-47 19.5t-46.5 -19t-18.5 -48
q0 -28 18.5 -46t46.5 -18q29 0 47.5 18z" />
    <glyph glyph-name="ae" unicode="&#xe6;" horiz-adv-x="1026" 
d="M174.5 27q-58.5 34 -92.5 92.5t-34 127.5q0 68 34 126.5t92.5 92.5t127.5 34q67 0 118 -34t78.5 -91.5t27.5 -127.5t-27.5 -128t-78.5 -92t-118 -34q-69 0 -127.5 34zM392 98q39 23 61.5 62.5t22.5 86.5t-22.5 86t-61.5 62t-86 23t-86 -23t-62 -62t-23 -86t23 -86.5
t62 -62.5t86 -23t86 23zM488 169l-12 3v125h81v-297h-69v169zM476 320l12 4v169h69v-297h-81v124zM622 27q-53 34 -82.5 92t-29.5 128t29.5 127.5t82 91.5t119.5 34q70 0 125.5 -34t87 -92t31.5 -127q0 -23 -2 -33l-65 33q0 48 -24 89.5t-64.5 65.5t-88.5 24t-88.5 -24
t-64.5 -65t-24 -90t23.5 -91t64 -66.5t89.5 -24.5q50 0 90.5 24t64.5 65l65 -31q-33 -61 -91 -95.5t-129 -34.5q-66 0 -119 34zM557 279h412l14 -65h-426v65z" />
    <glyph glyph-name="ccedilla" unicode="&#xe7;" horiz-adv-x="592" 
d="M175 27q-58 34 -92 92.5t-34 127.5t34 127t92 92t127 34q60 0 111 -25.5t85.5 -70t45.5 -100.5l-74 -11q-15 55 -60.5 90.5t-102.5 35.5q-47 0 -86 -23t-62 -62.5t-23 -86.5t23 -87t62 -63t86 -23q57 0 102.5 35.5t60.5 90.5l74 -11q-11 -56 -45.5 -100.5t-85.5 -70
t-111 -25.5q-69 0 -127 34zM205 -231l12 48l66 -1q27 0 41.5 12.5t14.5 33.5q0 20 -14.5 32.5t-38.5 12.5h-35l24 93h58l-16 -61q39 -4 61.5 -25.5t22.5 -54.5q0 -41 -33.5 -65.5t-88.5 -24.5h-74z" />
    <glyph glyph-name="egrave" unicode="&#xe8;" horiz-adv-x="589" 
d="M177 27q-58 34 -92 92.5t-34 127.5t34 127t92 92t127 34q70 0 126 -34t87.5 -92t31.5 -127q0 -18 -3 -33h-411q5 -41 29 -75.5t61 -54t80 -19.5q49 0 90 24t64 65l65 -31q-32 -60 -90 -95t-130 -35q-69 0 -127 34zM415.5 384.5q-47.5 41.5 -110.5 41.5q-64 0 -111.5 -41
t-56.5 -102h334q-8 60 -55.5 101.5zM124 728h95l137 -129h-83z" />
    <glyph glyph-name="eacute" unicode="&#xe9;" horiz-adv-x="589" 
d="M177 27q-58 34 -92 92.5t-34 127.5t34 127t92 92t127 34q70 0 126 -34t87.5 -92t31.5 -127q0 -18 -3 -33h-411q5 -41 29 -75.5t61 -54t80 -19.5q49 0 90 24t64 65l65 -31q-32 -60 -90 -95t-130 -35q-69 0 -127 34zM415.5 384.5q-47.5 41.5 -110.5 41.5q-64 0 -111.5 -41
t-56.5 -102h334q-8 60 -55.5 101.5zM393 728h95l-149 -129h-83z" />
    <glyph glyph-name="ecircumflex" unicode="&#xea;" horiz-adv-x="589" 
d="M177 27q-58 34 -92 92.5t-34 127.5t34 127t92 92t127 34q70 0 126 -34t87.5 -92t31.5 -127q0 -18 -3 -33h-411q5 -41 29 -75.5t61 -54t80 -19.5q49 0 90 24t64 65l65 -31q-32 -60 -90 -95t-130 -35q-69 0 -127 34zM415.5 384.5q-47.5 41.5 -110.5 41.5q-64 0 -111.5 -41
t-56.5 -102h334q-8 60 -55.5 101.5zM305 685l-100 -87h-70l124 129h92l125 -129h-70z" />
    <glyph glyph-name="edieresis" unicode="&#xeb;" horiz-adv-x="589" 
d="M177 27q-58 34 -92 92.5t-34 127.5t34 127t92 92t127 34q70 0 126 -34t87.5 -92t31.5 -127q0 -18 -3 -33h-411q5 -41 29 -75.5t61 -54t80 -19.5q49 0 90 24t64 65l65 -31q-32 -60 -90 -95t-130 -35q-69 0 -127 34zM415.5 384.5q-47.5 41.5 -110.5 41.5q-64 0 -111.5 -41
t-56.5 -102h334q-8 60 -55.5 101.5zM198 610q-16 16 -16 38t16 37.5t38 15.5t37 -15.5t15 -37.5q0 -23 -15 -38.5t-37 -15.5t-38 16zM330 610q-16 16 -16 38t16 37.5t38 15.5t37.5 -15.5t15.5 -37.5t-15.5 -38t-37.5 -16t-38 16z" />
    <glyph glyph-name="igrave" unicode="&#xec;" horiz-adv-x="217" 
d="M65 493h87v-493h-87v493zM-80 721h95l137 -129h-83z" />
    <glyph glyph-name="iacute" unicode="&#xed;" horiz-adv-x="217" 
d="M65 493h87v-493h-87v493zM202 721h95l-149 -128h-83z" />
    <glyph glyph-name="icircumflex" unicode="&#xee;" horiz-adv-x="217" 
d="M65 493h87v-493h-87v493zM109 680l-101 -87h-69l124 128h92l124 -128h-69z" />
    <glyph glyph-name="idieresis" unicode="&#xef;" horiz-adv-x="217" 
d="M65 493h87v-493h-87v493zM5 607.5q-16 15.5 -16 37.5t16 37.5t38 15.5t37.5 -15.5t15.5 -37.5t-15.5 -37.5t-37.5 -15.5t-38 15.5zM137.5 607.5q-15.5 15.5 -15.5 37.5t15.5 37.5t37.5 15.5t37.5 -15.5t15.5 -37.5t-15.5 -37.5t-37.5 -15.5t-37.5 15.5z" />
    <glyph glyph-name="eth" unicode="&#xf0;" horiz-adv-x="617" 
d="M181 23.5q-54 31.5 -85.5 85.5t-31.5 117q0 62 31.5 112.5t84.5 79t115 28.5q58 0 104 -35t58 -86q4 62 -13 128.5t-55.5 112t-96.5 45.5h-62v80h59q90 0 149 -58t85.5 -145t26.5 -178q0 -95 -29.5 -167t-86 -111.5t-136.5 -39.5q-63 0 -117 31.5zM374 92q34 20 54 54.5
t20 73.5q0 40 -20 74t-54 54t-74 20t-74 -20t-54 -54t-20 -74q0 -39 20 -73.5t54 -54.5t74 -20t74 20zM252 501l280 165l26 -42l-281 -165z" />
    <glyph glyph-name="ntilde" unicode="&#xf1;" horiz-adv-x="566" 
d="M417.5 342.5q-19.5 33.5 -52.5 53t-72 19.5q-38 0 -71 -19.5t-52.5 -53t-19.5 -72.5h-49q0 60 25.5 113t72.5 85t107 32q61 0 110.5 -30.5t78 -82.5t28.5 -114v-273h-86v270q0 39 -19.5 72.5zM63 493h73v-132l14 -9v-352h-87v493zM352.5 601.5q-17.5 8.5 -42.5 28.5
q-18 15 -29 21.5t-23 6.5q-22 0 -35.5 -16t-15.5 -44h-52q2 55 28 86.5t70 31.5q22 0 39.5 -8.5t41.5 -28.5q18 -15 29.5 -21.5t23.5 -6.5q21 0 34.5 15.5t15.5 42.5h52q-2 -53 -28 -84.5t-69 -31.5q-22 0 -39.5 8.5z" />
    <glyph glyph-name="ograve" unicode="&#xf2;" horiz-adv-x="612" 
d="M176.5 27q-59.5 34 -94 92.5t-34.5 127.5t34.5 127t94 92t129.5 34t129.5 -34t94 -92t34.5 -127t-34.5 -127.5t-94 -92.5t-129.5 -34t-129.5 34zM392 98q39 23 61.5 62.5t22.5 86.5t-22.5 86t-61.5 62t-86 23t-86 -23t-62 -62t-23 -86t23 -86.5t62 -62.5t86 -23t86 23z
M116 726h95l137 -129h-83z" />
    <glyph glyph-name="oacute" unicode="&#xf3;" horiz-adv-x="612" 
d="M176.5 27q-59.5 34 -94 92.5t-34.5 127.5t34.5 127t94 92t129.5 34t129.5 -34t94 -92t34.5 -127t-34.5 -127.5t-94 -92.5t-129.5 -34t-129.5 34zM392 98q39 23 61.5 62.5t22.5 86.5t-22.5 86t-61.5 62t-86 23t-86 -23t-62 -62t-23 -86t23 -86.5t62 -62.5t86 -23t86 23z
M392 725h95l-149 -129h-83z" />
    <glyph glyph-name="ocircumflex" unicode="&#xf4;" horiz-adv-x="612" 
d="M176.5 27q-59.5 34 -94 92.5t-34.5 127.5t34.5 127t94 92t129.5 34t129.5 -34t94 -92t34.5 -127t-34.5 -127.5t-94 -92.5t-129.5 -34t-129.5 34zM392 98q39 23 61.5 62.5t22.5 86.5t-22.5 86t-61.5 62t-86 23t-86 -23t-62 -62t-23 -86t23 -86.5t62 -62.5t86 -23t86 23z
M305 682l-100 -87h-70l124 129h92l125 -129h-70z" />
    <glyph glyph-name="otilde" unicode="&#xf5;" horiz-adv-x="612" 
d="M176.5 27q-59.5 34 -94 92.5t-34.5 127.5t34.5 127t94 92t129.5 34t129.5 -34t94 -92t34.5 -127t-34.5 -127.5t-94 -92.5t-129.5 -34t-129.5 34zM392 98q39 23 61.5 62.5t22.5 86.5t-22.5 86t-61.5 62t-86 23t-86 -23t-62 -62t-23 -86t23 -86.5t62 -62.5t86 -23t86 23z
M338.5 602.5q-17.5 8.5 -42.5 28.5q-18 15 -29 21.5t-23 6.5q-22 0 -35.5 -16t-15.5 -44h-52q2 55 28 86.5t70 31.5q22 0 39.5 -8.5t41.5 -28.5q18 -15 29.5 -21.5t23.5 -6.5q21 0 34.5 15.5t15.5 42.5h52q-2 -53 -28 -84.5t-69 -31.5q-22 0 -39.5 8.5z" />
    <glyph glyph-name="odieresis" unicode="&#xf6;" horiz-adv-x="612" 
d="M176.5 27q-59.5 34 -94 92.5t-34.5 127.5t34.5 127t94 92t129.5 34t129.5 -34t94 -92t34.5 -127t-34.5 -127.5t-94 -92.5t-129.5 -34t-129.5 34zM392 98q39 23 61.5 62.5t22.5 86.5t-22.5 86t-61.5 62t-86 23t-86 -23t-62 -62t-23 -86t23 -86.5t62 -62.5t86 -23t86 23z
M200 607q-16 16 -16 38t16 37.5t38 15.5t37 -15.5t15 -37.5q0 -23 -15 -38.5t-37 -15.5t-38 16zM332 607q-16 16 -16 38t16 37.5t38 15.5t37.5 -15.5t15.5 -37.5t-15.5 -38t-37.5 -16t-38 16z" />
    <glyph glyph-name="divide" unicode="&#xf7;" horiz-adv-x="583" 
d="M67 388h448v-77h-448v77zM248.5 110.5q-18.5 18.5 -18.5 43.5q0 26 18 44t43 18q27 0 44.5 -18.5t17.5 -43.5q0 -26 -18.5 -44t-43.5 -18q-24 0 -42.5 18.5zM248.5 502.5q-18.5 18.5 -18.5 43.5q0 26 18 44t43 18q27 0 44.5 -18.5t17.5 -43.5q0 -26 -18.5 -44t-43.5 -18
q-24 0 -42.5 18.5z" />
    <glyph glyph-name="oslash" unicode="&#xf8;" horiz-adv-x="612" 
d="M176.5 27q-59.5 34 -94 92.5t-34.5 127.5t34.5 127t94 92t129.5 34t129.5 -34t94 -92t34.5 -127t-34.5 -127.5t-94 -92.5t-129.5 -34t-129.5 34zM393 95.5q40 23.5 63 63.5t23 88q0 47 -23 87t-63 63.5t-87 23.5t-87 -23.5t-63.5 -63.5t-23.5 -87q0 -48 23.5 -88
t63.5 -63.5t87 -23.5t87 23.5zM242 -49h-76l209 596h76z" />
    <glyph glyph-name="ugrave" unicode="&#xf9;" horiz-adv-x="573" 
d="M149 23.5q-50 30.5 -78.5 82.5t-28.5 114v273h87v-271q0 -39 19.5 -72t52.5 -52.5t72 -19.5q38 0 71 19.5t52 52.5t19 72h49q0 -60 -25.5 -112.5t-72.5 -84.5t-107 -32t-110 30.5zM429 132l-14 8v353h88v-493h-74v132zM80 722h95l137 -129h-83z" />
    <glyph glyph-name="uacute" unicode="&#xfa;" horiz-adv-x="573" 
d="M149 23.5q-50 30.5 -78.5 82.5t-28.5 114v273h87v-271q0 -39 19.5 -72t52.5 -52.5t72 -19.5q38 0 71 19.5t52 52.5t19 72h49q0 -60 -25.5 -112.5t-72.5 -84.5t-107 -32t-110 30.5zM429 132l-14 8v353h88v-493h-74v132zM361 720h95l-149 -129h-83z" />
    <glyph glyph-name="ucircumflex" unicode="&#xfb;" horiz-adv-x="573" 
d="M149 23.5q-50 30.5 -78.5 82.5t-28.5 114v273h87v-271q0 -39 19.5 -72t52.5 -52.5t72 -19.5q38 0 71 19.5t52 52.5t19 72h49q0 -60 -25.5 -112.5t-72.5 -84.5t-107 -32t-110 30.5zM429 132l-14 8v353h88v-493h-74v132zM283 679l-100 -87h-70l124 129h92l125 -129h-70z
" />
    <glyph glyph-name="udieresis" unicode="&#xfc;" horiz-adv-x="573" 
d="M149 23.5q-50 30.5 -78.5 82.5t-28.5 114v273h87v-271q0 -39 19.5 -72t52.5 -52.5t72 -19.5q38 0 71 19.5t52 52.5t19 72h49q0 -60 -25.5 -112.5t-72.5 -84.5t-107 -32t-110 30.5zM429 132l-14 8v353h88v-493h-74v132zM171 607q-16 16 -16 38t16 37.5t38 15.5t37 -15.5
t15 -37.5q0 -23 -15 -38.5t-37 -15.5t-38 16zM303 607q-16 16 -16 38t16 37.5t38 15.5t37.5 -15.5t15.5 -37.5t-15.5 -38t-37.5 -16t-38 16z" />
    <glyph glyph-name="yacute" unicode="&#xfd;" horiz-adv-x="534" 
d="M38 -148h71q69 0 96 65l215 576h88l-220 -593q-19 -60 -64 -95.5t-111 -35.5h-75v83zM15 493h89l175 -493h-88zM353 723h95l-149 -129h-83z" />
    <glyph glyph-name="thorn" unicode="&#xfe;" horiz-adv-x="636" 
d="M215.5 27q-50.5 34 -78 92t-27.5 128t27.5 127.5t78 91.5t118.5 34q69 0 127 -34t92 -92.5t34 -127.5t-34 -127t-92 -92t-127 -34q-68 0 -118.5 34zM72 695h86v-320l1 -22v-544h-87v886zM415 97q39 23 62 63t23 87t-23 86t-62 62t-85 23q-47 0 -86 -23t-62 -62t-23 -86
t23 -87t62 -63t86 -23q46 0 85 23z" />
    <glyph glyph-name="ydieresis" unicode="&#xff;" horiz-adv-x="534" 
d="M38 -148h71q69 0 96 65l215 576h88l-220 -593q-19 -60 -64 -95.5t-111 -35.5h-75v83zM15 493h89l175 -493h-88zM162 607q-16 16 -16 38t16 37.5t38 15.5t37 -15.5t15 -37.5q0 -23 -15 -38.5t-37 -15.5t-38 16zM294 607q-16 16 -16 38t16 37.5t38 15.5t37.5 -15.5
t15.5 -37.5t-15.5 -38t-37.5 -16t-38 16z" />
    <glyph glyph-name="Amacron" unicode="&#x100;" horiz-adv-x="647" 
d="M274 684h93l-264 -684h-92zM283 684h92l263 -684h-92zM166 252h323v-82h-323v82zM463 765h-284v57h284v-57z" />
    <glyph glyph-name="amacron" unicode="&#x101;" horiz-adv-x="627" 
d="M174.5 27q-58.5 34 -92.5 92.5t-34 127.5q0 68 34 126.5t92.5 92.5t127.5 34q67 0 118 -34t78.5 -91.5t27.5 -127.5t-27.5 -128t-78.5 -92t-118 -34q-69 0 -127.5 34zM392 98q39 23 61.5 62.5t22.5 86.5t-22.5 86t-61.5 62t-86 23t-86 -23t-62 -62t-23 -86t23 -86.5
t62 -62.5t86 -23t86 23zM490 169l-14 3v125h88v-297h-74v169zM476 320l14 4v169h74v-297h-88v124zM440 600h-284v57h284v-57z" />
    <glyph glyph-name="Abreve" unicode="&#x102;" horiz-adv-x="647" 
d="M274 684h93l-264 -684h-92zM283 684h92l263 -684h-92zM166 252h323v-82h-323v82zM207 802q-45 37 -47 97h63q1 -36 28.5 -58.5t69.5 -22.5t69.5 22.5t28.5 58.5h63q-2 -60 -47 -97t-114 -37t-114 37z" />
    <glyph glyph-name="abreve" unicode="&#x103;" horiz-adv-x="627" 
d="M174.5 27q-58.5 34 -92.5 92.5t-34 127.5q0 68 34 126.5t92.5 92.5t127.5 34q67 0 118 -34t78.5 -91.5t27.5 -127.5t-27.5 -128t-78.5 -92t-118 -34q-69 0 -127.5 34zM392 98q39 23 61.5 62.5t22.5 86.5t-22.5 86t-61.5 62t-86 23t-86 -23t-62 -62t-23 -86t23 -86.5
t62 -62.5t86 -23t86 23zM490 169l-14 3v125h88v-297h-74v169zM476 320l14 4v169h74v-297h-88v124zM183 636q-45 37 -47 97h63q1 -36 28.5 -58.5t69.5 -22.5t69.5 22.5t28.5 58.5h63q-2 -60 -47 -97t-114 -37t-114 37z" />
    <glyph glyph-name="Aogonek" unicode="&#x104;" horiz-adv-x="647" 
d="M274 684h93l-264 -684h-92zM283 684h92l263 -684h-92zM166 252h323v-82h-323v82zM482.5 -197.5q-31.5 26.5 -31.5 72.5q0 96 149 154l36 -29q-63 -27 -92.5 -56t-29.5 -62q0 -25 17 -39.5t47 -14.5h60v-52h-71q-53 0 -84.5 26.5z" />
    <glyph glyph-name="aogonek" unicode="&#x105;" horiz-adv-x="627" 
d="M174.5 27q-58.5 34 -92.5 92.5t-34 127.5q0 68 34 126.5t92.5 92.5t127.5 34q67 0 118 -34t78.5 -91.5t27.5 -127.5t-27.5 -128t-78.5 -92t-118 -34q-69 0 -127.5 34zM392 98q39 23 61.5 62.5t22.5 86.5t-22.5 86t-61.5 62t-86 23t-86 -23t-62 -62t-23 -86t23 -86.5
t62 -62.5t86 -23t86 23zM490 169l-14 3v125h88v-297h-74v169zM476 320l14 4v169h74v-297h-88v124zM410 -197.5q-32 26.5 -32 72.5q0 96 149 154l37 -29q-63 -27 -92.5 -56t-29.5 -62q0 -25 17 -39.5t47 -14.5h60v-52h-71q-53 0 -85 26.5z" />
    <glyph glyph-name="Cacute" unicode="&#x106;" horiz-adv-x="768" 
d="M227.5 33q-77.5 48 -123 130t-45.5 179t45.5 179t123 130t168.5 48q75 0 141 -33t113.5 -91t67.5 -131l-75 -11q-27 81 -93.5 132.5t-148.5 51.5q-69 0 -127.5 -37t-93 -100t-34.5 -138q0 -74 34.5 -137t93 -100t127.5 -37q82 0 148.5 51.5t93.5 132.5l75 -10
q-20 -74 -67.5 -132.5t-113.5 -91.5t-141 -33q-91 0 -168.5 48zM484 903h95l-149 -129h-83z" />
    <glyph glyph-name="cacute" unicode="&#x107;" horiz-adv-x="592" 
d="M175 27q-58 34 -92 92.5t-34 127.5t34 127t92 92t127 34q60 0 111 -25.5t85.5 -70t45.5 -100.5l-74 -11q-15 55 -60.5 90.5t-102.5 35.5q-47 0 -86 -23t-62 -62.5t-23 -86.5t23 -87t62 -63t86 -23q57 0 102.5 35.5t60.5 90.5l74 -11q-11 -56 -45.5 -100.5t-85.5 -70
t-111 -25.5q-69 0 -127 34zM388 729h95l-149 -129h-83z" />
    <glyph glyph-name="Cdotaccent" unicode="&#x10a;" horiz-adv-x="768" 
d="M227.5 33q-77.5 48 -123 130t-45.5 179t45.5 179t123 130t168.5 48q75 0 141 -33t113.5 -91t67.5 -131l-75 -11q-27 81 -93.5 132.5t-148.5 51.5q-69 0 -127.5 -37t-93 -100t-34.5 -138q0 -74 34.5 -137t93 -100t127.5 -37q82 0 148.5 51.5t93.5 132.5l75 -10
q-20 -74 -67.5 -132.5t-113.5 -91.5t-141 -33q-91 0 -168.5 48zM359 792q-16 16 -16 38t16 37.5t38 15.5t37 -15.5t15 -37.5q0 -23 -15 -38.5t-37 -15.5t-38 16z" />
    <glyph glyph-name="cdotaccent" unicode="&#x10b;" horiz-adv-x="592" 
d="M175 27q-58 34 -92 92.5t-34 127.5t34 127t92 92t127 34q60 0 111 -25.5t85.5 -70t45.5 -100.5l-74 -11q-15 55 -60.5 90.5t-102.5 35.5q-47 0 -86 -23t-62 -62.5t-23 -86.5t23 -87t62 -63t86 -23q57 0 102.5 35.5t60.5 90.5l74 -11q-11 -56 -45.5 -100.5t-85.5 -70
t-111 -25.5q-69 0 -127 34zM264 614q-16 16 -16 38t16 37.5t38 15.5t37 -15.5t15 -37.5q0 -23 -15 -38.5t-37 -15.5t-38 16z" />
    <glyph glyph-name="Ccaron" unicode="&#x10c;" horiz-adv-x="768" 
d="M227.5 33q-77.5 48 -123 130t-45.5 179t45.5 179t123 130t168.5 48q75 0 141 -33t113.5 -91t67.5 -131l-75 -11q-27 81 -93.5 132.5t-148.5 51.5q-69 0 -127.5 -37t-93 -100t-34.5 -138q0 -74 34.5 -137t93 -100t127.5 -37q82 0 148.5 51.5t93.5 132.5l75 -10
q-20 -74 -67.5 -132.5t-113.5 -91.5t-141 -33q-91 0 -168.5 48zM439 775h-92l-124 129h70l100 -87l101 87h70z" />
    <glyph glyph-name="ccaron" unicode="&#x10d;" horiz-adv-x="592" 
d="M175 27q-58 34 -92 92.5t-34 127.5t34 127t92 92t127 34q60 0 111 -25.5t85.5 -70t45.5 -100.5l-74 -11q-15 55 -60.5 90.5t-102.5 35.5q-47 0 -86 -23t-62 -62.5t-23 -86.5t23 -87t62 -63t86 -23q57 0 102.5 35.5t60.5 90.5l74 -11q-11 -56 -45.5 -100.5t-85.5 -70
t-111 -25.5q-69 0 -127 34zM349 599h-92l-124 129h70l100 -87l101 87h70z" />
    <glyph glyph-name="Dcaron" unicode="&#x10e;" horiz-adv-x="686" 
d="M73 684h212q92 0 171 -46t125 -124.5t46 -170.5q0 -93 -46 -172t-125 -125t-171 -46h-212v684zM408.5 113.5q60.5 35.5 96 96.5t35.5 133q0 71 -35.5 131.5t-96 95.5t-132.5 35h-116v-527h116q72 0 132.5 35.5zM319 765h-92l-124 129h70l100 -87l101 87h70z" />
    <glyph glyph-name="dcaron" unicode="&#x10f;" horiz-adv-x="645" 
d="M175.5 27q-58.5 34 -92.5 92.5t-34 127.5q0 68 34 126.5t92.5 92.5t127.5 34q67 0 118 -34t78.5 -91.5t27.5 -127.5t-27.5 -128t-78.5 -92t-118 -34q-69 0 -127.5 34zM392 98q39 23 62 62.5t23 86.5t-23 86t-62 62t-85 23q-47 0 -86 -23t-62 -62t-23 -86t23 -86.5
t62 -62.5t86 -23q46 0 85 23zM491 137l-14 3v574h87v-714h-73v137zM565 813h-92l-124 129h70l100 -87l101 87h70z" />
    <glyph glyph-name="Dcroat" unicode="&#x110;" horiz-adv-x="737" 
d="M124 684h212q93 0 171.5 -46t124.5 -124.5t46 -170.5q0 -93 -46 -172t-124.5 -125t-171.5 -46h-212v684zM460 113.5q60 35.5 95.5 96.5t35.5 133q0 71 -35 131.5t-95.5 95.5t-132.5 35h-116v-527h116q72 0 132 35.5zM16 379h318v-75h-318v75z" />
    <glyph glyph-name="dcroat" unicode="&#x111;" horiz-adv-x="669" 
d="M175.5 27q-58.5 34 -92.5 92.5t-34 127.5q0 68 34 126.5t92.5 92.5t127.5 34q67 0 118 -34t78.5 -91.5t27.5 -127.5t-27.5 -128t-78.5 -92t-118 -34q-69 0 -127.5 34zM392 98q39 23 62 62.5t23 86.5t-23 86t-62 62t-85 23q-47 0 -86 -23t-62 -62t-23 -86t23 -86.5
t62 -62.5t86 -23q46 0 85 23zM491 137l-14 3v574h87v-714h-73v137zM389 640h243v-75h-243v75z" />
    <glyph glyph-name="Emacron" unicode="&#x112;" horiz-adv-x="559" 
d="M73 684h439v-81l-353 1v-225h319v-75h-319v-224h353v-80h-439v684zM441 765h-284v57h284v-57z" />
    <glyph glyph-name="emacron" unicode="&#x113;" horiz-adv-x="589" 
d="M177 27q-58 34 -92 92.5t-34 127.5t34 127t92 92t127 34q70 0 126 -34t87.5 -92t31.5 -127q0 -18 -3 -33h-411q5 -41 29 -75.5t61 -54t80 -19.5q49 0 90 24t64 65l65 -31q-32 -60 -90 -95t-130 -35q-69 0 -127 34zM415.5 384.5q-47.5 41.5 -110.5 41.5q-64 0 -111.5 -41
t-56.5 -102h334q-8 60 -55.5 101.5zM444 600h-284v57h284v-57z" />
    <glyph glyph-name="Edotaccent" unicode="&#x116;" horiz-adv-x="559" 
d="M73 684h439v-81l-353 1v-225h319v-75h-319v-224h353v-80h-439v684zM267 780q-16 16 -16 38t16 37.5t38 15.5t37 -15.5t15 -37.5q0 -23 -15 -38.5t-37 -15.5t-38 16z" />
    <glyph glyph-name="edotaccent" unicode="&#x117;" horiz-adv-x="589" 
d="M177 27q-58 34 -92 92.5t-34 127.5t34 127t92 92t127 34q70 0 126 -34t87.5 -92t31.5 -127q0 -18 -3 -33h-411q5 -41 29 -75.5t61 -54t80 -19.5q49 0 90 24t64 65l65 -31q-32 -60 -90 -95t-130 -35q-69 0 -127 34zM415.5 384.5q-47.5 41.5 -110.5 41.5q-64 0 -111.5 -41
t-56.5 -102h334q-8 60 -55.5 101.5zM267 615q-16 16 -16 38t16 37.5t38 15.5t37 -15.5t15 -37.5q0 -23 -15 -38.5t-37 -15.5t-38 16z" />
    <glyph glyph-name="Eogonek" unicode="&#x118;" horiz-adv-x="559" 
d="M73 684h439v-81l-353 1v-225h319v-75h-319v-224h353v-80h-439v684zM358 -197.5q-32 26.5 -32 72.5q0 96 149 154l37 -29q-63 -27 -92.5 -56t-29.5 -62q0 -25 17 -39.5t47 -14.5h60v-52h-71q-53 0 -85 26.5z" />
    <glyph glyph-name="eogonek" unicode="&#x119;" horiz-adv-x="589" 
d="M177 27q-58 34 -92 92.5t-34 127.5t34 127t92 92t127 34q70 0 126 -34t87.5 -92t31.5 -127q0 -18 -3 -33h-411q5 -41 29 -75.5t61 -54t80 -19.5q49 0 90 24t64 65l65 -31q-32 -60 -90 -95t-130 -35q-69 0 -127 34zM415.5 384.5q-47.5 41.5 -110.5 41.5q-64 0 -111.5 -41
t-56.5 -102h334q-8 60 -55.5 101.5zM214 -195.5q-32 26.5 -32 72.5q0 47 38 86.5t111 67.5l36 -29q-63 -27 -92.5 -56t-29.5 -62q0 -25 17 -39.5t47 -14.5h60v-52h-70q-53 0 -85 26.5z" />
    <glyph glyph-name="Ecaron" unicode="&#x11a;" horiz-adv-x="559" 
d="M73 684h439v-81l-353 1v-225h319v-75h-319v-224h353v-80h-439v684zM349 765h-92l-124 129h70l100 -87l101 87h70z" />
    <glyph glyph-name="ecaron" unicode="&#x11b;" horiz-adv-x="589" 
d="M177 27q-58 34 -92 92.5t-34 127.5t34 127t92 92t127 34q70 0 126 -34t87.5 -92t31.5 -127q0 -18 -3 -33h-411q5 -41 29 -75.5t61 -54t80 -19.5q49 0 90 24t64 65l65 -31q-32 -60 -90 -95t-130 -35q-69 0 -127 34zM415.5 384.5q-47.5 41.5 -110.5 41.5q-64 0 -111.5 -41
t-56.5 -102h334q-8 60 -55.5 101.5zM350 600h-92l-124 129h70l100 -87l101 87h70z" />
    <glyph glyph-name="Gbreve" unicode="&#x11e;" horiz-adv-x="781" 
d="M221.5 33q-77.5 48 -123 130t-45.5 179t45.5 179t123 130t168.5 48q103 0 187.5 -60.5t122.5 -158.5l-71 -24q-30 72 -93.5 116.5t-139.5 44.5q-69 0 -128 -37t-93.5 -100t-34.5 -138q0 -74 34.5 -137t93.5 -100t128 -37q65 0 121.5 33.5t91.5 91t39 126.5l80 23
q0 -97 -45.5 -179t-123 -130t-169.5 -48q-91 0 -168.5 48zM369 368h359v-26l-13 -45h-346v71zM265 810q-45 37 -47 97h63q1 -36 28.5 -58.5t69.5 -22.5t69.5 22.5t28.5 58.5h63q-2 -60 -47 -97t-114 -37t-114 37z" />
    <glyph glyph-name="gbreve" unicode="&#x11f;" horiz-adv-x="620" 
d="M144 -145h186q42 0 78.5 21.5t58 58.5t21.5 81v350l3 4v123h73v-476q0 -66 -32 -122t-87.5 -88.5t-120.5 -32.5h-180v81zM175 27q-58 34 -92 92.5t-34 127.5q0 68 34 126.5t92 92.5t127 34q68 0 119 -34t78.5 -91.5t27.5 -127.5t-27.5 -128t-78.5 -92t-119 -34
q-69 0 -127 34zM392 97q39 23 62 63t23 87t-23 86t-62 62t-85 23q-47 0 -86 -23t-62 -62t-23 -86t23 -87t62 -63t86 -23q46 0 85 23zM182 637q-45 37 -47 97h63q1 -36 28.5 -58.5t69.5 -22.5t69.5 22.5t28.5 58.5h63q-2 -60 -47 -97t-114 -37t-114 37z" />
    <glyph glyph-name="Gdotaccent" unicode="&#x120;" horiz-adv-x="781" 
d="M221.5 33q-77.5 48 -123 130t-45.5 179t45.5 179t123 130t168.5 48q103 0 187.5 -60.5t122.5 -158.5l-71 -24q-30 72 -93.5 116.5t-139.5 44.5q-69 0 -128 -37t-93.5 -100t-34.5 -138q0 -74 34.5 -137t93.5 -100t128 -37q65 0 121.5 33.5t91.5 91t39 126.5l80 23
q0 -97 -45.5 -179t-123 -130t-169.5 -48q-91 0 -168.5 48zM369 368h359v-26l-13 -45h-346v71zM351 788q-16 16 -16 38t16 37.5t38 15.5t37 -15.5t15 -37.5q0 -23 -15 -38.5t-37 -15.5t-38 16z" />
    <glyph glyph-name="gdotaccent" unicode="&#x121;" horiz-adv-x="620" 
d="M144 -145h186q42 0 78.5 21.5t58 58.5t21.5 81v350l3 4v123h73v-476q0 -66 -32 -122t-87.5 -88.5t-120.5 -32.5h-180v81zM175 27q-58 34 -92 92.5t-34 127.5q0 68 34 126.5t92 92.5t127 34q68 0 119 -34t78.5 -91.5t27.5 -127.5t-27.5 -128t-78.5 -92t-119 -34
q-69 0 -127 34zM392 97q39 23 62 63t23 87t-23 86t-62 62t-85 23q-47 0 -86 -23t-62 -62t-23 -86t23 -87t62 -63t86 -23q46 0 85 23zM264 615q-16 16 -16 38t16 37.5t38 15.5t37 -15.5t15 -37.5q0 -23 -15 -38.5t-37 -15.5t-38 16z" />
    <glyph glyph-name="uni0122" unicode="&#x122;" horiz-adv-x="781" 
d="M221.5 33q-77.5 48 -123 130t-45.5 179t45.5 179t123 130t168.5 48q103 0 187.5 -60.5t122.5 -158.5l-71 -24q-30 72 -93.5 116.5t-139.5 44.5q-69 0 -128 -37t-93.5 -100t-34.5 -138q0 -74 34.5 -137t93.5 -100t128 -37q65 0 121.5 33.5t91.5 91t39 126.5l80 23
q0 -97 -45.5 -179t-123 -130t-169.5 -48q-91 0 -168.5 48zM369 368h359v-26l-13 -45h-346v71zM364.5 -249q17.5 39 19.5 43q-20 -2 -37.5 14.5t-17.5 40.5q0 26 18.5 44t44.5 18q27 0 44 -18.5t17 -46.5q0 -90 -96 -225l-50 33q40 58 57.5 97z" />
    <glyph glyph-name="uni0123" unicode="&#x123;" horiz-adv-x="620" 
d="M144 -145h186q42 0 78.5 21.5t58 58.5t21.5 81v350l3 4v123h73v-476q0 -66 -32 -122t-87.5 -88.5t-120.5 -32.5h-180v81zM175 27q-58 34 -92 92.5t-34 127.5q0 68 34 126.5t92 92.5t127 34q68 0 119 -34t78.5 -91.5t27.5 -127.5t-27.5 -128t-78.5 -92t-119 -34
q-69 0 -127 34zM392 97q39 23 62 63t23 87t-23 86t-62 62t-85 23q-47 0 -86 -23t-62 -62t-23 -86t23 -87t62 -63t86 -23q46 0 85 23zM330.5 759q-17.5 -39 -20.5 -44q19 2 37 -15t18 -40q0 -26 -18.5 -44t-44.5 -18q-27 0 -44 18.5t-17 46.5q0 90 96 225l50 -34
q-39 -56 -56.5 -95z" />
    <glyph glyph-name="Hbar" unicode="&#x126;" horiz-adv-x="692" 
d="M81 684h87v-305h356v305h87v-684h-87v304h-356v-304h-87v684zM42 579h608v-75h-608v75z" />
    <glyph glyph-name="hbar" unicode="&#x127;" horiz-adv-x="607" 
d="M458.5 341.5q-19.5 33.5 -52.5 53t-72 19.5q-38 0 -71 -19.5t-52.5 -53t-19.5 -72.5h-49q0 60 25.5 112.5t72.5 84.5t107 32q61 0 110.5 -30.5t78 -82.5t28.5 -114v-271h-86v269q0 39 -19.5 72.5zM104 714h87v-714h-87v714zM37 644h243v-75h-243v75z" />
    <glyph glyph-name="Imacron" unicode="&#x12a;" horiz-adv-x="231" 
d="M73 0v684h87v-684h-87zM258 765h-284v57h284v-57z" />
    <glyph glyph-name="imacron" unicode="&#x12b;" horiz-adv-x="217" 
d="M65 493h87v-493h-87v493zM251 593h-284v57h284v-57z" />
    <glyph glyph-name="Iogonek" unicode="&#x12e;" horiz-adv-x="231" 
d="M73 0v684h87v-684h-87zM7 -197.5q-32 26.5 -32 72.5q0 96 149 154l36 -29q-63 -27 -92.5 -56t-29.5 -62q0 -25 17 -39.5t47 -14.5h61v-52h-71q-53 0 -85 26.5z" />
    <glyph glyph-name="iogonek" unicode="&#x12f;" horiz-adv-x="217" 
d="M65 493h87v-493h-87v493zM-1 -197.5q-32 26.5 -32 72.5q0 96 149 154l36 -29q-63 -27 -92.5 -56t-29.5 -62q0 -25 17 -39.5t47 -14.5h60v-52h-70q-53 0 -85 26.5z" />
    <glyph glyph-name="Idotaccent" unicode="&#x130;" horiz-adv-x="231" 
d="M73 0v684h87v-684h-87zM81 780q-16 16 -16 38t16 37.5t38 15.5t37 -15.5t15 -37.5q0 -23 -15 -38.5t-37 -15.5t-38 16z" />
    <glyph glyph-name="dotlessi" unicode="&#x131;" horiz-adv-x="217" 
d="M65 493h87v-493h-87v493z" />
    <glyph glyph-name="uni0136" unicode="&#x136;" horiz-adv-x="617" 
d="M590 684l-433 -445l-4 126l324 319h113zM160 684v-684h-87v684h87zM290 398l310 -398h-103l-289 368zM274.5 -241q17.5 39 19.5 43q-20 -2 -37.5 14.5t-17.5 40.5q0 26 18.5 44t44.5 18q27 0 44 -18.5t17 -46.5q0 -90 -96 -225l-50 33q40 58 57.5 97z" />
    <glyph glyph-name="uni0137" unicode="&#x137;" horiz-adv-x="507" 
d="M212 242l54 72l219 -314h-102zM73 713h87v-713h-87v713zM160 304l199 189h108l-307 -308v119zM231.5 -260q17.5 39 19.5 43q-20 -2 -37.5 14.5t-17.5 40.5q0 26 18.5 44t44.5 18q27 0 44 -18.5t17 -46.5q0 -90 -96 -225l-50 33q40 58 57.5 97z" />
    <glyph glyph-name="Lacute" unicode="&#x139;" horiz-adv-x="482" 
d="M461 0h-388v684h87v-604h301v-80zM210 894h95l-149 -129h-83z" />
    <glyph glyph-name="lacute" unicode="&#x13a;" horiz-adv-x="248" 
d="M108 34.5q-35 34.5 -35 84.5v594h87v-600q0 -14 9.5 -23t23.5 -9h15v-81h-15q-50 0 -85 34.5zM217 941h95l-149 -129h-83z" />
    <glyph glyph-name="uni013B" unicode="&#x13b;" horiz-adv-x="482" 
d="M461 0h-388v684h87v-604h301v-80zM223.5 -241q17.5 39 19.5 43q-20 -2 -37.5 14.5t-17.5 40.5q0 26 18.5 44t44.5 18q27 0 44 -18.5t17 -46.5q0 -90 -96 -225l-50 33q40 58 57.5 97z" />
    <glyph glyph-name="uni013C" unicode="&#x13c;" horiz-adv-x="254" 
d="M108 34.5q-35 34.5 -35 84.5v594h87v-600q0 -14 9.5 -23t23.5 -9h15v-81h-15q-50 0 -85 34.5zM122.5 -260q17.5 39 19.5 43q-20 -2 -37.5 14.5t-17.5 40.5q0 26 18.5 44t44.5 18q27 0 44 -18.5t17 -46.5q0 -90 -96 -225l-50 33q40 58 57.5 97z" />
    <glyph glyph-name="Lcaron" unicode="&#x13d;" horiz-adv-x="482" 
d="M461 0h-388v684h87v-604h301v-80zM158 765h-92l-124 129h70l100 -87l101 87h70z" />
    <glyph glyph-name="lcaron" unicode="&#x13e;" horiz-adv-x="252" 
d="M108 34.5q-35 34.5 -35 84.5v594h87v-600q0 -14 9.5 -23t23.5 -9h15v-81h-15q-50 0 -85 34.5zM168 812h-92l-124 129h70l100 -87l101 87h70z" />
    <glyph glyph-name="Lslash" unicode="&#x141;" horiz-adv-x="526" 
d="M36 315l308 178l37 -66l-308 -177zM505 0h-388v683h87v-603h301v-80z" />
    <glyph glyph-name="lslash" unicode="&#x142;" horiz-adv-x="417" 
d="M36 315l308 178l37 -66l-308 -177zM193 34.5q-35 34.5 -35 84.5v594h87v-600q0 -14 9.5 -23t23.5 -9h15v-81h-15q-50 0 -85 34.5z" />
    <glyph glyph-name="Nacute" unicode="&#x143;" horiz-adv-x="705" 
d="M506 0l-349 557v-557h-84v684h109l367 -592v592h83v-684h-126zM439 894h95l-149 -129h-83z" />
    <glyph glyph-name="nacute" unicode="&#x144;" horiz-adv-x="566" 
d="M417.5 342.5q-19.5 33.5 -52.5 53t-72 19.5q-38 0 -71 -19.5t-52.5 -53t-19.5 -72.5h-49q0 60 25.5 113t72.5 85t107 32q61 0 110.5 -30.5t78 -82.5t28.5 -114v-273h-86v270q0 39 -19.5 72.5zM63 493h73v-132l14 -9v-352h-87v493zM390 728h95l-149 -129h-83z" />
    <glyph glyph-name="uni0145" unicode="&#x145;" horiz-adv-x="705" 
d="M506 0l-349 557v-557h-84v684h109l367 -592v592h83v-684h-126zM323.5 -241q17.5 39 19.5 43q-20 -2 -37.5 14.5t-17.5 40.5q0 26 18.5 44t44.5 18q27 0 44 -18.5t17 -46.5q0 -90 -96 -225l-50 33q40 58 57.5 97z" />
    <glyph glyph-name="uni0146" unicode="&#x146;" horiz-adv-x="566" 
d="M417.5 342.5q-19.5 33.5 -52.5 53t-72 19.5q-38 0 -71 -19.5t-52.5 -53t-19.5 -72.5h-49q0 60 25.5 113t72.5 85t107 32q61 0 110.5 -30.5t78 -82.5t28.5 -114v-273h-86v270q0 39 -19.5 72.5zM63 493h73v-132l14 -9v-352h-87v493zM265.5 -260q17.5 39 19.5 43
q-20 -2 -37.5 14.5t-17.5 40.5q0 26 18.5 44t44.5 18q27 0 44 -18.5t17 -46.5q0 -90 -96 -225l-50 33q40 58 57.5 97z" />
    <glyph glyph-name="Ncaron" unicode="&#x147;" horiz-adv-x="705" 
d="M506 0l-349 557v-557h-84v684h109l367 -592v592h83v-684h-126zM394 765h-92l-124 129h70l100 -87l101 87h70z" />
    <glyph glyph-name="ncaron" unicode="&#x148;" horiz-adv-x="566" 
d="M417.5 342.5q-19.5 33.5 -52.5 53t-72 19.5q-38 0 -71 -19.5t-52.5 -53t-19.5 -72.5h-49q0 60 25.5 113t72.5 85t107 32q61 0 110.5 -30.5t78 -82.5t28.5 -114v-273h-86v270q0 39 -19.5 72.5zM63 493h73v-132l14 -9v-352h-87v493zM351 597h-92l-124 129h70l100 -87
l101 87h70z" />
    <glyph glyph-name="Eng" unicode="&#x14a;" horiz-adv-x="705" 
d="M506 0l-349 556v-556h-84v683h109l367 -591v591h83v-683h-126zM412 -113h54q34 0 58.5 25t24.5 60v521h83v-521q0 -46 -22.5 -84t-61 -60.5t-83.5 -22.5h-53v82z" />
    <glyph glyph-name="eng" unicode="&#x14b;" horiz-adv-x="582" 
d="M417 342.5q-19 33.5 -52 53t-72 19.5q-38 0 -71 -19.5t-52.5 -53t-19.5 -72.5h-49q0 60 25.5 113t72.5 85t107 32q61 0 110.5 -30.5t78 -82.5t28.5 -114v-273h-87v270q0 39 -19 72.5zM63 493h73v-132l14 -9v-352h-87v493zM303 -113h50q34 0 58.5 25t24.5 60v230h87v-230
q0 -46 -22.5 -84t-60.5 -60.5t-83 -22.5h-54v82z" />
    <glyph glyph-name="Omacron" unicode="&#x14c;" horiz-adv-x="807" 
d="M231 33q-79 48 -125.5 130.5t-46.5 179.5q0 96 46.5 178t126 130t172.5 48t172.5 -48t126 -130t46.5 -178q0 -97 -46.5 -179.5t-126 -130.5t-172.5 -48q-94 0 -173 48zM533 105q59 37 93.5 100t34.5 138q0 74 -34.5 137t-93.5 100t-129 37t-129.5 -37t-94.5 -100
t-35 -137q0 -75 35 -138t94.5 -100t129.5 -37t129 37zM545 775h-284v57h284v-57z" />
    <glyph glyph-name="omacron" unicode="&#x14d;" horiz-adv-x="612" 
d="M176.5 27q-59.5 34 -94 92.5t-34.5 127.5t34.5 127t94 92t129.5 34t129.5 -34t94 -92t34.5 -127t-34.5 -127.5t-94 -92.5t-129.5 -34t-129.5 34zM392 98q39 23 61.5 62.5t22.5 86.5t-22.5 86t-61.5 62t-86 23t-86 -23t-62 -62t-23 -86t23 -86.5t62 -62.5t86 -23t86 23z
M447 598h-284v57h284v-57z" />
    <glyph glyph-name="Ohungarumlaut" unicode="&#x150;" horiz-adv-x="807" 
d="M231 33q-79 48 -125.5 130.5t-46.5 179.5q0 96 46.5 178t126 130t172.5 48t172.5 -48t126 -130t46.5 -178q0 -97 -46.5 -179.5t-126 -130.5t-172.5 -48q-94 0 -173 48zM533 105q59 37 93.5 100t34.5 138q0 74 -34.5 137t-93.5 100t-129 37t-129.5 -37t-94.5 -100
t-35 -137q0 -75 35 -138t94.5 -100t129.5 -37t129 37zM543 901h91l-129 -129h-81zM372 901h91l-129 -129h-81z" />
    <glyph glyph-name="ohungarumlaut" unicode="&#x151;" horiz-adv-x="612" 
d="M176.5 27q-59.5 34 -94 92.5t-34.5 127.5t34.5 127t94 92t129.5 34t129.5 -34t94 -92t34.5 -127t-34.5 -127.5t-94 -92.5t-129.5 -34t-129.5 34zM392 98q39 23 61.5 62.5t22.5 86.5t-22.5 86t-61.5 62t-86 23t-86 -23t-62 -62t-23 -86t23 -86.5t62 -62.5t86 -23t86 23z
M449 726h91l-129 -129h-81zM278 726h91l-129 -129h-81z" />
    <glyph glyph-name="OE" unicode="&#x152;" horiz-adv-x="1148" 
d="M231 33q-79 48 -125.5 130.5t-46.5 179.5q0 96 46.5 178t126 130t172.5 48t172.5 -48t126 -130t46.5 -178q0 -97 -46.5 -179.5t-126 -130.5t-172.5 -48q-94 0 -173 48zM533 105q59 37 93.5 100t34.5 138q0 74 -34.5 137t-93.5 100t-129 37t-129.5 -37t-94.5 -100
t-35 -137q0 -75 35 -138t94.5 -100t129.5 -37t129 37zM663 684h439v-81l-353 1v-225h318v-75h-318v-224h353v-80h-439v684z" />
    <glyph glyph-name="oe" unicode="&#x153;" horiz-adv-x="1017" 
d="M176.5 27q-59.5 34 -94 92.5t-34.5 127.5t34.5 127t94 92t129.5 34t129.5 -34t94 -92t34.5 -127t-34.5 -127.5t-94 -92.5t-129.5 -34t-129.5 34zM392 98q39 23 61.5 62.5t22.5 86.5t-22.5 86t-61.5 62t-86 23t-86 -23t-62 -62t-23 -86t23 -86.5t62 -62.5t86 -23t86 23z
M604 27q-58 34 -92 92.5t-34 127.5t34 127t92 92t127 34q70 0 126 -34t87.5 -92t31.5 -127q0 -13 -2 -33l-65 33q0 48 -24 89.5t-64.5 65.5t-88.5 24t-89 -24t-65 -65t-24 -90t23.5 -91t64.5 -66.5t90 -24.5q50 0 90.5 24t64.5 65l64 -31q-32 -61 -90 -95.5t-130 -34.5
q-69 0 -127 34zM548 279h411l15 -65h-426v65z" />
    <glyph glyph-name="Racute" unicode="&#x154;" horiz-adv-x="616" 
d="M73 684h257q59 0 108.5 -29t78.5 -78.5t29 -108.5t-29 -106t-78.5 -73.5t-108.5 -26.5h-170v-262h-87v684zM304 261h-169v46h166q56 0 93.5 -8.5t65.5 -32t47 -68.5l83 -198h-87l-75 177q-34 84 -124 84zM391 349.5q31 18.5 49.5 50t18.5 68.5q0 36 -18.5 67.5t-49.5 50
t-67 18.5h-164v-273h164q36 0 67 18.5zM358 894h95l-149 -129h-83z" />
    <glyph glyph-name="racute" unicode="&#x155;" horiz-adv-x="384" 
d="M63 493h73v-137l14 -3v-353h-87v493zM129.5 363q28.5 59 80.5 95t120 36h23v-80h-45q-42 0 -78.5 -21.5t-58 -58t-21.5 -79.5l-49 -17q0 66 28.5 125zM288 722h95l-149 -129h-83z" />
    <glyph glyph-name="uni0156" unicode="&#x156;" horiz-adv-x="616" 
d="M73 684h257q59 0 108.5 -29t78.5 -78.5t29 -108.5t-29 -106t-78.5 -73.5t-108.5 -26.5h-170v-262h-87v684zM304 261h-169v46h166q56 0 93.5 -8.5t65.5 -32t47 -68.5l83 -198h-87l-75 177q-34 84 -124 84zM391 349.5q31 18.5 49.5 50t18.5 68.5q0 36 -18.5 67.5t-49.5 50
t-67 18.5h-164v-273h164q36 0 67 18.5zM289.5 -241q17.5 39 19.5 43q-20 -2 -37.5 14.5t-17.5 40.5q0 26 18.5 44t44.5 18q27 0 44 -18.5t17 -46.5q0 -90 -96 -225l-50 33q40 58 57.5 97z" />
    <glyph glyph-name="uni0157" unicode="&#x157;" horiz-adv-x="384" 
d="M63 493h73v-137l14 -3v-353h-87v493zM129.5 363q28.5 59 80.5 95t120 36h23v-80h-45q-42 0 -78.5 -21.5t-58 -58t-21.5 -79.5l-49 -17q0 66 28.5 125zM96.5 -260q17.5 39 19.5 43q-20 -2 -37.5 14.5t-17.5 40.5q0 26 18.5 44t44.5 18q27 0 44 -18.5t17 -46.5
q0 -90 -96 -225l-50 33q40 58 57.5 97z" />
    <glyph glyph-name="Rcaron" unicode="&#x158;" horiz-adv-x="616" 
d="M73 684h257q59 0 108.5 -29t78.5 -78.5t29 -108.5t-29 -106t-78.5 -73.5t-108.5 -26.5h-170v-262h-87v684zM304 261h-169v46h166q56 0 93.5 -8.5t65.5 -32t47 -68.5l83 -198h-87l-75 177q-34 84 -124 84zM391 349.5q31 18.5 49.5 50t18.5 68.5q0 36 -18.5 67.5t-49.5 50
t-67 18.5h-164v-273h164q36 0 67 18.5zM326 765h-92l-124 129h70l100 -87l101 87h70z" />
    <glyph glyph-name="rcaron" unicode="&#x159;" horiz-adv-x="384" 
d="M63 493h73v-137l14 -3v-353h-87v493zM129.5 363q28.5 59 80.5 95t120 36h23v-80h-45q-42 0 -78.5 -21.5t-58 -58t-21.5 -79.5l-49 -17q0 66 28.5 125zM262 592h-92l-124 129h70l100 -87l101 87h70z" />
    <glyph glyph-name="Sacute" unicode="&#x15a;" horiz-adv-x="626" 
d="M173.5 6q-72.5 21 -124.5 55l31 72q44 -28 110 -47.5t126 -19.5q80 0 127 29t47 81q0 37 -22 59.5t-57 35t-101 29.5q-87 24 -137.5 49.5t-75 62.5t-24.5 94q0 60 33.5 104t92.5 67t133 23q104 0 222 -45l-29 -75q-102 38 -193 38q-79 0 -125.5 -30.5t-46.5 -82.5
q0 -38 20.5 -60.5t56 -35.5t103.5 -30q123 -31 180 -74.5t57 -121.5q0 -93 -72 -145.5t-186 -52.5q-73 0 -145.5 21zM406 904h95l-149 -129h-83z" />
    <glyph glyph-name="sacute" unicode="&#x15b;" horiz-adv-x="508" 
d="M146.5 10q-55.5 18 -97.5 50l37 58q82 -54 179 -54q115 0 115 69q0 31 -28.5 46.5t-88.5 28.5q-63 14 -103 30t-63 44.5t-23 74.5q0 64 51.5 103.5t140.5 39.5q48 0 95.5 -13.5t85.5 -35.5l-31 -61q-77 37 -150 37q-50 0 -78 -18.5t-28 -52.5q0 -35 27.5 -50t91.5 -26
q89 -17 138.5 -50.5t49.5 -94.5q0 -68 -53 -105.5t-149 -37.5q-63 0 -118.5 18zM352 730h95l-149 -129h-83z" />
    <glyph glyph-name="Scedilla" unicode="&#x15e;" horiz-adv-x="626" 
d="M173.5 6q-72.5 21 -124.5 55l31 72q44 -28 110 -47.5t126 -19.5q80 0 127 29t47 81q0 37 -22 59.5t-57 35t-101 29.5q-87 24 -137.5 49.5t-75 62.5t-24.5 94q0 60 33.5 104t92.5 67t133 23q104 0 222 -45l-29 -75q-102 38 -193 38q-79 0 -125.5 -30.5t-46.5 -82.5
q0 -38 20.5 -60.5t56 -35.5t103.5 -30q123 -31 180 -74.5t57 -121.5q0 -93 -72 -145.5t-186 -52.5q-73 0 -145.5 21zM219 -241l12 48h66q27 0 41.5 12t14.5 33t-14 33t-39 12h-35l24 94h58l-16 -62q39 -4 61.5 -25t22.5 -54q0 -41 -33.5 -66t-88.5 -25h-74z" />
    <glyph glyph-name="scedilla" unicode="&#x15f;" horiz-adv-x="508" 
d="M146.5 10q-55.5 18 -97.5 50l37 58q82 -54 179 -54q115 0 115 69q0 31 -28.5 46.5t-88.5 28.5q-63 14 -103 30t-63 44.5t-23 74.5q0 64 51.5 103.5t140.5 39.5q48 0 95.5 -13.5t85.5 -35.5l-31 -61q-77 37 -150 37q-50 0 -78 -18.5t-28 -52.5q0 -35 27.5 -50t91.5 -26
q89 -17 138.5 -50.5t49.5 -94.5q0 -68 -53 -105.5t-149 -37.5q-63 0 -118.5 18zM168 -231l13 48l65 -1q27 0 41.5 12.5t14.5 33.5q0 20 -14 32.5t-38 12.5h-36l25 93h57l-16 -61q40 -4 62 -25.5t22 -54.5q0 -41 -33.5 -65.5t-87.5 -24.5h-75z" />
    <glyph glyph-name="Scaron" unicode="&#x160;" horiz-adv-x="626" 
d="M173.5 6q-72.5 21 -124.5 55l31 72q44 -28 110 -47.5t126 -19.5q80 0 127 29t47 81q0 37 -22 59.5t-57 35t-101 29.5q-87 24 -137.5 49.5t-75 62.5t-24.5 94q0 60 33.5 104t92.5 67t133 23q104 0 222 -45l-29 -75q-102 38 -193 38q-79 0 -125.5 -30.5t-46.5 -82.5
q0 -38 20.5 -60.5t56 -35.5t103.5 -30q123 -31 180 -74.5t57 -121.5q0 -93 -72 -145.5t-186 -52.5q-73 0 -145.5 21zM369 775h-92l-124 129h70l100 -87l101 87h70z" />
    <glyph glyph-name="scaron" unicode="&#x161;" horiz-adv-x="508" 
d="M146.5 10q-55.5 18 -97.5 50l37 58q82 -54 179 -54q115 0 115 69q0 31 -28.5 46.5t-88.5 28.5q-63 14 -103 30t-63 44.5t-23 74.5q0 64 51.5 103.5t140.5 39.5q48 0 95.5 -13.5t85.5 -35.5l-31 -61q-77 37 -150 37q-50 0 -78 -18.5t-28 -52.5q0 -35 27.5 -50t91.5 -26
q89 -17 138.5 -50.5t49.5 -94.5q0 -68 -53 -105.5t-149 -37.5q-63 0 -118.5 18zM309 600h-92l-124 129h70l100 -87l101 87h70z" />
    <glyph glyph-name="uni0162" unicode="&#x162;" horiz-adv-x="505" 
d="M209 604h-194l-2 80h479v-80h-196v-604h-87v604zM168 -231l13 48l65 -1q27 0 41.5 12.5t14.5 33.5q0 20 -14 32.5t-39 12.5h-35l25 93h57l-16 -61q40 -4 62 -25.5t22 -54.5q0 -41 -33.5 -65.5t-87.5 -24.5h-75z" />
    <glyph glyph-name="uni0163" unicode="&#x163;" horiz-adv-x="436" 
d="M144 412h-120v81h363v-80h-157v-249q0 -35 24.5 -59t59.5 -24h83v-81h-87q-45 0 -83.5 22t-60.5 59.5t-22 82.5v248zM144 493v145h86v-145h-86zM176 -217l13 48h65q27 0 41.5 12t14.5 33t-14 33t-38 12h-36l25 94h57l-16 -62q40 -4 62 -25t22 -54q0 -41 -33.5 -66
t-87.5 -25h-75z" />
    <glyph glyph-name="Tcaron" unicode="&#x164;" horiz-adv-x="505" 
d="M209 604h-194l-2 80h479v-80h-196v-604h-87v604zM300 765h-92l-124 129h70l100 -87l101 87h70z" />
    <glyph glyph-name="tcaron" unicode="&#x165;" horiz-adv-x="436" 
d="M144 412h-120v81h363v-80h-157v-249q0 -35 24.5 -59t59.5 -24h83v-81h-87q-45 0 -83.5 22t-60.5 59.5t-22 82.5v248zM144 493v145h86v-145h-86zM233 736h-92l-124 129h70l100 -87l101 87h70z" />
    <glyph glyph-name="Tbar" unicode="&#x166;" horiz-adv-x="505" 
d="M94 379h318v-75h-318v75zM209 604h-194l-2 80h479v-80h-196v-604h-87v604z" />
    <glyph glyph-name="tbar" unicode="&#x167;" horiz-adv-x="557" 
d="M73 316h243v-58h-243v58zM144 412h-120v81h363v-80h-157v-249q0 -35 24.5 -59t59.5 -24h83v-81h-87q-45 0 -83.5 22t-60.5 59.5t-22 82.5v248zM144 493v145h86v-145h-86z" />
    <glyph glyph-name="Umacron" unicode="&#x16a;" horiz-adv-x="630" 
d="M190 28.5q-57 33.5 -90 91t-33 124.5v440h87v-445q0 -44 21.5 -81t58.5 -58.5t81 -21.5t81.5 21.5t59 58.5t21.5 81v445h87v-440q0 -67 -33.5 -124.5t-90.5 -91t-125 -33.5t-125 33.5zM458 765h-284v57h284v-57z" />
    <glyph glyph-name="umacron" unicode="&#x16b;" horiz-adv-x="573" 
d="M149 23.5q-50 30.5 -78.5 82.5t-28.5 114v273h87v-271q0 -39 19.5 -72t52.5 -52.5t72 -19.5q38 0 71 19.5t52 52.5t19 72h49q0 -60 -25.5 -112.5t-72.5 -84.5t-107 -32t-110 30.5zM429 132l-14 8v353h88v-493h-74v132zM418 592h-284v57h284v-57z" />
    <glyph glyph-name="Uring" unicode="&#x16e;" horiz-adv-x="630" 
d="M190 28.5q-57 33.5 -90 91t-33 124.5v440h87v-445q0 -44 21.5 -81t58.5 -58.5t81 -21.5t81.5 21.5t59 58.5t21.5 81v445h87v-440q0 -67 -33.5 -124.5t-90.5 -91t-125 -33.5t-125 33.5zM239 796q-32 31 -32 75q0 45 32 77t78 32t78.5 -32t32.5 -77q0 -44 -32 -75t-79 -31
q-46 0 -78 31zM364.5 825q18.5 18 18.5 46t-19 47.5t-47 19.5t-46.5 -19t-18.5 -48q0 -28 18.5 -46t46.5 -18q29 0 47.5 18z" />
    <glyph glyph-name="uring" unicode="&#x16f;" horiz-adv-x="573" 
d="M149 23.5q-50 30.5 -78.5 82.5t-28.5 114v273h87v-271q0 -39 19.5 -72t52.5 -52.5t72 -19.5q38 0 71 19.5t52 52.5t19 72h49q0 -60 -25.5 -112.5t-72.5 -84.5t-107 -32t-110 30.5zM429 132l-14 8v353h88v-493h-74v132zM191 624q-32 31 -32 75q0 45 32 77t78 32t78.5 -32
t32.5 -77q0 -44 -32 -75t-79 -31q-46 0 -78 31zM316.5 653q18.5 18 18.5 46t-19 47.5t-47 19.5t-46.5 -19t-18.5 -48q0 -28 18.5 -46t46.5 -18q29 0 47.5 18z" />
    <glyph glyph-name="Uhungarumlaut" unicode="&#x170;" horiz-adv-x="630" 
d="M190 28.5q-57 33.5 -90 91t-33 124.5v440h87v-445q0 -44 21.5 -81t58.5 -58.5t81 -21.5t81.5 21.5t59 58.5t21.5 81v445h87v-440q0 -67 -33.5 -124.5t-90.5 -91t-125 -33.5t-125 33.5zM463 894h91l-129 -129h-81zM292 894h91l-129 -129h-81z" />
    <glyph glyph-name="uhungarumlaut" unicode="&#x171;" horiz-adv-x="573" 
d="M149 23.5q-50 30.5 -78.5 82.5t-28.5 114v273h87v-271q0 -39 19.5 -72t52.5 -52.5t72 -19.5q38 0 71 19.5t52 52.5t19 72h49q0 -60 -25.5 -112.5t-72.5 -84.5t-107 -32t-110 30.5zM429 132l-14 8v353h88v-493h-74v132zM421 721h91l-129 -129h-81zM250 721h91l-129 -129
h-81z" />
    <glyph glyph-name="Uogonek" unicode="&#x172;" horiz-adv-x="630" 
d="M190 28.5q-57 33.5 -90 91t-33 124.5v440h87v-445q0 -44 21.5 -81t58.5 -58.5t81 -21.5t81.5 21.5t59 58.5t21.5 81v445h87v-440q0 -67 -33.5 -124.5t-90.5 -91t-125 -33.5t-125 33.5zM210 -194.5q-32 26.5 -32 72.5q0 47 38 86.5t111 67.5l36 -29q-63 -27 -92.5 -56
t-29.5 -62q0 -25 17 -39.5t47 -14.5h60v-52h-70q-53 0 -85 26.5z" />
    <glyph glyph-name="uogonek" unicode="&#x173;" horiz-adv-x="573" 
d="M149 23.5q-50 30.5 -78.5 82.5t-28.5 114v273h87v-271q0 -39 19.5 -72t52.5 -52.5t72 -19.5q38 0 71 19.5t52 52.5t19 72h49q0 -60 -25.5 -112.5t-72.5 -84.5t-107 -32t-110 30.5zM429 132l-14 8v353h88v-493h-74v132zM349 -197.5q-32 26.5 -32 72.5q0 96 149 154l37 -29
q-63 -27 -92.5 -56t-29.5 -62q0 -25 17 -39.5t47 -14.5h60v-52h-71q-53 0 -85 26.5z" />
    <glyph glyph-name="Wcircumflex" unicode="&#x174;" horiz-adv-x="850" 
d="M11 684h86l120 -592l156 544h105l157 -544l120 592h86l-149 -684h-116l-150 553l-151 -553h-116zM415 828l-100 -87h-70l124 129h92l125 -129h-70z" />
    <glyph glyph-name="wcircumflex" unicode="&#x175;" horiz-adv-x="699" 
d="M11 493h84l79 -367l140 335h76l140 -335l75 367h84l-98 -493h-90l-149 348l-149 -348h-90zM350 648l-100 -87h-70l124 129h92l125 -129h-70z" />
    <glyph glyph-name="Ycircumflex" unicode="&#x176;" horiz-adv-x="577" 
d="M244 210l-233 474h96l180 -369l183 369h97l-235 -474v-210h-88v210zM299 851l-100 -87h-70l124 129h92l125 -129h-70z" />
    <glyph glyph-name="ycircumflex" unicode="&#x177;" horiz-adv-x="534" 
d="M38 -148h71q69 0 96 65l215 576h88l-220 -593q-19 -60 -64 -95.5t-111 -35.5h-75v83zM15 493h89l175 -493h-88zM268 679l-100 -87h-70l124 129h92l125 -129h-70z" />
    <glyph glyph-name="Ydieresis" unicode="&#x178;" horiz-adv-x="577" 
d="M244 210l-233 474h96l180 -369l183 369h97l-235 -474v-210h-88v210zM193 780q-16 16 -16 38t16 37.5t38 15.5t37 -15.5t15 -37.5q0 -23 -15 -38.5t-37 -15.5t-38 16zM325 780q-16 16 -16 38t16 37.5t38 15.5t37.5 -15.5t15.5 -37.5t-15.5 -38t-37.5 -16t-38 16z" />
    <glyph glyph-name="Zacute" unicode="&#x179;" horiz-adv-x="556" 
d="M530 0h-503v92l393 512h-372v80h475v-92l-393 -512h399zM360 894h95l-149 -129h-83z" />
    <glyph glyph-name="zacute" unicode="&#x17a;" horiz-adv-x="485" 
d="M448 0h-411v85l289 328h-285v80h399v-86l-288 -327h296v-80zM318 722h95l-149 -129h-83z" />
    <glyph glyph-name="Zdotaccent" unicode="&#x17b;" horiz-adv-x="556" 
d="M530 0h-503v92l393 512h-372v80h475v-92l-393 -512h399zM256 780q-16 16 -16 38t16 37.5t38 15.5t37 -15.5t15 -37.5q0 -23 -15 -38.5t-37 -15.5t-38 16z" />
    <glyph glyph-name="zdotaccent" unicode="&#x17c;" horiz-adv-x="485" 
d="M448 0h-411v85l289 328h-285v80h399v-86l-288 -327h296v-80zM205 608q-16 16 -16 38t16 37.5t38 15.5t37 -15.5t15 -37.5q0 -23 -15 -38.5t-37 -15.5t-38 16z" />
    <glyph glyph-name="Zcaron" unicode="&#x17d;" horiz-adv-x="556" 
d="M530 0h-503v92l393 512h-372v80h475v-92l-393 -512h399zM341 765h-92l-124 129h70l100 -87l101 87h70z" />
    <glyph glyph-name="zcaron" unicode="&#x17e;" horiz-adv-x="485" 
d="M448 0h-411v85l289 328h-285v80h399v-86l-288 -327h296v-80zM291 593h-92l-124 129h70l100 -87l101 87h70z" />
    <glyph glyph-name="uni0218" unicode="&#x218;" horiz-adv-x="626" 
d="M173.5 6q-72.5 21 -124.5 55l31 72q44 -28 110 -47.5t126 -19.5q80 0 127 29t47 81q0 37 -22 59.5t-57 35t-101 29.5q-87 24 -137.5 49.5t-75 62.5t-24.5 94q0 60 33.5 104t92.5 67t133 23q104 0 222 -45l-29 -75q-102 38 -193 38q-79 0 -125.5 -30.5t-46.5 -82.5
q0 -38 20.5 -60.5t56 -35.5t103.5 -30q123 -31 180 -74.5t57 -121.5q0 -93 -72 -145.5t-186 -52.5q-73 0 -145.5 21zM283.5 -251q17.5 39 19.5 43q-20 -2 -37.5 14.5t-17.5 40.5q0 26 18.5 44t44.5 18q27 0 44 -18.5t17 -46.5q0 -90 -96 -225l-50 33q40 58 57.5 97z" />
    <glyph glyph-name="uni0219" unicode="&#x219;" horiz-adv-x="508" 
d="M146.5 10q-55.5 18 -97.5 50l37 58q82 -54 179 -54q115 0 115 69q0 31 -28.5 46.5t-88.5 28.5q-63 14 -103 30t-63 44.5t-23 74.5q0 64 51.5 103.5t140.5 39.5q48 0 95.5 -13.5t85.5 -35.5l-31 -61q-77 37 -150 37q-50 0 -78 -18.5t-28 -52.5q0 -35 27.5 -50t91.5 -26
q89 -17 138.5 -50.5t49.5 -94.5q0 -68 -53 -105.5t-149 -37.5q-63 0 -118.5 18zM238.5 -263q17.5 39 19.5 43q-20 -2 -37.5 14.5t-17.5 40.5q0 26 18.5 44t44.5 18q27 0 44 -18.5t17 -46.5q0 -90 -96 -225l-50 33q40 58 57.5 97z" />
    <glyph glyph-name="uni021A" unicode="&#x21a;" horiz-adv-x="505" 
d="M209 604h-194l-2 80h479v-80h-196v-604h-87v604zM226.5 -241q17.5 39 19.5 43q-20 -2 -37.5 14.5t-17.5 40.5q0 26 18.5 44t44.5 18q27 0 44 -18.5t17 -46.5q0 -90 -96 -225l-50 33q40 58 57.5 97z" />
    <glyph glyph-name="uni021B" unicode="&#x21b;" horiz-adv-x="436" 
d="M144 412h-120v81h363v-80h-157v-249q0 -35 24.5 -59t59.5 -24h83v-81h-87q-45 0 -83.5 22t-60.5 59.5t-22 82.5v248zM144 493v145h86v-145h-86zM237.5 -260q17.5 39 19.5 43q-20 -2 -37.5 14.5t-17.5 40.5q0 26 18.5 44t44.5 18q27 0 44 -18.5t17 -46.5q0 -90 -96 -225
l-50 33q40 58 57.5 97z" />
    <glyph glyph-name="tilde" unicode="&#x2dc;" horiz-adv-x="482" 
d="M270 619q-18 9 -41 29q-18 15 -29.5 21t-22.5 6q-21 0 -35 -15.5t-15 -44.5h-53q2 55 28 87.5t70 32.5q22 0 40 -9t41 -29q18 -15 29.5 -21t22.5 -6q21 0 34.5 15t15.5 43h53q-2 -53 -28.5 -85.5t-69.5 -32.5q-22 0 -40 9z" />
    <glyph glyph-name="gravecomb" unicode="&#x300;" 
d="M73 813h95l137 -129h-83z" />
    <glyph glyph-name="acutecomb" unicode="&#x301;" 
d="M210 813h95l-149 -129h-83z" />
    <glyph glyph-name="uni0302" unicode="&#x302;" 
d="M243 770l-100 -87h-70l124 129h92l125 -129h-70z" />
    <glyph glyph-name="tildecomb" unicode="&#x303;" 
d="M270.5 692.5q-17.5 8.5 -42.5 28.5q-18 15 -29 21.5t-23 6.5q-22 0 -35.5 -16t-15.5 -44h-52q2 55 28 86.5t70 31.5q22 0 39.5 -8.5t41.5 -28.5q18 -15 29.5 -21.5t23.5 -6.5q21 0 34.5 15.5t15.5 42.5h52q-2 -53 -28 -84.5t-69 -31.5q-22 0 -39.5 8.5z" />
    <glyph glyph-name="uni0304" unicode="&#x304;" 
d="M357 684h-284v57h284v-57z" />
    <glyph glyph-name="uni0306" unicode="&#x306;" 
d="M120 721q-45 37 -47 97h63q1 -36 28.5 -58.5t69.5 -22.5t69.5 22.5t28.5 58.5h63q-2 -60 -47 -97t-114 -37t-114 37z" />
    <glyph glyph-name="uni0307" unicode="&#x307;" 
d="M89 699q-16 16 -16 38t16 37.5t38 15.5t37 -15.5t15 -37.5q0 -23 -15 -38.5t-37 -15.5t-38 16z" />
    <glyph glyph-name="uni0308" unicode="&#x308;" 
d="M89 699q-16 16 -16 38t16 37.5t38 15.5t37 -15.5t15 -37.5q0 -23 -15 -38.5t-37 -15.5t-38 16zM221 699q-16 16 -16 38t16 37.5t38 15.5t37.5 -15.5t15.5 -37.5t-15.5 -38t-37.5 -16t-38 16z" />
    <glyph glyph-name="uni030A" unicode="&#x30a;" 
d="M105 715q-32 31 -32 75q0 45 32 77t78 32t78.5 -32t32.5 -77q0 -44 -32 -75t-79 -31q-46 0 -78 31zM230.5 744q18.5 18 18.5 46t-19 47.5t-47 19.5t-46.5 -19t-18.5 -48q0 -28 18.5 -46t46.5 -18q29 0 47.5 18z" />
    <glyph glyph-name="uni030B" unicode="&#x30b;" 
d="M363 813h91l-129 -129h-81zM192 813h91l-129 -129h-81z" />
    <glyph glyph-name="uni030C" unicode="&#x30c;" 
d="M289 684h-92l-124 129h70l100 -87l101 87h70z" />
    <glyph glyph-name="uni0312" unicode="&#x312;" 
d="M162.5 845q-17.5 -39 -20.5 -44q19 2 37 -15t18 -40q0 -26 -18.5 -44t-44.5 -18q-27 0 -44 18.5t-17 46.5q0 90 96 225l50 -34q-39 -56 -56.5 -95z" />
    <glyph glyph-name="uni0326" unicode="&#x326;" 
d="M110.5 -160q17.5 39 19.5 43q-20 -2 -37.5 14.5t-17.5 40.5q0 26 18.5 44t44.5 18q27 0 44 -18.5t17 -46.5q0 -90 -96 -225l-50 33q40 58 57.5 97z" />
    <glyph glyph-name="uni0327" unicode="&#x327;" 
d="M73 -231l13 48l65 -1q27 0 41.5 12.5t14.5 33.5q0 20 -14 32.5t-39 12.5h-35l25 93h57l-16 -61q40 -4 62 -25.5t22 -54.5q0 -41 -33.5 -65.5t-87.5 -24.5h-75z" />
    <glyph glyph-name="uni0328" unicode="&#x328;" 
d="M105 -197.5q-32 26.5 -32 72.5q0 96 149 154l37 -29q-64 -27 -93.5 -56t-29.5 -62q0 -25 17 -39.5t48 -14.5h60v-52h-71q-53 0 -85 26.5z" />
    <glyph glyph-name="uni060C" unicode="&#x60c;" horiz-adv-x="273" 
d="M92 18.5q-17 18.5 -17 46.5q0 90 96 225l50 -33q-41 -59 -58 -97.5t-19 -42.5q20 2 37.5 -14.5t17.5 -40.5q0 -26 -18.5 -44t-44.5 -18q-27 0 -44 18.5z" />
    <glyph glyph-name="uni0615" unicode="&#x615;" 
d="M-111 758h144q15 0 27 12t12 28q0 19 -11 31t-31 12q-7 0 -16.5 -4.5t-22.5 -12.5l-99 -60l-20 52l102 62q16 9 28.5 13.5t30.5 4.5q39 0 67.5 -28.5t28.5 -68.5q0 -41 -28 -70t-68 -29h-144v58zM-77 908v69h58v-63v38q0 -32 -8 -56t-19 -31l-54 -32q23 17 23 75z" />
    <glyph glyph-name="uni061B" unicode="&#x61b;" horiz-adv-x="273" 
d="M89.5 342.5q-17.5 18.5 -17.5 46.5q0 89 97 225l49 -34q-39 -56 -56.5 -95t-20.5 -44q20 2 37.5 -14.5t17.5 -40.5q0 -25 -18 -43.5t-44 -18.5q-27 0 -44.5 18.5zM90 16.5q-17 18.5 -17 43.5q0 26 18 44t43 18t43 -18.5t18 -43.5q0 -26 -17.5 -44t-43.5 -18
q-27 0 -44 18.5z" />
    <glyph glyph-name="uni061F" unicode="&#x61f;" horiz-adv-x="404" 
d="M161 265.5q-16 34.5 -49 79.5q-41 53 -58 87.5t-17 83.5q0 48 23 87.5t63 62.5t88 23q64 0 112.5 -40t61.5 -101l-55 -21l-8 20q-12 31 -40 50.5t-62 19.5q-45 0 -77 -32t-32 -77q0 -35 12 -60t39 -64l15 -22q32 -47 45.5 -84.5t12.5 -92.5h-58q0 46 -16 80.5zM168 8.5
q-17 16.5 -17 39.5t16 39.5t40 16.5t40 -16.5t16 -39.5q0 -22 -16.5 -39t-39.5 -17q-22 0 -39 16.5z" />
    <glyph glyph-name="uni0640" unicode="&#x640;" horiz-adv-x="175" 
d="M-10 10v67q0 10 10 10h175q10 0 10 -10v-67q0 -10 -10 -10h-175q-10 0 -10 10z" />
    <glyph glyph-name="uni064B" unicode="&#x64b;" 
d="M-142 884l262 95l22 -61l-262 -95zM-142 761l262 96l22 -61l-262 -96z" />
    <glyph glyph-name="uni064C" unicode="&#x64c;" 
d="M-131.5 779q5.5 11 5.5 24q0 18 -14 34l-24 25q-11 11 -14 15l47 54q6 -6 23 -21.5t25 -28.5q14 -20 14 -46q0 -29 -17 -51l85 30q-22 10 -35 30t-13 46q0 47 33 80t80 33t80.5 -33t33.5 -80q0 -37 -20.5 -65.5t-57.5 -42.5l-224 -82l-22 60q9 8 14.5 19zM102 854.5
q15 15.5 15 37.5t-15 37t-37 15q-23 0 -38 -15t-15 -37t15.5 -37.5t37.5 -15.5t37 15.5z" />
    <glyph glyph-name="uni064D" unicode="&#x64d;" 
d="M-142 -95l262 95l22 -61l-262 -95zM-142 -217l262 95l22 -61l-262 -95z" />
    <glyph glyph-name="uni064E" unicode="&#x64e;" 
d="M-142 761l262 96l22 -61l-262 -96z" />
    <glyph glyph-name="uni064F" unicode="&#x64f;" 
d="M-71 829q-13 20 -13 46q0 47 33 80t80 33t80 -33t33 -80q0 -37 -20.5 -66t-56.5 -42l-185 -67l-22 61l105 38q-21 10 -34 30zM-8 839q15 -15 37 -15t37 15t15 38t-14.5 37.5t-37.5 14.5q-22 0 -37 -14.5t-15 -37.5t15 -38z" />
    <glyph glyph-name="uni0650" unicode="&#x650;" 
d="M-142 -95l262 95l22 -61l-262 -95z" />
    <glyph glyph-name="uni0651" unicode="&#x651;" 
d="M-148 860h58v-72q0 -13 8.5 -21.5t22.5 -8.5q13 0 22 8.5t9 21.5v62h55v-62q0 -13 9 -21.5t22 -8.5q14 0 22.5 8.5t8.5 21.5v72h58v-72q0 -36 -25.5 -62t-62.5 -26q-19 0 -35 9t-24 24q-9 -15 -25 -24t-35 -9q-37 0 -62.5 26t-25.5 62v72z" />
    <glyph glyph-name="uni0652" unicode="&#x652;" 
d="M-80.5 733q-33.5 33 -33.5 80t33.5 80.5t80.5 33.5t80 -33.5t33 -80.5q0 -46 -33 -79.5t-80 -33.5t-80.5 33zM31 782q13 13 13 33q0 18 -13 30.5t-32 12.5q-18 0 -30.5 -12.5t-12.5 -32.5q0 -18 13 -31t32 -13q17 0 30 13z" />
    <glyph glyph-name="uni0653" unicode="&#x653;" 
d="M-115.5 814.5q22.5 22.5 57.5 22.5h196v-66h-189q-12 0 -21 -8.5t-9 -21.5v-41h-57v57q0 35 22.5 57.5z" />
    <glyph glyph-name="uni0654" unicode="&#x654;" 
d="M-142 761l92 34q-33 14 -46 48q-6 17 -6 33q0 32 20 60t54 40l67 24l22 -61l-62 -23q-14 -5 -22.5 -17.5t-8.5 -27.5q0 -22 14.5 -35t34.5 -13q10 0 20 3l83 30l22 -60l-262 -96z" />
    <glyph glyph-name="uni0655" unicode="&#x655;" 
d="M-142 -238l92 34q-14 5 -26.5 17t-20.5 30q-6 16 -6 33q0 32 20 60t54 40l67 24l22 -61l-61 -23q-15 -5 -23.5 -17t-8.5 -27q0 -22 14.5 -35.5t34.5 -13.5q11 0 20 3l84 30l22 -60l-263 -95z" />
    <glyph glyph-name="uni0656" unicode="&#x656;" 
d="M27 0v-160h-55v160h55z" />
    <glyph glyph-name="uni0658" unicode="&#x658;" 
d="M-95 893v-53q0 -41 27 -67.5t68 -26.5q42 0 69 26.5t27 67.5v75h60v-78q0 -43 -21 -78.5t-57 -56t-78 -20.5q-43 0 -78.5 20.5t-56 56t-20.5 78.5v56h60z" />
    <glyph glyph-name="uni065A" unicode="&#x65a;" 
d="M-1 777q6 101 137 104v-64q-56 -4 -82 -29t-26 -88h-56q0 63 -26 88t-82 29v64q130 -3 135 -104z" />
    <glyph glyph-name="uni065B" unicode="&#x65b;" 
d="M-54 793q26 25 26 88h56q0 -63 26 -88t82 -29v-64q-131 3 -137 104q-5 -101 -135 -104v64q56 4 82 29z" />
    <glyph glyph-name="uni0660" unicode="&#x660;" horiz-adv-x="221" 
d="M66.5 70.5q-18.5 18.5 -18.5 44.5t18.5 44t44.5 18t44 -18t18 -44t-18 -44.5t-44 -18.5t-44.5 18.5z" />
    <glyph glyph-name="uni0661" unicode="&#x661;" horiz-adv-x="220" 
d="M68.5 516q-3.5 69 -20.5 130l74 15q18 -43 25.5 -136.5t7.5 -197.5v-327h-83v333q0 114 -3.5 183z" />
    <glyph glyph-name="uni0662" unicode="&#x662;" horiz-adv-x="485" 
d="M165.5 323q-39.5 26 -61 71t-21.5 99h67q0 -45 31.5 -76.5t76.5 -31.5t76 31.5t31 76.5v158h81v-159q0 -53 -24.5 -98t-67.5 -71t-96 -26t-92.5 26zM68.5 516q-3.5 69 -20.5 130l74 15q18 -43 25.5 -136.5t7.5 -197.5v-327h-83v333q0 114 -3.5 183z" />
    <glyph glyph-name="uni0663" unicode="&#x663;" horiz-adv-x="693" 
d="M406.5 316.5q-34.5 22.5 -53 60.5t-18.5 84v160h67v-156q0 -35 24.5 -59.5t59.5 -24.5q34 0 59 24.5t25 59.5v186h84v-190q0 -45 -23 -83.5t-61.5 -61t-83.5 -22.5t-79.5 22.5zM68.5 516q-3.5 69 -20.5 130l74 15q18 -43 25.5 -136.5t7.5 -197.5v-327h-83v333
q0 114 -3.5 183zM157 316.5q-34 22.5 -52.5 60.5t-18.5 84l66 4q0 -35 24 -59.5t59 -24.5t59.5 24.5t24.5 59.5v156h67v-160q0 -46 -18.5 -84t-53 -60.5t-79.5 -22.5q-44 0 -78 22.5z" />
    <glyph glyph-name="uni0664" unicode="&#x664;" horiz-adv-x="438" 
d="M158.5 19q-41.5 20 -70 57t-37.5 83q-3 18 -3 35q0 68 45.5 120.5t115.5 65.5l165 29l15 -81l-165 -29q-39 -7 -64 -37t-25 -68q0 -47 33 -78t77 -29h161v-87h-160q-46 -1 -87.5 19zM149.5 327.5q-39.5 23.5 -63 63.5t-23.5 87t23.5 87t63 63t86.5 23h115v-82h-115
q-38 0 -64.5 -26.5t-26.5 -64.5t26.5 -64.5t64.5 -26.5q13 0 29 3l7 -81q-20 -5 -36 -5q-47 0 -86.5 23.5z" />
    <glyph glyph-name="uni0665" unicode="&#x665;" horiz-adv-x="652" 
d="M89 41.5q-53 52.5 -53 153.5q0 63 23 115.5t68 105t133 140.5q32 32 37 38l60 -54l-16 -16t-22 -23q-79 -79 -120.5 -130.5t-58.5 -94t-17 -90.5q0 -68 33 -92.5t73 -24.5h195q40 0 73 24.5t33 92.5q0 48 -17 90t-58.5 93.5t-120.5 130.5q-8 9 -99 98q-49 47 -56 56
l59 56l125 -124l31 -31q88 -88 132.5 -140t67.5 -104.5t23 -115.5q0 -101 -53.5 -153.5t-143.5 -52.5h-188q-90 0 -143 52.5z" />
    <glyph glyph-name="uni0666" unicode="&#x666;" horiz-adv-x="483" 
d="M335.5 124q-7.5 93 -7.5 197v327h82v-333q0 -109 4 -180.5t21 -132.5l-74 -15q-18 44 -25.5 137zM109 569q-54 4 -91 10l8 78q75 -9 188 -9h193v-83h-204q-40 0 -94 4z" />
    <glyph glyph-name="uni0667" unicode="&#x667;" horiz-adv-x="536" 
d="M331.5 124q-21.5 -71 -23.5 -124h-79q-4 82 83 322l124 340l78 -28l-122 -331q-39 -108 -60.5 -179zM101 662l123 -340q86 -239 84 -322h-81q-1 53 -22.5 124t-60.5 179l-122 331z" />
    <glyph glyph-name="uni0668" unicode="&#x668;" horiz-adv-x="536" 
d="M22 18l122 331q39 108 60.5 179t22.5 123h81q2 -81 -84 -322l-123 -339zM229 651h79q2 -52 23.5 -123t60.5 -179l122 -331l-78 -28l-124 339q-86 242 -83 322z" />
    <glyph glyph-name="uni0669" unicode="&#x669;" horiz-adv-x="486" 
d="M338.5 107.5q-7.5 78.5 -7.5 151.5v16h-107q-53 0 -97.5 25t-71 68.5t-26.5 95.5q0 53 26.5 97.5t71 71t97.5 26.5q52 0 95.5 -26.5t68.5 -71t25 -97.5v-150q0 -109 4 -180.5t21 -132.5l-74 -14q-18 42 -25.5 120.5zM331 357v107q0 45 -31 76t-76 31t-76 -31t-31 -76
t31 -76t76 -31h107z" />
    <glyph glyph-name="uni066A" unicode="&#x66a;" horiz-adv-x="548" 
d="M48 34l392 632l59 -38l-393 -631zM355 40.5q-18 18.5 -18 43.5q0 26 17.5 44t43.5 18q27 0 44 -18.5t17 -43.5q0 -26 -18 -44t-43 -18t-43 18.5zM109 537.5q-18 18.5 -18 43.5q0 26 18 44t43 18q27 0 44.5 -18.5t17.5 -43.5q0 -26 -18.5 -44t-43.5 -18t-43 18.5z" />
    <glyph glyph-name="uni066B" unicode="&#x66b;" horiz-adv-x="303" 
d="M24 -47q12 29 64 147.5t135 310.5h69l-201 -458h-67z" />
    <glyph glyph-name="uni066C" unicode="&#x66c;" horiz-adv-x="278" 
d="M110 -38.5q17 38.5 19 42.5q-19 -2 -37 14.5t-18 39.5q0 26 18.5 44.5t44.5 18.5q27 0 44 -18.5t17 -46.5q0 -90 -96 -225l-50 33q41 59 58 97.5z" />
    <glyph glyph-name="uni066D" unicode="&#x66d;" horiz-adv-x="472" 
d="M253.5 450.5q-5.5 12.5 -12.5 38.5l-5 20l27 21l21 -14q20 -13 30 -22.5t30 -37.5l46 -63l-64 -46l-46 63q-21 28 -26.5 40.5zM334.5 530q-12.5 -3 -25.5 -3t-46 3l-10 32q16 12 19 15q20 16 31.5 22t43.5 17l75 23l24 -75l-74 -23q-25 -8 -37.5 -11zM211 583
q-9 24 -11.5 37.5t-2.5 47.5v78h79v-78q0 -34 -2.5 -48t-12.5 -38l-8 -20h-34zM26 565l25 75l74 -23q32 -11 44.5 -18t32.5 -23q3 -2 7 -5.5t10 -8.5l-10 -32q-14 -1 -25 -2t-20 -1q-13 0 -25.5 3t-37.5 11zM82 394l45 63q20 27 30 36.5t33 24.5q7 4 19 12l27 -21l-6 -22
q-7 -25 -13 -37.5t-26 -39.5l-45 -62z" />
    <glyph glyph-name="uni066E" unicode="&#x66e;" horiz-adv-x="874" 
d="M181 30q-51 30 -80.5 80.5t-29.5 111.5v102h82v-97q0 -38 18.5 -70.5t50.5 -51t70 -18.5h345q45 0 76 31.5t31 76.5v129h82v-129q0 -53 -25 -98t-68 -71t-96 -26h-345q-60 0 -111 30z" />
    <glyph glyph-name="uni066F" unicode="&#x66f;" horiz-adv-x="702" 
d="M290.5 286.5q26.5 44.5 71.5 71t98 26.5v0q52 0 95.5 -26.5t68.5 -71t25 -97.5v-199q0 -78 -39 -144.5t-105.5 -105.5t-145.5 -39q-78 0 -144 39t-105 105.5t-39 144.5v187h82v-182q0 -56 28 -103.5t75 -75.5t103 -28t104 28t76 75.5t28 103.5v5h-107v0q-53 0 -98 25
t-71.5 68t-26.5 96t26.5 97.5zM382.5 117.5q31.5 -30.5 77.5 -30.5v0h107v107q0 45 -31.5 76.5t-75.5 31.5v0q-46 0 -77.5 -31.5t-31.5 -76.5q0 -46 31.5 -76.5z" />
    <glyph glyph-name="uni0670" unicode="&#x670;" 
d="M27 860v-160h-55v160h55z" />
    <glyph glyph-name="uni0695" unicode="&#x695;" horiz-adv-x="279" 
d="M75 -129q32 23 48.5 56.5t16.5 91.5v305h82v-305q0 -74 -22 -122t-68 -82.5t-132 -76.5l-31 69q74 41 106 64zM112 -480q5 101 136 104v-64q-56 -4 -82 -29t-26 -88h-56q0 63 -26 88t-82 29v64q131 -3 136 -104z" />
    <glyph glyph-name="uni06A1" unicode="&#x6a1;" horiz-adv-x="874" 
d="M181 30q-51 30 -80.5 80.5t-29.5 111.5v102h82v-97q0 -38 18.5 -70.5t50.5 -51t70 -18.5h368q35 0 59.5 24.5t24.5 59.5v20h-89v0q-49 0 -89.5 23t-64.5 62t-24 87q0 49 24 90t65 65t89 24v0q48 0 87 -24t61.5 -65t22.5 -90v-196q0 -45 -22.5 -83.5t-60.5 -61t-84 -22.5
h-367q-60 0 -111 30zM749 269v97q0 40 -28 68t-68 28v0q-42 0 -69.5 -27.5t-27.5 -68.5q0 -42 28 -69.5t69 -27.5v0h96z" />
    <glyph glyph-name="uni06A4" unicode="&#x6a4;" horiz-adv-x="874" 
d="M181 30q-51 30 -80.5 80.5t-29.5 111.5v102h82v-97q0 -38 18.5 -70.5t50.5 -51t70 -18.5h368q35 0 59.5 24.5t24.5 59.5v20h-89v0q-49 0 -89.5 23t-64.5 62t-24 87q0 49 24 90t65 65t89 24v0q48 0 87 -24t61.5 -65t22.5 -90v-196q0 -45 -22.5 -83.5t-60.5 -61t-84 -22.5
h-367q-60 0 -111 30zM653 269h96v97q0 40 -28 68t-68 28v0q-42 0 -69.5 -27.5t-27.5 -68.5q0 -42 28 -69.5t69 -27.5v0zM541 721h88v-88h-88v88zM681 721h89v-88h-89v88zM611 863h88v-88h-88v88z" />
    <glyph glyph-name="uni06B5" unicode="&#x6b5;" horiz-adv-x="762" 
d="M215 -153q-66 39 -105 105.5t-39 144.5v187h82v-182q0 -56 28 -103.5t75 -75.5t103 -28t104 28t76 75.5t28 103.5v559h82v-564q0 -78 -39 -144.5t-105.5 -105.5t-145.5 -39q-78 0 -144 39zM606 818q6 101 136 105v-65q-56 -4 -81.5 -28.5t-25.5 -87.5h-56q0 63 -26 87.5
t-82 28.5v65q130 -4 135 -105z" />
    <glyph glyph-name="uni06BE" unicode="&#x6be;" horiz-adv-x="771" 
d="M286 87q31 0 55 15.5t37.5 40.5t13.5 51t-13 50.5t-37.5 40t-55.5 15.5q-45 0 -76 -31t-31 -75q0 -33 16 -57t41 -37t50 -13h242q45 0 76.5 31t31.5 76q0 44 -32 75t-76 31h-469v83h469q53 0 97.5 -25t71 -68.5t26.5 -95.5q0 -53 -26.5 -97.5t-71.5 -70.5t-97 -26h-246
q-54 0 -97 27.5t-67 72.5t-24 94q0 45 25 86.5t69 67.5t98 26q60 0 100 -30.5t59.5 -72.5t19.5 -77q0 -57 -27 -101.5t-69 -68.5t-87 -24h-284l1 87h287z" />
    <glyph glyph-name="uni06C2" unicode="&#x6c2;" horiz-adv-x="498" 
d="M78 116q-14 34 -14 70q0 39 15.5 75.5t44.5 65.5l75 75l-42 41l59 59l175 -175q29 -29 44 -65.5t15 -75.5q0 -36 -14 -70t-41 -61q-28 -28 -64 -42.5t-74 -14.5t-74 14.5t-64 42.5q-27 27 -41 61zM258 85q45 0 76 32q31 30 31 74q0 45 -32 77l-76 76l-75 -75
q-32 -34 -32 -77q0 -44 31 -75q32 -32 77 -32zM76 615l99 37q-14 5 -26.5 17t-19.5 30q-6 17 -6 33q0 32 20 60t54 40l67 24l22 -61l-62 -23q-14 -5 -22.5 -17.5t-8.5 -26.5q0 -22 14.5 -35.5t34.5 -13.5q10 0 20 3l83 30l22 -60l-270 -98z" />
    <glyph glyph-name="uni06C3" unicode="&#x6c3;" horiz-adv-x="498" 
d="M78 116q-14 34 -14 70q0 39 15.5 75.5t44.5 65.5l75 75l-42 41l59 59l175 -175q29 -29 44 -65.5t15 -75.5q0 -36 -14 -70t-41 -61q-28 -28 -64 -42.5t-74 -14.5t-74 14.5t-64 42.5q-27 27 -41 61zM258 85q45 0 76 32q31 30 31 74q0 45 -32 77l-76 76l-75 -75
q-32 -34 -32 -77q0 -44 31 -75q32 -32 77 -32zM104 676h88v-88h-88v88zM244 676h88v-88h-88v88z" />
    <glyph glyph-name="uni06C6" unicode="&#x6c6;" horiz-adv-x="505" 
d="M281.5 -123q44.5 25 64.5 52.5t20 70.5h-107v0q-53 0 -97.5 25t-71 68t-26.5 96t26.5 97.5t71 71t97.5 26.5v0q52 0 96 -26.5t69 -71t25 -97.5v-158q0 -79 -30 -128t-85.5 -82.5t-167.5 -82.5l-25 73q96 41 140.5 66zM366 83v107q0 45 -31 76.5t-76 31.5v0
q-45 0 -76 -31.5t-31 -76.5t31 -76t76 -31v0h107zM206 576q-26 25 -82 29v64q130 -4 135 -105q6 101 136 105v-64q-55 -4 -81 -29t-26 -88h-56q0 63 -26 88z" />
    <glyph glyph-name="uni06C7" unicode="&#x6c7;" horiz-adv-x="505" 
d="M281.5 -123q44.5 25 64.5 52.5t20 70.5h-107v0q-53 0 -97.5 25t-71 68t-26.5 96t26.5 97.5t71 71t97.5 26.5v0q52 0 96 -26.5t69 -71t25 -97.5v-158q0 -79 -30 -128t-85.5 -82.5t-167.5 -82.5l-25 73q96 41 140.5 66zM259 83h107v107q0 45 -31 76.5t-76 31.5v0
q-45 0 -76 -31.5t-31 -76.5t31 -76t76 -31v0zM191 594q-13 20 -13 45q0 47 33 80t80 33t80.5 -33t33.5 -80q0 -37 -20.5 -66t-57.5 -42l-184 -67l-22 61l105 39q-22 10 -35 30zM254 604q15 -15 38 -15q22 0 37 15t15 37t-15 37.5t-37 15.5t-37.5 -15t-15.5 -38q0 -22 15 -37
z" />
    <glyph glyph-name="uni06CE" unicode="&#x6ce;" horiz-adv-x="734" 
d="M181 -195q-51 30 -80.5 80.5t-29.5 111.5v210h82v-205q0 -38 18.5 -70.5t50.5 -51t70 -18.5h217q38 0 62 24.5t24 61.5q0 29 -18 53t-48 31l-234 53v105q0 49 25 91t67.5 67t92.5 25h157v-82h-158q-42 0 -72 -30t-30 -72v-38q98 -21 179 -41q56 -15 90.5 -61.5
t34.5 -103.5q0 -46 -23 -85t-62 -62t-86 -23h-218q-60 0 -111 30zM155 432q-26 25 -82 29v64q131 -3 136 -104q5 101 136 104v-64q-56 -4 -82 -29t-26 -88h-56q0 63 -26 88z" />
    <glyph glyph-name="uni06D3" unicode="&#x6d3;" horiz-adv-x="645" 
d="M133.5 23q-39.5 23 -62.5 62t-23 85q0 57 34.5 103.5t90.5 61.5q95 23 179 41l26 -79l-178 -40q-30 -7 -48 -31t-18 -53q0 -36 24.5 -61t61.5 -25h375v-87h-376q-46 0 -85.5 23zM73 442l99 37q-14 5 -26.5 17t-19.5 30q-6 17 -6 33q0 32 20 60t54 40l67 24l22 -61
l-62 -23q-14 -5 -22.5 -17.5t-8.5 -26.5q0 -22 14.5 -35.5t34.5 -13.5q10 0 20 3l83 30l22 -60l-270 -98z" />
    <glyph glyph-name="uni06D4" unicode="&#x6d4;" horiz-adv-x="330" 
d="M53 87h245l-21 -87h-245z" />
    <glyph glyph-name="uni06D5" unicode="&#x6d5;" horiz-adv-x="504" 
d="M84.5 116q-13.5 34 -13.5 70q0 39 15 75.5t44 65.5l76 75l-42 41l58 59l176 -175q28 -29 43 -65.5t15 -75.5q0 -36 -14 -70t-41 -61q-28 -28 -63.5 -42.5t-73.5 -14.5t-74 14.5t-65 42.5q-27 27 -40.5 61zM264 85q45 0 76 32q31 30 31 74q0 45 -32 77l-76 76l-75 -75
q-32 -34 -32 -77q0 -44 31 -75q34 -32 77 -32z" />
    <glyph glyph-name="uni06F0" unicode="&#x6f0;" horiz-adv-x="447" 
d="M135.5 23.5q-40.5 23.5 -64 64t-23.5 88.5t23.5 88t64 63.5t88.5 23.5t88 -23.5t63.5 -63.5t23.5 -88t-23.5 -88.5t-63.5 -64t-88 -23.5t-88.5 23.5zM290 109.5q27 27.5 27 66.5t-27 66t-66 27t-66.5 -27t-27.5 -66t27.5 -66.5t66.5 -27.5t66 27.5z" />
    <glyph glyph-name="uni06F1" unicode="&#x6f1;" horiz-adv-x="216" 
d="M68.5 516q-3.5 69 -20.5 130l74 15q18 -43 25.5 -136.5t7.5 -197.5v-327h-83v333q0 114 -3.5 183z" />
    <glyph glyph-name="uni06F2" unicode="&#x6f2;" horiz-adv-x="485" 
d="M165.5 324q-39.5 26 -61 70.5t-21.5 98.5h67q0 -45 31.5 -76.5t76.5 -31.5t76 31.5t31 76.5v158h81v-158q0 -53 -24.5 -98t-67.5 -71t-96 -26t-92.5 26zM68.5 516q-3.5 69 -20.5 130l74 15q18 -43 25.5 -136.5t7.5 -197.5v-327h-83v333q0 114 -3.5 183z" />
    <glyph glyph-name="uni06F3" unicode="&#x6f3;" horiz-adv-x="689" 
d="M376.5 342.5q-41.5 47.5 -41.5 118.5v160h67v-156q0 -35 24.5 -59.5t59.5 -24.5q34 0 58 24.5t24 59.5v186h82v-190q0 -45 -22 -83t-59.5 -60.5t-82.5 -22.5q-68 0 -109.5 47.5zM68.5 516q-3.5 69 -20.5 130l74 15q18 -43 25.5 -136.5t7.5 -197.5v-327h-83v333
q0 114 -3.5 183zM127 342.5q-41 47.5 -41 118.5l66 4q0 -35 24 -59.5t59 -24.5t59.5 24.5t24.5 59.5v156h67v-160q0 -71 -41.5 -118.5t-109.5 -47.5q-67 0 -108 47.5z" />
    <glyph glyph-name="uni06F4" unicode="&#x6f4;" horiz-adv-x="565" 
d="M68.5 516.5q-3.5 69.5 -20.5 130.5l74 15q18 -44 25.5 -137t7.5 -197v-327h-83v332q0 114 -3.5 183.5zM183.5 293.5q-41.5 25.5 -64.5 69t-23 97.5l54 3q0 -45 31.5 -76t76.5 -31h208v-88h-188q-53 0 -94.5 25.5zM330.5 294.5q-44.5 26.5 -71 71t-26.5 97.5
q0 52 26.5 95.5t71 68.5t97.5 25h78v-82h-78q-45 0 -76.5 -31.5t-31.5 -75.5q0 -45 31.5 -76t76.5 -31h105v-88h-105q-53 0 -97.5 26.5z" />
    <glyph glyph-name="uni06F5" unicode="&#x6f5;" horiz-adv-x="699" 
d="M366.5 34.5q-33.5 37.5 -33.5 108.5v86h58v-83q0 -30 19 -49.5t55 -19.5q42 0 73.5 21t31.5 88q0 45 -17 85.5t-58.5 91.5t-119.5 130q-7 8 -84 83l-58 58l59 56l142 -142q87 -87 132 -139.5t68 -103t23 -110.5q0 -100 -52.5 -149t-143.5 -49q-61 0 -94.5 37.5zM95 46
q-53 49 -53 149q0 60 23 111t67.5 102.5t133.5 140.5l53 56l59 -57q-42 -42 -53 -55q-79 -79 -120.5 -130t-58.5 -92t-17 -85q0 -67 32 -88t74 -21q36 0 54.5 19.5t18.5 49.5v83h58v-86q0 -71 -33.5 -108.5t-93.5 -37.5q-91 0 -144 49z" />
    <glyph glyph-name="uni06F6" unicode="&#x6f6;" horiz-adv-x="527" 
d="M94 19l169 294q123 211 190 265l54 -52q-37 -33 -76 -93t-89 -149l-12 -21l-166 -286zM50 384.5q-14 34.5 -14 71.5q0 38 15 74t44 65l107 103l58 -58l-106 -103q-32 -31 -32 -76t31 -76q15 -15 37 -23t45 -8q24 0 44.5 9t29.5 26l52 -42q-30 -32 -71.5 -51t-84.5 -19
q-68 0 -114 46q-27 27 -41 61.5z" />
    <glyph glyph-name="uni06F7" unicode="&#x6f7;" horiz-adv-x="536" 
d="M331.5 124q-21.5 -71 -23.5 -124h-79q-4 82 83 322l124 340l78 -28l-122 -331q-39 -108 -60.5 -179zM101 662l123 -340q86 -239 84 -322h-81q-1 53 -22.5 124t-60.5 179l-122 331z" />
    <glyph glyph-name="uni06F8" unicode="&#x6f8;" horiz-adv-x="536" 
d="M204.5 528q21.5 71 22.5 123h81q2 -81 -84 -322l-123 -339l-79 28l122 331q39 108 60.5 179zM436 -10l-124 339q-86 242 -83 322h79q2 -52 23.5 -123t60.5 -179l122 -331z" />
    <glyph glyph-name="uni06F9" unicode="&#x6f9;" horiz-adv-x="486" 
d="M338.5 107.5q-7.5 78.5 -7.5 151.5v16h-107q-53 0 -97.5 25t-71 68.5t-26.5 95.5q0 53 26.5 97.5t71 71t97.5 26.5q52 0 95.5 -26.5t68.5 -71t25 -97.5v-150q0 -109 4 -180.5t21 -132.5l-74 -14q-18 42 -25.5 120.5zM331 357v107q0 45 -31 76t-76 31t-76 -31t-31 -76
t31 -76t76 -31h107z" />
    <glyph glyph-name="uni0756" unicode="&#x756;" horiz-adv-x="874" 
d="M181 30q-51 30 -80.5 80.5t-29.5 111.5v102h82v-97q0 -38 18.5 -70.5t50.5 -51t70 -18.5h345q45 0 76 31.5t31 76.5v129h82v-129q0 -53 -25 -98t-68 -71t-96 -26h-345q-60 0 -111 30zM392 422q-26 25 -82 29v64q131 -3 136 -104q5 101 136 104v-64q-56 -4 -82 -29
t-26 -88h-56q0 63 -26 88z" />
    <glyph glyph-name="uni0769" unicode="&#x769;" horiz-adv-x="705" 
d="M215 -153q-66 39 -105 105.5t-39 144.5v187h82v-182q0 -56 28 -103.5t75 -75.5t103 -28t104 28t76 75.5t28 103.5v222h82v-227q0 -78 -39 -144.5t-105.5 -105.5t-145.5 -39q-78 0 -144 39zM314 383h88v-88h-88v88zM303.5 566q-26.5 25 -82.5 29v64q131 -3 136 -104
q6 101 136 104v-64q-56 -4 -82 -29t-26 -88h-55q0 63 -26.5 88z" />
    <glyph glyph-name="uni08A0" unicode="&#x8a0;" horiz-adv-x="874" 
d="M181 30q-51 30 -80.5 80.5t-29.5 111.5v102h82v-97q0 -38 18.5 -70.5t50.5 -51t70 -18.5h345q45 0 76 31.5t31 76.5v129h82v-129q0 -53 -25 -98t-68 -71t-96 -26h-345q-60 0 -111 30zM408.5 -192q-26.5 25 -82.5 29v64q131 -3 136 -104q6 101 136 104v-64q-56 -4 -82 -29
t-26 -88h-55q0 63 -26.5 88z" />
    <glyph glyph-name="Wgrave" unicode="&#x1e80;" horiz-adv-x="850" 
d="M11 684h86l120 -592l156 544h105l157 -544l120 592h86l-149 -684h-116l-150 553l-151 -553h-116zM236 871h95l137 -129h-83z" />
    <glyph glyph-name="wgrave" unicode="&#x1e81;" horiz-adv-x="699" 
d="M11 493h84l79 -367l140 335h76l140 -335l75 367h84l-98 -493h-90l-149 348l-149 -348h-90zM160 690h95l137 -129h-83z" />
    <glyph glyph-name="Wacute" unicode="&#x1e82;" horiz-adv-x="850" 
d="M11 684h86l120 -592l156 544h105l157 -544l120 592h86l-149 -684h-116l-150 553l-151 -553h-116zM520 871h95l-149 -129h-83z" />
    <glyph glyph-name="wacute" unicode="&#x1e83;" horiz-adv-x="699" 
d="M11 493h84l79 -367l140 335h76l140 -335l75 367h84l-98 -493h-90l-149 348l-149 -348h-90zM444 691h95l-149 -129h-83z" />
    <glyph glyph-name="Wdieresis" unicode="&#x1e84;" horiz-adv-x="850" 
d="M11 684h86l120 -592l156 544h105l157 -544l120 592h86l-149 -684h-116l-150 553l-151 -553h-116zM323 719q-16 16 -16 38t16 37.5t38 15.5t37 -15.5t15 -37.5q0 -23 -15 -38.5t-37 -15.5t-38 16zM455 719q-16 16 -16 38t16 37.5t38 15.5t37.5 -15.5t15.5 -37.5t-15.5 -38
t-37.5 -16t-38 16z" />
    <glyph glyph-name="wdieresis" unicode="&#x1e85;" horiz-adv-x="699" 
d="M11 493h84l79 -367l140 335h76l140 -335l75 367h84l-98 -493h-90l-149 348l-149 -348h-90zM251 575q-16 16 -16 38t16 37.5t38 15.5t37 -15.5t15 -37.5q0 -23 -15 -38.5t-37 -15.5t-38 16zM383 575q-16 16 -16 38t16 37.5t38 15.5t37.5 -15.5t15.5 -37.5t-15.5 -38
t-37.5 -16t-38 16z" />
    <glyph glyph-name="uni1E9E" unicode="&#x1e9e;" horiz-adv-x="697" 
d="M99.5 601q22.5 38 60.5 60.5t83 22.5h90v-80h-86q-35 0 -59 -25t-24 -61v-518h-87v518q0 45 22.5 83zM261 396l246 208h-212v80h315v-83l-303 -266zM303.5 15.5q-49.5 25.5 -81.5 69.5l65 55q20 -31 53 -49.5t71 -18.5q39 0 72.5 20t53.5 53.5t20 73.5q0 39 -19.5 73
t-53 54t-73.5 20q-50 0 -104 -30l-22 65q61 38 126 38q64 0 117.5 -29t84.5 -79.5t31 -112.5t-31.5 -114.5t-85 -83t-116.5 -30.5q-58 0 -107.5 25.5z" />
    <glyph glyph-name="Ygrave" unicode="&#x1ef2;" horiz-adv-x="577" 
d="M244 210l-233 474h96l180 -369l183 369h97l-235 -474v-210h-88v210zM123 894h95l137 -129h-83z" />
    <glyph glyph-name="ygrave" unicode="&#x1ef3;" horiz-adv-x="534" 
d="M38 -148h71q69 0 96 65l215 576h88l-220 -593q-19 -60 -64 -95.5t-111 -35.5h-75v83zM15 493h89l175 -493h-88zM90 722h95l137 -129h-83z" />
    <glyph glyph-name="uni2000" unicode="&#x2000;" horiz-adv-x="510" 
 />
    <glyph glyph-name="uni2001" unicode="&#x2001;" horiz-adv-x="962" 
 />
    <glyph glyph-name="uni2002" unicode="&#x2002;" horiz-adv-x="510" 
 />
    <glyph glyph-name="uni2003" unicode="&#x2003;" horiz-adv-x="962" 
 />
    <glyph glyph-name="uni2004" unicode="&#x2004;" horiz-adv-x="358" 
 />
    <glyph glyph-name="uni2005" unicode="&#x2005;" horiz-adv-x="345" 
 />
    <glyph glyph-name="uni2006" unicode="&#x2006;" horiz-adv-x="321" 
 />
    <glyph glyph-name="uni2009" unicode="&#x2009;" horiz-adv-x="330" 
 />
    <glyph glyph-name="uni200A" unicode="&#x200a;" horiz-adv-x="313" 
 />
    <glyph glyph-name="uni200B" unicode="&#x200b;" horiz-adv-x="270" 
 />
    <glyph glyph-name="uni200C" unicode="&#x200c;" 
 />
    <glyph glyph-name="uni200D" unicode="&#x200d;" 
 />
    <glyph glyph-name="uni200E" unicode="&#x200e;" 
 />
    <glyph glyph-name="uni200F" unicode="&#x200f;" 
 />
    <glyph glyph-name="endash" unicode="&#x2013;" horiz-adv-x="500" 
d="M500 235h-500v77h500v-77z" />
    <glyph glyph-name="emdash" unicode="&#x2014;" horiz-adv-x="1000" 
d="M1000 235h-1000v77h1000v-77z" />
    <glyph glyph-name="quoteleft" unicode="&#x2018;" horiz-adv-x="217" 
d="M130 672.5q-16 -36.5 -17 -39.5q19 2 37 -14.5t18 -39.5q0 -26 -18.5 -44.5t-44.5 -18.5q-27 0 -44 18.5t-17 46.5q0 90 96 225l49 -33q-43 -64 -59 -100.5z" />
    <glyph glyph-name="quoteright" unicode="&#x2019;" horiz-adv-x="217" 
d="M84 645q17 39 20 44q-19 -2 -37 15t-18 40q0 26 18.5 44t44.5 18q27 0 44 -18.5t17 -46.5q0 -88 -96 -225l-50 34q40 56 57 95z" />
    <glyph glyph-name="quotesinglbase" unicode="&#x201a;" horiz-adv-x="217" 
d="M85 -38.5q17 38.5 19 42.5q-19 -2 -37 14.5t-18 39.5q0 26 18.5 44.5t44.5 18.5q27 0 44 -18.5t17 -46.5q0 -90 -96 -225l-50 33q41 59 58 97.5z" />
    </font>
</defs>
</svg>
