<svg xmlns="http://www.w3.org/2000/svg" version="1.1" xmlns:xlink="http://www.w3.org/1999/xlink" width="512" height="512" x="0" y="0" viewBox="0 0 32 32" style="enable-background:new 0 0 512 512" xml:space="preserve" class=""><g><path d="M22.414 12.927a3.977 3.977 0 0 1 2.293-2.028A3.994 3.994 0 0 1 26 10.695V5c0-1.654-1.346-3-3-3H7C5.346 2 4 3.346 4 5v20c0 1.654 1.346 3 3 3h9.949l-.108-.314a4.969 4.969 0 0 1 .237-3.824zM8 8h12a1 1 0 1 1 0 2H8a1 1 0 1 1 0-2zm0 4h11a1 1 0 1 1 0 2H8a1 1 0 1 1 0-2zm7 10H8a1 1 0 1 1 0-2h7a1 1 0 1 1 0 2zm-7-4a1 1 0 1 1 0-2h9a1 1 0 1 1 0 2zm21.604-1.565-5.338 10.939a2.984 2.984 0 0 1-1.721 1.521l-1.891.65a1 1 0 0 1-1.27-.62l-.651-1.891a2.979 2.979 0 0 1 .142-2.293l5.338-10.937c.233-.48.641-.84 1.146-1.014a1.977 1.977 0 0 1 1.527.094l1.798.877c.48.234.84.642 1.014 1.147s.141 1.047-.094 1.527z" fill="#ffffff" opacity="1" data-original="#000000" class=""></path></g></svg>