<svg xmlns="http://www.w3.org/2000/svg" version="1.1" xmlns:xlink="http://www.w3.org/1999/xlink" width="512" height="512" x="0" y="0" viewBox="0 0 24 24" style="enable-background:new 0 0 512 512" xml:space="preserve" class=""><g><g fill="#000"><path d="M19.957 21.032A4.978 4.978 0 0 1 17 22H7a4.978 4.978 0 0 1-2.957-.968C3.472 19.015 8.74 17.555 12 17.555s8.529 1.46 7.957 3.477zM16.444 10.444a4.444 4.444 0 1 1-8.889 0 4.444 4.444 0 0 1 8.89 0z" fill="#ffffff" opacity="1" data-original="#000000" class=""></path><path fill-rule="evenodd" d="M1.25 7A5.75 5.75 0 0 1 7 1.25h10A5.75 5.75 0 0 1 22.75 7v10A5.75 5.75 0 0 1 17 22.75H7A5.75 5.75 0 0 1 1.25 17zM7 2.75A4.25 4.25 0 0 0 2.75 7v10A4.25 4.25 0 0 0 7 21.25h10A4.25 4.25 0 0 0 21.25 17V7A4.25 4.25 0 0 0 17 2.75z" clip-rule="evenodd" fill="#ffffff" opacity="1" data-original="#000000" class=""></path></g></g></svg>