<svg xmlns="http://www.w3.org/2000/svg" version="1.1" xmlns:xlink="http://www.w3.org/1999/xlink" width="512" height="512" x="0" y="0" viewBox="0 0 32 32" style="enable-background:new 0 0 512 512" xml:space="preserve" class=""><g><path d="M16 14a6.5 6.5 0 1 0-6.5-6.5A6.508 6.508 0 0 0 16 14zm0-11a4.5 4.5 0 1 1-4.5 4.5A4.505 4.505 0 0 1 16 3zM15.991 15A13.005 13.005 0 0 0 3 27.99V30a1 1 0 0 0 2 0v-2.01a10.991 10.991 0 0 1 21.981 0V29H8a1 1 0 0 0 0 2h19.981a1 1 0 0 0 1-1v-2.01A13 13 0 0 0 15.991 15z" fill="#ffffff" opacity="1" data-original="#000000" class=""></path></g></svg>
