<svg xmlns="http://www.w3.org/2000/svg" version="1.1" xmlns:xlink="http://www.w3.org/1999/xlink" width="512" height="512" x="0" y="0" viewBox="0 0 64 64" style="enable-background:new 0 0 512 512" xml:space="preserve" fill-rule="evenodd" class=""><g><path d="M20.03 18H8c-1.59 0-3.12.632-4.24 1.757A5.985 5.985 0 0 0 2 24v32c0 1.591.63 3.117 1.76 4.243A5.988 5.988 0 0 0 8 62h19c1.59 0 3.12-.632 4.24-1.757A5.985 5.985 0 0 0 33 56v-1.938c1.46.071 2.82.08 4 .08 8.43 0 25-.83 25-18.141 0-5.959-2.71-11.332-6.02-15.611-2.69-3.475-5.76-6.215-7.94-7.955 2.09-1.379 4.3-3.917 4.23-8.466a2.004 2.004 0 0 0-1.97-1.967s-3.87-.05-6.49.712c-.58.169-1.1.391-1.56.653-1.11-.687-2.82-1.366-5.25-1.366s-4.14.679-5.25 1.366a7.232 7.232 0 0 0-1.56-.653c-2.62-.762-6.49-.712-6.49-.712a2.004 2.004 0 0 0-1.97 1.967c-.07 4.549 2.14 7.086 4.23 8.466A50.506 50.506 0 0 0 20.03 18zM21 53h3c1.1 0 2-.896 2-2s-.9-2-2-2h-3c-1.1 0-2 .896-2 2s.9 2 2 2zm-10 0h3c1.1 0 2-.896 2-2s-.9-2-2-2h-3c-1.1 0-2 .896-2 2s.9 2 2 2zm39.97-12.482c-1.05 1.615-2.86 2.276-4.63 2.75a2.005 2.005 0 0 0-1.42 2.449 2.007 2.007 0 0 0 2.45 1.415c2.71-.724 5.34-1.956 6.95-4.426.6-.925.34-2.165-.58-2.769a2.004 2.004 0 0 0-2.77.581zM21 46h3c1.1 0 2-.896 2-2s-.9-2-2-2h-3c-1.1 0-2 .896-2 2s.9 2 2 2zm-10 0h3c1.1 0 2-.896 2-2s-.9-2-2-2h-3c-1.1 0-2 .896-2 2s.9 2 2 2zm22-22.613v8.941a5.966 5.966 0 0 0 4 1.53c1.1 0 2 .896 2 2 0 1.103-.9 2-2 2-.93 0-1.71-.638-1.94-1.5A1.996 1.996 0 0 0 33 34.861v5.467c.58.517 1.26.924 2 1.188v.342c0 1.103.9 2 2 2s2-.897 2-2v-.342c2.33-.825 4-3.048 4-5.658 0-3.312-2.69-6-6-6-1.1 0-2-.897-2-2a2.003 2.003 0 0 1 3.94-.501 1.991 1.991 0 0 0 2.43 1.437 1.998 1.998 0 0 0 1.44-2.436A6.014 6.014 0 0 0 39 22.2v-.342c0-1.104-.9-2-2-2s-2 .896-2 2v.342c-.74.263-1.42.67-2 1.187zM11 39h3c1.1 0 2-.896 2-2s-.9-2-2-2h-3c-1.1 0-2 .896-2 2s.9 2 2 2zm10 0h3c1.1 0 2-.896 2-2s-.9-2-2-2h-3c-1.1 0-2 .896-2 2s.9 2 2 2zm27.07-12.488c1.88 2.424 3.63 5.338 3.9 8.648a1.999 1.999 0 0 0 2.15 1.834 1.998 1.998 0 0 0 1.83-2.154c-.33-4.106-2.39-7.771-4.72-10.777a1.994 1.994 0 0 0-2.8-.356 1.99 1.99 0 0 0-.36 2.805zM11 31h13c1.1 0 2-.896 2-2s-.9-2-2-2H11c-1.1 0-2 .896-2 2s.9 2 2 2z" fill="#ffffff" opacity="1" data-original="#000000" class=""></path></g></svg>