<svg xmlns="http://www.w3.org/2000/svg" version="1.1" xmlns:xlink="http://www.w3.org/1999/xlink" width="512" height="512" x="0" y="0" viewBox="0 0 64 64" style="enable-background:new 0 0 512 512" xml:space="preserve" class=""><g><g data-name="Layer 20"><path d="M53.16 21.94C53.16 11.5 44.09 3 33 3s-20.2 8.5-20.2 18.94a18.41 18.41 0 0 0 8.06 15.13l.1.06a20.85 20.85 0 0 0 1.81 1.13 11.43 11.43 0 0 1 3.34 8s0 .05 0 .08v.3a1 1 0 0 0 1 1h11.74a1 1 0 0 0 1-1v-.38a11.43 11.43 0 0 1 3.34-8A20.74 20.74 0 0 0 45 37.13l.1-.06a18.41 18.41 0 0 0 8.06-15.13ZM44 35.38l-.1.06a18.76 18.76 0 0 1-1.86 1.16 1.28 1.28 0 0 1-.23.17 13.45 13.45 0 0 0-4 8.9H34V32.88a13 13 0 0 0 5.39-1.59 1 1 0 0 0-1-1.74 11.32 11.32 0 0 1-10.82 0 1 1 0 1 0-1 1.74A13 13 0 0 0 32 32.88v12.78h-4a13.45 13.45 0 0 0-4-8.9 1.28 1.28 0 0 1-.23-.17A18.76 18.76 0 0 1 22 35.44l-.1-.06a16.42 16.42 0 0 1-7.13-13.44C14.75 12.6 22.92 5 33 5s18.2 7.6 18.2 16.94A16.42 16.42 0 0 1 44 35.38ZM38.85 48.86H27.06a1 1 0 0 0 0 2h11.79a1 1 0 0 0 0-2ZM38.85 51.84H27.06a1 1 0 0 0 0 2h11.79a1 1 0 0 0 0-2ZM38.85 54.83H27.06a1 1 0 0 0 0 2h.53a5.54 5.54 0 0 0 10.73 0h.53a1 1 0 0 0 0-2ZM33 59a3.45 3.45 0 0 1-3.28-2.17h6.55A3.45 3.45 0 0 1 33 59Z" fill="#ffffff" opacity="1" data-original="#000000" class=""></path><path d="M33.85 20.28h-1.8a1.27 1.27 0 0 1-1.34-1.18 1.11 1.11 0 0 1 .37-.81 1.44 1.44 0 0 1 1-.37h3.42a1 1 0 1 0 0-2H34v-1.5a1 1 0 0 0-2 0v1.5a3.4 3.4 0 0 0-2.24.9 3.13 3.13 0 0 0-1 2.28 3.27 3.27 0 0 0 3.34 3.18h1.8a1.27 1.27 0 0 1 1.34 1.18 1.11 1.11 0 0 1-.37.81 1.43 1.43 0 0 1-1 .37h-3.43a1 1 0 0 0 0 2H32v1.5a1 1 0 0 0 2 0v-1.5a3.39 3.39 0 0 0 2.23-.9 3.13 3.13 0 0 0 1-2.28 3.27 3.27 0 0 0-3.38-3.18ZM39.35 11.29a13.28 13.28 0 0 0-12.79 0 1 1 0 1 0 1 1.74 11.25 11.25 0 0 1 10.81 0 1 1 0 0 0 1-1.74ZM22.54 21.28A9 9 0 0 1 24 16.4a1 1 0 0 0-1.69-1.07 11 11 0 0 0 .13 12.1 1 1 0 1 0 1.67-1.11 9.11 9.11 0 0 1-1.57-5.04ZM42.26 15a1 1 0 0 0-.32 1.38 9.07 9.07 0 0 1-.11 9.93 1 1 0 0 0 1.67 1.11 11.07 11.07 0 0 0 .14-12.09 1 1 0 0 0-1.38-.33ZM57.73 44.71a4.41 4.41 0 0 1-4.58-4.21 1 1 0 0 0-2 0 4.41 4.41 0 0 1-4.57 4.21 1 1 0 0 0 0 2 4.41 4.41 0 0 1 4.57 4.21 1 1 0 0 0 2 0 4.41 4.41 0 0 1 4.58-4.21 1 1 0 0 0 0-2Zm-5.58 2.93a6.43 6.43 0 0 0-2-1.93 6.43 6.43 0 0 0 2-1.93 6.44 6.44 0 0 0 2 1.93 6.44 6.44 0 0 0-1.99 1.93ZM13.11 35.25A3.42 3.42 0 0 1 9.55 32a1 1 0 0 0-2 0A3.42 3.42 0 0 1 4 35.25a1 1 0 0 0 0 2 3.42 3.42 0 0 1 3.55 3.25 1 1 0 0 0 2 0 3.42 3.42 0 0 1 3.55-3.25 1 1 0 1 0 0-2Zm-4.56 2.26a5.45 5.45 0 0 0-1.31-1.26A5.45 5.45 0 0 0 8.55 35a5.45 5.45 0 0 0 1.31 1.26 5.45 5.45 0 0 0-1.31 1.25ZM60 9.62a1.2 1.2 0 0 1-1.27-1.12 1 1 0 0 0-2 0 1.2 1.2 0 0 1-1.27 1.12 1 1 0 0 0 0 2 1.2 1.2 0 0 1 1.27 1.12 1 1 0 1 0 2 0A1.2 1.2 0 0 1 60 11.62a1 1 0 0 0 0-2ZM4 9.62a1.2 1.2 0 0 1 1.27 1.12 1 1 0 0 0 2 0 1.2 1.2 0 0 1 1.28-1.12 1 1 0 0 0 0-2A1.2 1.2 0 0 1 7.28 6.5a1 1 0 0 0-2 0A1.2 1.2 0 0 1 4 7.62a1 1 0 0 0 0 2Z" fill="#ffffff" opacity="1" data-original="#000000" class=""></path></g></g></svg>
