<svg xmlns="http://www.w3.org/2000/svg" version="1.1" xmlns:xlink="http://www.w3.org/1999/xlink" width="512" height="512" x="0" y="0" viewBox="0 0 512 512" style="enable-background:new 0 0 512 512" xml:space="preserve" class=""><g><path d="M57.443 0C31.319 0 9.094 16.696.858 40a15.003 15.003 0 0 0 14.146 20h102.439c0-33.137-26.863-60-60-60zM278.543 452c-3.398 23.445-14.724 44.2-30.87 60H445.06c27.695 0 51.929-15.093 64.916-37.486a14.998 14.998 0 0 0 .02-15.017 15 15 0 0 0-13.005-7.498H278.543z" fill="#ffffff" opacity="1" data-original="#000000" class=""></path><path d="M385.06 0H124.035c10.143 11.247 39.333 36.376 13.976 166.862-16.613 89.616-51.067 182.297-50.261 273.183C89.388 479.96 122.133 512 162.443 512c41.353 0 75-33.647 75-75 0-8.291 6.709-15 15-15h147.924c2.227-54.126 15.938-108.545 29.238-161.338C444.786 200.381 460.06 137.437 460.06 75c0-41.353-33.648-75-75-75zm-30.162 330H165.146c-8.284 0-15-6.716-15-15s6.716-15 15-15h189.752c8.284 0 15 6.716 15 15s-6.715 15-15 15zm14.261-60H179.803c-8.284 0-15-6.716-15-15s6.716-15 15-15h189.355c8.284 0 15 6.716 15 15s-6.715 15-14.999 15zm14.657-60H193.632c-8.284 0-15-6.716-15-15s6.716-15 15-15h190.184c8.284 0 15 6.716 15 15s-6.715 15-15 15zm11.443-60H204.014c-8.284 0-15-6.716-15-15s6.716-15 15-15H395.26c8.284 0 15 6.716 15 15s-6.717 15-15.001 15z" fill="#ffffff" opacity="1" data-original="#000000" class=""></path></g></svg>