<svg xmlns="http://www.w3.org/2000/svg" version="1.1" xmlns:xlink="http://www.w3.org/1999/xlink" width="512" height="512" x="0" y="0" viewBox="0 0 48 48" style="enable-background:new 0 0 512 512" xml:space="preserve" class=""><g><g data-name="31 - 40"><path d="M41 17.5H30V11a5.006 5.006 0 0 0-5-5H7a5.006 5.006 0 0 0-5 5v12a5.006 5.006 0 0 0 5 5v2.09a1.988 1.988 0 0 0 1.231 1.842 2 2 0 0 0 2.186-.435.892.892 0 0 0 .1-.114L13.005 28H18v6.5a5.006 5.006 0 0 0 5 5h11.086l3.5 3.5A2 2 0 0 0 41 41.586V39.5a5.006 5.006 0 0 0 5-5v-12a5.006 5.006 0 0 0-5-5ZM12.5 26a1 1 0 0 0-.8.407L9 30.067V27a1 1 0 0 0-1-1H7a3 3 0 0 1-3-3V11a3 3 0 0 1 3-3h18a3 3 0 0 1 3 3v6.5h-5a4.957 4.957 0 0 0-2.951.985l-3.139-6.9a1 1 0 0 0-1.82 0l-5 11a1 1 0 0 0 .5 1.324A.982.982 0 0 0 11 24a1 1 0 0 0 .91-.586L13.462 20h5.078l.071.155A4.939 4.939 0 0 0 18 22.5V26Zm5.131-8h-3.26L16 14.416ZM44 34.5a3 3 0 0 1-3 3h-1a1 1 0 0 0-1 1v3.086l-3.793-3.793a1 1 0 0 0-.707-.293H23a3 3 0 0 1-3-3v-12a3 3 0 0 1 3-3h18a3 3 0 0 1 3 3Z" fill="#ffffff" opacity="1" data-original="#000000" class=""></path><path d="M37 25h-4v-2a1 1 0 0 0-2 0v2h-4a1 1 0 0 0 0 2h7.42a6.96 6.96 0 0 1-2.426 4.348A6.974 6.974 0 0 1 30.171 29a1 1 0 1 0-1.806.858 8.863 8.863 0 0 0 1.875 2.572 7.128 7.128 0 0 1-2.811.57.97.97 0 0 0-.965 1 1.031 1.031 0 0 0 1.036 1 8.932 8.932 0 0 0 4.52-1.23A9.127 9.127 0 0 0 36.571 35a.97.97 0 0 0 .965-1 1.031 1.031 0 0 0-1.036-1 6.949 6.949 0 0 1-2.72-.566A8.97 8.97 0 0 0 36.441 27H37a1 1 0 0 0 0-2Z" fill="#ffffff" opacity="1" data-original="#000000" class=""></path></g></g></svg>
