<svg xmlns="http://www.w3.org/2000/svg" version="1.1" xmlns:xlink="http://www.w3.org/1999/xlink" width="512" height="512" x="0" y="0" viewBox="0 0 512 512" style="enable-background:new 0 0 512 512" xml:space="preserve" class=""><g><path d="M256 75.152C256 41.931 229.069 15 195.848 15s-60.152 26.931-60.152 60.152h-14.79c-33.221 0-60.152 26.931-60.152 60.152a59.898 59.898 0 0 0 13.234 37.646M73.988 339.05a59.898 59.898 0 0 0-13.234 37.646c0 33.221 26.931 60.152 60.152 60.152h14.79c0 33.221 26.931 60.152 60.152 60.152S256 470.069 256 436.848" style="stroke-width:30;stroke-miterlimit:10;" fill="none" stroke="#ffffff" stroke-width="30" stroke-miterlimit="10" data-original="#000000" opacity="1" class=""></path><path d="M108.635 343.574h-5.668c-48.366 0-87.574-39.208-87.574-87.574s39.208-87.574 87.574-87.574h5.668M403.365 343.574h5.668c48.366 0 87.574-39.208 87.574-87.574s-39.208-87.574-87.574-87.574h-5.668" style="stroke-width:30;stroke-miterlimit:10;" fill="none" stroke="#ffffff" stroke-width="30" stroke-miterlimit="10" data-original="#000000" opacity="1" class=""></path><path d="M256 75.152C256 41.931 282.931 15 316.152 15s60.152 26.931 60.152 60.152h14.79c33.221 0 60.152 26.931 60.152 60.152a59.898 59.898 0 0 1-13.234 37.646M438.013 339.05a59.898 59.898 0 0 1 13.234 37.646c0 33.221-26.931 60.152-60.152 60.152h-14.79c0 33.221-26.931 60.152-60.152 60.152S256 470.069 256 436.848" style="stroke-width:30;stroke-miterlimit:10;" fill="none" stroke="#ffffff" stroke-width="30" stroke-miterlimit="10" data-original="#000000" opacity="1" class=""></path><path d="M256 55.697v35.438h17.033c19.104 0 34.591 15.487 34.591 34.591s-15.487 34.591-34.591 34.591H256V256M256 456.303v-35.438h-17.033c-19.104 0-34.591-15.487-34.591-34.591s15.487-34.591 34.591-34.591H256V256" style="stroke-width:30;stroke-miterlimit:10;" fill="none" stroke="#ffffff" stroke-width="30" stroke-miterlimit="10" data-original="#000000" opacity="1" class=""></path><path d="M256 256.658h-60.05V238.967c0-19.104-15.487-34.591-34.591-34.591s-34.591 15.487-34.591 34.591V256.658H15.392M256 256.658h60.05V274.349c0 19.104 15.487 34.591 34.591 34.591s34.591-15.487 34.591-34.591V256.658h111.375" style="stroke-width:30;stroke-miterlimit:10;" fill="none" stroke="#ffffff" stroke-width="30" stroke-miterlimit="10" data-original="#000000" opacity="1" class=""></path></g></svg>
