<svg xmlns="http://www.w3.org/2000/svg" version="1.1" xmlns:xlink="http://www.w3.org/1999/xlink" width="512" height="512" x="0" y="0" viewBox="0 0 64.325 64.325" style="enable-background:new 0 0 512 512" xml:space="preserve" class=""><g><path d="M5.865 34.72c-1.906 0-3.754-.614-4.957-1.231L0 37.184c1.114.616 3.344 1.202 5.602 1.202 5.426 0 7.977-2.815 7.977-6.129 0-2.786-1.643-4.604-5.132-5.895-2.552-.969-3.666-1.525-3.666-2.786 0-1.027.938-1.907 2.874-1.907s3.344.558 4.135.939l.998-3.607c-1.174-.528-2.816-.997-5.045-.997-4.663 0-7.479 2.58-7.479 5.953 0 2.874 2.141 4.692 5.426 5.836 2.375.851 3.314 1.555 3.314 2.785 0 1.292-1.086 2.142-3.139 2.142zM29.211 34.427h-8.123v-4.692h7.272v-3.637h-7.272v-4.106h7.713v-3.666H16.6v19.767h12.611zM44.326 39.593c2.775 0 5.318-.999 7.298-2.653l3.937 3.674c-.006.41.143.816.465 1.117l5.777 5.394c.289.27.655.403 1.022.403a1.502 1.502 0 0 0 1.025-2.598l-5.777-5.393a1.485 1.485 0 0 0-1.146-.387l-3.885-3.625a11.346 11.346 0 0 0 2.684-7.332c0-6.285-5.112-11.397-11.397-11.397s-11.4 5.114-11.4 11.398c-.001 6.287 5.112 11.399 11.397 11.399zm0-19.796c4.631 0 8.398 3.767 8.398 8.397 0 4.63-3.769 8.398-8.398 8.398s-8.398-3.768-8.398-8.398 3.767-8.397 8.398-8.397z" fill="#ffffff" opacity="1" data-original="#000000" class=""></path></g></svg>
