<svg xmlns="http://www.w3.org/2000/svg" version="1.1" xmlns:xlink="http://www.w3.org/1999/xlink" width="512" height="512" x="0" y="0" viewBox="0 0 495.639 495.639" style="enable-background:new 0 0 512 512" xml:space="preserve" class=""><g><path d="m111.383 311.449 25.71 25.71L181 292.824c-42.189-50.288-51.165-116.721-31.554-172.972l58.424 58.423c-.498 58.74 47.326 110.077 109.726 110.077 36.632-.001 69.123-18.047 89.064-45.712l-66.332-66.333-45.998 46.001L123.264 51.242V90.03h-30l.001-90h89.999v29.999l-38.787.001L294.33 179.883l45.998-46.002 80.878 80.877c13.264-37.921 5.193-82.514-26.018-113.726-39.988-39.986-102.799-42.548-145.7-8.454l-48.503-48.504c69.869-60.736 175.883-57.972 242.507 8.652 33.627 33.627 52.146 78.338 52.146 125.895 0 98.174-79.869 178.046-178.043 178.047-42.804 0-83.297-15.01-115.482-42.528l-43.808 44.233 25.814 25.815-111.38 111.383L0 422.832z" fill="#ffffff" opacity="1" data-original="#000000" class=""></path><path d="M255.12 405.609h239.999v30H255.12zM165.119 465.609h180v29.999h-180z" fill="#ffffff" opacity="1" data-original="#000000" class=""></path></g></svg>