<svg xmlns="http://www.w3.org/2000/svg" version="1.1" xmlns:xlink="http://www.w3.org/1999/xlink" width="512" height="512" x="0" y="0" viewBox="0 0 511 511.999" style="enable-background:new 0 0 512 512" xml:space="preserve" class=""><g><path fill="#4f4c5f" d="M157.492 504.5h-52.547c0-65.816 48.989-96.535 48.989-96.535H324.41s48.992 30.719 48.992 96.535h-52.547l-81.683-21.938zm0 0" opacity="1" data-original="#4f4c5f"></path><path fill="#423e4f" d="M183.934 407.965h-30s-48.989 30.719-48.989 96.535h30c0-65.816 48.989-96.535 48.989-96.535zm0 0" opacity="1" data-original="#423e4f"></path><path fill="#34b5e1" d="M157.492 460.629h163.363V504.5H157.492zm0 0" opacity="1" data-original="#34b5e1"></path><path fill="#e8e8e8" d="M222.848 407.965h32.648V504.5h-32.648zm0 0" opacity="1" data-original="#e8e8e8"></path><path fill="#f5c956" d="M16.844 233.34c0-24.418 3.91-48.238 11.433-70.742l210.895-33.813 210.894 33.817c7.528 22.5 11.434 46.32 11.434 70.738zm0 0" opacity="1" data-original="#f5c956" class=""></path><path fill="#ffb25a" d="m259.172 131.992-20-3.207-210.89 33.817c-7.528 22.5-11.434 46.32-11.434 70.738h40c0-24.418 3.906-48.238 11.433-70.738zm0 0" opacity="1" data-original="#ffb25a"></path><path fill="#ffcabd" d="M470.434 233.336c0 20.426-16.555 36.984-36.98 36.984s-36.981-16.558-36.981-36.984c0-20.422 16.554-36.98 36.98-36.98s36.98 16.558 36.98 36.98zm0 0" opacity="1" data-original="#ffcabd"></path><path fill="#ffdcce" d="M433.453 233.336c0 107.3-86.98 194.281-194.281 194.281-107.297 0-194.277-86.98-194.277-194.281 0-107.297 86.98-194.277 194.277-194.277 107.3 0 194.281 86.98 194.281 194.277zm0 0" opacity="1" data-original="#ffdcce"></path><path fill="#ffcabd" d="M74.895 233.336c0-102.25 78.992-186.05 179.277-193.707-4.95-.379-9.953-.57-15-.57-94.711 0-173.578 67.777-190.781 157.472a34.847 34.847 0 0 0-3.496-.176c-20.426 0-36.985 16.56-36.985 36.98 0 20.427 16.559 36.985 36.985 36.985 1.207 0 2.37-.062 3.496-.175 17.203 89.695 96.07 157.472 190.78 157.472 5.048 0 10.052-.191 15-.57-100.288-7.66-179.276-91.457-179.276-193.711zm0 0" opacity="1" data-original="#ffcabd"></path><path fill="#f5c956" d="M450.07 48.54v46.429l-210.898 33.816L28.277 94.97v-46.43a43.975 43.975 0 0 1 4.641-19.66 43.93 43.93 0 0 1 12.934-15.512A29.259 29.259 0 0 1 63.43 7.504a29.248 29.248 0 0 1 17.574 5.863c10.406 7.82 24.734 7.82 35.152 0 10.41-7.82 24.735-7.82 35.14 0 5.204 3.906 11.4 5.863 17.583 5.863s12.367-1.957 17.57-5.863 11.387-5.863 17.57-5.863a29.262 29.262 0 0 1 17.583 5.863c10.41 7.82 24.734 7.82 35.14 0 10.422-7.82 24.746-7.82 35.156 0 5.204 3.906 11.387 5.863 17.57 5.863s12.376-1.957 17.579-5.863a29.248 29.248 0 0 1 17.574-5.863c6.18 0 12.367 1.957 17.57 5.863 10.418 7.82 24.743 7.82 35.153 0s24.734-7.82 35.152 0A44.005 44.005 0 0 1 450.07 48.54zm0 0" opacity="1" data-original="#f5c956" class=""></path><path fill="#ffb25a" d="M58.277 94.969v-46.43a43.975 43.975 0 0 1 4.641-19.66 43.93 43.93 0 0 1 12.934-15.512 29.66 29.66 0 0 1 2.574-1.707 29.216 29.216 0 0 0-14.992-4.156 29.262 29.262 0 0 0-17.582 5.863A43.93 43.93 0 0 0 32.918 28.88a44.024 44.024 0 0 0-4.637 19.66v46.43l210.89 33.816 15-2.406zm0 0" opacity="1" data-original="#ffb25a"></path><path fill="#34b5e1" d="M28.277 94.969H450.07v67.633H28.277zm0 0" opacity="1" data-original="#34b5e1"></path><path fill="#0080b8" d="M28.277 94.969h30v67.633h-30zm0 0" opacity="1" data-original="#0080b8"></path><path fill="#b2b0bc" d="M303.805 76.508H174.539c-16.559 0-29.984 13.426-29.984 29.984v44.582c0 16.563 13.425 29.988 29.984 29.988h129.266c16.562 0 29.988-13.425 29.988-29.988v-44.582c0-16.558-13.426-29.984-29.988-29.984zm0 0" opacity="1" data-original="#b2b0bc" class=""></path><path fill="#a19dae" d="M174.555 151.074v-44.582c0-16.558 13.425-29.984 29.984-29.984h-30c-16.559 0-29.984 13.426-29.984 29.984v44.582c0 16.563 13.425 29.988 29.984 29.988h30c-16.559 0-29.984-13.425-29.984-29.988zm0 0" opacity="1" data-original="#a19dae"></path><path fill="#ff9db0" d="M157.082 270.953h-25.055a7.5 7.5 0 0 1-7.5-7.5c0-4.144 3.356-7.5 7.5-7.5h25.055c4.145 0 7.5 3.356 7.5 7.5a7.5 7.5 0 0 1-7.5 7.5zM346.32 270.953h-25.058a7.5 7.5 0 1 1 0-15h25.058c4.145 0 7.5 3.356 7.5 7.5a7.5 7.5 0 0 1-7.5 7.5zm0 0" opacity="1" data-original="#ff9db0"></path><path d="M152.086 236.512v-18.39c0-4.142-3.356-7.497-7.496-7.497s-7.496 3.355-7.496 7.496v18.39c0 4.141 3.355 7.497 7.496 7.497s7.496-3.356 7.496-7.496zM341.254 236.512v-18.39a7.495 7.495 0 0 0-7.496-7.497 7.495 7.495 0 0 0-7.496 7.496v18.39a7.495 7.495 0 0 0 7.496 7.497 7.495 7.495 0 0 0 7.496-7.496zM250.445 250.086c-2.734 3.129-6.84 4.922-11.273 4.922-4.43 0-8.535-1.793-11.27-4.922a7.499 7.499 0 0 0-10.578-.711 7.495 7.495 0 0 0-.71 10.578c5.577 6.387 13.804 10.05 22.558 10.05 8.758 0 16.98-3.663 22.562-10.05a7.499 7.499 0 0 0-.707-10.578 7.5 7.5 0 0 0-10.582.71zm0 0" fill="#000000" opacity="1" data-original="#000000" class=""></path><path d="M457.488 48.71c0-31.69-34.746-63.67-64.707-41.151-7.687 5.777-18.433 5.777-26.133-.004-12.945-9.72-31.195-9.711-44.132 0-7.66 5.75-18.477 5.75-26.133.004-12.992-9.766-31.145-9.766-44.149 0-7.691 5.777-18.433 5.777-26.125-.004-12.933-9.72-31.218-9.7-44.14 0-7.668 5.754-18.473 5.754-26.137.004-12.992-9.766-31.144-9.766-44.133-.004-7.699 5.78-18.445 5.78-26.14 0C64.402-8.348 37.137 3.996 26.285 25.707a51.742 51.742 0 0 0-5.426 23.004v112.852c-4.554 13.875-7.773 28.296-9.605 42.93C4.559 212.276.5 222.39.5 233.437c0 23.66 18.57 43.054 41.898 44.386 12.684 56.262 48.942 103.684 97.813 131.317-15.215 13.25-42.715 44.254-42.715 95.363 0 4.14 3.36 7.496 7.496 7.496h268.36c4.14 0 7.496-3.36 7.496-7.496 0-50.977-27.36-81.961-42.598-95.262 16.664-9.433 32.086-21.316 45.82-35.5a7.497 7.497 0 1 0-10.773-10.43c-40.781 42.098-99.992 62.813-158.188 55.29-80.355-10.383-144.847-72.051-159.504-151-6.023-32.43-3.308-66.336 7.86-97.372h78.8a37.327 37.327 0 0 0 19.2 16.082 37.8 37.8 0 0 0 13.062 2.368c.012 0 .024.004.036.004H303.78c.012 0 .02-.004.031-.004 4.481 0 8.875-.84 13.079-2.371a37.346 37.346 0 0 0 19.187-16.079h78.8a185.446 185.446 0 0 1 7.642 27.825c.007.047.023.093.035.14 4.933 23.024 4.398 47.57-.035 70.633-.028.14-.04.277-.06.418-4.98 25.703-15.343 50.063-30.67 71.77a7.5 7.5 0 0 0 1.8 10.449 7.5 7.5 0 0 0 10.45-1.8c15.42-21.845 26.183-46.173 31.94-71.84 23.313-1.352 41.864-20.74 41.864-44.384 0-11.05-4.059-21.164-10.754-28.949-1.828-14.633-5.05-29.055-9.602-42.926V48.711zM150.023 460.649v36.36h-37.308c1.36-22.39 8.855-42.668 22.34-60.375 7.683-10.09 15.46-16.735 19.683-19.969a199.702 199.702 0 0 0 53.469 16.106c2.074.32 6.848.94 7.152.976v19.406h-57.84a7.495 7.495 0 0 0-7.496 7.496zm14.993 7.497h50.343v28.859h-50.343zm82.98 28.863h-17.644v-62.059c.5.024 6.218.192 8.578.196 3.023.003 6.043-.055 9.066-.196zm14.992-28.863h50.34v28.859h-50.34zm102.637 28.863h-37.3v-36.36c0-4.14-3.36-7.496-7.497-7.496h-57.84v-19.394c21.207-2.473 41.63-8.23 60.7-17.04 9.925 7.622 39.05 33.813 41.937 80.29zm74.496-307.524a45.655 45.655 0 0 0-4.156-.437 200.063 200.063 0 0 0-5.207-18.817h13.762c2.199 7.18 4.02 14.504 5.453 21.926a44.087 44.087 0 0 0-9.852-2.672zm-401.957.008a44.12 44.12 0 0 0-9.793 2.664 212.23 212.23 0 0 1 5.457-21.926H47.59a198.886 198.886 0 0 0-5.207 18.817 45.57 45.57 0 0 0-4.153.437c-.023.004-.046.008-.066.008zm1.383 72.918c-13.672-2.547-24.055-14.57-24.055-28.973 0-13.8 10.434-26.378 23.985-28.957.02-.003.039-.003.058-.007-.152 1.07-.293 2.144-.43 3.222a203.517 203.517 0 0 0 .442 54.715zm-3.695-107.176v-52.617H68.64c4.14 0 7.496-3.355 7.496-7.496s-3.356-7.496-7.496-7.496H35.85V48.711a36.751 36.751 0 0 1 3.844-16.305c4.528-9.05 13.157-17.219 23.801-17.219 4.742 0 9.262 1.508 13.059 4.356 12.988 9.762 31.144 9.766 44.148 0 7.692-5.777 18.43-5.777 26.125.004 12.942 9.71 31.211 9.703 44.14 0 7.665-5.75 18.477-5.75 26.134-.004 12.996 9.766 31.144 9.766 44.136.004 7.696-5.781 18.446-5.781 26.137 0 12.918 9.707 31.234 9.683 44.14 0 7.665-5.754 18.473-5.746 26.13 0 13 9.758 31.152 9.758 44.144-.004 19.961-15 40.703 9.898 40.703 29.168v38.91H336.078a37.342 37.342 0 0 0-19.16-16.07 37.608 37.608 0 0 0-13.133-2.38H174.566c-13.144 0-25.64 7.122-32.296 18.45H98.629a7.499 7.499 0 0 0 0 14.996h38.676c-.004.04-.215 2.727-.215 4.024v44.57c0 1.34.07 2.687.215 4.023zm287.953 5.79c-3.79 7.304-11.512 12.648-20.02 12.663H174.543c-12.172-.105-22.457-10.25-22.457-22.476v-44.566c0-12.204 10.27-22.48 22.48-22.48h129.22c12.034 0 22.476 10.456 22.476 22.48v44.566c0 3.445-.895 6.797-2.457 9.812zm17.246-5.903c.133-1.297.203-2.61.203-3.91v-44.566c0-1.344-.074-2.692-.211-4.028h101.45v52.617h-101.45c.004-.039.004-.074.008-.113zm97.761 107.29a203.774 203.774 0 0 0 1.782-18.235c.687-13.13.105-26.582-1.782-39.703l.06.011c5.722 1.086 11.058 3.907 15.202 7.996 5.578 5.504 8.781 13.122 8.781 20.961 0 14.395-10.378 26.414-24.043 28.97zm0 0" fill="#000000" opacity="1" data-original="#000000" class=""></path></g></svg>
