<svg xmlns="http://www.w3.org/2000/svg" version="1.1" xmlns:xlink="http://www.w3.org/1999/xlink" width="512" height="512" x="0" y="0" viewBox="0 0 128 128" style="enable-background:new 0 0 512 512" xml:space="preserve" class=""><g><path fill="#3166b8" d="M64 74c20.987 0 38 14.583 38 32.571V122H26v-15.429C26 88.583 43.013 74 64 74z" opacity="1" data-original="#3166b8"></path><path fill="#3473c8" d="M64 74a41.24 41.24 0 0 1 27 9.657V122H37V83.657A41.24 41.24 0 0 1 64 74z" opacity="1" data-original="#3473c8" class=""></path><path fill="#edb494" d="M64 84a8.25 8.25 0 0 0 8.25-8.25V69h-16.5v6.75A8.25 8.25 0 0 0 64 84z" opacity="1" data-original="#edb494"></path><path fill="#dc6482" d="M81 68.081a37.589 37.589 0 0 1-34 0l-4.916 9.607a3.986 3.986 0 0 0 2.056 5.505 52.658 52.658 0 0 0 39.72 0 3.986 3.986 0 0 0 2.055-5.505L81 68.08z" opacity="1" data-original="#dc6482"></path><g fill="#fff"><circle cx="64" cy="92" r="2" fill="#ffffff" opacity="1" data-original="#ffffff" class=""></circle><circle cx="64" cy="104" r="2" fill="#ffffff" opacity="1" data-original="#ffffff" class=""></circle><circle cx="64" cy="116" r="2" fill="#ffffff" opacity="1" data-original="#ffffff" class=""></circle></g><path fill="#dc6482" d="M53 118H31l14-52h8z" opacity="1" data-original="#dc6482"></path><path fill="#d2506a" d="M53 66h2v52h-2z" opacity="1" data-original="#d2506a"></path><path fill="#e67d99" d="M63.888 74a27.858 27.858 0 0 1-27.517-23.513l-1.6-10.13a29.541 29.541 0 0 1 5.55-22.673A29.95 29.95 0 0 1 64.085 6a29.869 29.869 0 0 1 14.015 3.468c11.447 6.06 17.35 19.121 15.003 31.86l-1.816 9.86A27.858 27.858 0 0 1 63.888 74z" opacity="1" data-original="#e67d99" class=""></path><path fill="#fdc8a8" d="M64 72a22.065 22.065 0 0 0 22-22V40a22 22 0 0 0-22-22 22.065 22.065 0 0 0-22 22v10a22.065 22.065 0 0 0 22 22z" opacity="1" data-original="#fdc8a8"></path><path fill="#e62626" d="M58 60a6 6 0 0 0 12 0z" opacity="1" data-original="#e62626"></path><path fill="#2c2c2c" d="M46.913 38.694a8.418 8.418 0 0 1 10.174 0 1.239 1.239 0 0 0 1.563.052 1.127 1.127 0 0 0-.364-1.632 10.402 10.402 0 0 0-12.572 0 1.127 1.127 0 0 0-.364 1.632 1.239 1.239 0 0 0 1.563-.052zM70.913 38.694a8.418 8.418 0 0 1 10.174 0 1.239 1.239 0 0 0 1.563.052 1.127 1.127 0 0 0-.364-1.632 10.402 10.402 0 0 0-12.572 0 1.127 1.127 0 0 0-.364 1.632 1.239 1.239 0 0 0 1.563-.052z" opacity="1" data-original="#2c2c2c"></path><path fill="#edb494" d="M64 56a2 2 0 0 0 2-2v-4a2 2 0 0 0-2-2 2 2 0 0 0-2 2v4a2 2 0 0 0 2 2z" opacity="1" data-original="#edb494"></path><circle cx="76" cy="45" r="3" fill="#2c2c2c" opacity="1" data-original="#2c2c2c"></circle><circle cx="52" cy="45" r="3" fill="#2c2c2c" opacity="1" data-original="#2c2c2c"></circle><path fill="#ffffff" d="M86 22.42a45.14 45.14 0 0 0-44 0V35a39.123 39.123 0 0 1 44 0z" opacity="1" data-original="#ffffff" class=""></path><path fill="#e67d99" d="M64 7a28 28 0 0 0-28 28l6 8a22 22 0 0 1 44 0l6-8A28 28 0 0 0 64 7z" opacity="1" data-original="#e67d99" class=""></path></g></svg>
