<svg xmlns="http://www.w3.org/2000/svg" version="1.1" xmlns:xlink="http://www.w3.org/1999/xlink" width="512" height="512" x="0" y="0" viewBox="0 0 58 58" style="enable-background:new 0 0 512 512" xml:space="preserve" class=""><g><g fill="none" transform="translate(-1 -1)"><path fill="#b4703a" d="M40.5 54h-.01a5.72 5.72 0 0 0-2.741.685 17.323 17.323 0 0 0-3.629 2.535.9.9 0 0 0-.1.09 5.63 5.63 0 0 1-8.04 0 .9.9 0 0 0-.1-.09 17.323 17.323 0 0 0-3.629-2.535A5.72 5.72 0 0 0 19.51 54h-.01A18.5 18.5 0 0 1 1.109 33.471a18.151 18.151 0 0 1 2.7-7.761A13.969 13.969 0 0 0 6 18.272v-.02a15.212 15.212 0 0 0-.225-2.483C4.588 8.62 5.606 3.525 6.3 1.652a1 1 0 0 1 1.269-.6 11.68 11.68 0 0 1 7.1 6.956c2.21.06 9.43.45 14.5 2.8.525.25 1.135.25 1.66 0 5.07-2.35 12.29-2.74 14.5-2.79C47 3.471 50.084 1.61 51.73 1.056a1 1 0 0 1 1.271.6 27.194 27.194 0 0 1 1.225 14.116c-.143.82-.219 1.649-.226 2.48v.02a13.969 13.969 0 0 0 2.188 7.438 18.151 18.151 0 0 1 2.7 7.761A18.5 18.5 0 0 1 40.5 54z" opacity="1" data-original="#b4703a"></path><path fill="#d89f76" d="M53.89 36.69a13 13 0 0 1-19.34 9.6 13.2 13.2 0 0 1-3.07-2.44 2 2 0 0 0-2.96 0 13 13 0 1 1-13.56-21.2h30.08a12.986 12.986 0 0 1 8.85 14.04z" opacity="1" data-original="#d89f76"></path><path fill="#f7b953" d="M34.55 46.29a20.68 20.68 0 0 1-2.98 5.95 2.006 2.006 0 0 1-3.14 0 20.68 20.68 0 0 1-2.98-5.95 13.2 13.2 0 0 0 3.07-2.44 2 2 0 0 1 2.96 0 13.2 13.2 0 0 0 3.07 2.44z" opacity="1" data-original="#f7b953"></path><path fill="#935525" d="M15 9a21.173 21.173 0 0 1-2.24 9.47L12 20a9.946 9.946 0 0 0-7.27 4.02A13.89 13.89 0 0 0 6 18.27v-.02a14.762 14.762 0 0 0-.23-2.48C4.59 8.62 5.61 3.52 6.3 1.65a1.012 1.012 0 0 1 1.27-.6 11.727 11.727 0 0 1 7.1 6.96c.12.32.23.65.33.99zM55.27 24.02A9.946 9.946 0 0 0 48 20l-.76-1.53A21.173 21.173 0 0 1 45 9c.092-.332.202-.66.33-.98 1.67-4.55 4.75-6.41 6.4-6.96a1 1 0 0 1 1.27.59 27.27 27.27 0 0 1 1.23 14.12 14.762 14.762 0 0 0-.23 2.48v.02a13.89 13.89 0 0 0 1.27 5.75z" opacity="1" data-original="#935525" class=""></path><circle cx="19" cy="31" r="6" fill="#ffffff" opacity="1" data-original="#ffffff"></circle><circle cx="41" cy="31" r="6" fill="#ffffff" opacity="1" data-original="#ffffff"></circle><path fill="#a06134" d="M48 20S38 30 30 30 12 20 12 20l.76-1.53A21.173 21.173 0 0 0 15 9c-.1-.34-.21-.67-.33-.99 2.21.06 9.43.45 14.5 2.8.525.25 1.135.25 1.66 0 5.07-2.35 12.29-2.74 14.5-2.79-.128.32-.238.648-.33.98.001 3.288.768 6.53 2.24 9.47zM40.5 54h-.01a5.687 5.687 0 0 0-2.74.69 17.579 17.579 0 0 0-3.63 2.53.9.9 0 0 0-.1.09A5.669 5.669 0 0 1 29 58.9a5.894 5.894 0 0 0 3.02-1.59.9.9 0 0 1 .1-.09 17.579 17.579 0 0 1 3.63-2.53 5.687 5.687 0 0 1 2.74-.69h.01a18.5 18.5 0 0 0 18.39-20.53 18.135 18.135 0 0 0-2.7-7.76 13.909 13.909 0 0 1-1.81-4.3 10.912 10.912 0 0 1 2.89 2.61c.271.582.578 1.146.92 1.69 1.482 2.346 2.406 5 2.7 7.76A18.5 18.5 0 0 1 40.5 54z" opacity="1" data-original="#a06134" class=""></path><path fill="#804820" d="M55.27 24.02a10.912 10.912 0 0 0-2.89-2.61 13.228 13.228 0 0 1-.38-3.14v-.02c.007-.832.084-1.661.23-2.48A27.27 27.27 0 0 0 51 1.65a.755.755 0 0 0-.13-.23c.278-.14.565-.261.86-.36a1 1 0 0 1 1.27.59 27.27 27.27 0 0 1 1.23 14.12 14.762 14.762 0 0 0-.23 2.48v.02c0 .33.01.65.04.98v.02c.02.24.04.48.07.71.02.17.05.34.08.51.04.25.08.49.14.73.144.654.338 1.296.58 1.92.08.23.18.46.28.69.022.065.05.129.08.19z" opacity="1" data-original="#804820"></path><path fill="#ecad45" d="M34.55 46.29a20.68 20.68 0 0 1-2.98 5.95 2 2 0 0 1-2.34.6c.31-.13.582-.336.79-.6a19.125 19.125 0 0 0 2.71-5.18 1.017 1.017 0 0 0-.41-1.19 13.25 13.25 0 0 1-2.39-2.02 2.376 2.376 0 0 0-.7-.5 2.007 2.007 0 0 1 2.25.5 13.2 13.2 0 0 0 3.07 2.44z" opacity="1" data-original="#ecad45"></path><path fill="#935525" d="M30 19.989a6.807 6.807 0 0 1-2.938-.654 29.291 29.291 0 0 0-8.181-2.012 1 1 0 0 1 .238-1.986 31.23 31.23 0 0 1 8.789 2.186c1.331.622 2.87.62 4.2-.007a31.091 31.091 0 0 1 8.772-2.175.987.987 0 0 1 1.112.874 1 1 0 0 1-.874 1.112 28.685 28.685 0 0 0-8.162 2 6.886 6.886 0 0 1-2.956.662z" opacity="1" data-original="#935525" class=""></path><circle cx="19" cy="31" r="4" fill="#bae1eb" opacity="1" data-original="#bae1eb"></circle><circle cx="19" cy="31" r="3" fill="#000000" opacity="1" data-original="#000000"></circle><circle cx="20" cy="30" r="1" fill="#ffffff" opacity="1" data-original="#ffffff"></circle><circle cx="17.5" cy="32.5" r="1" fill="#ffffff" opacity="1" data-original="#ffffff"></circle><circle cx="41" cy="31" r="4" fill="#bae1eb" opacity="1" data-original="#bae1eb"></circle><circle cx="41" cy="31" r="3" fill="#000000" opacity="1" data-original="#000000"></circle><g fill="#fff"><circle cx="42" cy="30" r="1" fill="#ffffff" opacity="1" data-original="#ffffff"></circle><circle cx="39.5" cy="32.5" r="1" fill="#ffffff" opacity="1" data-original="#ffffff"></circle></g></g></g></svg>
