<svg xmlns="http://www.w3.org/2000/svg" version="1.1" xmlns:xlink="http://www.w3.org/1999/xlink" width="512" height="512" x="0" y="0" viewBox="0 0 512 512" style="enable-background:new 0 0 512 512" xml:space="preserve" class=""><g><path fill="#057096" d="M384.079 336.852h-5.869L256 362.379l-122.21-25.527h-5.868C57.272 336.852 0 394.124 0 464.773v31.223a5 5 0 0 0 5 5h191.742L256 487.066l59.258 13.93H507a5 5 0 0 0 5-5v-31.223c0-70.649-57.272-127.921-127.921-127.921z" opacity="1" data-original="#057096"></path><path fill="#055e7f" d="M384.079 336.852h-5.869l-23.599 8.903c47.404 18.727 80.941 64.956 80.941 119.018v31.223a5 5 0 0 1-5 5H507a5 5 0 0 0 5-5v-31.223c0-70.649-57.272-127.921-127.921-127.921z" opacity="1" data-original="#055e7f" class=""></path><path fill="#ecf4ff" d="M378.21 336.852H133.789l62.953 164.144h118.516z" opacity="1" data-original="#ecf4ff" class=""></path><path fill="#ddeafb" d="M378.21 336.852h-70.579c23.319 0 45.178 6.243 64.004 17.143z" opacity="1" data-original="#ddeafb" class=""></path><path fill="#ffccbf" d="M385.783 227.183h-.793c-7.781 0-14.088-6.307-14.088-14.088v-26.894c0-18.329 14.859-33.187 33.187-33.187h.793c10.873 0 19.688 8.814 19.688 19.688v15.695c0 21.42-17.365 38.786-38.787 38.786zM126.181 227.183h.793c7.781 0 14.088-6.307 14.088-14.088v-26.894c0-18.329-14.859-33.187-33.187-33.187h-.793c-10.873 0-19.688 8.814-19.688 19.688v15.695c0 21.42 17.366 38.786 38.787 38.786zM166.848 279.154h178.304v92.485H166.848z" opacity="1" data-original="#ffccbf" class=""></path><path fill="#feae9e" d="M314.933 279.154h30.219v92.485h-30.219z" opacity="1" data-original="#feae9e" class=""></path><path fill="#ffccbf" d="m350.919 282.5-5.768 4.776-15.109 1.228s-13.007 21.925-15.108 23.412c-37.371 26.458-88.279 24.882-124.038-4.727L161.081 282.5a84.903 84.903 0 0 1-30.755-65.395V115.72c0-57.833 46.883-104.716 104.716-104.716h41.916c57.833 0 104.716 46.883 104.716 104.716v46.009l-7.049 28.369s6.873 33.308 6.527 36.416a84.912 84.912 0 0 1-30.233 55.986z" opacity="1" data-original="#ffccbf" class=""></path><path fill="#feae9e" d="M276.958 11.004H244.27c57.833 0 104.716 46.883 104.716 104.716v101.384a84.902 84.902 0 0 1-30.755 65.395l-29.816 24.689a101.777 101.777 0 0 1-48.759 22.127c28.284 4.575 58.095-2.791 81.447-22.127l29.816-24.689a84.903 84.903 0 0 0 30.755-65.395V115.72c0-57.833-46.883-104.716-104.716-104.716z" opacity="1" data-original="#feae9e" class=""></path><path fill="#e28086" d="M263.508 271.127h-15.016c-7.581 0-13.727-6.146-13.727-13.727v-13.99h42.469v13.99c0 7.581-6.145 13.727-13.726 13.727z" opacity="1" data-original="#e28086"></path><path fill="#ecf4ff" d="m171.11 20.383-29.84 17.763a40.21 40.21 0 0 0-19.642 34.551v46.317c0 5.354 6.156 8.369 10.385 5.085l30.076-23.35c19.119-14.843 27.691-39.562 21.866-63.056l-3.305-13.328c-1.039-4.192-5.829-6.192-9.54-3.982z" opacity="1" data-original="#ecf4ff" class=""></path><path fill="#ddeafb" d="m183.955 37.693-3.305-13.328c-1.039-4.192-5.83-6.192-9.541-3.982l-10.639 6.333.119.478c5.825 23.493-2.747 48.212-21.866 63.056l-17.095 13.272v15.491c0 5.354 6.156 8.369 10.385 5.085l30.076-23.35c19.12-14.843 27.692-39.562 21.866-63.055z" opacity="1" data-original="#ddeafb" class=""></path><path fill="#ecf4ff" d="m340.89 20.383 29.84 17.763a40.21 40.21 0 0 1 19.642 34.551v46.317c0 5.354-6.156 8.369-10.385 5.085l-30.076-23.35c-19.119-14.843-27.691-39.562-21.866-63.056l3.305-13.328c1.039-4.192 5.829-6.192 9.54-3.982z" opacity="1" data-original="#ecf4ff" class=""></path><path fill="#ddeafb" d="m370.73 38.146-29.84-17.763c-3.711-2.209-8.502-.21-9.541 3.982l-3.305 13.328c-.059.236-.106.473-.162.709l19.941 11.871a40.21 40.21 0 0 1 19.642 34.551v29.554l12.521 9.721c4.23 3.284 10.386.269 10.386-5.085V72.697a40.21 40.21 0 0 0-19.642-34.551z" opacity="1" data-original="#ddeafb" class=""></path><path fill="#057096" d="m285.899 500.996-11.489-79.864h-36.789l-11.489 79.864z" opacity="1" data-original="#057096"></path><path fill="#055e7f" d="M274.41 421.132h-21.341l11.489 79.864h21.341z" opacity="1" data-original="#055e7f" class=""></path><path fill="#057096" d="M264.886 370.612h-17.741c-5.998 0-11.54 3.2-14.538 8.394l-8.87 15.364a16.786 16.786 0 0 0 0 16.787l8.87 15.364a16.788 16.788 0 0 0 14.538 8.394h17.741c5.998 0 11.539-3.2 14.538-8.394l8.87-15.364a16.786 16.786 0 0 0 0-16.787l-8.87-15.364a16.788 16.788 0 0 0-14.538-8.394z" opacity="1" data-original="#057096"></path><path fill="#055e7f" d="m288.294 394.37-8.87-15.364a16.772 16.772 0 0 0-2.993-3.782 16.782 16.782 0 0 1-.133 16.537l-8.87 15.364a16.788 16.788 0 0 1-14.538 8.394h-17.741a16.778 16.778 0 0 1-11.545-4.611c.046.083.086.168.133.25l8.87 15.364a16.788 16.788 0 0 0 14.538 8.394h17.741c5.998 0 11.539-3.2 14.538-8.394l8.87-15.364a16.787 16.787 0 0 0 0-16.788z" opacity="1" data-original="#055e7f" class=""></path><path fill="#ecf4ff" d="m168.85 325.211 83.888 41.251c4.012 1.973 4.408 7.537.717 10.059l-55.007 37.581c-3.838 2.622-9.09 1.493-11.512-2.475l-43.289-70.93a5.592 5.592 0 0 1 2.078-7.812l13.555-7.455a10.37 10.37 0 0 1 9.57-.219z" opacity="1" data-original="#ecf4ff" class=""></path><path fill="#ddeafb" d="m252.738 366.462-15.46-7.602-32.296 22.065c-3.838 2.622-9.09 1.493-11.512-2.474l-32.749-53.659c-.491.18-.976.384-1.442.64l-13.555 7.455a5.592 5.592 0 0 0-2.078 7.812l43.289 70.93a8.12 8.12 0 0 0 11.512 2.474l55.007-37.581c3.692-2.523 3.295-8.087-.716-10.06z" opacity="1" data-original="#ddeafb" class=""></path><path fill="#ecf4ff" d="m343.15 325.211-83.888 41.251c-4.012 1.973-4.408 7.537-.717 10.059l55.007 37.581c3.838 2.622 9.09 1.493 11.512-2.475l37.957-62.194 1.736-8.312s4.552-2.979 4.338-4.256a5.576 5.576 0 0 0-2.821-3.979l-13.555-7.455a10.364 10.364 0 0 0-9.569-.22z" opacity="1" data-original="#ecf4ff" class=""></path><path fill="#ddeafb" d="m366.275 332.886-13.555-7.455a10.26 10.26 0 0 0-1.342-.606l-32.849 53.823c-2.422 3.968-7.673 5.097-11.512 2.475l-32.464-22.179-15.292 7.52c-4.012 1.973-4.408 7.537-.717 10.059l55.007 37.581c3.838 2.622 9.09 1.493 11.512-2.474l43.289-70.93a5.591 5.591 0 0 0-2.077-7.814z" opacity="1" data-original="#ddeafb" class=""></path><path fill="#004c67" d="M136.238 468.676H76.721a7.612 7.612 0 1 1 0-15.224h59.517a7.612 7.612 0 1 1 0 15.224z" opacity="1" data-original="#004c67"></path><path fill="#dd636e" d="m234.766 245.078 21.002 21.002a32.363 32.363 0 0 0 6.548 5.047h1.193c7.581 0 13.727-6.146 13.727-13.727v-13.99h-42.469v1.668z" opacity="1" data-original="#dd636e"></path><path fill="#feae9e" d="M385.783 227.183h-.793c-7.781 0-14.088-6.307-14.088-14.088v-26.894c0-18.329 14.859-33.187 33.187-33.187h.793c10.873 0 19.688 8.814 19.688 19.688v15.695c0 21.42-17.365 38.786-38.787 38.786z" opacity="1" data-original="#feae9e" class=""></path><circle cx="201.72" cy="157.145" r="10.59" fill="#04b59d" opacity="1" data-original="#04b59d" class=""></circle><circle cx="310.28" cy="157.145" r="10.59" fill="#04b59d" opacity="1" data-original="#04b59d" class=""></circle><path fill="#ecf4ff" d="m257.758 245.544 16.197 16.197a24.183 24.183 0 0 0 17.1 7.083h29.721a2.496 2.496 0 0 0 2.464-2.866c-4.885-32.754-33.125-57.879-67.239-57.879s-62.353 25.125-67.239 57.879a2.496 2.496 0 0 0 2.464 2.866h29.721a24.183 24.183 0 0 0 17.1-7.083l16.197-16.197a2.484 2.484 0 0 1 3.514 0z" opacity="1" data-original="#ecf4ff" class=""></path><path fill="#ddeafb" d="M323.239 265.957c-4.885-32.754-33.125-57.879-67.239-57.879-4.089 0-8.091.37-11.982 1.062 28.564 5.08 50.957 27.989 55.257 56.816a2.496 2.496 0 0 1-2.464 2.866h23.964a2.495 2.495 0 0 0 2.464-2.865z" opacity="1" data-original="#ddeafb" class=""></path><path fill="#feae9e" d="m285.733 185.046-5.636-3.296a7.32 7.32 0 0 1-3.624-6.318v-7.914c0-11.101-8.632-20.556-19.727-20.951-11.647-.414-21.22 8.905-21.22 20.46v8.404c0 2.6-1.379 5.005-3.624 6.318l-5.636 3.296a11.216 11.216 0 0 0-5.554 9.682c0 6.195 5.022 11.216 11.216 11.216h6.925a6.42 6.42 0 0 1 4.458 1.792 18.219 18.219 0 0 0 12.688 5.126c4.93 0 9.398-1.955 12.688-5.126a6.418 6.418 0 0 1 4.458-1.792h6.925c6.195 0 11.216-5.022 11.216-11.216a11.212 11.212 0 0 0-5.553-9.681z" opacity="1" data-original="#feae9e" class=""></path><path fill="#f69480" d="m285.733 185.046-5.636-3.296a7.32 7.32 0 0 1-3.624-6.318v-7.914c0-11.101-8.632-20.556-19.727-20.951a20.426 20.426 0 0 0-8.78 1.63c7.956 3.344 13.464 11.409 13.464 20.527v8.369a7.74 7.74 0 0 0 3.832 6.681l5.961 3.486a11.86 11.86 0 0 1 2.336 18.684h6.512c6.195 0 11.216-5.022 11.216-11.216 0-3.985-2.114-7.67-5.554-9.682z" opacity="1" data-original="#f69480" class=""></path><path fill="#055e7f" d="M383.622 149.532h-33.504c-3.574-18.74-20.073-32.954-39.839-32.954-17.471 0-32.397 11.102-38.096 26.621A32.666 32.666 0 0 0 256 138.942a32.666 32.666 0 0 0-16.183 4.26c-5.698-15.52-20.625-26.623-38.097-26.623-19.766 0-36.265 14.213-39.839 32.954h-33.503a7.612 7.612 0 1 0 0 15.224h33.503c3.574 18.74 20.074 32.954 39.839 32.954 21.053 0 38.407-16.123 40.375-36.668A17.408 17.408 0 0 1 256 154.168a17.405 17.405 0 0 1 13.905 6.875c1.968 20.546 19.321 36.668 40.375 36.668 19.766 0 36.265-14.213 39.839-32.954h33.504a7.612 7.612 0 1 0-.001-15.225zM201.72 182.486c-13.973 0-25.341-11.368-25.341-25.341s11.368-25.341 25.341-25.341c13.974 0 25.342 11.368 25.342 25.341s-11.368 25.341-25.342 25.341zm108.559 0c-13.638 0-24.789-10.831-25.316-24.342-.002-.058-.001-.115-.004-.173-.009-.275-.021-.549-.021-.826 0-13.973 11.368-25.341 25.341-25.341s25.341 11.368 25.341 25.341-11.368 25.341-25.341 25.341z" opacity="1" data-original="#055e7f" class=""></path></g></svg>
