<svg xmlns="http://www.w3.org/2000/svg" version="1.1" xmlns:xlink="http://www.w3.org/1999/xlink" width="512" height="512" x="0" y="0" viewBox="0 0 512 512" style="enable-background:new 0 0 512 512" xml:space="preserve" class=""><g><path fill="#8fd1e3" d="M512 256c0 31.89-5.83 62.42-16.49 90.58-89.907 43.353-130.02 73.967-239.51 73.967-48.57 0-41.39 42.23-80.08 18.719-48.52-29.46-139.08-38.896-159.43-92.686C5.83 318.42 0 287.89 0 256 0 114.62 114.62 0 256 0s256 114.62 256 256z" opacity="0" data-original="#8fd1e3" class=""></path><path fill="#b75c34" d="M495.51 346.58C458.93 443.26 365.49 512 256 512S53.07 443.26 16.49 346.58C79 294.88 163.28 263.2 256 263.2s177 31.68 239.51 83.38z" opacity="1" data-original="#b75c34"></path><path fill="#a54828" d="M256 263.2c-61.22 0-113.24 86.61-131.99 207.06-.24 1.57-.48 3.14-.69 4.71-48.52-29.46-86.48-74.6-106.83-128.39C79 294.88 163.28 263.2 256 263.2z" opacity="1" data-original="#a54828" class=""></path><path fill="#fff9f1" d="M412.249 198.923c-5.599-15.551-5.554-32.695.73-47.982 3.196-7.774 4.894-15.913 4.894-24.295 0-54.776-72.473-99.181-161.873-99.181S94.127 71.87 94.127 126.646c0 8.382 1.698 16.521 4.894 24.295 6.284 15.287 6.329 32.431.73 47.981L50.725 335.097c-7.498 20.826 4.074 43.742 25.332 49.912a645.687 645.687 0 0 0 359.885 0c21.258-6.169 32.83-29.085 25.332-49.912a7420981.63 7420981.63 0 0 0-49.025-136.174z" opacity="1" data-original="#fff9f1" class=""></path><path fill="#f7eadc" d="M177.648 138.889c0 9.41.83 18.56 2.37 27.29 3.04 17.17 3.07 36.43.36 53.9l-23.73 152.99c-1.56 10.07-1.41 20.58.08 29.83a643.108 643.108 0 0 1-80.67-17.89c-21.26-6.17-32.83-29.09-25.33-49.91 16.34-45.4 32.68-90.79 49.02-136.18 5.6-15.55 5.56-32.69-.73-47.98-3.19-7.77-4.89-15.91-4.89-24.3 0-54.77 72.47-99.18 161.87-99.18-43.27 0-78.35 49.89-78.35 111.43z" opacity="1" data-original="#f7eadc" class=""></path><path fill="#f2b632" d="M341.571 208.829c9.165 8.178.456 22.916-11.154 18.91-23.325-8.049-48.364-12.42-74.426-12.42-26.056 0-51.089 4.367-74.41 12.413-11.609 4.005-20.315-10.731-11.152-18.907 22.728-20.28 52.704-32.606 85.562-32.606 32.865 0 62.848 12.327 85.58 32.61z" opacity="1" data-original="#f2b632"></path><path fill="#fde42f" d="M309.76 242.445c-11.81 9.54-31.32 28.87-43.31 59.67-1.68 4.32-5.82 7.18-10.45 7.18-.81 0-1.61-.09-2.37-.26-1.44-.3-2.78-.89-3.96-1.71a11.267 11.267 0 0 1-4.12-5.21c-11.99-30.8-31.5-50.13-43.31-59.67-5.69-4.6 7.325-15.95 9.895-22.799 11.27-30.02.524-52.751 2.225-68.211.98-8.89 7.12-16.35 15.64-19.08a85.335 85.335 0 0 1 26-4.07c8.77 0 17.54 1.36 26 4.07 4.26 1.37 7.92 3.91 10.65 7.23 2.72 3.32 4.5 7.4 4.99 11.85 1.7 15.46 6.09 41.85 17.36 71.87 2.57 6.85.45 14.54-5.24 19.14z" opacity="1" data-original="#fde42f" class=""></path><path fill="#f5cf33" d="M191.094 157.895a10.149 10.149 0 0 1 2.019 9.068c-3.734 14.386-14.584 24.791-27.383 24.791-15.89 0-28.78-16.05-28.78-35.84 0-8.053 2.132-15.481 5.731-21.466 2.827-4.701 8.894-6.315 13.679-3.632 12.236 6.861 25.456 15.987 34.734 27.079z" opacity="1" data-original="#f5cf33" class=""></path><path fill="#f2b632" d="M175.92 189.435c-3.17 1.5-6.6 2.32-10.19 2.32-15.89 0-28.78-16.05-28.78-35.84 0-8.05 2.13-15.475 5.727-21.459 2.841-4.726 8.933-6.299 13.742-3.602a187.042 187.042 0 0 1 6.521 3.83c-3.52 5.94-5.6 13.28-5.6 21.23 0 15.321 7.72 28.391 18.58 33.521z" opacity="1" data-original="#f2b632"></path><path fill="#f5cf33" d="M375.05 155.915c0 19.79-12.89 35.84-28.78 35.84-12.799 0-23.649-10.405-27.383-24.791a10.148 10.148 0 0 1 2.019-9.068c9.278-11.092 22.497-20.218 34.733-27.078 4.785-2.683 10.851-1.069 13.679 3.632 3.6 5.984 5.732 13.412 5.732 21.465z" opacity="1" data-original="#f5cf33" class=""></path><path fill="#f2b632" d="M356.46 189.435c-3.17 1.5-6.61 2.32-10.2 2.32-12.791 0-23.64-10.406-27.373-24.793a10.19 10.19 0 0 1 2.056-9.111c5.565-6.644 12.546-12.585 19.878-17.747-1.89 4.77-2.95 10.14-2.95 15.81-.001 15.321 7.719 28.391 18.589 33.521z" opacity="1" data-original="#f2b632"></path><g fill="#384948"><ellipse cx="346.267" cy="155.915" rx="11.579" ry="14.418" fill="#384948" opacity="1" data-original="#384948" class=""></ellipse><ellipse cx="165.733" cy="155.915" rx="11.579" ry="14.418" fill="#384948" opacity="1" data-original="#384948" class=""></ellipse></g><path fill="#f5cf33" d="M253.63 309.035c-1.44-.3-2.78-.89-3.96-1.71a11.267 11.267 0 0 1-4.12-5.21c-11.99-30.8-31.5-50.13-43.31-59.67-5.69-4.6-7.81-12.29-5.24-19.14 11.27-30.02 15.66-56.41 17.36-71.87.98-8.89 7.12-16.35 15.64-19.08 4.86-1.56 9.81-2.67 14.82-3.33-4.47 20.32-18.76 99.48 8.81 180.01z" opacity="1" data-original="#f5cf33" class=""></path><g fill="#516666"><ellipse cx="225.882" cy="167.923" rx="6.4" ry="12.009" fill="#516666" opacity="1" data-original="#516666"></ellipse><ellipse cx="286.118" cy="167.923" rx="6.4" ry="12.009" fill="#516666" opacity="1" data-original="#516666"></ellipse></g></g></svg>
