<svg xmlns="http://www.w3.org/2000/svg" version="1.1" xmlns:xlink="http://www.w3.org/1999/xlink" width="512" height="512" x="0" y="0" viewBox="0 0 497 497" style="enable-background:new 0 0 512 512" xml:space="preserve" class=""><g><path fill="#ffd4bd" d="M68.98 456.22c14.62-71.08 63.2-125.64 123.4-136.4l21.83-1.94c70.26 0 129.21 59.19 145.37 139.04 4.13 20.41-8.75 40.08-25.93 40.08H137.42l-7.5-5.043-7.5 5.043H50.402z" opacity="1" data-original="#ffd4bd" class=""></path><path fill="#e7896e" d="m148.661 299.826 206.161 27.613c.7-8.715 44.349-81.148 44.616-129.805.174-31.794-6.722-60.438-18.946-85.292-3.608-7.336-.473-16.103 6.931-19.569 10.085-4.721 16.634-12.34 16.634-20.938 0-14.334-18.195-25.954-40.641-25.954-1.072 0-2.135.027-3.186.081-2.982.151-5.412-2.275-5.409-5.261v-.06c0-22.445-11.62-40.64-25.954-40.64-8.94 0-16.824 7.078-21.492 17.851-3.136 7.237-11.647 10.447-18.843 7.217-35.357-15.872-75.931-21.945-116.7-16.329l-58.329 27.053-21.171 160.468z" opacity="1" data-original="#e7896e" class=""></path><path fill="#dd6642" d="M112.146 170.19c0-61.648 22.484-118.039 59.687-161.442-.849.117-1.697.231-2.546.358C122.539 16.103 76.37 27.257 30.779 42.57c-8.081 2.714-13.593 10.228-13.807 18.75-2.968 118.212 33.19 158.305 68.081 229.987l63.608 8.52c-23.155-37.732-36.515-82.123-36.515-129.637z" opacity="1" data-original="#dd6642" class=""></path><path fill="#ffd4bd" d="M157.203 312.823c17.434 7.044 36.738 10.958 57.048 10.958 77.635 0 140.571-57.196 140.571-127.751v-.236c-.024-11.747-8.355-22.023-20.441-26.191-18.329-6.32-32.179-20.893-36.066-38.728-.993-4.556-4.662-8.264-9.499-9.764-22.721-7.045-47.967-10.975-74.565-10.975s-51.845 3.929-74.565 10.975c-4.837 1.5-8.505 5.208-9.499 9.764-2.445 11.216-8.83 21.143-17.792 28.538l-12.437 20.485 6.086 102.532z" opacity="1" data-original="#ffd4bd" class=""></path><path fill="#ffbf9d" d="M112.146 170.19c0-3.613.094-7.204.247-10.779-5.288 4.363-11.471 7.847-18.273 10.193-12.085 4.167-20.417 14.443-20.441 26.191v.236c0 52.097 34.318 96.904 83.526 116.786-28.384-40.355-45.059-89.541-45.059-142.627z" opacity="1" data-original="#ffbf9d"></path><path fill="#e7896e" d="M240.197 387.413c16.23-10.729 30.186-22.426 41.899-34.698 6.149-6.443 17.212-8.808 26.576-5.443l.625.223c16.599 5.896 36.386.399 44.206-12.427 21.789-35.739 17.765-73.4-3.49-97.303l-12.496-9.168c-8.029-5.891-18.889-6.014-27.095-.374a142.808 142.808 0 0 1-6.538 4.234c-20.959 12.777-47.638 10.103-66.267-5.882-6.101-5.235-14.032-8.398-22.702-8.398s-16.601 3.163-22.702 8.398c-18.629 15.984-45.307 18.658-66.267 5.882a141.967 141.967 0 0 1-6.538-4.234 22.166 22.166 0 0 0-.492-.329l-24.6 34.8 114.201 127.765z" opacity="1" data-original="#e7896e" class=""></path><path fill="#dd6642" d="M118.908 227.907c-8.144-5.303-18.726-5.083-26.595.69l-12.496 9.168c-21.255 23.902-25.279 61.564-3.49 97.303 7.82 12.827 27.606 18.323 44.205 12.427l.625-.223c9.364-3.365 20.427-1 26.576 5.443 13.826 14.487 30.777 28.171 50.905 40.408a31.377 31.377 0 0 0 32.553 0 279.522 279.522 0 0 0 9.001-5.717c-60.122-33.331-104.943-90.888-121.284-159.499z" opacity="1" data-original="#dd6642" class=""></path><path fill="#ffd4bd" d="M263.797 301.8c0 26.997-21.885 24.679-48.882 24.679s-48.882 2.318-48.882-24.679 21.885-48.882 48.882-48.882 48.882 21.885 48.882 48.882z" opacity="1" data-original="#ffd4bd" class=""></path><path fill="#889cb0" d="M388.646 237.335c59.543 5.206 106.419 61.257 106.419 129.635s-46.876 124.429-106.419 129.635l-33.824-7.423-49.287-118.922 30.706-117.342z" opacity="1" data-original="#889cb0" class=""></path><path fill="#6a829a" d="M327.535 366.97c0-52.184 23.788-98.812 61.111-129.633a103.895 103.895 0 0 0-9.066-.397c-63.78 0-115.485 58.217-115.485 130.03C264.096 438.783 315.8 497 379.58 497c3.051 0 6.074-.135 9.066-.397-37.323-30.821-61.111-77.449-61.111-129.633z" opacity="1" data-original="#6a829a"></path><path fill="#5b778f" d="M350.327 282.428c9.072-3.994 18.94-6.187 29.253-6.187 44.432 0 80.58 40.701 80.58 90.729s-36.148 90.729-80.58 90.729c-10.314 0-20.181-2.193-29.253-6.187l-25.662-22.8-19.129-61.742 20.835-66.028z" opacity="1" data-original="#5b778f"></path><path fill="#485c70" d="M327.535 366.97c0-30.824 8.307-59.705 22.794-84.539-30.012 13.211-51.327 46.124-51.327 84.539s21.315 71.328 51.327 84.539c-14.487-24.834-22.794-53.715-22.794-84.539z" opacity="1" data-original="#485c70"></path><path fill="#889cb0" d="M379.58 394.003c-13.238 0-24.009-12.127-24.009-27.033s10.77-27.033 24.009-27.033 24.009 12.127 24.009 27.033-10.77 27.033-24.009 27.033z" opacity="1" data-original="#889cb0" class=""></path><path fill="#a4e7ff" d="M35.012 383.15h41.689l11.27-169.688a18.268 18.268 0 0 0-3.792-12.405l-24.774-31.94a18.421 18.421 0 0 0-3.235-3.248l-22.017 2.468L16.8 352.392z" opacity="1" data-original="#a4e7ff"></path><path fill="#2ecefb" d="M35.012 211.438c0-18.27 8.218-34.612 21.15-45.559-7.725-6.013-19.277-4.941-25.621 3.238l-24.774 31.94a18.261 18.261 0 0 0-3.792 12.405l11.27 169.688h21.767z" opacity="1" data-original="#2ecefb" class=""></path><path fill="#4a66a0" d="M35.012 361.873h39.844c6.582 0 11.917 5.336 11.917 11.917v21.578c0 21.144-17.141 38.285-38.285 38.285h-7.029L11.3 388.666z" opacity="1" data-original="#4a66a0" class=""></path><path fill="#2a4f95" d="M35.012 395.96v-34.087H15.091c-6.582 0-11.917 5.336-11.917 11.917v21.578c0 21.144 17.141 38.285 38.285 38.285h6.971c-8.384-10.277-13.418-23.395-13.418-37.693z" opacity="1" data-original="#2a4f95" class=""></path><path fill="#ffbf9d" d="M86.643 449.901c0 26.012-10.228 47.099-36.24 47.099S3.304 475.913 3.304 449.901s21.087-47.099 47.099-47.099 36.24 21.088 36.24 47.099zM137.42 455.49V497h-15v-41.51c0-4.15 3.35-7.5 7.5-7.5 4.14 0 7.5 3.35 7.5 7.5z" opacity="1" data-original="#ffbf9d"></path><g fill="#303646"><path d="M142.961 186.864a7.5 7.5 0 0 0-7.5 7.5v13.699c0 4.143 3.358 7.5 7.5 7.5s7.5-3.357 7.5-7.5v-13.699a7.5 7.5 0 0 0-7.5-7.5zM285.541 186.864a7.5 7.5 0 0 0-7.5 7.5v13.699c0 4.143 3.358 7.5 7.5 7.5s7.5-3.357 7.5-7.5v-13.699a7.5 7.5 0 0 0-7.5-7.5zM236.895 290.932a7.5 7.5 0 1 0-11.308-9.855 14.158 14.158 0 0 1-10.672 4.865 14.159 14.159 0 0 1-10.673-4.865 7.5 7.5 0 1 0-11.308 9.855 29.156 29.156 0 0 0 21.98 10.01 29.161 29.161 0 0 0 21.981-10.01z" fill="#303646" opacity="1" data-original="#303646"></path></g><path fill="#ffbf9d" d="M191.553 427.175a27.526 27.526 0 0 1-28.025 0 7.5 7.5 0 0 0-7.635 12.912 42.508 42.508 0 0 0 21.647 5.922 42.505 42.505 0 0 0 21.647-5.922 7.5 7.5 0 0 0 2.638-10.273 7.498 7.498 0 0 0-10.272-2.639zM264.973 427.175a27.526 27.526 0 0 1-28.024 0 7.5 7.5 0 0 0-7.635 12.912 42.508 42.508 0 0 0 21.647 5.922 42.505 42.505 0 0 0 21.647-5.922 7.5 7.5 0 0 0 2.638-10.273 7.5 7.5 0 0 0-10.273-2.639z" opacity="1" data-original="#ffbf9d"></path></g></svg>
