<svg xmlns="http://www.w3.org/2000/svg" version="1.1" xmlns:xlink="http://www.w3.org/1999/xlink" width="512" height="512" x="0" y="0" viewBox="0 0 512 512" style="enable-background:new 0 0 512 512" xml:space="preserve" class=""><g><circle cx="256" cy="256" r="256" style="" fill="#ffda45" data-original="#ffda45" class="" opacity="0"></circle><path d="m253.876 369.9 115.613 115.612c81.275-40.266 138.098-122.417 142.251-218.243L340.47 96l-86.594 273.9z" style="" fill="#ffbc36" data-original="#ffbc36" class="" opacity="0"></path><path d="M256 405.38c-66.926 0-121.181-54.254-121.181-121.181V182.877c0-66.926 54.254-121.181 121.181-121.181 66.926 0 121.181 54.254 121.181 121.181v101.322c0 66.926-54.255 121.181-121.181 121.181z" style="" fill="#333333" data-original="#333333" class=""></path><path d="M256 61.696h-.048v343.682l.048.001c66.926 0 121.181-54.254 121.181-121.181V182.877c0-66.926-54.255-121.181-121.181-121.181z" style="" fill="#1a1a1a" data-original="#1a1a1a" class=""></path><circle cx="164.5" cy="251.5" r="26.792" style="" fill="#ffcdbe" data-original="#ffcdbe" class=""></circle><circle cx="347.5" cy="251.5" r="26.792" style="" fill="#faa68e" data-original="#faa68e" class=""></circle><path d="M256 512c49.281 0 95.301-13.938 134.357-38.068l-9.279-85.29c-1.511-13.893-12.365-24.931-26.231-26.675l-64.555-7.717V306h-68.585v48.25l-64.555 7.717c-13.866 1.744-24.72 12.782-26.231 26.675l-9.279 85.29C160.699 498.062 206.719 512 256 512z" style="" fill="#ffcdbe" data-original="#ffcdbe" class=""></path><path d="m390.357 473.932-9.279-85.29c-1.511-13.894-12.365-24.931-26.231-26.675l-64.554-7.717V306h-34.34v206h.048c49.28 0 95.3-13.938 134.356-38.068z" style="" fill="#faa68e" data-original="#faa68e" class=""></path><path d="M381.078 388.642c-1.511-13.893-12.365-24.931-26.231-26.675l-41.641-4.978C306.025 382.385 282.694 401 255 401c-27.61 0-50.884-18.502-58.141-43.779l-39.706 4.746c-13.866 1.744-24.72 12.782-26.231 26.675l-9.279 85.29C160.699 498.062 206.719 512 256 512s95.301-13.938 134.357-38.068l-9.279-85.29z" style="" fill="#ff6838" data-original="#ff6838" class=""></path><path d="m390.357 473.932-9.279-85.29c-1.511-13.894-12.365-24.931-26.231-26.675l-41.64-4.978c-7.098 25.103-29.979 43.577-57.254 43.999L255.952 512H256c49.281 0 95.301-13.938 134.357-38.068z" style="" fill="#e86035" data-original="#e86035" class=""></path><path d="m320.927 357.912-19.048 149.979a254.11 254.11 0 0 0 57.734-17.743l-.311-127.258a30.184 30.184 0 0 0-4.455-.924l-33.92-4.054z" style="" fill="#1e2d64" data-original="#1e2d64" class=""></path><path d="M157.153 361.967a30.313 30.313 0 0 0-4.455.924l-.311 127.258a254.14 254.14 0 0 0 57.734 17.743l-19.048-149.979-33.92 4.054z" style="" fill="#0066aa" data-original="#0066aa"></path><path d="m184.524 358.695 35.347 49.33c7.929 11.065 24.495 10.722 31.958-.663l4.124-6.37-41.697-45.851-29.732 3.554z" style="" fill="#e86035" data-original="#e86035" class=""></path><path d="m327.476 358.695-35.347 49.33c-7.929 11.065-24.495 10.722-31.958-.663l-4.218-6.374 41.791-45.847 29.732 3.554z" style="" fill="#8c3825" data-original="#8c3825"></path><path d="M256 339c-52.191 0-94.5-42.309-94.5-94.5v-54c0-52.191 42.309-94.5 94.5-94.5s94.5 42.309 94.5 94.5v54c0 52.191-42.309 94.5-94.5 94.5z" style="" fill="#ffdecf" data-original="#ffdecf" class=""></path><path d="M256 339c-52.191 0-94.5-42.309-94.5-94.5v-54c0-52.191 42.309-94.5 94.5-94.5s94.5 42.309 94.5 94.5v54c0 52.191-42.309 94.5-94.5 94.5z" style="" fill="#ffdecf" data-original="#ffdecf" class=""></path><path d="M256 96h-.048v243H256c52.191 0 94.5-42.309 94.5-94.5v-54c0-52.191-42.309-94.5-94.5-94.5z" style="" fill="#ffbeaa" data-original="#ffbeaa" class=""></path><path d="M256 164.962c0 20.711 17.077 37.5 37.788 37.5h6.924c25.817 0 46.746 20.929 46.746 46.746v26.477c8.395 0 15.36-6.805 15.36-15.2V159.339a69.126 69.126 0 0 0-34.89-60.053L239.95 72.572c-56.733 6.049-99.767 53.916-99.767 110.971v27.529l9.251-2.849v52.261c0 8.395 6.805 15.2 15.2 15.2v-26.477c0-25.817 20.929-46.746 46.746-46.746h6.924c20.71.001 37.696-16.788 37.696-37.499z" style="" fill="#333333" data-original="#333333" class=""></path><path d="m327.927 99.286-71.975-21.855v89.392c.031-.617.048-1.237.048-1.861 0 20.711 17.077 37.5 37.788 37.5h6.924c25.817 0 46.746 20.929 46.746 46.746v26.477c8.395 0 15.359-6.806 15.359-15.2V159.339a69.126 69.126 0 0 0-34.89-60.053z" style="" fill="#1a1a1a" data-original="#1a1a1a" class=""></path><path d="M212.531 257.414a8.131 8.131 0 0 1-8.131-8.131v-11.899a8.131 8.131 0 0 1 16.262 0v11.899a8.13 8.13 0 0 1-8.131 8.131z" style="" fill="#4d4d4d" data-original="#4d4d4d" class=""></path><path d="M299.469 257.414a8.131 8.131 0 0 1-8.131-8.131v-11.899a8.131 8.131 0 0 1 16.262 0v11.899a8.13 8.13 0 0 1-8.131 8.131z" style="" fill="#333333" data-original="#333333" class=""></path><path d="M215.226 275.226h-22.589c-17.559 0-31.843-14.285-31.843-31.843v-29.928h86.274v29.928c0 17.558-14.284 31.843-31.842 31.843zm-42.432-49.771v17.928c0 10.941 8.901 19.843 19.843 19.843h22.589c10.941 0 19.843-8.901 19.843-19.843v-17.928h-62.275z" style="" fill="#808080" data-original="#808080" class=""></path><path d="M316.683 275.226h-22.588c-17.559 0-31.843-14.285-31.843-31.843v-29.928h86.273v29.928c0 17.558-14.284 31.843-31.842 31.843zm-42.431-49.771v17.928c0 10.941 8.901 19.843 19.843 19.843h22.588c10.941 0 19.843-8.901 19.843-19.843v-17.928h-62.274z" style="" fill="#666666" data-original="#666666"></path><path d="M241.83 223.19h26.801v12H241.83z" style="" fill="#808080" data-original="#808080" class=""></path><path d="M255.95 223.19h12.682v12H255.95z" style="" fill="#666666" data-original="#666666"></path><path d="M256 313.25c-15.715 0-28.5-12.785-28.5-28.5h12c0 9.098 7.402 16.5 16.5 16.5 9.098 0 16.5-7.402 16.5-16.5h12c0 15.715-12.785 28.5-28.5 28.5z" style="" fill="#ff6838" data-original="#ff6838" class=""></path><path d="M272.5 284.75c0 9.098-7.402 16.5-16.5 16.5l-.048-.002v12.001l.048.001c15.715 0 28.5-12.785 28.5-28.5h-12z" style="" fill="#e86035" data-original="#e86035" class=""></path></g></svg>
