<svg xmlns="http://www.w3.org/2000/svg" version="1.1" xmlns:xlink="http://www.w3.org/1999/xlink" width="512" height="512" x="0" y="0" viewBox="0 0 512 512" style="enable-background:new 0 0 512 512" xml:space="preserve" class=""><g><path fill="#eceaec" d="m94.375 327.261 1.185-2.134a159.346 159.346 0 0 0 20.052-77.385V99.097c0-48.702 49.77-89.197 115.365-97.527 0 0 16.482-.2 25.023-.2 77.533 0 140.387 53.975 140.387 108.706v137.667c0 27.08 6.901 53.713 20.052 77.385l1.185 2.134c13.151 23.672 20.052 58.563 20.052 85.643H74.323c0-27.081 6.901-61.973 20.052-85.644z" opacity="1" data-original="#eceaec" class=""></path><path fill="#dbd8db" d="M396.387 115.613V99.097C396.387 44.366 333.533 0 256 0c-8.468 0-16.967.555-25.023 1.569 65.697 8.272 115.861 48.775 115.861 97.527v16.516h49.549zM247.742 115.613h132.129v132.129c0 29.798 7.653 59.331 22.121 85.403l1.234 2.185c8.581 15.468 14.927 38.565 17.105 61.056H247.742z" opacity="1" data-original="#dbd8db" class=""></path><path fill="#f4aa73" d="M301.805 324.226H198.194v18.316l9.336 17.089h94.275z" opacity="1" data-original="#f4aa73" class=""></path><path fill="#e29a6c" d="M198.194 289.032v35.194c17.264 9.132 36.916 14.354 57.806 14.354 10.003 0 19.701-1.211 28.999-3.466 6.266-1.519 12.291 3.252 12.291 9.7 0 2.369.211 4.704.61 6.988l15.906-9.26v-53.51z" opacity="1" data-original="#e29a6c"></path><path fill="#dbd8db" d="m418.626 403.1-87.036-25.599-34.09-28.742a139.44 139.44 0 0 1-16.725 4.113l-6.934 9.473-9.571-7.494c-2.735.163-5.493.245-8.27.245-20.632 0-40.161-4.562-57.806-12.555v2.276a24.775 24.775 0 0 1-10.369 20.158l1.637 9.424-23.007-1.71-73.08 21.494c-21.087 6.202-35.568 25.555-35.568 47.535v45.507c0 13.682 11.092 24.774 24.774 24.774h181.677l8.443-6.632 8.073 6.632h148.645a24.73 24.73 0 0 0 8.258-1.409l8.345-23.365v-36.591c0-21.979-6.309-41.331-27.396-47.534z" opacity="1" data-original="#dbd8db" class=""></path><path fill="#c9c5c9" d="m166.454 372.69 13.956-4.104a24.719 24.719 0 0 0 7.414-3.609c20.817 9.486 43.847 14.895 68.176 14.895 2.79 0 5.504-.088 8.258-.229l.012-24.79a138.398 138.398 0 0 0 16.506-1.979l-.001 25.06c9.079-1.413 17.952-3.623 26.487-6.456-5.367-6.379-8.954-14.168-9.761-22.718a144.952 144.952 0 0 0 16.306-6.218v2.276c0 8.157 3.988 15.59 10.355 20.148l-1.072 9.543 22.456-1.819 73.08 21.494c21.087 6.202 35.568 25.555 35.568 47.535v45.507c0 10.771-6.916 19.952-16.516 23.365v-68.873c0-14.548-9.75-27.581-23.71-31.685l-87.048-25.597c-1.122-.331-2.163-.815-3.238-1.235a180.02 180.02 0 0 1-42.907 11.423V512h-16.516V396.149c-2.741.125-5.486.238-8.258.238-32.548 0-63.097-8.646-89.547-23.697z" opacity="1" data-original="#c9c5c9"></path><path fill="#fbbd80" d="M343.072 123.871v90.839c0 59.29-57.991 74.323-144.878 74.323l-49.548-74.323v-66.065l20.454-24.774z" opacity="1" data-original="#fbbd80"></path><path fill="#f4aa73" d="M148.645 123.871v24.774h165.161c9.122 0 16.516 7.395 16.516 16.516v66.064l33.032-16.516V123.87H148.645z" opacity="1" data-original="#f4aa73" class=""></path><g fill="#615260"><path d="M305.548 206.452a8.253 8.253 0 0 0 8.258-8.258v-8.258a8.253 8.253 0 0 0-8.258-8.258 8.253 8.253 0 0 0-8.258 8.258v8.258a8.254 8.254 0 0 0 8.258 8.258zM206.452 206.452a8.253 8.253 0 0 0 8.258-8.258v-8.258c0-4.565-3.694-8.258-8.258-8.258s-8.258 3.694-8.258 8.258v8.258a8.253 8.253 0 0 0 8.258 8.258zM330.323 231.226c0 9.121-7.395 16.516-16.516 16.516-12.875 0-17.584-10.445-23.668-16.515-5.697-5.682-13.804-8.26-21.851-8.26h-24.576c-8.046 0-16.154 2.577-21.851 8.26-6.084 6.07-10.793 16.515-23.668 16.515-9.122 0-16.516-7.395-16.516-16.516 0-9.122-7.395-16.516-16.516-16.516h-16.516c0 56.487 43.627 102.785 99.024 107.036 0 0 5.527-.07 8.331-.07 59.29 0 93.262-62.932 93.262-97.792zm-54.67 29.371c-5.831 2.395-12.621 3.661-19.653 3.661s-13.823-1.266-19.653-3.661c-4.218-1.734-6.234-6.557-4.5-10.774 1.726-4.226 6.581-6.218 10.774-4.5 7.709 3.161 19.048 3.161 26.758 0 4.194-1.742 9.049.274 10.774 4.5 1.734 4.217-.282 9.04-4.5 10.774z" fill="#615260" opacity="1" data-original="#615260" class=""></path></g><path fill="#4e3d4d" d="M297.29 173.419h16.516a8.253 8.253 0 0 0 8.258-8.258 8.256 8.256 0 0 0-8.258-8.258H297.29a8.256 8.256 0 0 0-8.258 8.258 8.253 8.253 0 0 0 8.258 8.258zM198.194 173.419h16.516a8.253 8.253 0 0 0 8.258-8.258 8.256 8.256 0 0 0-8.258-8.258h-16.516a8.256 8.256 0 0 0-8.258 8.258 8.253 8.253 0 0 0 8.258 8.258z" opacity="1" data-original="#4e3d4d" class=""></path><path fill="#615260" d="M346.839 99.097H115.613c-9.121 0-16.516 7.394-16.516 16.516l16.516 9.231h241.143z" opacity="1" data-original="#615260" class=""></path><path fill="#4e3d4d" d="M346.839 214.71h16.516c0 59.29-48.065 107.355-107.355 107.355-2.787 0-5.597-.11-8.331-.319 46.291-4.18 82.653-43.141 82.653-90.52.001-9.122 7.395-16.516 16.517-16.516zM346.839 99.097h49.548c9.121 0 16.516 7.394 16.516 16.516 0 9.121-7.395 16.516-16.516 16.516H115.613c-9.121 0-16.516-7.395-16.516-16.516h231.226c9.121 0 16.516-7.395 16.516-16.516z" opacity="1" data-original="#4e3d4d" class=""></path><path fill="#b8b2b8" d="M324.162 364.966a24.838 24.838 0 0 0 7.429 3.62l13.956 4.104c-6.997 3.982-14.297 7.481-21.829 10.525-6.448-2.517-12.048-6.534-16.386-11.662a167.844 167.844 0 0 0 16.83-6.587zM280.774 394.623a181.367 181.367 0 0 1-16.516 1.525v-16.507a162.258 162.258 0 0 0 16.516-1.709z" opacity="1" data-original="#b8b2b8" class=""></path><circle cx="239.484" cy="421.161" r="8.258" fill="#eceaec" opacity="1" data-original="#eceaec" class=""></circle><circle cx="239.484" cy="487.226" r="8.258" fill="#eceaec" opacity="1" data-original="#eceaec" class=""></circle></g></svg>
