<svg xmlns="http://www.w3.org/2000/svg" version="1.1" xmlns:xlink="http://www.w3.org/1999/xlink" width="512" height="512" x="0" y="0" viewBox="0 0 511.999 511.999" style="enable-background:new 0 0 512 512" xml:space="preserve" class=""><g><path d="m412.877 384.683-85.291-30.103H184.412l-85.291 30.103c-19.81 6.992-33.057 25.716-33.057 46.723v55.819c0 13.682 11.092 24.774 24.774 24.774h330.323c13.682 0 24.774-11.092 24.774-24.774v-55.818c0-21.007-13.248-39.732-33.058-46.724z" style="" fill="#5a4650" data-original="#5a4650" class=""></path><path d="M375.1 336.629c-12.508-9.407-20.004-24.063-20.004-39.714v-32.658c0-90.839-49.548-206.452-99.097-206.452s-99.097 115.613-99.097 206.452v32.658c0 15.651-7.496 30.306-20.004 39.714-13.488 10.144-21.286 22.135-21.286 34.984 0 36.486 35.488 107.355 140.387 107.355S396.386 408.1 396.386 371.613c0-12.849-7.798-24.84-21.286-34.984z" style="" fill="#6e5a64" data-original="#6e5a64" class=""></path><path d="M342.426 426.411c21.134-20.144 36.958-45.348 47.389-74.777-3.197-4.746-7.595-9.229-12.866-13.443-9.456 30.477-24.848 56.184-45.918 76.269-37.753 35.988-92.257 52.466-154.225 46.868 14.384 7.572 31.855 13.101 52.416 15.776 44.409-5.221 83.478-22.355 113.204-50.693zM255.999 355.097c-59.194 0-107.355-40.75-107.355-90.839s48.161-90.839 107.355-90.839 107.355 40.75 107.355 90.839-48.161 90.839-107.355 90.839z" style="" fill="#5a4650" data-original="#5a4650" class=""></path><path d="M255.999 313.806c-59.291 0-107.355-48.064-107.355-107.355v-99.097h214.71v99.097c0 59.291-48.064 107.355-107.355 107.355z" style="" fill="#f7c99b" data-original="#f5b97d" class="" opacity="1"></path><path d="M181.676 206.451v-16.516c0-36.486 29.578-66.065 66.065-66.065h115.613v-16.516h-214.71v99.097c0 59.29 48.065 107.355 107.355 107.355 5.632 0 11.118-.564 16.516-1.4-51.428-7.962-90.839-52.296-90.839-105.955z" style="" fill="#e5b283" data-original="#e3aa75" class="" opacity="1"></path><path d="M256.37 264.258c-12.395 0-23.823-3.976-30.573-10.637-3.25-3.21-3.282-8.435-.081-11.677 3.21-3.25 8.435-3.282 11.677-.081 2.75 2.71 9.363 5.879 18.976 5.879s16.226-3.169 18.976-5.879c3.242-3.202 8.468-3.169 11.677.081 3.202 3.242 3.169 8.468-.081 11.677-6.748 6.661-18.176 10.637-30.571 10.637z" style="" fill="#b67f5f" data-original="#b67f5f" class=""></path><path d="M206.822 206.33a8.253 8.253 0 0 1-8.258-8.258v-8.258c0-4.565 3.694-8.258 8.258-8.258s8.258 3.694 8.258 8.258v8.258a8.253 8.253 0 0 1-8.258 8.258zM305.918 206.33a8.253 8.253 0 0 1-8.258-8.258v-8.258c0-4.565 3.694-8.258 8.258-8.258s8.258 3.694 8.258 8.258v8.258a8.253 8.253 0 0 1-8.258 8.258z" style="" fill="#5a4650" data-original="#5a4650" class=""></path><path d="M215.08 173.298h-16.516a8.253 8.253 0 0 1-8.258-8.258 8.253 8.253 0 0 1 8.258-8.258h16.516a8.253 8.253 0 0 1 8.258 8.258 8.253 8.253 0 0 1-8.258 8.258zM314.176 173.298H297.66a8.253 8.253 0 0 1-8.258-8.258 8.253 8.253 0 0 1 8.258-8.258h16.516a8.253 8.253 0 0 1 8.258 8.258 8.252 8.252 0 0 1-8.258 8.258z" style="" fill="#6e5a64" data-original="#6e5a64" class=""></path><path d="m403.505 256.282-7.234-120.569C391.972 64.069 335.937 4.372 264.283.239c-77.886-4.492-143.717 54.827-148.326 131.652l-7.464 124.39c-4.887 81.453 57.046 150.531 137.174 156.079-49.872-5.168-88.765-47.315-88.765-98.554v-49.548c0-90.839 49.548-206.452 99.097-206.452s99.097 115.613 99.097 206.452v80.031c0 11.097 14.313 15.967 20.814 6.974 19.17-26.515 29.72-59.557 27.595-94.981z" style="" fill="#84737b" data-original="#84737b" class=""></path></g></svg>
