<svg xmlns="http://www.w3.org/2000/svg" version="1.1" xmlns:xlink="http://www.w3.org/1999/xlink" width="512" height="512" x="0" y="0" viewBox="0 0 512 512" style="enable-background:new 0 0 512 512" xml:space="preserve" class=""><g><path fill="#ffe07d" d="M411.027 347.026a7.725 7.725 0 0 1-7.726-7.726v-36.215a7.726 7.726 0 1 1 15.452 0V339.3a7.725 7.725 0 0 1-7.726 7.726zM100.998 347.024a7.725 7.725 0 0 1-7.726-7.726v-43.103a7.726 7.726 0 1 1 15.452 0v43.103a7.725 7.725 0 0 1-7.726 7.726z" opacity="1" data-original="#ffe07d"></path><path fill="#efecef" d="M409.291 296.196c36.516 0 66.117-29.602 66.117-66.117 0-19.553-8.494-37.117-21.986-49.222a65.79 65.79 0 0 0 9.164-33.575c0-29.53-19.363-54.53-46.082-63.018-2.86-33.877-31.245-60.485-65.861-60.485a65.783 65.783 0 0 0-36.127 10.754C303.123 13.947 281.194.004 256 .004s-47.123 13.944-58.515 34.53a65.783 65.783 0 0 0-36.127-10.754c-34.616 0-63.001 26.608-65.861 60.485-26.719 8.488-46.082 33.488-46.082 63.018a65.792 65.792 0 0 0 9.164 33.575c-13.492 12.105-21.986 29.669-21.986 49.222 0 36.515 29.602 66.117 66.117 66.117" opacity="1" data-original="#efecef" class=""></path><path fill="#dddaec" d="M309.003 26.136a65.291 65.291 0 0 0-5.522 8.396 65.797 65.797 0 0 0-36.128-10.755c-34.614 0-62.995 26.609-65.859 60.482-26.713 8.489-46.08 33.491-46.08 63.016a65.771 65.771 0 0 0 9.168 33.584c-13.495 12.105-21.994 29.669-21.994 49.222 0 36.509 29.607 66.117 66.117 66.117H102.711c-36.52 0-66.116-29.607-66.116-66.117 0-19.553 8.489-37.117 21.984-49.222a65.856 65.856 0 0 1-9.158-33.584c0-29.525 19.357-54.527 46.08-63.016 2.864-33.872 31.245-60.482 65.859-60.482a65.794 65.794 0 0 1 36.128 10.755C208.88 13.949 230.813 0 256 0c21.593 0 40.785 10.25 53.003 26.136z" opacity="1" data-original="#dddaec" class=""></path><path fill="#dd636e" d="M258.152 388.091h-4.284c-61.253 0-110.908 49.655-110.908 110.908V512h226.1v-13.001c0-61.253-49.655-110.908-110.908-110.908z" opacity="1" data-original="#dd636e"></path><path fill="#da4a54" d="M248.289 450.046h15.453V512h-15.453zM283.239 390.944c-49.17 11.373-85.813 55.434-85.813 108.055V512h-54.465v-13.001c0-61.254 49.654-110.909 110.909-110.909h4.275c8.632.001 17.038.99 25.094 2.854z" opacity="1" data-original="#da4a54"></path><path fill="#eaac9d" d="M256.01 467.226c-21.758 0-39.396-17.638-39.396-39.396v-39.396h78.792v39.396c0 21.758-17.638 39.396-39.396 39.396zM389.402 254.487h5.347c18.172 0 32.893 14.721 32.893 32.883a32.802 32.802 0 0 1-9.632 23.261c-5.954 5.944-14.175 9.632-23.261 9.632H117.271c-18.172 0-32.893-14.732-32.893-32.893 0-9.076 3.678-17.297 9.632-23.251s14.175-9.632 23.261-9.632h5.347" opacity="1" data-original="#eaac9d"></path><path fill="#ffddce" d="M389.392 222.418v75.45c0 36.839-14.927 70.175-39.064 94.323-24.147 24.137-57.484 39.064-94.323 39.064-73.668 0-133.397-59.719-133.397-133.387v-75.45c0-7.015.546-13.907 1.587-20.634.597.01 1.195.021 1.803.021 31.678 0 58.689-19.944 69.156-47.965 13.3 19.347 35.592 32.028 60.852 32.028s47.553-12.681 60.852-32.028c10.467 28.021 37.478 47.965 69.156 47.965.598 0 1.195-.01 1.793-.021a135.122 135.122 0 0 1 1.585 20.634z" opacity="1" data-original="#ffddce"></path><path fill="#ffcbbe" d="M287.652 427.484a134.093 134.093 0 0 1-31.647 3.77c-73.668 0-133.397-59.719-133.397-133.387v-75.45c0-7.015.546-13.907 1.587-20.634.597.01 1.195.021 1.803.021 24.631 0 46.451-12.063 59.853-30.606v126.67c-.001 62.779 43.38 115.431 101.801 129.616z" opacity="1" data-original="#ffcbbe"></path><path fill="#eaac9d" d="M256.01 369.463c-14.003 0-28.006-5.33-38.667-15.991a7.727 7.727 0 0 1 10.928-10.927c15.297 15.297 40.185 15.295 55.48 0a7.727 7.727 0 1 1 10.928 10.927c-10.662 10.661-24.665 15.991-38.669 15.991z" opacity="1" data-original="#eaac9d"></path><path fill="#ffcbbe" d="M268 331.451h-23.98a7.726 7.726 0 1 1 0-15.452H268c4.268 0 7.726 3.459 7.726 7.726s-3.458 7.726-7.726 7.726z" opacity="1" data-original="#ffcbbe"></path><g fill="#efecef"><path d="M311.514 219.074c-.138 0-.275-.004-.413-.011l-19.526-1.028a7.726 7.726 0 0 1-7.309-8.122c.224-4.262 3.868-7.529 8.122-7.31l19.526 1.028a7.726 7.726 0 0 1 7.309 8.122 7.726 7.726 0 0 1-7.709 7.321zM200.506 219.074a7.727 7.727 0 0 1-.399-15.443l19.527-1.028a7.72 7.72 0 0 1 8.122 7.31 7.727 7.727 0 0 1-7.309 8.122l-19.527 1.028a8.234 8.234 0 0 1-.414.011z" fill="#efecef" opacity="1" data-original="#efecef" class=""></path></g><circle cx="307.416" cy="277.915" r="36.151" fill="#d3effb" opacity="1" data-original="#d3effb"></circle><path fill="#d3effb" d="M240.756 277.914c0 19.965-16.184 36.149-36.149 36.149a35.893 35.893 0 0 1-15.762-3.616c-12.074-5.851-20.387-18.224-20.387-32.533 0-19.965 16.184-36.149 36.149-36.149a35.914 35.914 0 0 1 18.883 5.326c10.364 6.356 17.266 17.781 17.266 30.823z" opacity="1" data-original="#d3effb"></path><path fill="#b1e4f9" d="m223.49 247.091-34.645 63.356c-12.074-5.851-20.387-18.224-20.387-32.533 0-19.965 16.184-36.149 36.149-36.149a35.914 35.914 0 0 1 18.883 5.326zM326.297 247.092l-34.645 63.356c-12.074-5.851-20.387-18.224-20.387-32.533 0-19.965 16.184-36.149 36.149-36.149a35.917 35.917 0 0 1 18.883 5.326z" opacity="1" data-original="#b1e4f9"></path><g fill="#454045"><circle cx="209.684" cy="277.918" r="13.617" fill="#454045" opacity="1" data-original="#454045"></circle><circle cx="302.193" cy="277.918" r="13.617" fill="#454045" opacity="1" data-original="#454045"></circle></g><path fill="#dd636e" d="M396.282 250.971a7.725 7.725 0 0 0-10.395-3.363l-36.216 18.511c-5.167-18.481-22.146-32.081-42.254-32.081-20.168 0-37.191 13.682-42.302 32.249a32.592 32.592 0 0 0-18.209 0c-5.11-18.567-22.133-32.249-42.301-32.249-20.106 0-37.085 13.599-42.253 32.078l-36.213-18.509a7.726 7.726 0 1 0-7.032 13.759l41.897 21.414c2.429 21.912 21.052 39.012 43.601 39.012 22.721 0 41.462-17.361 43.659-39.513a17.133 17.133 0 0 1 15.492 0c2.198 22.153 20.939 39.513 43.66 39.513 22.548 0 41.17-17.098 43.601-39.008l41.901-21.417a7.726 7.726 0 0 0 3.364-10.396zM204.605 306.34c-15.673 0-28.425-12.751-28.425-28.425s12.752-28.425 28.425-28.425 28.425 12.751 28.425 28.425c-.001 15.673-12.752 28.425-28.425 28.425zm102.812 0c-15.674 0-28.426-12.751-28.426-28.425s12.752-28.425 28.426-28.425c15.673 0 28.425 12.751 28.425 28.425-.001 15.673-12.752 28.425-28.425 28.425z" opacity="1" data-original="#dd636e"></path><g fill="#ffe07d"><path d="M388.201 369.851c-16.847 0-30.552-13.706-30.552-30.552v-77.682a7.726 7.726 0 1 1 15.452 0v77.682c0 8.326 6.774 15.099 15.1 15.099 4.032 0 7.827-1.571 10.685-4.424a15.02 15.02 0 0 0 4.414-10.675v-12.006a7.726 7.726 0 1 1 15.452 0v12.006c0 8.154-3.175 15.826-8.94 21.602-5.785 5.775-13.456 8.95-21.611 8.95zM123.824 369.85c-8.155 0-15.827-3.175-21.602-8.941-5.775-5.784-8.951-13.456-8.951-21.611v-12.462a7.726 7.726 0 1 1 15.452 0v12.462c0 4.032 1.571 7.827 4.425 10.684a15.017 15.017 0 0 0 10.675 4.415c8.326 0 15.1-6.774 15.1-15.099v-77.682a7.726 7.726 0 1 1 15.452 0v77.682c.001 16.846-13.704 30.552-30.551 30.552z" fill="#ffe07d" opacity="1" data-original="#ffe07d"></path></g></g></svg>
