<svg xmlns="http://www.w3.org/2000/svg" version="1.1" xmlns:xlink="http://www.w3.org/1999/xlink" width="512" height="512" x="0" y="0" viewBox="0 0 512 512" style="enable-background:new 0 0 512 512" xml:space="preserve" class=""><g><g data-name="Layer 16"><path fill="#70748e" d="M407.377 301.874V266.19H105.2v35.684a315.848 315.848 0 0 0-6.832 94.146 312.089 312.089 0 0 0 6.832 44.8q18.6-19.359 37.2-38.721a205.746 205.746 0 0 0 113.887 95.663 205.748 205.748 0 0 0 113.886-95.663q18.6 19.359 37.2 38.721a312.089 312.089 0 0 0 6.832-44.8 315.848 315.848 0 0 0-6.828-94.146z" opacity="1" data-original="#70748e"></path><path fill="#f4dcc6" d="M194.966 156.646h122.069a80.669 80.669 0 0 1 80.665 80.669v61.035A141.7 141.7 0 0 1 256 440.053a141.7 141.7 0 0 1-141.7-141.7v-61.038a80.669 80.669 0 0 1 80.666-80.669z" opacity="1" data-original="#f4dcc6"></path><path fill="#c99673" d="M317.036 156.646H194.967a80.669 80.669 0 0 0-80.67 80.668v2.093A1000.554 1000.554 0 0 0 231.9 249.2c-.31.1-.68.2-.958.3l29.3 22.035q-2.834-11.017-5.666-22.036 5.231.007 10.527-.041a999.889 999.889 0 0 0 132.6-10.05v-2.093a80.668 80.668 0 0 0-80.667-80.669zM256 429.745a141.7 141.7 0 0 1-141.7-141.7v10.305A141.7 141.7 0 0 0 256 440.053a141.7 141.7 0 0 0 141.7-141.7v-10.312A141.7 141.7 0 0 1 256 429.745z" opacity="1" data-original="#c99673"></path><circle cx="180.915" cy="274.712" r="45.967" fill="#ecf0f1" opacity="1" data-original="#ecf0f1"></circle><path fill="#bdc3c7" d="M180.915 228.745a45.967 45.967 0 0 0-45.967 45.967h91.934a45.967 45.967 0 0 0-45.967-45.967z" opacity="1" data-original="#bdc3c7"></path><ellipse cx="180.915" cy="274.712" fill="#34495e" rx="31.319" ry="35.305" opacity="1" data-original="#34495e"></ellipse><ellipse cx="180.915" cy="274.712" fill="#2c3e50" rx="15.785" ry="17.794" opacity="1" data-original="#2c3e50"></ellipse><circle cx="331.086" cy="274.712" r="45.967" fill="#ecf0f1" opacity="1" data-original="#ecf0f1"></circle><path fill="#bdc3c7" d="M331.086 228.745a45.967 45.967 0 0 0-45.967 45.967h91.934a45.967 45.967 0 0 0-45.967-45.967z" opacity="1" data-original="#bdc3c7"></path><ellipse cx="331.086" cy="274.712" fill="#34495e" rx="31.319" ry="35.305" opacity="1" data-original="#34495e"></ellipse><ellipse cx="331.086" cy="274.712" fill="#2c3e50" rx="15.785" ry="17.794" opacity="1" data-original="#2c3e50"></ellipse><circle cx="160.526" cy="274.712" r="10.25" fill="#ecf0f1" opacity="1" data-original="#ecf0f1"></circle><circle cx="310.697" cy="274.712" r="10.25" fill="#ecf0f1" opacity="1" data-original="#ecf0f1"></circle><path fill="#c99673" d="m260.9 338.826 15.816-17.974a6.524 6.524 0 0 0-4.9-10.833h-31.629a6.524 6.524 0 0 0-4.9 10.833l15.816 17.974a6.524 6.524 0 0 0 9.797 0z" opacity="1" data-original="#c99673"></path><path fill="#414141" d="M226.882 279.125a4.413 4.413 0 0 1-4.413-4.413 41.554 41.554 0 0 0-83.108 0 4.413 4.413 0 1 1-8.826 0 50.38 50.38 0 0 1 100.76 0 4.413 4.413 0 0 1-4.413 4.413zM377.053 279.125a4.413 4.413 0 0 1-4.413-4.413 41.554 41.554 0 0 0-83.108 0 4.413 4.413 0 1 1-8.826 0 50.38 50.38 0 0 1 100.76 0 4.413 4.413 0 0 1-4.413 4.413z" opacity="1" data-original="#414141"></path><ellipse cx="256.003" cy="402.435" fill="#c99673" rx="13.666" ry="9.68" opacity="1" data-original="#c99673"></ellipse><path fill="#cdd4ec" d="M468.126 377.3c-20.369-31.587-30.661-68.623-30.661-106.209V266.5l31.087 18.726a237.045 237.045 0 0 1-13.568-23.8c-10.273-20.714-16.121-43.243-18.994-66.185C424.7 105 347.179 35.351 253.594 36.564c-91.141 1.181-165.218 70.73-177.294 158.83-3.159 23.051-9.139 45.7-19.526 66.518a236.99 236.99 0 0 1-13.329 23.316l31.1-18.73v4.571c0 37.593-10.294 74.638-30.669 106.231l-.426.659 29.89-18a291.185 291.185 0 0 1-23.093 90.26l22.703-14.177a114.6 114.6 0 0 0 53.916-97.216V218.008a309.581 309.581 0 0 0 53.21 30.248 310.471 310.471 0 0 0 80.167 23.278l-48.01-53.526a289.337 289.337 0 0 0 68.823 28.73 289.37 289.37 0 0 0 77.044 10.181l-27.019-38.911 54.058 35.618v85.2a114.605 114.605 0 0 0 53.915 97.216l22.7 14.173a291.216 291.216 0 0 1-23.092-90.255l29.881 18z" opacity="1" data-original="#cdd4ec" class=""></path><g fill="#e3eaff"><path d="M331.578 199.984q8.978-1.162 17.665-2.595l-4.963-42.846c-5.8.893-11.7 1.686-17.687 2.4zM369.337 193.664a387.507 387.507 0 0 0 62.98-18.3 180.218 180.218 0 0 0-14.073-38.514 414.5 414.5 0 0 1-53.844 14.174zM314.158 158.308a597.365 597.365 0 0 1-57.871 2.788c-61.127 0-117.291-9.047-161.7-24.161a185.106 185.106 0 0 0-14.356 38.416c46.337 18.249 108.155 29.389 176.056 29.389a595.92 595.92 0 0 0 62.869-3.288z" fill="#e3eaff" opacity="1" data-original="#e3eaff"></path></g><path fill="#414141" d="M216.631 377.712c-8.12 0-15.164-2.423-19.948-6.889a4.413 4.413 0 1 1 6.023-6.452c4.489 4.191 11.312 4.624 14.979 4.5a82.055 82.055 0 0 0 12.532-1.727c2.019-.383 4.107-.779 6.2-1.105 8.3-1.292 16.7-1.5 24.824-1.7 5.2-.126 10.572-.258 15.772-.679 15.538-1.255 26.927-5.239 34.819-12.18a4.413 4.413 0 1 1 5.829 6.626c-9.371 8.245-22.435 12.939-39.937 14.352-5.448.441-10.948.575-16.267.705-8.2.2-15.949.39-23.682 1.594-1.954.3-3.97.685-5.92 1.054a89.99 89.99 0 0 1-13.888 1.878c-.446.017-.893.023-1.336.023z" opacity="1" data-original="#414141"></path></g></g></svg>
