<svg xmlns="http://www.w3.org/2000/svg" version="1.1" xmlns:xlink="http://www.w3.org/1999/xlink" width="512" height="512" x="0" y="0" viewBox="0 0 512.004 512.004" style="enable-background:new 0 0 512 512" xml:space="preserve" class=""><g><path d="M424.542 221.563c0-.047.006-.094.006-.141 0-28.631-75.461-213.872-168.547-213.872S87.454 192.792 87.454 221.423c0 .047.005.093.006.14 0 .044-.006.088-.006.132 0 26.67 113.643 166.877 168.547 166.877 53.723 0 168.547-140.207 168.547-166.877 0-.045-.006-.091-.006-.136v.004z" style="" fill="#135370" data-original="#135370" class=""></path><path d="M368.618 217.773h-19.142v-55.515h19.142c9.864 0 17.861 7.997 17.861 17.861v19.793c0 9.864-7.997 17.861-17.861 17.861zM143.384 217.773h19.142v-55.515h-19.142c-9.864 0-17.861 7.997-17.861 17.861v19.793c0 9.864 7.997 17.861 17.861 17.861z" style="" fill="#f4c892" data-original="#f4c892"></path><path d="m321.205 316.632-12.075-2.427a18.347 18.347 0 0 1-14.732-17.988V278.82h-78.981v17.837a18.348 18.348 0 0 1-14.732 17.988l-9.889 1.987v66.414h130.409v-66.414z" style="" fill="#ffdfb8" data-original="#ffdfb8"></path><path d="M256.001 291.915c-57.021 0-103.246-46.225-103.246-103.246v-29.015c0-57.021 46.225-103.246 103.246-103.246 57.021 0 103.246 46.225 103.246 103.246v29.015c0 57.021-46.225 103.246-103.246 103.246z" style="" fill="#ffdfb8" data-original="#ffdfb8"></path><path d="M256.001 56.408c-9.318 0-18.345 1.242-26.931 3.556 43.96 11.847 76.314 51.987 76.314 99.69v29.016c0 47.703-32.355 87.843-76.314 99.69a103.362 103.362 0 0 0 26.931 3.556c57.021 0 103.246-46.225 103.246-103.246v-29.016c0-57.021-46.225-103.246-103.246-103.246z" style="" fill="#f4cfa6" data-original="#f4cfa6"></path><path d="M256.001 162.718c92.933 0 168.294 32.201 168.541 58.845 0-.047.006-.094.006-.141 0-28.631-75.461-213.872-168.547-213.872S87.454 192.792 87.454 221.423c0 .047.005.094.006.141.247-26.645 75.608-58.846 168.541-58.846z" style="" fill="#1e608b" data-original="#1e608b"></path><path d="M256.001 7.551c-8.196 0-16.255 1.442-24.138 4.081 60.116 20.123 109.99 110.18 132.116 166.708 36.903 11.767 60.426 28.359 60.564 43.224 0-.047.006-.094.006-.141-.001-28.631-75.462-213.872-168.548-213.872z" style="" fill="#135370" data-original="#135370" class=""></path><path d="M483.594 493.179c-4.488-33.007-22.733-128.718-85.394-153.862l-71.47-22.284H185.272l-71.47 22.284c-62.661 25.144-80.906 120.855-85.394 153.862-.811 5.965 3.84 11.27 9.86 11.27h435.466c6.02 0 10.671-5.305 9.86-11.27z" style="" fill="#1e608b" data-original="#1e608b"></path><path d="M483.594 493.179c-4.488-33.007-22.733-128.718-85.394-153.862l-71.47-22.284H271.7l71.47 22.284c76.094 30.534 86.686 165.131 86.686 165.132h43.878c6.02 0 10.671-5.305 9.86-11.27z" style="" fill="#135370" data-original="#135370" class=""></path><path d="M397.303 313.418H114.699c-9.379 0-16.982 7.603-16.982 16.982v161.035h316.568V330.399c0-9.378-7.603-16.981-16.982-16.981z" style="" fill="#cfcfcf" data-original="#cfcfcf"></path><path d="M397.303 313.418H343.44c9.379 0 16.982 7.603 16.982 16.982v161.035h53.863V330.399c0-9.378-7.603-16.981-16.982-16.981z" style="" fill="#c2c4c6" data-original="#c2c4c6" class=""></path><path d="M424.501 478.804h-337c-6.391 0-11.571 5.181-11.571 11.571v2.503c0 6.391 5.181 11.571 11.571 11.571h337c6.391 0 11.571-5.181 11.571-11.571v-2.503c0-6.391-5.18-11.571-11.571-11.571z" style="" fill="#9c9da0" data-original="#9c9da0" class=""></path><path d="M424.501 478.804h-42.625v25.645h42.625c6.391 0 11.571-5.181 11.571-11.571v-2.503c0-6.391-5.18-11.571-11.571-11.571z" style="" fill="#8d8f93" data-original="#8d8f93" class=""></path><circle cx="256.001" cy="402.87" r="23.76" style="" fill="#ffffff" data-original="#ffffff"></circle><path d="M226.386 216.499h-38.244a7.628 7.628 0 0 1-7.628-7.628V187.1a7.628 7.628 0 0 1 7.628-7.628h47.669a7.628 7.628 0 0 1 7.628 7.628v12.346c.001 9.418-7.634 17.053-17.053 17.053zM285.616 216.499h38.244a7.628 7.628 0 0 0 7.628-7.628V187.1a7.628 7.628 0 0 0-7.628-7.628h-47.669a7.628 7.628 0 0 0-7.628 7.628v12.346c-.001 9.418 7.634 17.053 17.053 17.053z" style="" fill="#4d4d4d" data-original="#4d4d4d"></path><path d="M256.001 371.558c-17.264 0-31.31 14.046-31.31 31.31 0 17.265 14.046 31.311 31.31 31.311 17.265 0 31.311-14.046 31.311-31.311 0-17.264-14.046-31.31-31.311-31.31zm0 47.52c-8.937 0-16.209-7.272-16.209-16.21s7.272-16.209 16.209-16.209c8.938 0 16.21 7.272 16.21 16.209-.001 8.938-7.272 16.21-16.21 16.21z" fill="#000000" opacity="1" data-original="#000000" class=""></path><path d="M491.076 492.162c-1.992-14.645-6.968-43.594-17.92-72.935-12.829-34.37-30.084-59.656-51.32-75.251V330.4c0-13.527-11.005-24.533-24.533-24.533h-18.509c27.997-32.45 53.304-68.924 53.304-84.172l-.001-.145.001-.127c0-15.687-18.494-68.371-48.612-118.537a7.55 7.55 0 1 0-12.947 7.773c17.523 29.187 30.396 58.123 38.091 79.436-14.401-9.33-34.617-17.462-58.332-23.528a274.02 274.02 0 0 0-2.122-.538c-.492-.122-.989-.241-1.483-.361-22.774-5.585-47.502-9.012-72.91-10.105-.529-.023-1.059-.046-1.589-.067-1.087-.043-2.174-.087-3.263-.12a403.247 403.247 0 0 0-5.177-.13c-.579-.011-1.159-.019-1.738-.028a401.01 401.01 0 0 0-6.014-.051c-2.116 0-4.226.02-6.333.053-1.045.016-2.086.044-3.129.068-.965.023-1.931.043-2.893.073a385.592 385.592 0 0 0-5.561.208c-26.933 1.168-53.102 4.955-76.983 11.158-1.391.359-2.77.723-4.136 1.096l-.788.218c-21.314 5.879-39.52 13.447-52.786 22.035.372-1.029.759-2.08 1.157-3.149l.367-.977c.317-.843.642-1.697.975-2.563l.413-1.073c.457-1.178.923-2.371 1.41-3.591 9.524-23.89 22.149-49.117 35.549-71.034 21.139-34.579 63.896-92.588 112.737-92.588 38.527 0 73.009 36.026 95.151 66.248a7.55 7.55 0 1 0 12.181-8.925c-15.823-21.598-32.162-38.662-48.562-50.718C295.178 7.303 275.405 0 256.001 0c-29.47 0-75.187 17.317-125.623 99.812-31.272 51.151-50.474 105.304-50.474 121.611l.001.146-.001.127c0 15.345 25.122 51.795 52.92 84.172H114.7c-13.527 0-24.533 11.005-24.533 24.533v13.582C70.9 358.138 54.86 380.339 42.461 410.07a7.551 7.551 0 0 0 13.937 5.813c9.287-22.269 20.61-39.777 33.768-52.251v107.624H87.5c-10.543 0-19.122 8.578-19.122 19.122v2.503c0 .675.037 1.341.106 1.999.023.218.069.429.099.645.06.434.118.869.207 1.293.006.028.008.057.014.085H38.268a2.38 2.38 0 0 1-1.812-.823 2.349 2.349 0 0 1-.565-1.879c1.443-10.615 4.239-27.157 9.363-45.682a7.55 7.55 0 1 0-14.554-4.026c-5.348 19.337-8.266 36.598-9.772 47.673a17.473 17.473 0 0 0 4.154 13.846 17.505 17.505 0 0 0 13.187 5.992h435.466a17.49 17.49 0 0 0 17.341-19.842zM364.913 209.039c.068-.363.137-.726.201-1.091.087-.497.167-.995.248-1.492.068-.417.137-.834.2-1.253.069-.458.13-.917.193-1.377.063-.455.127-.91.184-1.367.055-.44.102-.881.152-1.322.053-.472.109-.944.156-1.418.044-.445.08-.892.119-1.338.041-.469.085-.936.12-1.407.019-.251.033-.503.05-.755.034-.29.056-.583.056-.882l-.001-.013c.022-.368.048-.735.067-1.104.028-.558.045-1.118.064-1.677.013-.364.031-.726.04-1.091.023-.927.035-1.855.035-2.783v-1.443c1.596.55 3.172 1.114 4.73 1.689 2.538.936 5.012 1.895 7.4 2.883v8.113c0 5.685-4.625 10.31-10.31 10.31h-3.923c.079-.392.146-.788.219-1.182zm3.705 16.284c14.012 0 25.411-11.399 25.411-25.411v-.965c15.648 8.565 22.909 16.989 22.962 22.686l.001.017.003.171c-.208 8.415-20.936 42.729-58.341 84.047h-50.711c-3.625-1.805-5.994-5.545-5.994-9.65v-6.738c27.247-12.468 48.592-35.666 58.609-64.156h8.06v-.001zm-16.922-42.759v5.224h-12.657v-.688c0-3.065-.92-5.915-2.488-8.304a305.806 305.806 0 0 1 15.145 3.768zm-27.759 4.535v6.985c-.069.409-.113.826-.113 1.254s.044.845.113 1.254v12.278a.078.078 0 0 1-.078.078h-38.244c-5.24 0-9.503-4.264-9.503-9.504v-12.346c0-.043.035-.078.078-.078h47.669a.081.081 0 0 1 .078.079zm-67.936-16.831c12.142 0 24.194.572 35.995 1.652h-15.805c-8.011 0-14.576 6.243-15.125 14.116h-10.128c-.549-7.874-7.114-14.116-15.125-14.116h-15.805a395.897 395.897 0 0 1 35.993-1.652zm-67.937 16.831c0-.043.035-.078.078-.078h47.669c.043 0 .078.035.078.078v12.346c0 5.24-4.263 9.504-9.503 9.504h-38.244a.078.078 0 0 1-.078-.078v-21.772zm.078 36.951h38.244c12.998 0 23.666-10.133 24.54-22.912h10.15c.874 12.78 11.542 22.912 24.54 22.912h38.244c8.37 0 15.179-6.809 15.179-15.18v-5.982h11.596a98.12 98.12 0 0 1-.426 2.642c-.043.239-.091.477-.136.716a95.903 95.903 0 0 1-.713 3.468 98.517 98.517 0 0 1-1.039 4.162c-.097.355-.191.71-.291 1.064-8.316 29.088-30.086 52.551-58.114 63.209-.472.179-.944.358-1.418.53a98.068 98.068 0 0 1-6.259 2.028 94.24 94.24 0 0 1-2.759.739 88.562 88.562 0 0 1-4.604 1.045 99.378 99.378 0 0 1-4.672.818c-.394.059-.789.112-1.184.166a94.5 94.5 0 0 1-3.537.42c-.285.028-.572.051-.858.076a96.31 96.31 0 0 1-3.885.275c-.155.008-.312.011-.467.018-1.42.062-2.843.1-4.272.1-43.659 0-80.582-29.389-92.028-69.423-.101-.354-.195-.709-.291-1.064a99.462 99.462 0 0 1-1.039-4.162 96.984 96.984 0 0 1-.713-3.468c-.045-.239-.093-.476-.136-.716a93.705 93.705 0 0 1-.426-2.642h11.596v5.982c-.001 8.37 6.808 15.179 15.178 15.179zm100.588 81.817h-67.461a25.803 25.803 0 0 0 1.698-9.21v-2.2c1.758.55 3.531 1.037 5.312 1.497l.27.068c1.533.392 3.074.749 4.622 1.074.247.052.494.106.742.156.753.152 1.507.298 2.264.435.401.073.805.138 1.207.207 1.085.183 2.172.353 3.264.504a101.735 101.735 0 0 0 3.497.433 111.109 111.109 0 0 0 4.022.355 108.801 108.801 0 0 0 4.118.211c1.235.041 2.472.069 3.717.069 1.171 0 2.336-.025 3.498-.061.363-.011.726-.027 1.089-.042.836-.034 1.67-.078 2.501-.131.378-.024.757-.045 1.134-.072 1.069-.079 2.134-.171 3.194-.28.474-.048.945-.108 1.418-.163a107.01 107.01 0 0 0 3.618-.476c.504-.075 1.006-.158 1.507-.24a110.67 110.67 0 0 0 3.533-.636c.315-.062.631-.12.945-.185a107.41 107.41 0 0 0 3.046-.677c1.797-.424 3.588-.877 5.364-1.392v1.106a25.706 25.706 0 0 0 1.881 9.65zM160.306 182.564a305.581 305.581 0 0 1 15.146-3.768 15.083 15.083 0 0 0-2.488 8.304v.688h-12.657l-.001-5.224zm-27.232 9.235a204.345 204.345 0 0 1 7.401-2.884 225.552 225.552 0 0 1 4.729-1.688v1.443c0 .929.012 1.856.035 2.783.009.365.027.727.04 1.091.019.559.036 1.119.064 1.677.022.44.053.878.08 1.316l.007.123c.007.168.013.336.03.501.018.271.033.543.053.814.035.47.079.938.12 1.407.039.446.075.892.119 1.338.047.474.103.946.156 1.418.05.441.097.882.152 1.322.057.457.122.911.184 1.367.063.459.124.918.193 1.377.063.419.132.835.2 1.253.081.498.161.996.248 1.492.064.365.134.727.201 1.091.073.394.141.789.219 1.183h-3.922c-5.685 0-10.31-4.625-10.31-10.31v-8.114h.001zm-38.068 30.005.003-.151.001-.019c.053-5.698 7.314-14.121 22.962-22.686v.965c0 14.012 11.4 25.411 25.412 25.411h8.059c9.747 27.723 30.221 50.438 56.423 63.129v8.204c0 3.793-2.005 7.272-5.201 9.21h-49.743c-35.793-39.744-57.731-75.427-57.916-84.063zm19.693 99.164h282.604c5.2 0 9.431 4.231 9.431 9.431v140.854H105.268V330.4c0-5.201 4.23-9.432 9.431-9.432m313.822 171.91a4.026 4.026 0 0 1-4.02 4.021h-337a4.025 4.025 0 0 1-4.02-4.021v-2.503a4.025 4.025 0 0 1 4.02-4.02h337a4.025 4.025 0 0 1 4.02 4.02v2.503zm47.026 3.197a2.381 2.381 0 0 1-1.813.824h-30.536c.006-.028.008-.057.014-.085.089-.424.147-.859.207-1.293.03-.216.076-.427.099-.645.069-.657.106-1.324.106-1.999v-2.503c0-10.543-8.578-19.122-19.122-19.122h-2.665V363.65c38.705 36.83 51.212 108.015 54.276 130.547a2.351 2.351 0 0 1-.566 1.878z" fill="#000000" opacity="1" data-original="#000000" class=""></path></g></svg>
