<svg xmlns="http://www.w3.org/2000/svg" version="1.1" xmlns:xlink="http://www.w3.org/1999/xlink" width="512" height="512" x="0" y="0" viewBox="0 0 512 512" style="enable-background:new 0 0 512 512" xml:space="preserve" class=""><g><path d="M470.022 342.021c.688-47.484-15.14-55.742-23.054-83.613-7.967-28.059.139-47.219-9.29-78.279-8.774-28.903-24.714-33.786-29.591-74.839C399.828 35.784 324.817 0 287.656 0c-10.508 0-17.683 2.667-22.507 5.857-5.583 3.694-12.716 3.694-18.298 0C242.027 2.667 234.852 0 224.344 0c-37.161 0-112.172 35.784-120.43 105.29-4.878 41.052-20.817 45.935-29.591 74.839-9.429 31.06-1.323 50.22-9.29 78.279-7.914 27.871-23.742 36.129-23.054 83.613.798 55.066-30.968 67.441-18.581 103.914 9.245 27.22 59.183 49.548 59.183 49.548H429.42s49.938-22.329 59.183-49.548c12.386-36.473-19.38-48.848-18.581-103.914z" style="" fill="#64505a" data-original="#64505a" class=""></path><path d="M256 8.627a16.55 16.55 0 0 1-9.149-2.77C242.027 2.667 234.852 0 224.344 0c-37.161 0-112.172 35.784-120.43 105.29-4.878 41.052-20.817 45.935-29.591 74.839-9.429 31.06-1.323 50.22-9.29 78.279-7.914 27.871-23.742 36.129-23.054 83.613.798 55.066-30.968 67.441-18.581 103.914 9.245 27.22 59.183 49.548 59.183 49.548H256V8.627z" style="" fill="#5a4650" data-original="#5a4650"></path><path d="m412.878 401.236-85.291-30.103a33.032 33.032 0 0 1-22.039-31.149V297.29h-99.097v42.694a33.032 33.032 0 0 1-22.039 31.149l-85.291 30.103c-19.81 6.992-33.057 25.716-33.057 46.723v39.267c0 13.682 11.092 24.774 24.774 24.774h330.323c13.682 0 24.774-11.092 24.774-24.774v-39.267c0-21.007-13.247-39.731-33.057-46.723z" style="" fill="#b67f5f" data-original="#b67f5f" class=""></path><path d="m412.878 401.236-56.91-20.087c-22.397 30.957-52.879 65.096-88.361 84.013a24.721 24.721 0 0 1-23.214 0c-35.482-18.916-65.964-53.056-88.361-84.013l-56.91 20.087c-19.81 6.992-33.057 25.716-33.057 46.724v39.266c0 13.682 11.092 24.774 24.774 24.774h330.323c13.682 0 24.774-11.092 24.774-24.774V447.96c-.001-21.008-13.248-39.732-33.058-46.724z" style="" fill="#b4e6a0" data-original="#b4e6a0"></path><path d="M206.452 319.756c15.247 6.742 32.001 10.567 49.548 10.567s34.301-3.824 49.548-10.567V297.29h-99.097l.001 22.466z" style="" fill="#a06e50" data-original="#a06e50"></path><path d="M256 313.806c-59.291 0-107.355-48.064-107.355-107.355V66.065h214.71v140.387c0 59.29-48.065 107.354-107.355 107.354z" style="" fill="#cd916e" data-original="#cd916e" class=""></path><path d="M148.645 66.065v140.387c0 59.29 48.065 107.355 107.355 107.355 5.632 0 11.118-.565 16.516-1.399-51.428-7.964-90.839-52.296-90.839-105.956v-42.946c0-6.79 2.106-13.35 5.702-19.11l.057-.091c13.559-21.759 26.252-24.958 40.947-28.66 8.44-2.127 18.273-4.605 27.616-10.831 9.344 6.226 19.177 8.704 27.616 10.831 14.696 3.703 27.388 6.901 40.947 28.659 12.614 20.24 26.729 31.428 38.791 40.071V66.065H148.645z" style="" fill="#b67f5f" data-original="#b67f5f" class=""></path><path d="M256 264.258c-12.395 0-23.823-3.976-30.573-10.637-3.25-3.21-3.282-8.435-.081-11.677 3.218-3.25 8.444-3.282 11.677-.081 2.75 2.71 9.363 5.879 18.976 5.879s16.226-3.169 18.976-5.879c3.234-3.202 8.46-3.169 11.677.081 3.202 3.242 3.169 8.468-.081 11.677-6.748 6.661-18.176 10.637-30.571 10.637z" style="" fill="#a06e50" data-original="#a06e50"></path><path d="M206.452 206.452a8.253 8.253 0 0 1-8.258-8.258v-8.258c0-4.565 3.694-8.258 8.258-8.258s8.258 3.694 8.258 8.258v8.258a8.254 8.254 0 0 1-8.258 8.258zM305.548 206.452a8.253 8.253 0 0 1-8.258-8.258v-8.258a8.253 8.253 0 0 1 8.258-8.258 8.253 8.253 0 0 1 8.258 8.258v8.258a8.253 8.253 0 0 1-8.258 8.258zM214.71 173.419h-16.516c-4.565 0-8.258-3.694-8.258-8.258s3.694-8.258 8.258-8.258h16.516c4.565 0 8.258 3.694 8.258 8.258s-3.694 8.258-8.258 8.258zM313.806 173.419H297.29c-4.565 0-8.258-3.694-8.258-8.258s3.694-8.258 8.258-8.258h16.516c4.565 0 8.258 3.694 8.258 8.258s-3.693 8.258-8.258 8.258z" style="" fill="#5a4650" data-original="#5a4650"></path><path d="M126.532 446.218 84.38 409.617c-4.319 3.52-7.948 7.738-10.847 12.446l42.176 36.623a24.788 24.788 0 0 1 8.532 18.71V512h16.516v-34.605a41.257 41.257 0 0 0-14.225-31.177zM385.839 446.218l42.152-36.601c4.319 3.52 7.948 7.738 10.847 12.446l-42.176 36.623a24.788 24.788 0 0 0-8.532 18.71V512h-16.516v-34.605a41.257 41.257 0 0 1 14.225-31.177z" style="" fill="#9bdc9b" data-original="#9bdc9b"></path><path d="M446.968 258.408c-7.967-28.059.139-47.219-9.29-78.279-8.774-28.903-24.714-33.786-29.591-74.839C399.828 35.784 324.817 0 287.656 0c-10.508 0-17.683 2.667-22.507 5.857A16.55 16.55 0 0 1 256 8.627v73.954c21.333 26.839 52.989 5.505 82.581 52.989 25.152 40.36 56.735 39.34 67.845 71.16 3.184 9.12 1.457 18.864 2.219 28.494 4.258 53.808 45.548 78.583 64.109 134.735-1.77-8.019-2.889-17.138-2.732-27.938.688-47.484-15.14-55.742-23.054-83.613z" style="" fill="#6e5a64" data-original="#6e5a64" class=""></path><path d="M65.032 258.408c7.967-28.059-.139-47.219 9.29-78.279 8.774-28.903 24.714-33.786 29.591-74.839C112.172 35.784 187.183 0 224.344 0c10.508 0 17.683 2.667 22.507 5.857A16.55 16.55 0 0 0 256 8.627v73.954c-21.333 26.839-52.989 5.505-82.581 52.989-25.152 40.36-56.735 39.34-67.845 71.16-3.184 9.12-1.457 18.864-2.219 28.494-4.258 53.808-45.548 78.583-64.109 134.735 1.77-8.019 2.889-17.138 2.732-27.938-.688-47.484 15.14-55.742 23.054-83.613z" style="" fill="#64505a" data-original="#64505a" class=""></path></g></svg>
