<svg xmlns="http://www.w3.org/2000/svg" version="1.1" xmlns:xlink="http://www.w3.org/1999/xlink" width="512" height="512" x="0" y="0" viewBox="0 0 30 30" style="enable-background:new 0 0 512 512" xml:space="preserve" class=""><g><g data-name="Layer 2"><circle cx="15" cy="15" r="15" fill="#ee1c25" opacity="1" data-original="#ee1c25" class=""></circle><g fill="#ff0"><path d="m23.011 17.368-1.473-.024-.479-1.392-.478 1.392-1.473.025 1.177.884-.431 1.407 1.206-.845 1.206.845-.432-1.407zM17.609 10.727l.024-1.473 1.392-.479-1.392-.479-.025-1.473L16.724 8l-1.408-.43.846 1.206-.846 1.206 1.408-.433zM17.609 23.177l.024-1.473 1.392-.479-1.392-.479-.025-1.473-.884 1.177-1.408-.43.846 1.206-.846 1.206 1.408-.433zM21.653 12.537l.646-1.323-1.323.646-1.059-1.024.207 1.457-1.3.691 1.451.255.255 1.451.689-1.301 1.458.206zM13.511 13.214l-3.971-.066-1.291-3.752-1.29 3.753-3.97.067 3.173 2.385L5 19.396l3.251-2.279 3.252 2.277-1.164-3.794z" fill="#ffff00" opacity="1" data-original="#ffff00" class=""></path></g></g></g></svg>
