<svg xmlns="http://www.w3.org/2000/svg" version="1.1" xmlns:xlink="http://www.w3.org/1999/xlink" width="512" height="512" x="0" y="0" viewBox="0 0 512 512" style="enable-background:new 0 0 512 512" xml:space="preserve" class=""><g><clipPath id="a"><path d="M-76.855-273.582a240.032 240.032 0 1 1-480.064 0 240.032 240.032 0 1 1 480.064 0z" fill="#000000" opacity="1" data-original="#000000"></path></clipPath><g clip-path="url(#a)" transform="translate(572.8 529.6)"><path fill="#27ae60" d="M-556.8-33.6v-160h480v160z" opacity="1" data-original="#27ae60"></path><path fill="#ffffff" d="M-556.8-193.6v-160h480v160z" opacity="1" data-original="#ffffff"></path><path fill="#f39c12" d="M-556.8-353.6v-160h480v160z" opacity="1" data-original="#f39c12"></path><g transform="matrix(.933 0 0 .933 -555.733 -94.4)"><circle r="20" fill="#000088" transform="matrix(3.75 0 0 3.75 256 -192)" opacity="1" data-original="#000088"></circle><circle r="17.5" fill="#ffffff" transform="matrix(3.75 0 0 3.75 256 -192)" opacity="1" data-original="#ffffff"></circle><g fill="#008"><circle r="3.5" transform="matrix(3.75 0 0 3.75 256 -192)" fill="#000088" opacity="1" data-original="#000088"></circle><g transform="matrix(3.75 0 0 3.75 256 -192)"><circle r=".875" transform="rotate(7.53 -8.682 133.014)" fill="#000088" opacity="1" data-original="#000088"></circle><path d="M0 17.5.6 7 0 2l-.6 5z" fill="#000088" opacity="1" data-original="#000088"></path></g><g transform="matrix(3.623 .971 -.971 3.623 256 -192)"><circle r=".875" transform="rotate(7.53 -8.682 133.014)" fill="#000088" opacity="1" data-original="#000088"></circle><path d="M0 17.5.6 7 0 2l-.6 5z" fill="#000088" opacity="1" data-original="#000088"></path></g><g transform="rotate(30 486.289 381.675) scale(3.75)"><circle r=".875" transform="rotate(7.53 -8.682 133.014)" fill="#000088" opacity="1" data-original="#000088"></circle><path d="M0 17.5.6 7 0 2l-.6 5z" fill="#000088" opacity="1" data-original="#000088"></path></g><g transform="matrix(2.651 2.652 -2.652 2.651 256 -192)"><circle r=".875" transform="rotate(7.53 -8.682 133.014)" fill="#000088" opacity="1" data-original="#000088"></circle><path d="M0 17.5.6 7 0 2l-.6 5z" fill="#000088" opacity="1" data-original="#000088"></path></g><g transform="rotate(60 294.285 125.702) scale(3.75)"><circle r=".875" transform="rotate(7.53 -8.682 133.014)" fill="#000088" opacity="1" data-original="#000088"></circle><path d="M0 17.5.6 7 0 2l-.6 5z" fill="#000088" opacity="1" data-original="#000088"></path></g><g transform="matrix(.97 3.623 -3.623 .97 256 -192)"><circle r=".875" transform="rotate(7.53 -8.682 133.014)" fill="#000088" opacity="1" data-original="#000088"></circle><path d="M0 17.5.6 7 0 2l-.6 5z" fill="#000088" opacity="1" data-original="#000088"></path></g><g transform="matrix(0 3.75 -3.75 0 256 -192)"><circle r=".875" transform="rotate(7.53 -8.682 133.014)" fill="#000088" opacity="1" data-original="#000088"></circle><path d="M0 17.5.6 7 0 2l-.6 5z" fill="#000088" opacity="1" data-original="#000088"></path></g><g transform="matrix(-.971 3.622 -3.622 -.971 256 -192)"><circle r=".875" transform="rotate(7.53 -8.682 133.014)" fill="#000088" opacity="1" data-original="#000088"></circle><path d="M0 17.5.6 7 0 2l-.6 5z" fill="#000088" opacity="1" data-original="#000088"></path></g><g transform="scale(-3.75) rotate(-60 10.203 84.71)"><circle r=".875" transform="rotate(7.53 -8.682 133.014)" fill="#000088" opacity="1" data-original="#000088"></circle><path d="M0 17.5.6 7 0 2l-.6 5z" fill="#000088" opacity="1" data-original="#000088"></path></g><g transform="rotate(135 167.763 -42.991) scale(3.751)"><circle r=".875" transform="rotate(7.53 -8.682 133.014)" fill="#000088" opacity="1" data-original="#000088"></circle><path d="M0 17.5.6 7 0 2l-.6 5z" fill="#000088" opacity="1" data-original="#000088"></path></g><g transform="matrix(-3.248 1.875 -1.875 -3.248 256 -192)"><circle r=".875" transform="rotate(7.53 -8.682 133.014)" fill="#000088" opacity="1" data-original="#000088"></circle><path d="M0 17.5.6 7 0 2l-.6 5z" fill="#000088" opacity="1" data-original="#000088"></path></g><g transform="matrix(-3.623 .97 -.97 -3.623 256 -192)"><circle r=".875" transform="rotate(7.53 -8.682 133.014)" fill="#000088" opacity="1" data-original="#000088"></circle><path d="M0 17.5.6 7 0 2l-.6 5z" fill="#000088" opacity="1" data-original="#000088"></path></g><g transform="matrix(-3.75 0 0 -3.75 256 -192)"><circle r=".875" transform="rotate(7.53 -8.682 133.014)" fill="#000088" opacity="1" data-original="#000088"></circle><path d="M0 17.5.6 7 0 2l-.6 5z" fill="#000088" opacity="1" data-original="#000088"></path></g><g transform="matrix(-3.623 -.971 .971 -3.623 256 -192)"><circle r=".875" transform="rotate(7.53 -8.682 133.014)" fill="#000088" opacity="1" data-original="#000088"></circle><path d="M0 17.5.6 7 0 2l-.6 5z" fill="#000088" opacity="1" data-original="#000088"></path></g><g transform="rotate(-150 102.276 -130.291) scale(3.75)"><circle r=".875" transform="rotate(7.53 -8.682 133.014)" fill="#000088" opacity="1" data-original="#000088"></circle><path d="M0 17.5.6 7 0 2l-.6 5z" fill="#000088" opacity="1" data-original="#000088"></path></g><g transform="matrix(-2.652 -2.652 2.652 -2.652 256 -192)"><circle r=".875" transform="rotate(7.53 -8.682 133.014)" fill="#000088" opacity="1" data-original="#000088"></circle><path d="M0 17.5.6 7 0 2l-.6 5z" fill="#000088" opacity="1" data-original="#000088"></path></g><g transform="matrix(-1.875 -3.248 3.248 -1.875 256 -192)"><circle r=".875" transform="rotate(7.53 -8.682 133.014)" fill="#000088" opacity="1" data-original="#000088"></circle><path d="M0 17.5.6 7 0 2l-.6 5z" fill="#000088" opacity="1" data-original="#000088"></path></g><g transform="matrix(-.97 -3.623 3.623 -.97 256 -192)"><circle r=".875" transform="rotate(7.53 -8.682 133.014)" fill="#000088" opacity="1" data-original="#000088"></circle><path d="M0 17.5.6 7 0 2l-.6 5z" fill="#000088" opacity="1" data-original="#000088"></path></g><g transform="matrix(0 -3.75 3.75 0 256 -192)"><circle r=".875" transform="rotate(7.53 -8.682 133.014)" fill="#000088" opacity="1" data-original="#000088"></circle><path d="M0 17.5.6 7 0 2l-.6 5z" fill="#000088" opacity="1" data-original="#000088"></path></g><g transform="matrix(.972 -3.623 3.623 .972 256 -192)"><circle r=".875" transform="rotate(7.53 -8.682 133.014)" fill="#000088" opacity="1" data-original="#000088"></circle><path d="M0 17.5.6 7 0 2l-.6 5z" fill="#000088" opacity="1" data-original="#000088"></path></g><g transform="matrix(1.875 -3.248 3.248 1.875 256 -192)"><circle r=".875" transform="rotate(7.53 -8.682 133.014)" fill="#000088" opacity="1" data-original="#000088"></circle><path d="M0 17.5.6 7 0 2l-.6 5z" fill="#000088" opacity="1" data-original="#000088"></path></g><g transform="matrix(2.653 -2.652 2.652 2.653 256 -192)"><circle r=".875" transform="rotate(7.53 -8.682 133.014)" fill="#000088" opacity="1" data-original="#000088"></circle><path d="M0 17.5.6 7 0 2l-.6 5z" fill="#000088" opacity="1" data-original="#000088"></path></g><g transform="rotate(-30 -230.363 -573.719) scale(3.75)"><circle r=".875" transform="rotate(7.53 -8.682 133.014)" fill="#000088" opacity="1" data-original="#000088"></circle><path d="M0 17.5.6 7 0 2l-.6 5z" fill="#000088" opacity="1" data-original="#000088"></path></g><g transform="matrix(3.623 -.97 .97 3.623 256 -192)"><circle r=".875" transform="rotate(7.53 -8.682 133.014)" fill="#000088" opacity="1" data-original="#000088"></circle><path d="M0 17.5.6 7 0 2l-.6 5z" fill="#000088" opacity="1" data-original="#000088"></path></g></g></g></g></g></svg>
