<svg xmlns="http://www.w3.org/2000/svg" version="1.1" xmlns:xlink="http://www.w3.org/1999/xlink" width="512" height="512" x="0" y="0" viewBox="0 0 180 180" style="enable-background:new 0 0 512 512" xml:space="preserve" class=""><g><g fill="none" fill-rule="evenodd"><path fill="#f1453d" d="M174.873 120H5.121c12.355 34.956 45.69 60 84.876 60 39.186 0 72.522-25.044 84.876-60z" opacity="1" data-original="#f1453d" class=""></path><path fill="#ffffff" d="M5.121 120h169.752c3.317-9.383 5.121-19.48 5.121-30s-1.804-20.617-5.12-30H5.12C1.805 69.383 0 79.48 0 90s1.805 20.617 5.121 30z" opacity="1" data-original="#ffffff" class=""></path><path fill="#4eab53" d="M174.873 60C162.52 25.044 129.183 0 89.997 0 50.812 0 17.476 25.044 5.121 60z" opacity="1" data-original="#4eab53" class=""></path><g fill="#fff"><path d="M16 122v2h-5v3h3v-1h-2v-1h4v2h5v-5h-1v4h-1v-4h-1v4h-1v-4zm-9.595-.1.428 1H15v-1zM22 124v3h1v-2h3v2h5v-3h-2.98v1H30v1h-3v-2zm15-2v2h-5v3h3v-1h-2v-1h4v2h5v-5h-1v4h-1v-4h-1v4h-1v-4zm-15-.1v1h14v-1zm21 2.1v3h1v-2h3v2h5v-3h-2.98v1H51v1h-3v-2zm15-2v2h-5v3h3v-1h-2v-1h4v2h5v-5h-1v4h-1v-4h-1v4h-1v-4zm-15-.1v1h14v-1zm21 2.1v3h1v-2h3v2h5v-3h-2.98v1H72v1h-3v-2zm15-2v2h-5v3h3v-1h-2v-1h4v2h5v-5h-1v4h-1v-4h-1v4h-1v-4zm-15-.1v1h14v-1zm21 2.1v3h1v-2h3v2h5v-3h-2.98v1H93v1h-3v-2zm15-2v2h-5v3h3v-1h-2v-1h4v2h5v-5h-1v4h-1v-4h-1v4h-1v-4zm-15-.1v1h14v-1zm21 2.1v3h1v-2h3v2h5v-3h-2.98v1H114v1h-3v-2zm15-2v2h-5v3h3v-1h-2v-1h4v2h5v-5h-1v4h-1v-4h-1v4h-1v-4zm-15-.1v1h14v-1zm21 2.1v3h1v-2h3v2h5v-3h-2.98v1H135v1h-3v-2zm15-2v2h-5v3h3v-1h-2v-1h4v2h5v-5h-1v4h-1v-4h-1v4h-1v-4zm-15-.1v1h14v-1zm21 2.1v3h1v-2h3v2h5v-3h-2.98v1H156v1h-3v-2zm15-2v2h-5v3h3v-1h-2v-1h4v2h5v-5h-1v4h-1v-4h-1v4h-1v-4zm-15-.1v1h14v-1zm21 2.1v3h1v-2h2.277l.466-1zm0-2.1v1h3.983l.44-1z" fill="#ffffff" opacity="1" data-original="#ffffff" class=""></path><path d="M24 126h1v1h-1zM45 126h1v1h-1zM66 126h1v1h-1zM87 126h1v1h-1zM108 126h1v1h-1zM129 126h1v1h-1zM150 126h1v1h-1zM5.817 121l-.336-1H10v1zM11 121v-1h10v1zm11 0v-1h9v1zm10 0v-1h10v1zm11 0v-1h9v1zm10 0v-1h10v1zm11 0v-1h9v1zm10 0v-1h10v1zm11 0v-1h9v1zm10 0v-1h10v1zm11 0v-1h9v1zm10 0v-1h10v1zm11 0v-1h9v1zm10 0v-1h10v1zm11 0v-1h9v1zm10 0v-1h10v1zm11 0v-1h4.75l-.526 1z" fill="#ffffff" opacity="1" data-original="#ffffff" class=""></path></g><g fill="#fff"><path d="M24 57h1v1h-1zM45 57h1v1h-1zM66 57h1v1h-1zM87 57h1v1h-1zM108 57h1v1h-1zM129 57h1v1h-1zM150 57h1v1h-1z" fill="#ffffff" opacity="1" data-original="#ffffff" class=""></path><path d="M6.833 58H10v-3H8.046l-.476 1H9v1H7.162zM16 53v2h-5v3h3v-1h-2v-1h4v2h5v-5h-1v4h-1v-4h-1v4h-1v-4zm-7.042-.1-.506 1H15v-1zM6.711 59l-.435 1H10v-1zM11 59v1h10v-1zm11-4v3h1v-2h3v2h5v-3h-2.98v1H30v1h-3v-2zm15-2v2h-5v3h3v-1h-2v-1h4v2h5v-5h-1v4h-1v-4h-1v4h-1v-4zm-15-.1v1h14v-1zm0 6.1v1h9v-1zm10 0v1h10v-1zm11-4v3h1v-2h3v2h5v-3h-2.98v1H51v1h-3v-2zm15-2v2h-5v3h3v-1h-2v-1h4v2h5v-5h-1v4h-1v-4h-1v4h-1v-4zm-15-.1v1h14v-1zm0 6.1v1h9v-1zm10 0v1h10v-1zm11-4v3h1v-2h3v2h5v-3h-2.98v1H72v1h-3v-2zm15-2v2h-5v3h3v-1h-2v-1h4v2h5v-5h-1v4h-1v-4h-1v4h-1v-4zm-15-.1v1h14v-1zm0 6.1v1h9v-1zm10 0v1h10v-1zm11-4v3h1v-2h3v2h5v-3h-2.98v1H93v1h-3v-2zm15-2v2h-5v3h3v-1h-2v-1h4v2h5v-5h-1v4h-1v-4h-1v4h-1v-4zm-15-.1v1h14v-1zm0 6.1v1h9v-1zm10 0v1h10v-1zm11-4v3h1v-2h3v2h5v-3h-2.98v1H114v1h-3v-2zm15-2v2h-5v3h3v-1h-2v-1h4v2h5v-5h-1v4h-1v-4h-1v4h-1v-4zm-15-.1v1h14v-1zm0 6.1v1h9v-1zm10 0v1h10v-1zm11-4v3h1v-2h3v2h5v-3h-2.98v1H135v1h-3v-2zm15-2v2h-5v3h3v-1h-2v-1h4v2h5v-5h-1v4h-1v-4h-1v4h-1v-4zm-15-.1v1h14v-1zm0 6.1v1h9v-1zm10 0v1h10v-1zm11-4v3h1v-2h3v2h5v-3h-2.98v1H156v1h-3v-2zm15-2v2h-5v3h3v-1h-2v-1h4v2h5v-5h-1v4h-1v-4h-1v4h-1v-4zm-15-.1v1h14v-1zm0 6.1v1h9v-1zm10 0v1h10v-1zm11-4v3h1v-2h2.183l-.358-1zm0-2.1v1h2.342l-.48-1zm0 6.1v1h4.656l-.45-1z" fill="#ffffff" opacity="1" data-original="#ffffff" class=""></path></g><path fill="#f1453d" d="M67.97 110.533c-17.537-10.48-12.006-38.57 8.984-40.364-17.385 10.225-17.41 27.093-8.984 40.364 0 0-8.426-13.27 0 0zm44.06 0c17.537-10.48 12.006-38.57-8.984-40.364 17.385 10.225 17.41 27.093 8.984 40.364 0 0 8.426-13.27 0 0zM90.06 66.075c-3.735 3.762-10.15.022-7.945-4.075 3.86 6.18 7.944 1.187 7.944 1.187S94.144 68.18 98.003 62c2.206 4.097-4.21 7.837-7.944 4.075 0 0 3.734 3.762 0 0zm-2.682 48.792s-6.158 1.752-14.044-.817c6.314.478 11.173-1.483 11.438-1.601 0 0-15.438-7.434-15.138-22.57.903-15.314 10.025-19.972 10.025-19.972s-16.24 21.136 7.618 38.802l-1.052-21.853V70.802c1.353-.291 3.834-2.843 3.834-2.843s2.48 2.552 3.834 2.843v16.054l-1.052 21.853c23.856-17.666 7.617-38.803 7.617-38.803s9.122 4.657 10.024 19.972c.301 15.136-15.137 22.57-15.137 22.57 1.404.626 5.213 1.7 12.03 1.7-8.321 2.598-14.636.717-14.636.717L90.057 118z" opacity="1" data-original="#f1453d" class=""></path></g></g></svg>
