<svg xmlns="http://www.w3.org/2000/svg" version="1.1" xmlns:xlink="http://www.w3.org/1999/xlink" width="512" height="512" x="0" y="0" viewBox="0 0 512 512" style="enable-background:new 0 0 512 512" xml:space="preserve" class=""><g><clipPath id="a"><path d="M-240.055-315.182a240.032 240.032 0 1 1-480.064 0 240.032 240.032 0 1 1 480.064 0z" fill="#000000" opacity="1" data-original="#000000"></path></clipPath><g clip-path="url(#a)" transform="translate(736 571.2)"><path fill="#fcd116" d="M-240-195.2v-240h-480v240z" opacity="1" data-original="#fcd116"></path><path fill="#e74c3c" d="M-240-75.2v-120h-480v120zM-240-435.2v-120h-480v120z" opacity="1" data-original="#e74c3c" class=""></path><path fill="#ad1519" d="M-602.168-340.212s-.46 0-.713-.144c-.253-.146-1.015-.867-1.015-.867l-.611-.435-.556-.77s-.662-1.051-.358-1.872c.303-.816.812-1.107 1.272-1.346.458-.24 1.42-.529 1.42-.529s.766-.336 1.02-.386c.252-.048 1.17-.288 1.17-.288s.254-.143.507-.239c.256-.096.61-.096.816-.146.202-.049.713-.212 1.016-.228.472-.019 1.221.084 1.478.084.252 0 1.117.05 1.471.05.355 0 1.626-.099 1.984-.099.354 0 .61-.044 1.02 0 .404.049 1.116.287 1.321.387.204.096 1.425.529 1.881.673.458.14 1.579.335 2.089.575.505.242.816.648 1.069.985.257.336.303.702.405.944.097.24.1.757.004.996-.103.24-.463.735-.463.735l-.56.912-.712.574s-.51.485-.914.434c-.41-.042-4.53-.77-7.174-.77-2.646 0-6.87.77-6.87.77" opacity="1" data-original="#ad1519"></path><path fill="#c8b100" d="M-596.51-346.106c0-1.24.557-2.243 1.242-2.243.685 0 1.242 1.002 1.242 2.243 0 1.236-.557 2.24-1.242 2.24-.685 0-1.241-1.004-1.241-2.24" opacity="1" data-original="#c8b100"></path><path fill="#c8b100" d="M-595.814-346.106c0-1.141.256-2.066.57-2.066.317 0 .57.925.57 2.066 0 1.133-.253 2.059-.57 2.059-.314 0-.57-.926-.57-2.059" opacity="1" data-original="#c8b100"></path><path fill="#c8b100" d="M-596.082-348.476c0-.43.372-.788.831-.788.459 0 .83.357.83.788 0 .434-.371.782-.83.782-.459 0-.83-.348-.83-.782" opacity="1" data-original="#c8b100"></path><path fill="#c8b100" d="M-594.664-348.754v.523h-1.285v-.523h.42v-1.177h-.555v-.52h.556v-.51h.546v.51h.554v.52h-.554v1.177z" opacity="1" data-original="#c8b100"></path><path fill="#c8b100" d="M-594.09-348.754v.523h-2.281v-.523h.843v-1.177h-.556v-.52h.556v-.51h.546v.51h.554v.52h-.554v1.177z" opacity="1" data-original="#c8b100"></path><path fill="#c8b100" d="M-595.248-340.356h-4.326l-.1-1.06-.204-1.103-.215-1.378c-1.192-1.57-2.288-2.601-2.656-2.38.088-.29.192-.508.423-.642 1.059-.629 3.245.88 4.89 3.36.147.226.289.453.414.68h3.573c.128-.224.27-.45.418-.68 1.64-2.48 3.83-3.989 4.886-3.36.23.134.335.351.426.642-.371-.218-1.464.81-2.663 2.38l-.213 1.378-.202 1.104-.098 1.06h-4.35" opacity="1" data-original="#c8b100"></path><path fill="#c8b100" d="M-601.639-338.406a4.205 4.205 0 0 0-.52-.973c1.752-.514 4.192-.837 6.904-.843 2.71.007 5.17.329 6.918.843 0 0-.196.344-.466.823-.152.265-.35.727-.337.727-1.582-.485-3.62-.733-6.128-.736-2.504.002-4.913.309-6.168.768.013 0-.088-.29-.213-.61h.01" opacity="1" data-original="#c8b100"></path><path fill="#c8b100" d="M-595.255-336.182c2.187-.003 4.6-.335 5.487-.564.598-.174.944-.442.881-.75-.03-.147-.158-.275-.33-.348-1.31-.418-3.663-.715-6.038-.718-2.372.003-4.74.3-6.046.718-.172.073-.3.2-.33.347-.065.31.283.577.876.75.89.23 3.314.561 5.5.565" opacity="1" data-original="#c8b100"></path><path fill="#c8b100" d="m-588.225-340.356-.536-.48s-.507.311-1.145.215c-.635-.095-.84-.864-.84-.864s-.713.596-1.296.552c-.584-.052-.965-.552-.965-.552s-.634.452-1.195.408c-.56-.05-1.093-.746-1.093-.746s-.56.72-1.12.772c-.56.044-1.02-.486-1.02-.486s-.252.53-.965.648c-.71.122-1.32-.551-1.32-.551s-.407.65-.89.819c-.482.169-1.12-.243-1.12-.243s-.101.243-.175.387c-.078.144-.28.17-.28.17l.158.43c1.744-.504 4.107-.817 6.779-.82 2.676.003 5.102.316 6.851.824l.178-.483" opacity="1" data-original="#c8b100"></path><path fill="#c8b100" d="m-595.241-342.682.253.045a.913.913 0 0 0-.05.335c0 .523.448.948 1.006.948.444 0 .82-.275.95-.654.018.01.099-.345.14-.34.03 0 .026.368.043.362.06.474.5.8.992.8.554 0 .997-.423.997-.946 0-.04 0-.078-.005-.115l.314-.314.172.399a.809.809 0 0 0-.095.412c0 .5.43.906.955.906a.974.974 0 0 0 .797-.405l.202-.255-.003.316c0 .312.135.593.442.644 0 0 .347.025.82-.345.466-.366.722-.673.722-.673l.03.377s-.458.753-.877.992c-.227.134-.578.275-.854.226-.29-.044-.498-.28-.607-.548a1.384 1.384 0 0 1-.716.194c-.567 0-1.076-.313-1.278-.774-.26.28-.62.449-1.046.449-.453 0-.868-.201-1.127-.517-.257.236-.605.38-.986.38-.499 0-.948-.25-1.201-.616a1.461 1.461 0 0 1-1.198.616 1.45 1.45 0 0 1-.985-.38c-.26.316-.675.517-1.128.517-.425 0-.786-.17-1.046-.45-.201.46-.711.775-1.278.775-.264 0-.51-.07-.716-.194-.108.268-.317.504-.607.548-.277.049-.624-.092-.854-.226-.418-.24-.911-.992-.911-.992l.064-.377s.26.307.722.673c.47.37.82.345.82.345.308-.051.443-.332.443-.644l-.004-.316.202.255a.974.974 0 0 0 .796.405c.527 0 .955-.405.955-.906a.845.845 0 0 0-.09-.412l.169-.399.313.314a.688.688 0 0 0-.01.115c0 .523.446.947 1.002.947.494 0 .928-.327.993-.801.014.007.01-.361.043-.361.04-.007.125.348.139.339.131.379.51.654.955.654.552 0 1.002-.425 1.002-.948a.844.844 0 0 0-.051-.335l.263-.045" opacity="1" data-original="#c8b100"></path><path fill="#c8b100" d="M-595.255-340.218c-2.712.002-5.152.325-6.9.842-.118.038-.263-.052-.3-.157-.038-.11.047-.248.162-.286 1.758-.537 4.258-.875 7.038-.877 2.778.002 5.289.34 7.046.877.115.038.199.176.162.286-.033.105-.182.195-.297.157-1.75-.517-4.2-.84-6.91-.842" opacity="1" data-original="#c8b100"></path><path fill="#ffffff" d="M-597.88-339.258c0-.204.176-.37.394-.37.217 0 .392.166.392.37 0 .207-.175.37-.392.37-.218 0-.394-.163-.394-.37" opacity="1" data-original="#ffffff"></path><path fill="#ad1519" d="M-595.224-339.098h-.87c-.162 0-.297-.128-.297-.281 0-.151.131-.274.29-.274h1.767c.163 0 .292.123.292.274a.29.29 0 0 1-.295.281z" opacity="1" data-original="#ad1519"></path><path fill="#058e6e" d="m-599.594-338.799-.624.093c-.16.022-.314-.08-.337-.233a.277.277 0 0 1 .243-.313l.627-.092.642-.099c.158-.019.307.08.334.23a.285.285 0 0 1-.247.315z" opacity="1" data-original="#058e6e"></path><path fill="#ad1519" d="m-602.115-338.362.277-.446.59.112-.344.501z" opacity="1" data-original="#ad1519"></path><path fill="#ffffff" d="M-593.412-339.258c0-.204.176-.37.395-.37.216 0 .391.166.391.37 0 .207-.175.37-.391.37-.219 0-.395-.163-.395-.37" opacity="1" data-original="#ffffff"></path><path fill="#058e6e" d="m-590.912-338.799.628.093a.294.294 0 0 0 .335-.233.275.275 0 0 0-.24-.313l-.632-.092-.638-.099c-.162-.019-.31.08-.333.23-.027.15.084.293.246.315z" opacity="1" data-original="#058e6e"></path><path fill="#ad1519" d="m-588.442-338.336-.222-.475-.608.05.29.533.54-.108" opacity="1" data-original="#ad1519"></path><path fill="#ad1519" d="M-595.262-336.69c-2.188-.002-4.17-.194-5.675-.583 1.506-.386 3.487-.625 5.675-.632 2.19.003 4.181.243 5.69.632-1.509.39-3.5.58-5.69.583" opacity="1" data-original="#ad1519"></path><path fill="#c8b100" d="M-588.354-341.43c.057-.17.004-.337-.118-.378-.121-.034-.27.075-.327.236-.058.173-.007.343.118.38.121.035.266-.07.327-.239" opacity="1" data-original="#c8b100"></path><path fill="#c8b100" d="M-592.713-342.273c.02-.176-.065-.332-.193-.348-.128-.016-.25.118-.27.294-.023.175.062.331.19.347.128.013.25-.12.273-.293" opacity="1" data-original="#c8b100"></path><path fill="#c8b100" d="M-597.779-342.273c-.02-.176.065-.332.194-.348.127-.016.249.118.272.294.02.175-.064.331-.192.347-.125.013-.25-.12-.274-.293" opacity="1" data-original="#c8b100"></path><path fill="#c8b100" d="M-602.138-341.43c-.057-.17-.004-.337.118-.378.122-.034.27.075.327.236.058.173.007.343-.119.38-.12.035-.266-.07-.326-.239" opacity="1" data-original="#c8b100"></path><path fill="#c8b100" d="m-595.262-344.788-.772.466.574 1.24.198.132.196-.131.577-1.241z" opacity="1" data-original="#c8b100"></path><path fill="#c8b100" d="m-596.952-342.911.351.51 1.208-.37.125-.168-.129-.174-1.204-.351z" opacity="1" data-original="#c8b100"></path><path fill="#c8b100" d="m-593.56-342.911-.35.51-1.21-.37-.128-.168.131-.174 1.206-.351z" opacity="1" data-original="#c8b100"></path><path fill="#c8b100" d="m-600.283-344.235-.607.57.776 1.022.207.082.15-.156.27-1.234z" opacity="1" data-original="#c8b100"></path><path fill="#c8b100" d="m-601.555-342.187.456.427 1.1-.593.084-.19-.158-.146-1.259-.107-.223.609" opacity="1" data-original="#c8b100"></path><path fill="#c8b100" d="m-598.233-342.854-.233.564-1.263-.114-.162-.144.088-.195 1.103-.58.467.47" opacity="1" data-original="#c8b100"></path><path fill="#c8b100" d="m-602.77-342.028-.1.597-1.259.13-.189-.108.04-.203.95-.785.559.369" opacity="1" data-original="#c8b100"></path><path fill="#c8b100" d="M-600.34-342.541c0-.233.2-.422.443-.422s.441.189.441.422c0 .229-.198.418-.441.418s-.442-.19-.442-.418" opacity="1" data-original="#c8b100"></path><path fill="#c8b100" d="m-590.216-344.235.607.57-.777 1.022-.209.082-.147-.156-.274-1.234z" opacity="1" data-original="#c8b100"></path><path fill="#c8b100" d="m-588.948-342.187-.455.427-1.1-.593-.088-.19.166-.146 1.259-.107.218.609" opacity="1" data-original="#c8b100"></path><path fill="#c8b100" d="m-592.265-342.854.233.564 1.255-.114.166-.144-.092-.195-1.1-.58-.462.47" opacity="1" data-original="#c8b100"></path><path fill="#c8b100" d="m-587.906-342.028.106.597 1.259.13.188-.108-.043-.203-.948-.785-.562.369" opacity="1" data-original="#c8b100"></path><path fill="#c8b100" d="M-595.696-342.937c0-.236.2-.421.441-.421.247 0 .443.185.443.421a.43.43 0 0 1-.443.418c-.242 0-.441-.188-.441-.418" opacity="1" data-original="#c8b100"></path><path fill="#c8b100" d="M-591.036-342.541c0-.233.198-.422.441-.422a.43.43 0 0 1 .442.422.43.43 0 0 1-.442.418c-.243 0-.441-.19-.441-.418" opacity="1" data-original="#c8b100"></path><path fill="#c8b100" d="M-604.47-341.33c-.014.01-.34-.433-.59-.656-.18-.156-.608-.29-.608-.29 0-.08.25-.259.523-.259.162 0 .314.067.401.179l.037-.173s.22.042.322.288c.101.255.036.641.036.641s-.04.178-.121.27" opacity="1" data-original="#c8b100"></path><path fill="#c8b100" d="M-604.453-341.55c.104-.108.32-.085.479.052.162.137.21.338.105.45-.105.112-.321.086-.48-.051-.162-.138-.208-.341-.104-.45" opacity="1" data-original="#c8b100"></path><path fill="#c8b100" d="M-586.201-341.33c.01.01.341-.433.591-.656.171-.156.607-.29.607-.29 0-.08-.253-.259-.527-.259a.52.52 0 0 0-.401.179l-.037-.173s-.22.042-.32.288c-.098.255-.035.641-.035.641s.038.178.122.27" opacity="1" data-original="#c8b100"></path><path fill="#c8b100" d="M-586.191-341.55c-.104-.108-.32-.085-.482.052-.163.137-.21.338-.105.45.105.112.32.086.483-.051.161-.138.206-.341.104-.45" opacity="1" data-original="#c8b100"></path><path fill="#c8b100" d="M-605.236-331.112h20.057v-5.249h-20.057z" opacity="1" data-original="#c8b100"></path><path fill="#c8b100" d="M-603.131-327.619a.877.877 0 0 1 .372-.057h15.02c.148 0 .29.026.408.073-.513-.171-.884-.637-.884-1.187 0-.548.401-1.023.92-1.202a1.58 1.58 0 0 1-.434.074h-15.03c-.152 0-.297-.007-.421-.049l.08.013c.537.166.844.641.844 1.164 0 .504-.341 1.01-.875 1.171" opacity="1" data-original="#c8b100"></path><path fill="#c8b100" d="M-602.76-327.675h15.02c.51 0 .922.315.922.701 0 .39-.413.706-.921.706h-15.02c-.51 0-.922-.317-.922-.706 0-.386.412-.701.922-.701" opacity="1" data-original="#c8b100"></path><path fill="#c8b100" d="M-602.76-331.112h15.03c.507 0 .922.268.922.593 0 .332-.415.6-.921.6h-15.03c-.51 0-.922-.268-.922-.6 0-.325.412-.593.922-.593" opacity="1" data-original="#c8b100"></path><path fill="#005bbf" d="M-581.207-242.777c-1.386 0-2.622-.29-3.533-.775-.905-.46-2.129-.74-3.479-.74-1.356 0-2.611.284-3.516.746-.908.476-2.162.769-3.533.769-1.387 0-2.622-.323-3.533-.807-.897-.441-2.099-.709-3.415-.709-1.36 0-2.567.259-3.472.728-.911.482-2.173.788-3.556.788v2.17c1.383 0 2.645-.316 3.556-.795.905-.466 2.112-.73 3.472-.73 1.312 0 2.515.27 3.415.715.908.481 2.146.81 3.533.81 1.37 0 2.625-.3 3.533-.772.905-.469 2.16-.753 3.516-.753 1.35 0 2.574.284 3.479.747.911.484 2.126.777 3.517.777l.016-2.169" opacity="1" data-original="#005bbf"></path><path fill="#cccccc" d="M-581.207-240.608c-1.386 0-2.622-.293-3.533-.777-.905-.463-2.129-.747-3.479-.747-1.356 0-2.611.284-3.516.753-.908.472-2.162.771-3.533.771-1.387 0-2.622-.328-3.533-.81-.897-.443-2.099-.714-3.415-.714-1.36 0-2.567.264-3.472.73-.911.479-2.173.794-3.556.794v2.164c1.383 0 2.645-.31 3.556-.788.905-.473 2.112-.734 3.472-.734 1.312 0 2.515.271 3.415.715.908.482 2.146.807 3.533.807 1.37 0 2.625-.3 3.533-.772.905-.465 2.16-.75 3.516-.75 1.35 0 2.574.285 3.479.746.911.483 2.126.776 3.517.776l.016-2.164" opacity="1" data-original="#cccccc"></path><path fill="#005bbf" d="M-581.207-238.444c-1.386 0-2.622-.293-3.533-.776-.905-.461-2.129-.746-3.479-.746-1.356 0-2.611.285-3.516.75-.908.473-2.162.772-3.533.772-1.387 0-2.622-.325-3.533-.807-.897-.444-2.099-.715-3.415-.715-1.36 0-2.567.261-3.472.734-.911.479-2.173.788-3.556.788v2.163c1.383 0 2.645-.31 3.556-.791.905-.466 2.112-.727 3.472-.727 1.312 0 2.515.271 3.415.71.908.486 2.146.808 3.533.808 1.37 0 2.625-.296 3.533-.768.905-.466 2.16-.75 3.516-.75 1.35 0 2.574.28 3.479.744.911.487 2.126.774 3.517.774l.016-2.163" opacity="1" data-original="#005bbf"></path><path fill="#cccccc" d="M-581.223-234.114c-1.39 0-2.606-.293-3.517-.778-.905-.46-2.129-.741-3.479-.741-1.356 0-2.611.282-3.516.747-.908.473-2.162.772-3.533.772-1.387 0-2.622-.326-3.533-.81-.897-.44-2.099-.71-3.415-.71-1.36 0-2.567.263-3.472.728-.911.483-2.173.792-3.556.792v-2.153c1.383 0 2.645-.323 3.556-.805.905-.466 2.112-.727 3.472-.727 1.312 0 2.515.271 3.415.71.908.486 2.146.808 3.533.808 1.37 0 2.625-.296 3.533-.768.905-.466 2.16-.75 3.516-.75 1.35 0 2.574.28 3.479.744.911.487 2.147.774 3.533.774z" opacity="1" data-original="#cccccc"></path><path fill="#005bbf" d="M-581.223-231.948c-1.39 0-2.606-.293-3.517-.774-.905-.466-2.129-.75-3.479-.75-1.356 0-2.611.286-3.516.753-.908.471-2.162.771-3.533.771-1.387 0-2.622-.328-3.533-.81-.897-.443-2.099-.714-3.415-.714-1.36 0-2.567.265-3.472.733-.911.479-2.173.791-3.556.791v-2.147c1.383 0 2.645-.328 3.556-.81.905-.466 2.112-.725 3.472-.725 1.312 0 2.515.268 3.415.71.908.48 2.146.806 3.533.806 1.37 0 2.625-.3 3.533-.772.905-.465 2.16-.744 3.516-.744 1.35 0 2.574.279 3.479.74.911.483 2.14.776 3.53.776l-.013 2.166" opacity="1" data-original="#005bbf"></path><path fill="#c8b100" d="M-603.131-251.666c.049.182.115.36.115.555 0 1.314-1.136 2.36-2.527 2.36h20.641c-1.39 0-2.527-1.046-2.527-2.36 0-.192.036-.373.085-.555-.119.042-.26.048-.395.048h-15.02c-.122 0-.263-.013-.372-.048" opacity="1" data-original="#c8b100"></path><path fill="#c8b100" d="M-602.76-253.029h15.02c.51 0 .922.32.922.706 0 .389-.413.705-.921.705h-15.02c-.51 0-.922-.316-.922-.705 0-.387.412-.706.922-.706" opacity="1" data-original="#c8b100"></path><path fill="#c8b100" d="M-605.516-243.508h20.587v-5.243h-20.587z" opacity="1" data-original="#c8b100"></path><path fill="#ad1519" d="M-607.126-271.583c-2.037 1.174-3.418 2.377-3.195 2.977.112.552.759.963 1.683 1.576 1.455 1.012 2.34 2.818 1.647 3.65 1.205-.969 1.967-2.418 1.967-4.03a5.19 5.19 0 0 0-2.102-4.173" opacity="1" data-original="#ad1519"></path><path fill="#cccccc" d="M-602.567-253.878h14.628v-71.557h-14.628z" opacity="1" data-original="#cccccc"></path><path fill="#ad1519" d="M-572.997-298.67c-3.192-1.316-8.618-2.293-14.844-2.497a45.254 45.254 0 0 0-7.009.629c-8.749 1.457-15.414 4.945-14.884 7.785.01.06.03.184.043.239 0 0-3.278-7.38-3.333-7.661-.583-3.152 6.81-7.026 16.521-8.643a50.18 50.18 0 0 1 8.601-.68c6.213 0 11.612.794 14.864 2l.041 8.829" opacity="1" data-original="#ad1519"></path><path fill="#ad1519" d="M-602.59-289.687c-4.056-.29-6.826-1.372-7.144-3.066-.25-1.35 1.12-2.843 3.57-4.199 1.094.118 2.325.268 3.597.268l-.023 6.997" opacity="1" data-original="#ad1519"></path><path fill="#ad1519" d="M-587.912-295.156c2.534.383 4.438 1.011 5.385 1.784l.085.155c.452.927-1.775 2.895-5.493 5.093l.023-7.032" opacity="1" data-original="#ad1519"></path><path fill="#ad1519" d="M-611.678-275.883c-.385-1.156 3.571-3.469 9.162-5.517 2.555-.913 4.663-1.864 7.278-3.015 7.765-3.428 13.502-7.362 12.796-8.797l-.077-.148c.415.336 1.055 7.403 1.055 7.403.71 1.314-4.54 5.19-11.692 8.612-2.288 1.091-7.12 2.874-9.4 3.672-4.08 1.413-8.136 4.079-7.765 5.067l-1.357-7.274" opacity="1" data-original="#ad1519"></path><path fill="#c8b100" d="M-603.576-302.102c1.79-.651 2.96-1.42 2.386-2.827-.362-.894-1.286-1.066-2.665-.561l-2.447.887 2.204 5.42c.239-.108.478-.22.729-.312.245-.09.505-.157.758-.23l-.965-2.374v-.002zm-1.062-2.616.617-.224c.513-.188 1.093.084 1.35.715.192.482.141 1.017-.45 1.394a4.125 4.125 0 0 1-.63.294zM-597.859-306.986c-.257.069-.513.146-.773.197-.26.05-.527.08-.79.115l1.269 5.638 3.944-.792c-.047-.111-.108-.23-.131-.345-.027-.117-.024-.249-.03-.366-.692.197-1.448.412-2.356.594l-1.13-5.041M-589.96-302.124c.746-2.045 1.647-4.005 2.534-5.989a4.99 4.99 0 0 1-.975.063c-.472 1.44-1.06 2.878-1.677 4.312-.743-1.36-1.562-2.687-2.187-4.056-.307.04-.62.083-.931.106-.306.018-.628.015-.935.018a122.974 122.974 0 0 1 3.274 5.604c.144-.026.293-.06.45-.071.146-.01.3.004.448.011M-581.713-306.463c.138-.275.277-.544.432-.799-.212-.2-.864-.493-1.627-.57-1.61-.16-2.533.555-2.641 1.525-.227 2.03 2.982 1.854 2.834 3.2-.064.581-.682.817-1.336.753-.733-.074-1.265-.475-1.36-1.072l-.199-.019a6.79 6.79 0 0 1-.426 1.036c.469.304 1.08.476 1.664.533 1.64.163 2.892-.493 3.01-1.572.213-1.928-3.027-2.04-2.902-3.175.054-.478.422-.792 1.259-.708.6.06.972.385 1.134.85l.158.018" opacity="1" data-original="#c8b100"></path><path fill="#ad1519" d="M-461.004-341.846s-.662.696-1.145.795c-.481.096-1.092-.434-1.092-.434s-.435.452-.969.574c-.533.121-1.273-.6-1.273-.6s-.509.721-.965.89c-.458.169-1.015-.216-1.015-.216s-.203.357-.584.555c-.162.076-.431-.051-.431-.051l-.538-.336-.612-.65-.558-.218s-.253-.816-.28-.96a62.03 62.03 0 0 0-.075-.507c-.113-.583.787-1.26 2.072-1.55.74-.173 1.383-.16 1.856-.013.513-.437 1.6-.74 2.878-.74 1.158 0 2.174.244 2.734.625.553-.38 1.57-.626 2.73-.626 1.272 0 2.358.304 2.872.74.475-.146 1.116-.156 1.86.013 1.28.29 2.185.968 2.07 1.551 0 0-.054.364-.077.508-.027.143-.28.96-.28.96l-.56.217-.611.65-.53.336s-.27.127-.431.05c-.382-.194-.588-.554-.588-.554s-.56.385-1.016.216c-.458-.169-.968-.89-.968-.89s-.736.721-1.273.6c-.533-.122-.966-.574-.966-.574s-.61.53-1.091.434c-.486-.1-1.14-.795-1.14-.795" opacity="1" data-original="#ad1519"></path><path fill="#c8b100" d="M-462.263-345.643c0-.973.554-1.761 1.238-1.761.685 0 1.242.788 1.242 1.761 0 .977-.557 1.767-1.242 1.767-.684 0-1.238-.79-1.238-1.767" opacity="1" data-original="#c8b100"></path><path fill="#c8b100" d="M-461.571-345.643c0-.893.256-1.62.57-1.62.316 0 .57.727.57 1.62 0 .897-.254 1.625-.57 1.625-.314 0-.57-.728-.57-1.625" opacity="1" data-original="#c8b100"></path><path fill="#c8b100" d="M-467.393-338.406a4.243 4.243 0 0 0-.524-.973c1.753-.514 4.192-.837 6.906-.843 2.713.007 5.169.329 6.921.843l-.47.823c-.15.265-.35.727-.337.727-1.583-.485-3.62-.733-6.124-.736-2.508.002-4.918.309-6.173.768.018 0-.087-.29-.212-.61h.013" opacity="1" data-original="#c8b100"></path><path fill="#c8b100" d="M-461.011-336.182c2.19-.003 4.6-.335 5.49-.564.593-.174.942-.442.877-.75-.03-.147-.159-.275-.331-.348-1.306-.418-3.66-.715-6.036-.718-2.372.003-4.738.3-6.048.718-.167.073-.3.2-.328.347-.066.31.282.577.879.75.888.23 3.309.561 5.497.565" opacity="1" data-original="#c8b100"></path><path fill="#ffffff" d="M-455.703-344.854c0-.215.182-.386.404-.386.226 0 .41.171.41.386 0 .214-.184.383-.41.383a.393.393 0 0 1-.404-.383" opacity="1" data-original="#ffffff"></path><path fill="#c8b100" d="m-453.984-340.356-.532-.48s-.509.311-1.146.215c-.635-.095-.838-.864-.838-.864s-.714.596-1.296.552c-.583-.052-.965-.552-.965-.552s-.638.452-1.197.408c-.56-.05-1.094-.746-1.094-.746s-.56.72-1.12.772c-.56.044-1.016-.486-1.016-.486s-.257.53-.969.648c-.71.122-1.322-.551-1.322-.551s-.401.65-.888.819c-.481.169-1.116-.243-1.116-.243s-.102.243-.179.387c-.077.144-.28.17-.28.17l.158.43c1.744-.504 4.108-.817 6.78-.82 2.675.003 5.104.316 6.846.824l.179-.483" opacity="1" data-original="#c8b100"></path><path fill="#ffffff" d="M-467.186-344.854c0-.215.18-.386.408-.386.222 0 .405.171.405.386a.394.394 0 0 1-.405.383c-.227 0-.408-.17-.408-.383" opacity="1" data-original="#ffffff"></path><path fill="#c8b100" d="m-460.998-342.682.253.045a.93.93 0 0 0-.048.335c0 .523.45.948 1.003.948a.996.996 0 0 0 .953-.654c.015.01.096-.345.137-.34.038 0 .031.368.04.362.067.474.502.8.996.8.553 0 1.001-.423 1.001-.946a.655.655 0 0 0-.009-.115l.317-.314.168.399a.838.838 0 0 0-.094.412c0 .5.43.906.956.906a.966.966 0 0 0 .796-.405l.203-.255-.004.316c0 .312.136.593.441.644 0 0 .355.025.821-.345.47-.366.726-.673.726-.673l.027.377s-.46.753-.874.992c-.229.134-.578.275-.854.226-.294-.044-.499-.28-.608-.548a1.399 1.399 0 0 1-.718.194c-.566 0-1.075-.313-1.275-.774-.261.28-.625.449-1.05.449-.451 0-.866-.201-1.127-.517-.256.236-.603.38-.986.38-.498 0-.947-.25-1.2-.616a1.458 1.458 0 0 1-1.199.616c-.382 0-.728-.144-.985-.38a1.46 1.46 0 0 1-1.126.517c-.425 0-.787-.17-1.046-.45-.2.46-.713.775-1.276.775-.263 0-.507-.07-.716-.194-.108.268-.316.504-.607.548-.276.049-.625-.092-.853-.226-.42-.24-.915-.992-.915-.992l.064-.377s.256.307.723.673c.468.37.823.345.823.345.306-.051.437-.332.437-.644v-.316l.2.255a.975.975 0 0 0 .796.405c.531 0 .959-.405.959-.906a.837.837 0 0 0-.095-.412l.17-.399.312.314c-.006.037-.006.075-.006.115 0 .523.445.947.994.947.497 0 .933-.327.996-.801.014.007.01-.361.044-.361.045-.007.125.348.138.339.132.379.51.654.955.654.554 0 1.003-.425 1.003-.948a.92.92 0 0 0-.047-.335l.26-.045" opacity="1" data-original="#c8b100"></path><path fill="#c8b100" d="M-461.011-340.218c-2.714.002-5.15.325-6.901.842-.117.038-.261-.052-.3-.157-.038-.11.048-.248.16-.286 1.763-.537 4.26-.875 7.04-.877 2.778.002 5.288.34 7.047.877.116.038.202.176.165.286-.037.105-.186.195-.3.157-1.752-.517-4.198-.84-6.911-.842" opacity="1" data-original="#c8b100"></path><path fill="#ffffff" d="M-463.637-339.258c0-.204.176-.37.396-.37.216 0 .391.166.391.37 0 .207-.175.37-.391.37-.22 0-.396-.163-.396-.37" opacity="1" data-original="#ffffff"></path><path fill="#ad1519" d="M-460.978-339.098h-.873c-.163 0-.298-.128-.298-.281 0-.151.131-.274.294-.274h1.765a.28.28 0 0 1 .29.274c0 .153-.131.281-.293.281z" opacity="1" data-original="#ad1519"></path><path fill="#058e6e" d="m-465.35-338.799-.625.093a.296.296 0 0 1-.337-.233.275.275 0 0 1 .242-.313l.627-.092.641-.099c.16-.019.308.08.336.23.023.15-.088.293-.247.315z" opacity="1" data-original="#058e6e"></path><path fill="#ad1519" d="m-467.872-338.362.277-.446.594.112-.344.501z" opacity="1" data-original="#ad1519"></path><path fill="#ffffff" d="M-459.168-339.258c0-.204.178-.37.394-.37.217 0 .395.166.395.37 0 .207-.178.37-.395.37-.216 0-.394-.163-.394-.37" opacity="1" data-original="#ffffff"></path><path fill="#058e6e" d="m-456.668-338.799.628.093a.292.292 0 0 0 .333-.233.274.274 0 0 0-.239-.313l-.628-.092-.64-.099c-.162-.019-.312.08-.335.23-.027.15.088.293.246.315z" opacity="1" data-original="#058e6e"></path><path fill="#ad1519" d="m-454.198-338.336-.223-.475-.61.05.293.533.54-.108" opacity="1" data-original="#ad1519"></path><path fill="#ad1519" d="M-461.015-336.69c-2.19-.002-4.17-.194-5.679-.583 1.509-.386 3.49-.625 5.679-.632 2.19.003 4.181.243 5.685.632-1.504.39-3.494.58-5.685.583" opacity="1" data-original="#ad1519"></path><path fill="#c8b100" d="M-454.11-341.43c.057-.17.006-.337-.12-.378-.12-.034-.265.075-.322.236-.06.173-.007.343.114.38.121.035.27-.07.327-.239" opacity="1" data-original="#c8b100"></path><path fill="#c8b100" d="M-458.47-342.273c.023-.176-.065-.332-.192-.348-.126-.016-.25.118-.27.294-.024.175.06.331.189.347.127.013.249-.12.272-.293" opacity="1" data-original="#c8b100"></path><path fill="#c8b100" d="M-463.531-342.273c-.024-.176.06-.332.188-.348.129-.016.25.118.273.294.02.175-.063.331-.189.347-.127.013-.25-.12-.272-.293" opacity="1" data-original="#c8b100"></path><path fill="#c8b100" d="M-467.892-341.43c-.06-.17-.006-.337.115-.378.12-.034.27.075.327.236.057.173.007.343-.114.38-.125.035-.27-.07-.328-.239" opacity="1" data-original="#c8b100"></path><path fill="#c8b100" d="m-461.015-344.788-.772.466.572 1.24.2.132.196-.131.577-1.241z" opacity="1" data-original="#c8b100"></path><path fill="#c8b100" d="m-462.71-342.911.353.51 1.204-.37.128-.168-.128-.174-1.204-.351z" opacity="1" data-original="#c8b100"></path><path fill="#c8b100" d="m-459.314-342.911-.355.51-1.204-.37-.128-.168.128-.174 1.204-.351z" opacity="1" data-original="#c8b100"></path><path fill="#c8b100" d="m-466.04-344.235-.606.57.776 1.022.206.082.152-.156.273-1.234z" opacity="1" data-original="#c8b100"></path><path fill="#c8b100" d="m-467.311-342.187.454.427 1.101-.593.084-.19-.158-.146-1.258-.107-.223.609" opacity="1" data-original="#c8b100"></path><path fill="#c8b100" d="m-463.991-342.854-.232.564-1.26-.114-.164-.144.086-.195 1.105-.58.465.47" opacity="1" data-original="#c8b100"></path><path fill="#c8b100" d="m-468.522-342.028-.105.597-1.26.13-.191-.108.047-.203.948-.785.56.369" opacity="1" data-original="#c8b100"></path><path fill="#c8b100" d="M-466.096-342.541c0-.233.199-.422.442-.422.245 0 .442.189.442.422a.43.43 0 0 1-.442.418c-.243 0-.442-.19-.442-.418" opacity="1" data-original="#c8b100"></path><path fill="#c8b100" d="m-455.973-344.235.607.57-.777 1.022-.206.082-.15-.156-.274-1.234z" opacity="1" data-original="#c8b100"></path><path fill="#c8b100" d="m-454.7-342.187-.456.427-1.1-.593-.09-.19.164-.146 1.258-.107.223.609" opacity="1" data-original="#c8b100"></path><path fill="#c8b100" d="m-458.022-342.854.232.564 1.26-.114.161-.144-.083-.195-1.104-.58-.466.47" opacity="1" data-original="#c8b100"></path><path fill="#c8b100" d="m-453.659-342.028.102.597 1.257.13.19-.108-.048-.203-.944-.785-.557.369" opacity="1" data-original="#c8b100"></path><path fill="#c8b100" d="M-461.45-342.937c0-.236.195-.421.442-.421.24 0 .442.185.442.421 0 .23-.2.418-.442.418a.43.43 0 0 1-.442-.418" opacity="1" data-original="#c8b100"></path><path fill="#c8b100" d="M-456.793-342.541c0-.233.199-.422.442-.422.245 0 .446.189.446.422 0 .229-.2.418-.446.418-.243 0-.442-.19-.442-.418" opacity="1" data-original="#c8b100"></path><path fill="#c8b100" d="M-461.838-347.659c0-.434.371-.785.83-.785.457 0 .834.35.834.785 0 .434-.377.785-.834.785-.459 0-.83-.351-.83-.785" opacity="1" data-original="#c8b100"></path><path fill="#c8b100" d="M-460.421-347.937v.52h-1.282v-.52h.419v-1.174h-.557v-.523h.557v-.514h.55v.514h.546v.523h-.546v1.174h.31" opacity="1" data-original="#c8b100"></path><path fill="#c8b100" d="M-459.847-347.937v.52h-2.281v-.52h.844v-1.174h-.557v-.523h.557v-.514h.55v.514h.549v.523h-.55v1.174z" opacity="1" data-original="#c8b100"></path><path fill="#c8b100" d="M-470.227-341.33c-.01.01-.341-.433-.59-.656-.176-.156-.607-.29-.607-.29 0-.08.253-.259.527-.259.158 0 .31.067.4.179l.03-.173s.224.042.321.288c.102.255.038.641.038.641s-.042.178-.119.27" opacity="1" data-original="#c8b100"></path><path fill="#c8b100" d="M-470.21-341.55c.106-.108.32-.085.48.052.162.137.209.338.102.45-.102.112-.315.086-.477-.051-.162-.138-.21-.341-.105-.45" opacity="1" data-original="#c8b100"></path><path fill="#c8b100" d="M-451.959-341.33c.014.01.34-.433.592-.656.172-.156.607-.29.607-.29 0-.08-.253-.259-.526-.259a.52.52 0 0 0-.402.179l-.033-.173s-.224.042-.321.288c-.101.255-.038.641-.038.641s.04.178.121.27" opacity="1" data-original="#c8b100"></path><path fill="#c8b100" d="M-451.947-341.55c-.106-.108-.32-.085-.483.052-.162.137-.206.338-.106.45.106.112.322.086.483-.051.162-.138.21-.341.106-.45" opacity="1" data-original="#c8b100"></path><path fill="#c8b100" d="M-471.022-331.112h20.055v-5.249h-20.055z" opacity="1" data-original="#c8b100"></path><path fill="#c8b100" d="M-453.071-327.619a.887.887 0 0 0-.37-.057h-15.021c-.149 0-.29.026-.415.073.517-.171.887-.637.887-1.187 0-.548-.404-1.023-.924-1.202.125.038.293.074.441.074h15.031c.15 0 .294-.007.421-.049l-.084.013c-.537.166-.844.641-.844 1.164 0 .504.34 1.01.878 1.171" opacity="1" data-original="#c8b100"></path><path fill="#c8b100" d="M-468.462-327.675h15.02c.505 0 .918.315.918.701 0 .39-.413.706-.918.706h-15.02c-.51 0-.922-.317-.922-.706 0-.386.413-.701.922-.701" opacity="1" data-original="#c8b100"></path><path fill="#c8b100" d="M-468.473-331.112h15.031c.505 0 .918.268.918.593 0 .332-.413.6-.918.6h-15.03c-.51 0-.922-.268-.922-.6 0-.325.413-.593.921-.593" opacity="1" data-original="#c8b100"></path><path fill="#005bbf" d="M-474.998-242.777c1.39 0 2.624-.29 3.535-.775.906-.46 2.13-.74 3.48-.74 1.353 0 2.612.284 3.517.746.904.476 2.159.769 3.53.769 1.383 0 2.624-.323 3.535-.807.897-.441 2.095-.709 3.415-.709 1.36 0 2.565.259 3.473.728.907.482 2.172.788 3.555.788v2.17c-1.383 0-2.648-.316-3.555-.795-.908-.466-2.113-.73-3.473-.73-1.32 0-2.518.27-3.415.715-.907.481-2.152.81-3.536.81-1.367 0-2.622-.3-3.53-.772-.904-.469-2.16-.753-3.516-.753-1.35 0-2.574.284-3.48.747-.911.484-2.128.777-3.515.777l-.02-2.169" opacity="1" data-original="#005bbf"></path><path fill="#cccccc" d="M-474.998-240.608c1.39 0 2.624-.293 3.535-.777.906-.463 2.13-.747 3.48-.747 1.353 0 2.612.284 3.517.753.904.472 2.159.771 3.53.771 1.383 0 2.624-.328 3.535-.81.897-.443 2.095-.714 3.415-.714 1.36 0 2.565.264 3.473.73.907.479 2.172.794 3.555.794v2.164c-1.383 0-2.648-.31-3.555-.788-.908-.473-2.113-.734-3.473-.734-1.32 0-2.518.271-3.415.715-.907.482-2.152.807-3.536.807-1.367 0-2.622-.3-3.53-.772-.904-.465-2.16-.75-3.516-.75-1.35 0-2.574.285-3.48.746-.911.483-2.128.776-3.515.776l-.02-2.164" opacity="1" data-original="#cccccc"></path><path fill="#005bbf" d="M-474.998-238.444c1.39 0 2.624-.293 3.535-.776.906-.461 2.13-.746 3.48-.746 1.353 0 2.612.285 3.517.75.904.473 2.159.772 3.53.772 1.383 0 2.624-.325 3.535-.807.897-.444 2.095-.715 3.415-.715 1.36 0 2.565.261 3.473.734.907.479 2.172.788 3.555.788v2.163c-1.383 0-2.648-.31-3.555-.791-.908-.466-2.113-.727-3.473-.727-1.32 0-2.518.271-3.415.71-.907.486-2.152.808-3.536.808-1.367 0-2.622-.296-3.53-.768-.904-.466-2.16-.75-3.516-.75-1.35 0-2.574.28-3.48.744-.911.487-2.128.774-3.515.774l-.02-2.163" opacity="1" data-original="#005bbf"></path><path fill="#cccccc" d="M-474.978-234.114c1.387 0 2.604-.293 3.515-.778.906-.46 2.13-.741 3.48-.741 1.353 0 2.612.282 3.517.747.904.473 2.159.772 3.53.772 1.383 0 2.624-.326 3.535-.81.897-.44 2.095-.71 3.415-.71 1.36 0 2.565.263 3.473.728.907.483 2.172.792 3.555.792v-2.153c-1.383 0-2.648-.323-3.555-.805-.908-.466-2.113-.727-3.473-.727-1.32 0-2.518.271-3.415.71-.907.486-2.152.808-3.536.808-1.367 0-2.622-.296-3.53-.768-.904-.466-2.16-.75-3.516-.75-1.35 0-2.574.28-3.48.744-.911.487-2.145.774-3.535.774l.02 2.167" opacity="1" data-original="#cccccc"></path><path fill="#005bbf" d="M-474.978-231.948c1.387 0 2.604-.293 3.515-.774.906-.466 2.13-.75 3.48-.75 1.353 0 2.612.286 3.517.753.904.471 2.159.771 3.53.771 1.383 0 2.624-.328 3.535-.81.897-.443 2.095-.714 3.415-.714 1.36 0 2.565.265 3.473.733.907.479 2.172.791 3.555.791v-2.147c-1.383 0-2.648-.328-3.555-.81-.908-.466-2.113-.725-3.473-.725-1.32 0-2.518.268-3.415.71-.907.48-2.152.806-3.536.806-1.367 0-2.622-.3-3.53-.772-.904-.465-2.16-.744-3.516-.744-1.35 0-2.574.279-3.48.74-.911.483-2.141.776-3.528.776l.013 2.166" opacity="1" data-original="#005bbf"></path><path fill="#c8b100" d="M-453.075-251.666c-.046.182-.11.36-.11.555 0 1.314 1.135 2.36 2.523 2.36H-471.3c1.386 0 2.521-1.046 2.521-2.36 0-.192-.037-.373-.078-.555.111.042.254.048.391.048h15.02c.121 0 .263-.013.368-.048" opacity="1" data-original="#c8b100"></path><path fill="#c8b100" d="M-468.462-253.029h15.02c.505 0 .918.32.918.706 0 .389-.413.705-.918.705h-15.02c-.51 0-.922-.316-.922-.705 0-.387.413-.706.922-.706" opacity="1" data-original="#c8b100"></path><path fill="#c8b100" d="M-471.276-243.508h20.588v-5.243h-20.588z" opacity="1" data-original="#c8b100"></path><path fill="#ad1519" d="M-449.08-271.583c2.039 1.174 3.423 2.377 3.2 2.977-.113.552-.76.963-1.684 1.576-1.455 1.012-2.343 2.818-1.65 3.65-1.201-.969-1.96-2.418-1.96-4.03 0-1.684.8-3.203 2.094-4.173" opacity="1" data-original="#ad1519"></path><path fill="#cccccc" d="M-468.266-253.878h14.628v-71.557h-14.628z" opacity="1" data-original="#cccccc"></path><path fill="#ad1519" d="M-483.208-298.67c3.194-1.316 8.622-2.293 14.848-2.497 2.144.016 4.537.217 7.008.629 8.746 1.457 15.411 4.945 14.881 7.785-.01.06-.027.184-.044.239 0 0 3.282-7.38 3.33-7.661.588-3.152-6.803-7.026-16.513-8.643a50.21 50.21 0 0 0-8.602-.68c-6.215 0-11.615.794-14.867 2l-.04 8.829" opacity="1" data-original="#ad1519"></path><path fill="#ad1519" d="M-453.612-289.687c4.057-.29 6.827-1.372 7.141-3.066.254-1.35-1.12-2.843-3.567-4.199-1.096.118-2.328.268-3.6.268l.026 6.997" opacity="1" data-original="#ad1519"></path><path fill="#ad1519" d="M-468.29-295.156c-2.537.383-4.438 1.011-5.39 1.784l-.083.155c-.456.927 1.774 2.895 5.494 5.093l-.02-7.032" opacity="1" data-original="#ad1519"></path><path fill="#ad1519" d="M-444.528-275.883c.384-1.156-3.57-3.469-9.16-5.517-2.555-.913-4.665-1.864-7.28-3.015-7.764-3.428-13.5-7.362-12.792-8.797l.075-.148c-.409.336-1.049 7.403-1.049 7.403-.71 1.314 4.541 5.19 11.683 8.612 2.29 1.091 7.124 2.874 9.406 3.672 4.08 1.413 8.133 4.079 7.764 5.067l1.353-7.274" opacity="1" data-original="#ad1519"></path><path fill="#c8b100" d="M-474.091-301.805c.554-2.096 1.269-4.123 1.97-6.174a4.994 4.994 0 0 1-.478.099 4.873 4.873 0 0 1-.489.044c-.334 1.474-.786 2.955-1.272 4.435-.864-1.295-1.806-2.553-2.554-3.861-.3.061-.612.134-.918.18-.301.044-.622.066-.932.096a122.85 122.85 0 0 1 3.78 5.311c.145-.038.285-.086.445-.109.145-.018.297-.015.448-.021M-468.529-307.938c-.267.013-.533.033-.8.028-.266-.002-.532-.034-.796-.054l-.108 5.763 4.035.068c-.02-.119-.05-.246-.047-.367 0-.12.037-.243.057-.362a28.09 28.09 0 0 1-2.436.078l.095-5.154M-462.193-306.99c.645.054 1.266.166 1.887.278-.011-.121-.03-.243-.02-.368.008-.117.054-.236.088-.351l-5.464-.452c.014.121.034.24.02.357-.01.127-.053.242-.085.36.557-.012 1.23-.019 1.982.045l-.476 5.185c.266.006.533.003.796.025.266.02.53.067.793.106l.476-5.185M-459.958-301.31c.263.04.529.072.79.13.259.054.513.138.766.21l.648-2.647.07.015c.151.364.348.807.449 1.063l.81 2c.317.051.633.093.945.16.32.07.626.163.934.249l-.28-.6c-.436-.903-.895-1.803-1.273-2.718 1.007.044 1.786-.32 1.981-1.126.139-.562-.084-1.003-.614-1.38-.391-.277-1.15-.424-1.64-.533l-2.202-.48-1.384 5.656m2.826-4.872c.636.14 1.429.243 1.429.963-.004.182-.021.31-.05.425-.207.846-.848 1.139-1.918.82l.54-2.208M-449.553-299.585c-.049.626-.16 1.232-.282 1.889.276.131.55.249.816.395.267.148.512.31.77.47l.54-6.496a3.214 3.214 0 0 1-.703-.383l-5.736 3.637c.15.074.308.14.456.22.148.084.274.172.422.256.481-.406.988-.734 1.569-1.165l2.146 1.175.002.002zm-1.625-1.483 1.91-1.235-.223 2.154z" opacity="1" data-original="#c8b100"></path><path fill="#ad1519" stroke="#000" stroke-width=".268862" d="M-528.678-375.721c5.98 0 11.3.883 14.767 2.255 1.983.894 4.647 1.554 7.562 1.944 2.22.296 4.33.356 6.164.216 2.455-.048 6.004.67 9.554 2.23 2.939 1.302 5.392 2.885 7.02 4.417l-1.41 1.254-.407 3.56-3.868 4.422-1.933 1.638-4.579 3.66-2.339.19-.711 2.021-29.625-3.465-29.714 3.465-.712-2.02-2.343-.191-4.578-3.66-1.933-1.638-3.867-4.422-.402-3.56-1.418-1.254c1.637-1.532 4.09-3.115 7.023-4.417 3.55-1.56 7.1-2.277 9.552-2.23 1.835.14 3.945.08 6.165-.216 2.917-.39 5.583-1.05 7.563-1.944 3.469-1.372 8.493-2.255 14.47-2.255z" opacity="1" data-original="#ad1519"></path><path fill="#c8b100" stroke="#000" stroke-width=".40329299999999996" d="M-528.223-336.674c-11.037-.016-20.924-1.32-27.979-3.442-.517-.156-.787-.629-.757-1.118-.009-.474.257-.905.757-1.056 7.055-2.118 16.942-3.423 27.979-3.44 11.035.017 20.915 1.322 27.971 3.44.5.151.761.582.752 1.056.027.489-.239.962-.752 1.118-7.056 2.121-16.936 3.426-27.971 3.442" opacity="1" data-original="#c8b100"></path><path fill="#ad1519" d="M-528.25-338.12c-9.961-.012-18.963-1.16-25.816-2.928 6.853-1.77 15.855-2.853 25.816-2.872 9.958.02 19.01 1.101 25.862 2.872-6.853 1.768-15.904 2.916-25.862 2.929" opacity="1" data-original="#ad1519"></path><path fill="#c8b100" stroke="#000" stroke-width=".40329299999999996" d="M-528.3-345.738c-11.17.021-21.194 1.42-28.25 3.59.586-.28.533-1-.197-2.875-.88-2.27-2.253-2.17-2.253-2.17 7.802-2.3 18.66-3.74 30.747-3.756 12.09.016 23.038 1.456 30.84 3.756 0 0-1.375-.1-2.255 2.17-.729 1.875-.783 2.596-.196 2.874-7.055-2.17-17.268-3.568-28.436-3.59" opacity="1" data-original="#c8b100"></path><path fill="#c8b100" stroke="#000" stroke-width=".40329299999999996" d="M-528.253-350.946c-12.086.02-22.945 1.455-30.747 3.76-.52.155-1.07-.048-1.238-.54a.962.962 0 0 1 .631-1.216c7.835-2.4 18.974-3.906 31.357-3.93 12.386.022 23.568 1.53 31.403 3.93.52.16.8.724.631 1.216-.169.492-.719.695-1.238.54-7.803-2.305-18.708-3.74-30.8-3.76" opacity="1" data-original="#c8b100"></path><path fill="#ffffff" stroke="#000" stroke-width=".40329299999999996" d="M-536.874-348.205c0-.514.441-.932.985-.932.547 0 .99.418.99.932 0 .513-.443.935-.99.935-.544 0-.985-.422-.985-.935" opacity="1" data-original="#ffffff"></path><path fill="#ad1519" stroke="#000" stroke-width=".40329299999999996" d="M-528.229-347.47h-2.957c-.545 0-.998-.416-.998-.933 0-.513.443-.934.986-.934h5.978c.543 0 .987.42.987.934 0 .517-.453.932-1 .932z" opacity="1" data-original="#ad1519"></path><path fill="#058e6e" stroke="#000" stroke-width=".40329299999999996" d="m-543.086-346.658-2.128.247c-.542.063-1.045-.3-1.113-.808-.067-.513.319-.98.861-1.04l2.14-.249 2.177-.25c.539-.062 1.032.294 1.1.808.063.51-.331.98-.87 1.04z" opacity="1" data-original="#058e6e"></path><path fill="#ffffff" stroke="#000" stroke-width=".40329299999999996" d="M-551.731-346.472c0-.514.442-.932.984-.932.548 0 .99.418.99.932 0 .517-.442.935-.99.935-.542 0-.984-.418-.984-.935" opacity="1" data-original="#ffffff"></path><path fill="#ad1519" stroke="#000" stroke-width=".40329299999999996" d="m-558.308-344.774 1.097-1.433 3.03.382-2.423 1.765z" opacity="1" data-original="#ad1519"></path><path fill="#058e6e" stroke="#000" stroke-width=".40329299999999996" d="m-513.368-346.658 2.126.247c.539.063 1.046-.3 1.113-.808.061-.513-.32-.98-.86-1.04l-2.14-.249-2.176-.25c-.543-.062-1.035.294-1.1.808-.068.51.33.98.87 1.04z" opacity="1" data-original="#058e6e"></path><path fill="#ffffff" stroke="#000" stroke-width=".40329299999999996" d="M-521.555-348.205c0-.514.443-.932.987-.932.546 0 .988.418.988.932 0 .513-.442.935-.988.935-.544 0-.987-.422-.987-.935M-506.697-346.472c0-.514.442-.932.986-.932.546 0 .988.418.988.932 0 .517-.442.935-.988.935-.544 0-.986-.418-.986-.935" opacity="1" data-original="#ffffff"></path><path fill="#ad1519" stroke="#000" stroke-width=".40329299999999996" d="m-498.147-344.774-1.096-1.433-3.03.382 2.422 1.765z" opacity="1" data-original="#ad1519"></path><path fill="#c8b100" d="m-550.557-367.908 1.249 1 1.872-3.054c-2.032-1.241-3.425-3.398-3.425-5.856 0-.277.016-.548.052-.816.195-3.896 4.948-7.116 10.985-7.116 3.132 0 5.96.855 7.951 2.228.053-.603.108-1.12.192-1.67-2.193-1.276-5.038-2.044-8.143-2.044-6.94 0-12.37 3.936-12.633 8.599-.027.271-.04.545-.04.82 0 2.486 1.137 4.725 2.935 6.282l-.995 1.627" opacity="1" data-original="#c8b100"></path><path fill="#c8b100" d="M-550.477-367.873c-2.368-1.764-3.839-4.163-3.839-6.805 0-3.044 1.994-5.759 5.024-7.559-1.87 1.499-3.003 3.436-3.165 5.6-.027.271-.04.545-.04.82 0 2.486 1.137 4.725 2.935 6.282l-.915 1.662" opacity="1" data-original="#c8b100"></path><path fill="#c8b100" d="M-571.373-364.79c-1.327-1.484-2.14-3.401-2.14-5.498 0-1.264.293-2.473.823-3.55 1.917-3.938 7.93-6.804 15.077-6.804 1.947 0 3.81.211 5.53.603-.38.415-.68.87-.973 1.33a23.953 23.953 0 0 0-4.557-.427c-6.543 0-12.016 2.54-13.602 5.973a6.604 6.604 0 0 0-.659 2.875c0 2.087.98 3.957 2.511 5.233l-2.369 3.863-1.268-1.007 1.627-2.588" opacity="1" data-original="#c8b100"></path><path fill="#c8b100" d="M-568.947-377.735c-1.722 1.082-3.024 2.413-3.743 3.896a8.035 8.035 0 0 0-.823 3.551c0 2.097.813 4.014 2.14 5.498l-1.439 2.33c-1.376-1.766-2.176-3.827-2.176-6.019 0-3.775 2.406-7.073 6.04-9.256" opacity="1" data-original="#c8b100"></path><path fill="#c8b100" d="M-528.327-386.015c1.586 0 2.95 1.047 3.274 2.451.212 1.24.344 2.654.374 4.16.002.157-.012.31-.012.463.005.178.04.37.042.552.054 3.158.507 5.947 1.15 7.655l-4.83 4.614-4.885-4.614c.648-1.708 1.097-4.497 1.157-7.655.004-.182.04-.374.04-.552 0-.154-.012-.306-.008-.463a27.45 27.45 0 0 1 .371-4.16c.321-1.404 1.742-2.451 3.325-2.451" opacity="1" data-original="#c8b100"></path><path fill="#c8b100" d="M-528.327-384.512c.824 0 1.517.524 1.688 1.25.198 1.174.326 2.515.353 3.931 0 .147-.006.294-.006.437 0 .176.03.351.034.53.051 2.983.48 5.612 1.093 7.23l-3.186 3.013-3.188-3.012c.608-1.615 1.037-4.248 1.09-7.231.004-.179.035-.354.037-.53 0-.143-.01-.29-.01-.437.027-1.416.155-2.757.357-3.931.166-.726.918-1.25 1.739-1.25" opacity="1" data-original="#c8b100"></path><path fill="#c8b100" d="m-506.133-367.908-1.25 1-1.871-3.054c2.03-1.241 3.424-3.398 3.424-5.856 0-.277-.016-.548-.05-.816-.193-3.896-4.954-7.116-10.984-7.116-3.138 0-5.963.855-7.957 2.228-.054-.603-.1-1.12-.192-1.67 2.194-1.276 5.038-2.044 8.149-2.044 6.938 0 12.367 3.936 12.633 8.599.024.271.037.545.037.82 0 2.486-1.136 4.725-2.935 6.282l.996 1.627" opacity="1" data-original="#c8b100"></path><path fill="#c8b100" d="M-506.214-367.873c2.368-1.764 3.84-4.163 3.84-6.805 0-3.044-1.995-5.759-5.02-7.559 1.865 1.499 2.998 3.436 3.163 5.6.024.271.037.545.037.82 0 2.486-1.136 4.725-2.935 6.282l.915 1.662" opacity="1" data-original="#c8b100"></path><path fill="#c8b100" d="M-485.314-364.79c1.323-1.484 2.135-3.401 2.135-5.498a8.094 8.094 0 0 0-.818-3.55c-1.92-3.938-7.933-6.804-15.081-6.804-1.948 0-3.81.211-5.53.603.385.415.681.87.976 1.33a23.89 23.89 0 0 1 4.55-.427c6.544 0 12.02 2.54 13.603 5.973.425.875.658 1.85.658 2.875 0 2.087-.979 3.957-2.51 5.233l2.368 3.863 1.272-1.007-1.625-2.588" opacity="1" data-original="#c8b100"></path><path fill="#c8b100" d="M-487.743-377.735c1.721 1.082 3.024 2.413 3.746 3.896a8.132 8.132 0 0 1 .818 3.551c0 2.097-.812 4.014-2.135 5.498l1.435 2.33c1.376-1.766 2.172-3.827 2.172-6.019 0-3.775-2.402-7.073-6.036-9.256" opacity="1" data-original="#c8b100"></path><path fill="#ffffff" d="M-530.044-370.141c0-.894.769-1.614 1.714-1.614s1.715.72 1.715 1.614c0 .896-.77 1.622-1.715 1.622-.945 0-1.714-.726-1.714-1.622" opacity="1" data-original="#ffffff"></path><path fill="#ffffff" stroke="#000" stroke-width=".40329299999999996" d="M-530.044-373.316c0-.893.769-1.62 1.714-1.62s1.715.727 1.715 1.62c0 .894-.77 1.617-1.715 1.617-.945 0-1.714-.723-1.714-1.617M-529.7-376.73c0-.716.614-1.293 1.37-1.293.752 0 1.367.577 1.367 1.293 0 .714-.615 1.293-1.367 1.293-.756 0-1.37-.58-1.37-1.293M-529.316-379.81c0-.512.443-.93.986-.93.547 0 .985.418.985.93 0 .518-.438.936-.985.936-.543 0-.986-.418-.986-.936M-529.12-382.502c0-.415.353-.747.79-.747.435 0 .79.332.79.747 0 .412-.355.747-.79.747-.437 0-.79-.335-.79-.747" opacity="1" data-original="#ffffff"></path><path fill="#c8b100" stroke="#000" stroke-width=".40329299999999996" d="m-528.185-360.397 1.114.204c-.18.45-.216.941-.216 1.459 0 2.306 1.984 4.183 4.426 4.183 1.961 0 3.632-1.213 4.205-2.887.065.044.422-1.514.607-1.494.155.016.139 1.618.196 1.589.284 2.109 2.214 3.536 4.387 3.536 2.439 0 4.417-1.868 4.417-4.178 0-.171-.01-.344-.033-.51l1.386-1.372.745 1.748c-.296.55-.414 1.166-.414 1.826 0 2.205 1.89 3.988 4.221 3.988 1.467 0 2.756-.704 3.513-1.774l.887-1.127-.006 1.382c0 1.388.586 2.633 1.944 2.852 0 0 1.556.097 3.62-1.52 2.065-1.62 3.202-2.959 3.202-2.959l.178 1.62s-1.713 2.647-3.579 3.725c-1.02.593-2.568 1.215-3.8 1.014-1.303-.21-2.23-1.254-2.71-2.456a6.306 6.306 0 0 1-3.199.863c-2.523 0-4.792-1.38-5.689-3.461-1.16 1.25-2.777 2.019-4.673 2.019-2.015 0-3.861-.905-5.018-2.297a6.506 6.506 0 0 1-4.387 1.672c-2.231 0-4.22-1.091-5.348-2.737-1.127 1.646-3.115 2.737-5.343 2.737a6.515 6.515 0 0 1-4.39-1.672c-1.152 1.392-3.002 2.297-5.017 2.297-1.896 0-3.512-.768-4.674-2.02-.896 2.081-3.163 3.462-5.689 3.462a6.287 6.287 0 0 1-3.195-.863c-.483 1.202-1.41 2.245-2.71 2.456-1.231.2-2.78-.421-3.802-1.014-1.867-1.078-3.579-3.725-3.579-3.725l.18-1.62s1.138 1.34 3.2 2.958c2.065 1.62 3.621 1.521 3.621 1.521 1.356-.219 1.942-1.464 1.942-2.852l-.007-1.382.888 1.127c.756 1.07 2.049 1.774 3.513 1.774 2.332 0 4.221-1.783 4.221-3.988 0-.66-.119-1.277-.415-1.826l.744-1.748 1.389 1.372c-.02.166-.033.339-.033.51 0 2.31 1.975 4.178 4.416 4.178 2.177 0 4.104-1.427 4.387-3.536.06.029.044-1.573.198-1.589.184-.02.544 1.538.605 1.494.577 1.674 2.244 2.887 4.212 2.887 2.442 0 4.42-1.877 4.42-4.183 0-.518-.031-1.01-.213-1.459l1.154-.204" opacity="1" data-original="#c8b100"></path><path fill="#ffffff" stroke="#000" stroke-width=".40329299999999996" d="M-497.802-354.884c.255-.748.027-1.49-.513-1.651-.54-.17-1.188.302-1.444 1.05-.257.746-.027 1.483.513 1.652.54.162 1.187-.307 1.444-1.05M-517.039-358.604c.1-.782-.274-1.464-.838-1.528-.563-.067-1.103.51-1.204 1.29-.101.777.273 1.464.836 1.531.565.063 1.104-.514 1.206-1.293M-539.375-358.604c-.1-.782.277-1.464.837-1.528.564-.067 1.104.51 1.205 1.29.097.777-.273 1.464-.837 1.531-.564.063-1.104-.514-1.205-1.293M-558.609-354.884c-.256-.748-.027-1.49.513-1.651.54-.17 1.185.302 1.441 1.05.253.746.024 1.483-.513 1.652-.54.162-1.184-.307-1.44-1.05" opacity="1" data-original="#ffffff"></path><path fill="#c8b100" stroke="#000" stroke-width=".40329299999999996" d="M-550.253-367.7c.955.602 1.788 1.605 2.078 2.725 0 0 .111-.23.637-.533.53-.297.979-.288.979-.288s-.151.872-.226 1.184c-.076.307-.084 1.242-.286 2.084a6.93 6.93 0 0 1-.57 1.516 1.782 1.782 0 0 0-1.418-.374c-.527.09-.951.4-1.194.807 0 0-.592-.513-1.084-1.237-.496-.725-.833-1.6-1.022-1.865-.187-.267-.642-1.04-.642-1.04s.42-.156 1.023-.044.793.294.793.294c-.128-1.151.254-2.356.932-3.229" opacity="1" data-original="#c8b100"></path><path fill="#c8b100" stroke="#000" stroke-width=".40329299999999996" d="M-549.848-358.527a1.633 1.633 0 0 1-.608-.97 1.53 1.53 0 0 1 .21-1.1s-.798-.402-1.652-.626c-.648-.17-1.787-.175-2.132-.182-.344-.01-1.032-.025-1.032-.025s.058.157.253.497c.236.412.446.67.446.67-1.142.262-2.114 1.011-2.727 1.88.892.615 2.076.989 3.239.87 0 0-.101.311-.175.78-.06.385-.057.545-.057.545l.962-.354c.32-.118 1.39-.488 1.94-.859.718-.49 1.333-1.123 1.333-1.123M-547.29-358.955c.198-.318.294-.708.219-1.104a1.61 1.61 0 0 0-.594-.97s.6-.634 1.32-1.122c.546-.37 1.618-.744 1.939-.858l.963-.358s.002.163-.059.549c-.073.466-.175.775-.175.775 1.165-.12 2.351.268 3.243.887-.614.865-1.593 1.601-2.73 1.864a6.127 6.127 0 0 0 .699 1.167l-1.033-.021c-.344-.007-1.484-.01-2.132-.183-.853-.227-1.66-.623-1.66-.623" opacity="1" data-original="#c8b100"></path><path fill="#ad1519" stroke="#000" stroke-width=".40329299999999996" d="M-550.682-359.794c0-1.021.874-1.847 1.95-1.847 1.073 0 1.95.826 1.95 1.847 0 1.019-.873 1.844-1.95 1.844-1.076 0-1.95-.825-1.95-1.844" opacity="1" data-original="#ad1519"></path><path fill="#c8b100" stroke="#000" stroke-width=".40329299999999996" d="M-528.26-370.652c.938.85 1.661 2.118 1.753 3.424 0 0 .168-.236.82-.472.65-.236 1.15-.144 1.15-.144s-.348.948-.5 1.279c-.15.332-.347 1.373-.753 2.27a7.704 7.704 0 0 1-.944 1.582 1.998 1.998 0 0 0-1.506-.673c-.603 0-1.143.265-1.5.673 0 0-.55-.68-.948-1.582-.403-.897-.602-1.938-.75-2.27-.151-.33-.503-1.279-.503-1.279s.503-.092 1.15.144c.652.236.824.472.824.472.091-1.306.773-2.575 1.708-3.424" opacity="1" data-original="#c8b100"></path><path fill="#c8b100" stroke="#000" stroke-width=".40329299999999996" d="M-529.714-360.349a1.792 1.792 0 0 1-.475-1.193c0-.45.172-.87.462-1.187 0 0-.803-.6-1.707-1.008-.685-.313-1.958-.53-2.34-.6l-1.147-.217s.032.181.18.6c.178.507.357.833.357.833-1.322.08-2.568.736-3.432 1.589.864.844 2.106 1.486 3.432 1.573 0 0-.179.322-.358.832-.147.412-.179.597-.179.597l1.148-.21c.381-.078 1.654-.29 2.339-.607a11.36 11.36 0 0 0 1.72-.998M-526.774-360.349c.29-.322.475-.74.475-1.193 0-.45-.171-.87-.462-1.187 0 0 .804-.6 1.708-1.008.688-.313 1.96-.53 2.34-.6l1.141-.217s-.026.181-.178.6c-.18.507-.355.833-.355.833 1.323.08 2.568.736 3.428 1.589-.86.844-2.102 1.486-3.428 1.573 0 0 .175.322.355.832.148.412.178.597.178.597l-1.14-.21c-.382-.078-1.653-.29-2.34-.607-.905-.409-1.722-.998-1.722-.998M-506.161-367.7c-.951.602-1.784 1.605-2.074 2.725 0 0-.117-.23-.641-.533-.527-.297-.98-.288-.98-.288s.152.872.23 1.184c.078.307.081 1.242.283 2.084.203.843.57 1.516.57 1.516.378-.307.891-.46 1.418-.374.525.09.952.4 1.198.807 0 0 .587-.513 1.084-1.237.491-.725.832-1.6 1.014-1.865.187-.267.645-1.04.645-1.04s-.422-.156-1.025-.044c-.604.112-.794.294-.794.294.135-1.151-.25-2.356-.928-3.229" opacity="1" data-original="#c8b100"></path><path fill="#c8b100" stroke="#000" stroke-width=".40329299999999996" d="M-506.562-358.527c.301-.24.533-.575.603-.97a1.534 1.534 0 0 0-.205-1.1s.793-.402 1.646-.626c.65-.17 1.793-.175 2.132-.182.346-.01 1.033-.025 1.033-.025s-.054.157-.252.497c-.237.412-.445.67-.445.67 1.14.262 2.111 1.011 2.726 1.88-.887.615-2.072.989-3.24.87 0 0 .105.311.176.78.057.385.054.545.054.545l-.958-.354c-.32-.118-1.39-.488-1.941-.859-.715-.49-1.33-1.123-1.33-1.123M-509.123-358.955c-.2-.318-.29-.708-.22-1.104.075-.395.294-.73.597-.97 0 0-.604-.634-1.322-1.122-.547-.37-1.62-.744-1.94-.858-.321-.118-.959-.358-.959-.358s-.002.163.057.549c.072.466.173.775.173.775-1.165-.12-2.353.268-3.24.887.615.865 1.59 1.601 2.727 1.864 0 0-.205.258-.443.67-.198.344-.252.497-.252.497l1.029-.021c.34-.007 1.488-.01 2.132-.183.851-.227 1.658-.623 1.658-.623" opacity="1" data-original="#c8b100"></path><path fill="#ad1519" stroke="#000" stroke-width=".40329299999999996" d="M-509.632-359.794c0-1.021.873-1.847 1.95-1.847 1.08 0 1.954.826 1.954 1.847 0 1.019-.874 1.844-1.954 1.844-1.077 0-1.95-.825-1.95-1.844M-487.817-355.697c-.46-.484-1.411-.383-2.122.224-.713.603-.92 1.49-.46 1.971.46.485 1.41.38 2.122-.223.713-.609.919-1.493.46-1.972" opacity="1" data-original="#ad1519"></path><path fill="#c8b100" stroke="#000" stroke-width=".40329299999999996" d="M-490.587-354.523c.098-.331.32-.67.648-.95.71-.607 1.662-.708 2.122-.224.056.065.121.15.158.226 0 0 .99-1.872 2.16-2.494 1.172-.629 3.152-.47 3.152-.47 0-1.436-1.178-2.596-2.697-2.596-.89 0-1.734.37-2.23.995l-.205-.963s-1.222.242-1.783 1.636c-.556 1.398.05 3.417.05 3.417s-.303-.867-.76-1.446c-.457-.573-1.628-1.202-2.238-1.489-.611-.284-1.236-.711-1.236-.711s-.027.156-.05.542c-.023.462.014.746.014.746-1.12-.146-2.428.036-3.446.432.435.854 1.265 1.658 2.352 2.07 0 0-.391.322-.75.676-.296.3-.39.44-.39.44l1.15.163c.38.052 1.653.252 2.413.202.56-.036 1.188-.128 1.566-.202M-565.826-354.523c-.097-.331-.319-.67-.648-.95-.712-.607-1.66-.708-2.123-.224a.988.988 0 0 0-.158.226s-.993-1.872-2.163-2.494c-1.167-.629-3.148-.47-3.148-.47 0-1.436 1.178-2.596 2.695-2.596.895 0 1.732.37 2.234.995l.203-.963s1.222.242 1.781 1.636c.56 1.398-.05 3.417-.05 3.417s.303-.867.763-1.446c.458-.573 1.629-1.202 2.24-1.489.608-.284 1.235-.711 1.235-.711s.023.156.048.542c.024.462-.014.746-.014.746 1.117-.146 2.426.036 3.446.432-.437.854-1.264 1.658-2.353 2.07 0 0 .392.322.748.676.3.3.395.44.395.44l-1.149.163c-.386.052-1.654.252-2.414.202a13.773 13.773 0 0 1-1.568-.202" opacity="1" data-original="#c8b100"></path><path fill="#ad1519" stroke="#000" stroke-width=".40329299999999996" d="M-568.597-355.697c.462-.484 1.411-.383 2.123.224.715.603.917 1.49.459 1.971-.46.485-1.411.38-2.122-.223-.713-.609-.918-1.493-.46-1.972M-530.189-361.542c0-1.02.873-1.844 1.95-1.844s1.953.823 1.953 1.844c0 1.02-.873 1.847-1.954 1.847-1.076 0-1.949-.826-1.949-1.847" opacity="1" data-original="#ad1519"></path><path fill="#005bbf" stroke="#000" stroke-width=".268862" d="M-532.3-389.579c0-2.087 1.787-3.772 3.987-3.772s3.985 1.685 3.985 3.772c0 2.08-1.785 3.765-3.985 3.765s-3.986-1.685-3.986-3.765" opacity="1" data-original="#005bbf"></path><path fill="#c8b100" stroke="#000" stroke-width=".268862" d="M-529.357-400.15v2.036h-2.18v2.064h2.18V-390.113h-2.747c-.032.194-.198.335-.198.538 0 .52.109 1.02.311 1.47.006.012.023.016.028.028h7.306c.006-.012.024-.016.029-.028.201-.45.311-.95.311-1.47 0-.202-.166-.345-.198-.538h-2.662V-396.05h2.18v-2.064h-2.18v-2.036h-2.18z" opacity="1" data-original="#c8b100"></path><path fill="#cccccc" d="M-527.918-230.505c-11.774 0-23.442-2.881-33.252-7.674-7.23-3.576-12.026-10.787-12.026-19.039v-29.923h90.376v29.923c0 8.252-4.794 15.463-12.027 19.039-9.808 4.793-21.295 7.674-33.071 7.674" opacity="1" data-original="#cccccc"></path><path fill="#cccccc" d="M-528.11-287.192h45.286v-50.062h-45.287z" opacity="1" data-original="#cccccc"></path><path fill="#ad1519" d="M-528.077-257.253c0 11.825-10.036 21.41-22.537 21.41-12.506 0-22.642-9.585-22.642-21.41v-29.968h45.18z" opacity="1" data-original="#ad1519"></path><path fill="#c8b100" stroke="#000" stroke-width=".538835" d="M-563.386-239.584c1.412.748 3.35 1.993 5.422 2.492l-.132-51.184h-5.29z" opacity="1" data-original="#c8b100"></path><path fill="#c8b100" stroke="#000" stroke-linejoin="round" stroke-width=".517726" d="M-573.33-257.656c.137 6.315 2.648 11.009 5.159 14.084v-44.455h-5.096l-.064 30.37z" opacity="1" data-original="#c8b100"></path><path fill="#c7b500" stroke="#000" stroke-width=".538835" d="M-553.313-235.97c2.07.208 3.614.167 5.29 0v-52.306h-5.29z" opacity="1" data-original="#c7b500"></path><path fill="#c8b100" stroke="#000" stroke-width=".538835" d="M-543.37-237.092c2.071-.415 4.407-1.703 5.423-2.368v-48.816h-5.291z" opacity="1" data-original="#c8b100"></path><path fill="#ad1519" d="M-573.253-287.192h45.158v-50.062h-45.158z" opacity="1" data-original="#ad1519"></path><path fill="#c8b100" stroke="#000" stroke-width=".538835" d="M-533.03-244.07c2.203-1.953 4.274-6.4 5.027-11.467l.131-32.74h-5.29z" opacity="1" data-original="#c8b100"></path><path fill="#ad1519" d="M-482.78-287.22v29.967c0 11.825-10.15 21.41-22.655 21.41-12.502 0-22.642-9.585-22.642-21.41v-29.968z" opacity="1" data-original="#ad1519"></path><path fill="#c8b100" d="M-519.838-264.601c.072.153.113.306.113.469 0 .552-.469.992-1.054.992-.58 0-1.052-.44-1.052-.992a.93.93 0 0 1 .114-.45l-1.47-.02c-.03.15-.049.307-.049.47 0 1.04.72 1.921 1.714 2.217l-.003 3.606 1.543.01.002-3.632a2.398 2.398 0 0 0 1.527-1.452h4.142v-1.218h-5.528m20.321 0v1.218l-3.724.01c-.058.163-.15.313-.24.456l4.326 4.908-1.16.938-4.306-4.914c-.08.026-.119.057-.203.08l-.01 8.12h-1.525l-.004-8.156c-.064-.015-.118-.047-.179-.076l-4.481 4.946-1.161-.938 4.479-4.965a1.99 1.99 0 0 1-.187-.409h-3.85v-1.218h12.229-.003zm2.482 0v1.218h4.146c.246.683.803 1.22 1.525 1.452l.002 3.631 1.54-.009-.003-3.606c.995-.296 1.718-1.178 1.718-2.217 0-.163-.017-.32-.055-.47h-1.464c.07.154.108.307.108.47 0 .552-.466.992-1.05.992-.58 0-1.053-.44-1.053-.992a.92.92 0 0 1 .116-.45l-5.53-.02m-6.262 20.704a14.588 14.588 0 0 0 3.423-.984l.756 1.285a16.518 16.518 0 0 1-4.05 1.145c-.237 1.05-1.218 1.838-2.398 1.838-1.178 0-2.161-.778-2.404-1.82a16.422 16.422 0 0 1-4.258-1.163l.76-1.285c1.157.488 2.392.813 3.673.99a2.335 2.335 0 0 1 1.419-1.25l.013-6.294h1.521l.015 6.272c.675.202 1.244.66 1.528 1.266h.002zm-10.343-2.111-.75 1.292a15.606 15.606 0 0 1-3.418-2.888c-.783.23-1.668.093-2.336-.45-1.033-.836-1.158-2.303-.273-3.276l.128-.137a14.277 14.277 0 0 1-1.188-4.496l1.54.006c.12 1.35.457 2.637.983 3.843.433-.061.895-.01 1.31.143l3.85-4.253 1.16.935-3.825 4.247a2.197 2.197 0 0 1-.095 2.568c.85.939 1.825 1.774 2.914 2.466zm-5.708-4.46a1.093 1.093 0 0 1 1.485-.113.96.96 0 0 1 .119 1.405 1.096 1.096 0 0 1-1.485.111.96.96 0 0 1-.12-1.404zm-1.94-4.207-1.583-.353-.223-4.001 1.57-.518.002 2.295c0 .89.08 1.733.234 2.577zm1.313-4.96 1.575.37s.081 2.571.048 1.993c-.041-.673.172 2.011.172 2.011l-1.59.523c-.158-.816-.212-1.653-.212-2.514l.002-2.384h.004zm5.195 12.8a14.695 14.695 0 0 0 4.537 2.406l.35-1.522a12.847 12.847 0 0 1-3.756-1.882zm-.762 1.315a16.32 16.32 0 0 0 4.536 2.384l-1.179 1.1a17.548 17.548 0 0 1-3.707-1.898zm2.056-8.819 1.505.638 2.753-3.05-.905-1.299zm-1.167-.941-.903-1.305 2.755-3.05 1.5.64zm16.949 9.272.752 1.292a15.648 15.648 0 0 0 3.418-2.888c.78.23 1.668.093 2.335-.45 1.033-.836 1.152-2.303.272-3.276l-.13-.137a14.059 14.059 0 0 0 1.184-4.496l-1.53.006a12.403 12.403 0 0 1-.987 3.843 2.737 2.737 0 0 0-1.312.143l-3.847-4.253-1.16.935 3.822 4.247a2.207 2.207 0 0 0 .095 2.568 14.136 14.136 0 0 1-2.912 2.466zm5.705-4.46a1.088 1.088 0 0 0-1.48-.113.958.958 0 0 0-.119 1.405 1.096 1.096 0 0 0 1.485.111.958.958 0 0 0 .114-1.404zm1.942-4.207 1.582-.353.223-4.001-1.566-.518-.003 2.295c0 .89-.079 1.733-.236 2.577zm-1.31-4.96-1.576.37s-.085 2.571-.05 1.993c.043-.673-.173 2.011-.173 2.011l1.59.523c.159-.816.212-1.653.212-2.514l-.002-2.384m-5.198 12.801a14.746 14.746 0 0 1-4.534 2.406l-.351-1.522a12.827 12.827 0 0 0 3.752-1.882zm.764 1.315a16.37 16.37 0 0 1-4.536 2.384l1.178 1.1a17.554 17.554 0 0 0 3.709-1.898zm-2.056-8.819-1.505.638-2.754-3.05.905-1.299zm1.166-.941.903-1.305-2.754-3.05-1.5.64zm-18.847-8.098.462 1.499h4.242l.457-1.5zm19.813 0-.465 1.499h-4.239l-.457-1.5zm-10.895 20.44c0-.553.472-.999 1.053-.999.58 0 1.049.446 1.049.998 0 .55-.47.992-1.049.992-.581 0-1.053-.443-1.053-.992zm1.785-7.257 1.583-.443v-4.004l-1.583-.434zm-1.535 0-1.579-.443v-4.004l1.58-.434z" opacity="1" data-original="#c8b100"></path><path fill="#c8b100" d="M-523.187-264.566c.182-.835.835-1.512 1.677-1.766l-.012-4.944h1.527l.002 4.971c.753.236 1.333.793 1.566 1.509l4.116.006v.224h-5.527a1.087 1.087 0 0 0-.941-.53c-.408 0-.766.227-.938.55l-1.47-.02m11.441 0v-.224h3.824c.043-.124.1-.246.165-.36l-4.718-5.25 1.16-.94 4.659 5.164c.08-.04.165-.075.248-.103l.004-6.88h1.525v6.837c.068.02.172.04.24.059l4.55-5.172 1.168.926-4.567 5.15c.118.173.198.366.263.57h3.705v.223h-12.23.004zm20.24 0c.171-.304.527-.53.938-.53.412 0 .767.226.941.55l1.465-.02c-.183-.835-.83-1.512-1.673-1.765l.01-4.942h-1.523l-.007 4.971c-.749.237-1.33.79-1.562 1.506l-4.12.007v.224h5.53m-28.242-13.964 5.674 6.352 1.162-.94-5.706-6.327c.113-.17.194-.354.263-.553h4.15v-1.445h-4.153c-.318-.936-1.249-1.608-2.345-1.608-1.357 0-2.46 1.043-2.46 2.328 0 1.02.69 1.89 1.655 2.203l-.009 4.9h1.525v-4.868c.065-.019.182-.019.244-.042zm29.94.032-.013 4.879h-1.527v-4.898a2.302 2.302 0 0 1-.34-.139l-5.644 6.36-1.167-.927 5.751-6.484c-.047-.092-.097-.188-.131-.291h-4.173v-1.445h4.16c.32-.936 1.242-1.608 2.335-1.608 1.356 0 2.46 1.043 2.46 2.328 0 1.045-.713 1.927-1.71 2.225zm-15.053-.019-.014 3.004h-1.524l.003-2.978a2.41 2.41 0 0 1-1.607-1.507h-3.723v-1.445h3.723c.321-.936 1.238-1.608 2.331-1.608s2.018.672 2.34 1.608h3.795v1.445h-3.805a2.368 2.368 0 0 1-1.52 1.481zm-16.642 3.647-1.582.445v4.015l1.582.435zm1.535 0 1.579.445v4.015l-1.579.435zm28.607 0-1.579.445v4.015l1.579.435zm1.536 0 1.583.445v4.015l-1.583.435zm-23.95.792 1.507-.638 2.754 3.056-.904 1.304zm-1.165.947-.9 1.309 2.752 3.052 1.501-.642zm17.29-1.064-1.508-.627-2.727 3.079.914 1.295zm1.175.937.913 1.297-2.726 3.079-1.505-.63zm-19.062 8.465.462-1.5h4.242l.457 1.5zm-6.22-15.927c0-.549.473-.997 1.054-.997.58 0 1.05.448 1.05.997 0 .55-.47.994-1.05.994-.581 0-1.053-.444-1.053-.994zm11.345.725-.465 1.504h-4.24l-.457-1.504zm0-1.454-.465-1.5h-4.24l-.457 1.5zm14.688 16.656-.465-1.5h-4.24l-.456 1.5zm4.115-15.927c0-.549.468-.997 1.052-.997.581 0 1.05.448 1.05.997 0 .55-.469.994-1.05.994-.584 0-1.052-.444-1.052-.994zm-15.114 0c0-.549.472-.997 1.052-.997.581 0 1.05.448 1.05.997 0 .55-.469.994-1.05.994-.58 0-1.052-.444-1.052-.994zm5.874.725.466 1.504h4.238l.459-1.504zm0-1.454.466-1.5h4.238l.459 1.5zm-5.537 4.69-1.58.444v4.016l1.58.434zm1.518 0 1.579.444v4.016l-1.579.434z" opacity="1" data-original="#c8b100"></path><path fill="#058e6e" d="M-508.03-264.107c0-1.289 1.104-2.332 2.464-2.332 1.356 0 2.46 1.043 2.46 2.332 0 1.283-1.104 2.323-2.46 2.323-1.36 0-2.464-1.04-2.464-2.323" opacity="1" data-original="#058e6e"></path><path fill="#db4446" d="m-505.027-324.919.05-.555.078-.31s-1.45.119-2.213-.095c-.763-.217-1.451-.53-2.164-1.13-.71-.604-.991-.98-1.5-1.056-1.222-.194-2.163.358-2.163.358s.918.337 1.606 1.177c.684.846 1.43 1.273 1.754 1.375.534.163 2.39.048 2.899.067.51.026 1.653.172 1.653.172" opacity="1" data-original="#db4446"></path><path fill="#ed72aa" stroke="#000" stroke-width=".40329299999999996" d="M-498.247-326.955s.003.648.067 1.267c.06.594-.192 1.113-.095 1.442.095.333.141.594.27.832.122.24.19.847.19.847s-.348-.246-.67-.485c-.316-.243-.543-.393-.543-.393s.065.648.094.925c.036.278.197.801.46 1.111.26.303.78.8.94 1.2.167.402.134 1.29.134 1.29s-.422-.675-.785-.795c-.356-.125-1.14-.56-1.14-.56s.719.713.719 1.39c0 .675-.293 1.444-.293 1.444s-.324-.613-.746-1.014c-.424-.4-1.012-.801-1.012-.801s.459 1.046.459 1.751c0 .712-.128 2.22-.128 2.22s-.358-.583-.716-.867c-.36-.274-.782-.52-.915-.702-.127-.184.427.581.486 1.043.064.464.284 2.112 1.728 4.219.844 1.232 2.15 3.385 4.947 2.677 2.801-.706 1.762-4.464 1.175-6.22-.588-1.75-.881-3.694-.847-4.374.03-.673.52-2.673.455-3.047-.064-.366-.217-1.796.132-2.948.358-1.2.655-1.665.847-2.16.191-.491.353-.77.418-1.2.065-.43.065-1.235.065-1.235s.52.958.65 1.296c.13.341.13 1.353.13 1.353s.096-1.012.88-1.503c.783-.498 1.693-1.018 1.922-1.296.227-.28.294-.462.294-.462s-.067 1.726-.554 2.406c-.323.44-1.598 1.876-1.598 1.876s.654-.25 1.109-.274c.456-.035.78 0 .78 0s-.553.431-1.269 1.477c-.715 1.043-.424 1.136-.944 1.997-.524.861-.946.894-1.597 1.417-.979.785-.451 3.905-.323 4.368.131.46 1.822 4.281 1.855 5.204.03.925.197 2.987-1.434 4.31-1.05.86-2.767.866-3.158 1.11-.392.243-1.168 1.013-1.168 2.615 0 1.605.581 1.847 1.036 2.249.46.402 1.044.185 1.174.495.132.305.196.49.392.676.197.181.328.399.26.733-.063.342-.813 1.111-1.073 1.67-.263.548-.783 2-.783 2.213 0 .218-.061.895.162 1.235 0 0 .813.949.26 1.133-.358.121-.708-.224-.877-.184-.486.128-.74.427-.88.402-.326-.061-.326-.22-.359-.677-.03-.46-.013-.648-.158-.648-.196 0-.294.16-.328.403-.035.245-.035.797-.26.797-.228 0-.553-.4-.749-.488-.196-.094-.748-.185-.78-.43-.033-.247.325-.77.682-.863.358-.093.685-.274.456-.458-.229-.186-.456-.186-.682 0-.23.184-.715.027-.684-.25.033-.277.098-.613.063-.769-.03-.15-.422-.46.095-.74.523-.275.749.249 1.269.155.523-.088.783-.28.978-.583.196-.306.162-.954-.195-1.352-.358-.403-.716-.466-.848-.713-.131-.245-.323-.829-.323-.829s.095 1.076.03 1.232c-.063.154-.03.797-.03.797s-.358-.399-.652-.704c-.29-.31-.584-1.231-.584-1.231s-.03.86-.03 1.202c0 .334.388.644.26.769-.131.121-.748-.648-.91-.77-.166-.123-.686-.522-.915-.956-.226-.431-.393-1.043-.456-1.264-.065-.214-.171-1.174-.065-1.417.163-.367.424-1.015.424-1.015h-1.27c-.681 0-1.171-.213-1.431.246-.26.463-.132 1.389.193 2.588.327 1.196.519 1.784.425 2-.095.214-.52.71-.681.798-.167.096-.622.064-.818-.025-.192-.093-.516-.25-1.137-.25-.617 0-1.009.03-1.235-.025-.228-.063-.782-.341-1.046-.28-.26.063-.71.293-.587.648.199.554-.193.679-.455.648-.26-.033-.483-.125-.814-.215-.323-.095-.813 0-.748-.373.063-.37.196-.4.357-.673.164-.281.226-.46.043-.48-.229-.021-.458-.047-.636.1-.173.144-.453.454-.683.339-.23-.122-.408-.387-.408-.968 0-.577-.611-1.081-.05-1.056.56.026 1.272.435 1.4.121.125-.315.047-.455-.256-.701-.306-.24-.686-.383-.278-.696.406-.31.507-.31.662-.482.153-.166.37-.708.656-.574.558.265.026.65.585 1.273.561.625.916.846 1.857.746.94-.095 1.198-.216 1.198-.481s-.078-.743-.105-.938c-.024-.192.13-.89.13-.89s-.434.267-.561.528c-.123.265-.38.72-.38.72s-.103-.54-.073-.981c.017-.258.109-.708.099-.797-.025-.24-.204-.842-.204-.842s-.153.65-.252.842c-.102.191-.153.964-.153.964s-.597-.52-.43-1.395c.124-.673-.103-1.563.1-1.853.2-.29.681-1.468 1.853-1.52 1.17-.044 2.084.052 2.494.03.407-.03 1.856-.291 1.856-.291s-2.671-1.369-3.28-1.78c-.612-.405-1.553-1.465-1.86-1.947-.305-.482-.584-1.417-.584-1.417s-.48.022-.914.262a4.612 4.612 0 0 0-1.117.887c-.258.29-.662.942-.662.942s.074-.842.074-1.108c0-.258-.05-.771-.05-.771s-.305 1.154-.915 1.585c-.61.436-1.323 1.037-1.323 1.037s.078-.645.078-.791c0-.144.152-.89.152-.89s-.432.644-1.094.771c-.661.119-1.63.094-1.707.505-.074.405.18.96.027 1.247-.153.29-.482.482-.482.482s-.38-.316-.713-.339c-.33-.025-.637.147-.637.147s-.28-.363-.18-.602c.105-.24.612-.6.487-.747-.128-.144-.536.051-.79.169-.252.121-.789.239-.738-.169.051-.409.178-.648.051-.938-.127-.284-.051-.479.155-.552.201-.067 1.015.022 1.092-.162.075-.195-.202-.435-.739-.557-.533-.117-.789-.433-.508-.698.28-.265.356-.335.483-.577.127-.242.178-.674.663-.457.48.215.378.744.892.913.503.172 1.7-.07 1.952-.214.258-.147 1.07-.747 1.35-.893.281-.14 1.448-1.008 1.448-1.008s-.685-.477-.941-.722c-.253-.239-.708-.814-.934-.935-.23-.124-1.35-.552-1.732-.577-.381-.025-1.552-.43-1.552-.43s.534-.173.712-.317c.179-.144.58-.507.789-.481.2.026.25.026.25.026s-1.09-.052-1.32-.119c-.229-.077-.89-.485-1.142-.485-.257 0-.763.099-.763.099s.685-.433 1.244-.53c.56-.092.993-.073.993-.073s-.864-.24-1.07-.527c-.202-.29-.404-.718-.56-.913-.152-.19-.254-.506-.533-.529-.28-.025-.764.339-1.043.313-.277-.022-.483-.195-.51-.6-.02-.411 0-.268-.097-.482-.102-.22-.51-.724-.129-.842.385-.121 1.198.071 1.272-.074.078-.143-.431-.577-.761-.745-.332-.168-.865-.458-.585-.697.28-.239.558-.334.712-.552.152-.216.33-.816.662-.626.33.192.788 1.133 1.043 1.06.256-.073.275-.746.228-1.033-.05-.291 0-.794.25-.748.257.048.46.384.868.412.404.022 1.015-.095.964.189-.05.287-.28.644-.56.96-.272.316-.401.938-.226 1.346.179.412.638 1.063 1.043 1.325.404.264 1.168.46 1.654.769.481.316 1.602 1.202 1.984 1.298.38.1.762.29.762.29s.431-.19 1.019-.19c.584 0 1.93.094 2.44-.122.51-.22 1.17-.578.967-1.037-.2-.454-1.322-.865-1.22-1.222.102-.36.51-.386 1.193-.412.686-.022 1.627.122 1.804-.842.178-.96.23-1.516-.733-1.73-.968-.217-1.682-.238-1.856-.937-.18-.697-.358-.865-.155-1.06.206-.188.56-.287 1.272-.331.712-.052 1.525-.052 1.755-.224.23-.163.277-.622.556-.817.28-.188 1.377-.361 1.377-.361s1.307.639 2.521 1.538c1.086.81 2.07 2.008 2.07 2.008" opacity="1" data-original="#ed72aa"></path><path d="M-507.622-327.631s-.152-.434-.178-.555c-.023-.118-.102-.265-.102-.265s.79 0 .764.24c-.025.242-.254.242-.305.334-.05.1-.179.246-.179.246" fill="#000000" opacity="1" data-original="#000000"></path><path d="m-504.007-328.885-.054-.385s.688.006 1.018.239c.51.36.837.914.814.938-.088.085-.483-.24-.763-.335 0 0-.203.047-.408.047-.203 0-.304-.095-.331-.191-.023-.1.027-.265.027-.265l-.303-.044" fill="#000000" opacity="1" data-original="#000000"></path><path fill="#db4446" d="M-517.67-327.778s.431.31.763.358c.33.05.688.05.738.05.05 0 .155-.485.101-.816-.178-1.084-1.17-1.324-1.17-1.324s.295.657.151.96a2.741 2.741 0 0 1-.584.772" opacity="1" data-original="#db4446"></path><path fill="#db4446" d="M-519.732-326.84s-.382-.698-1.195-.603c-.813.095-1.35.724-1.35.724s.899-.028 1.12.118c.332.218.433.773.433.773s.486-.29.637-.483c.152-.194.355-.529.355-.529" opacity="1" data-original="#db4446"></path><path fill="#db4446" d="M-520.724-324.028s-.686.098-1.067.533c-.385.433-.33 1.25-.33 1.25s.455-.479.863-.479c.41 0 1.043.144 1.043.144s-.202-.51-.202-.725c0-.216-.307-.723-.307-.723" opacity="1" data-original="#db4446"></path><path d="m-507.595-324.124.304-.48.3.436-.604.044" fill="#000000" opacity="1" data-original="#000000"></path><path d="m-506.86-324.147.358-.479.382.43-.74.05" fill="#000000" opacity="1" data-original="#000000"></path><path d="m-507.189-327.105.738.265-.661.335-.077-.6" fill="#000000" opacity="1" data-original="#000000"></path><path d="m-506.3-326.862.662.166-.533.408z" fill="#000000" opacity="1" data-original="#000000"></path><path fill="#db4446" d="M-518.41-314.935s-.381-.405-1.042-.287c-.662.12-1.094.868-1.094.868s.56-.148.892-.074c.33.074.56.409.56.409s.303-.265.405-.409c.101-.143.276-.507.276-.507" opacity="1" data-original="#db4446"></path><path fill="#db4446" d="M-519.173-312.265s-.56-.095-1.042.29c-.482.386-.51 1.13-.51 1.13s.46-.386.818-.334c.354.044.786.238.786.238s.077-.459.1-.577c.079-.336-.152-.747-.152-.747" opacity="1" data-original="#db4446"></path><path fill="#db4446" d="M-517.873-309.808s-.037.715.304 1.152c.357.46 1.019.53 1.019.53s-.222-.478-.257-.722c-.05-.36.305-.673.305-.673s-.328-.334-.658-.334c-.332 0-.713.047-.713.047" opacity="1" data-original="#db4446"></path><path fill="#db4446" d="M-511.26-303.48s-.458-.578-1.093-.555c-.638.025-1.3.621-1.3.621s.79-.067.992.195c.207.268.409.6.409.6s.356-.189.51-.31c.152-.117.482-.552.482-.552" opacity="1" data-original="#db4446"></path><path fill="#db4446" d="M-513.22-300.957s-.836-.12-1.245.313c-.409.431-.382 1.225-.382 1.225s.51-.551.966-.505c.46.049.968.292.968.292s-.078-.482-.128-.7a12.16 12.16 0 0 0-.178-.625" opacity="1" data-original="#db4446"></path><path fill="#db4446" d="M-511.411-298.285s-.409.576-.101 1.033c.303.46.938.677.938.677s-.226-.336-.125-.726c.08-.305.61-.72.61-.72l-1.322-.262" opacity="1" data-original="#db4446"></path><path fill="#db4446" d="M-500.246-297.2s-.734-.173-1.143.07c-.405.238-.736 1.25-.736 1.25s.662-.552 1.145-.485c.481.076.84.268.84.268s.073-.412.022-.696a2.41 2.41 0 0 0-.128-.408" opacity="1" data-original="#db4446"></path><path fill="#db4446" d="M-499.888-294.51s-.56.576-.358 1.058c.206.482.561.986.561.986s-.02-.717.206-.912c.328-.288.938-.338.938-.338s-.483-.432-.637-.48c-.15-.05-.71-.315-.71-.315" opacity="1" data-original="#db4446"></path><path fill="#db4446" d="M-497.09-293.666s-.28.696.256 1.152c.533.46.993.508.993.508s-.409-.725-.28-1.108c.131-.4.481-.648.481-.648s-.661-.22-.762-.194c-.1.022-.688.29-.688.29" opacity="1" data-original="#db4446"></path><path fill="#ffd691" stroke="#000" stroke-width=".538835" d="M-525.746-243.789c1.884.566 2.838 1.966 2.838 3.606 0 2.135-2.075 3.755-4.767 3.755-2.693 0-4.876-1.62-4.876-3.755 0-1.615.897-3.417 2.77-3.547 0 0-.058-.17-.219-.448-.194-.207-.577-.593-.577-.593s.715-.134 1.127.023c.415.156.688.417.688.417s.196-.382.47-.679c.276-.294.634-.479.634-.479s.414.348.55.58c.135.24.223.524.223.524s.38-.313.71-.44c.331-.131.757-.233.757-.233s-.122.412-.203.621c-.08.209-.125.648-.125.648" opacity="1" data-original="#ffd691"></path><path fill="#058e6e" stroke="#000" stroke-width=".538835" d="M-528.073-234.11s-3.581-2.41-5.133-2.736c-1.985-.417-4.215-.079-5.18-.13.027.028 1.158.832 1.654 1.33.495.495 2.15 1.484 3.084 1.717 2.905.728 5.575-.181 5.575-.181M-527.052-233.9s2.294-2.381 4.694-2.71c2.838-.392 4.695.234 5.796.521.025 0-.91.443-1.405.782-.497.338-1.775 1.407-3.73 1.43-1.956.028-4.115-.206-4.474-.15-.358.047-.88.127-.88.127" opacity="1" data-original="#058e6e"></path><path fill="#ad1519" stroke="#000" stroke-width=".538835" d="M-527.74-236.846a4.538 4.538 0 0 1 .003-6.674 4.532 4.532 0 0 1 1.455 3.334 4.55 4.55 0 0 1-1.457 3.34" opacity="1" data-original="#ad1519"></path><path fill="#058e6e" stroke="#000" stroke-width=".538835" d="M-528.65-231.964s.553-1.365.607-2.54c.046-.981-.139-1.952-.139-1.952h.715s.359 1.044.359 1.953c0 .912-.166 2.125-.166 2.125s-.496.076-.66.153c-.163.08-.717.261-.717.261" opacity="1" data-original="#058e6e"></path><path fill="#ffffff" d="M-483.36-361.388c0-.518.442-.93.986-.93.547 0 .985.412.985.93 0 .516-.438.93-.985.93-.544 0-.986-.414-.986-.93" opacity="1" data-original="#ffffff"></path><path fill="#ffffff" d="M-482.01-363.775c0-.514.438-.93.985-.93.543 0 .985.416.985.93 0 .52-.442.934-.985.934-.547 0-.986-.414-.986-.934" opacity="1" data-original="#ffffff"></path><path fill="#ffffff" d="M-481.114-366.538c0-.514.443-.932.991-.932.543 0 .985.418.985.932 0 .517-.442.934-.985.934-.548 0-.99-.417-.99-.934" opacity="1" data-original="#ffffff"></path><path fill="#ffffff" d="M-480.998-369.503c0-.517.441-.931.984-.931.544 0 .986.414.986.93 0 .518-.442.932-.986.932-.543 0-.984-.414-.984-.931" opacity="1" data-original="#ffffff"></path><path fill="#ffffff" d="M-481.73-372.422c0-.514.443-.929.984-.929.548 0 .99.415.99.93 0 .518-.442.934-.99.934-.541 0-.984-.416-.984-.935" opacity="1" data-original="#ffffff"></path><path fill="#ffffff" d="M-483.248-375.07c0-.518.442-.933.985-.933.546 0 .987.415.987.932 0 .518-.44.936-.987.936-.543 0-.985-.418-.985-.936" opacity="1" data-original="#ffffff"></path><path fill="#ffffff" d="M-485.273-377.247c0-.517.442-.935.985-.935.547 0 .988.418.988.935 0 .514-.44.932-.988.932-.543 0-.985-.418-.985-.932" opacity="1" data-original="#ffffff"></path><path fill="#ffffff" d="M-487.626-379.056c0-.518.443-.935.99-.935.543 0 .985.417.985.935 0 .513-.442.931-.985.931-.547 0-.99-.418-.99-.93" opacity="1" data-original="#ffffff"></path><path fill="#ffffff" d="M-490.435-380.537c0-.516.44-.928.985-.928.546 0 .988.412.988.928 0 .518-.442.936-.988.936-.544 0-.985-.418-.985-.936" opacity="1" data-original="#ffffff"></path><path fill="#ffffff" d="M-493.351-381.593c0-.514.442-.931.988-.931.543 0 .986.417.986.931 0 .517-.443.935-.986.935-.546 0-.988-.418-.988-.935" opacity="1" data-original="#ffffff"></path><path fill="#ffffff" d="M-496.61-382.174c0-.513.44-.934.985-.934.547 0 .987.421.987.934 0 .514-.44.933-.987.933-.545 0-.986-.419-.986-.933" opacity="1" data-original="#ffffff"></path><path fill="#ffffff" d="M-499.706-382.337c0-.514.443-.928.99-.928.543 0 .986.414.986.928 0 .518-.443.936-.987.936-.546 0-.989-.418-.989-.936" opacity="1" data-original="#ffffff"></path><path fill="#ffffff" d="M-502.743-382.23c0-.515.444-.932.989-.932.547 0 .985.417.985.931 0 .517-.438.935-.985.935-.545 0-.99-.418-.99-.935" opacity="1" data-original="#ffffff"></path><path fill="#ffffff" d="M-505.776-382.23c0-.515.442-.932.986-.932.542 0 .984.417.984.931 0 .517-.442.935-.984.935-.544 0-.986-.418-.986-.935" opacity="1" data-original="#ffffff"></path><path fill="#ffffff" stroke="#000" stroke-width=".40329299999999996" d="M-504.257-379.63c0-.517.442-.935.985-.935.547 0 .985.418.985.935 0 .514-.438.934-.985.934-.543 0-.985-.42-.985-.934M-503.64-376.758c0-.517.442-.936.986-.936.546 0 .99.419.99.936 0 .51-.444.928-.99.928-.544 0-.985-.418-.985-.928M-503.529-373.896c0-.52.443-.936.99-.936.543 0 .983.415.983.936 0 .513-.44.931-.984.931-.546 0-.989-.418-.989-.931M-504.426-371.293c0-.514.442-.935.985-.935.547 0 .986.42.986.935 0 .516-.44.932-.986.932-.543 0-.985-.416-.985-.932M-506.103-368.9c0-.514.442-.934.985-.934.545 0 .985.42.985.934s-.44.932-.985.932c-.543 0-.985-.418-.985-.932" opacity="1" data-original="#ffffff"></path><path fill="#ffffff" d="M-508.073-384.037c0-.514.441-.929.988-.929.543 0 .985.415.985.93 0 .516-.442.934-.985.934-.547 0-.988-.418-.988-.935" opacity="1" data-original="#ffffff"></path><path fill="#ffffff" d="M-510.77-385.524c0-.514.44-.934.986-.934.543 0 .983.42.983.934s-.44.932-.983.932c-.547 0-.987-.418-.987-.932" opacity="1" data-original="#ffffff"></path><path fill="#ffffff" d="M-513.742-386.42c0-.514.442-.929.987-.929.544 0 .986.415.986.928 0 .517-.442.936-.986.936-.545 0-.987-.419-.987-.936" opacity="1" data-original="#ffffff"></path><path fill="#ffffff" d="M-516.834-386.95c0-.514.443-.932.986-.932.546 0 .985.418.985.932 0 .513-.439.932-.985.932-.543 0-.986-.419-.986-.932" opacity="1" data-original="#ffffff"></path><path fill="#ffffff" d="M-519.86-386.9c0-.513.44-.934.985-.934.547 0 .988.421.988.935 0 .517-.441.932-.988.932-.544 0-.985-.415-.985-.932" opacity="1" data-original="#ffffff"></path><path fill="#ffffff" d="M-523.01-386.37c0-.512.444-.928.987-.928.547 0 .988.416.988.929 0 .52-.441.935-.988.935-.543 0-.986-.416-.986-.935" opacity="1" data-original="#ffffff"></path><path fill="#ffffff" d="M-525.924-385.364c0-.517.442-.935.985-.935.547 0 .989.418.989.935 0 .513-.442.935-.99.935-.542 0-.984-.422-.984-.935" opacity="1" data-original="#ffffff"></path><path fill="#ffffff" d="M-575.302-361.388c0-.518.443-.93.986-.93.547 0 .985.412.985.93 0 .516-.438.93-.985.93-.543 0-.986-.414-.986-.93" opacity="1" data-original="#ffffff"></path><path fill="#ffffff" d="M-576.652-363.775c0-.514.442-.93.986-.93.547 0 .989.416.989.93 0 .52-.442.934-.99.934-.543 0-.985-.414-.985-.934" opacity="1" data-original="#ffffff"></path><path fill="#ffffff" d="M-577.553-366.538c0-.514.442-.932.99-.932.543 0 .985.418.985.932 0 .517-.442.934-.985.934-.548 0-.99-.417-.99-.934" opacity="1" data-original="#ffffff"></path><path fill="#ffffff" d="M-577.664-369.503c0-.517.443-.931.986-.931.547 0 .988.414.988.93 0 .518-.441.932-.988.932-.543 0-.986-.414-.986-.931" opacity="1" data-original="#ffffff"></path><path fill="#ffffff" d="M-576.932-372.422c0-.514.442-.929.985-.929.544 0 .986.415.986.93 0 .518-.442.934-.986.934-.543 0-.985-.416-.985-.935" opacity="1" data-original="#ffffff"></path><path fill="#ffffff" d="M-575.417-375.07c0-.518.443-.933.99-.933.543 0 .985.415.985.932 0 .518-.442.936-.985.936-.547 0-.99-.418-.99-.936" opacity="1" data-original="#ffffff"></path><path fill="#ffffff" d="M-573.391-377.247c0-.517.442-.935.988-.935.543 0 .985.418.985.935 0 .514-.442.932-.985.932-.546 0-.988-.418-.988-.932" opacity="1" data-original="#ffffff"></path><path fill="#ffffff" d="M-571.04-379.056c0-.518.442-.935.989-.935.543 0 .986.417.986.935 0 .513-.443.931-.986.931-.547 0-.989-.418-.989-.93" opacity="1" data-original="#ffffff"></path><path fill="#ffffff" d="M-568.229-380.537c0-.516.442-.928.989-.928.544 0 .985.412.985.928 0 .518-.441.936-.985.936-.547 0-.989-.418-.989-.936" opacity="1" data-original="#ffffff"></path><path fill="#ffffff" d="M-565.313-381.593c0-.514.442-.931.985-.931.547 0 .988.417.988.931 0 .517-.441.935-.988.935-.543 0-.985-.418-.985-.935" opacity="1" data-original="#ffffff"></path><path fill="#ffffff" d="M-562.05-382.174c0-.513.441-.934.986-.934.542 0 .984.421.984.934 0 .514-.442.933-.984.933-.545 0-.986-.419-.986-.933" opacity="1" data-original="#ffffff"></path><path fill="#ffffff" d="M-558.959-382.337c0-.514.441-.928.989-.928.542 0 .985.414.985.928 0 .518-.443.936-.985.936-.548 0-.989-.418-.989-.936" opacity="1" data-original="#ffffff"></path><path fill="#ffffff" d="M-555.923-382.23c0-.515.443-.932.985-.932.548 0 .99.417.99.931 0 .517-.442.935-.99.935-.542 0-.985-.418-.985-.935" opacity="1" data-original="#ffffff"></path><path fill="#ffffff" d="M-552.886-382.23c0-.515.442-.932.986-.932.546 0 .989.417.989.931 0 .517-.443.935-.99.935-.543 0-.985-.418-.985-.935" opacity="1" data-original="#ffffff"></path><path fill="#ffffff" stroke="#000" stroke-width=".40329299999999996" d="M-554.404-379.63c0-.517.442-.935.986-.935.546 0 .988.418.988.935 0 .514-.442.934-.988.934-.544 0-.986-.42-.986-.934M-555.021-376.758c0-.517.438-.936.985-.936.543 0 .986.419.986.936 0 .51-.443.928-.986.928-.547 0-.985-.418-.985-.928M-555.136-373.896c0-.52.442-.936.989-.936.542 0 .985.415.985.936 0 .513-.443.931-.985.931-.547 0-.989-.418-.989-.931M-554.235-371.293c0-.514.442-.935.985-.935.547 0 .989.42.989.935 0 .516-.442.932-.99.932-.542 0-.984-.416-.984-.932M-552.559-368.9c0-.514.444-.934.985-.934.548 0 .99.42.99.934s-.442.932-.99.932c-.541 0-.985-.418-.985-.932" opacity="1" data-original="#ffffff"></path><path fill="#ffffff" d="M-550.59-384.037c0-.514.442-.929.985-.929.546 0 .988.415.988.93 0 .516-.442.934-.988.934-.543 0-.986-.418-.986-.935" opacity="1" data-original="#ffffff"></path><path fill="#ffffff" d="M-547.891-385.524c0-.514.442-.934.985-.934.546 0 .989.42.989.934s-.443.932-.99.932c-.542 0-.984-.418-.984-.932" opacity="1" data-original="#ffffff"></path><path fill="#ffffff" d="M-544.923-386.42c0-.514.444-.929.99-.929.543 0 .985.415.985.928 0 .517-.442.936-.986.936-.545 0-.989-.419-.989-.936" opacity="1" data-original="#ffffff"></path><path fill="#ffffff" d="M-541.829-386.95c0-.514.443-.932.986-.932.548 0 .99.418.99.932 0 .513-.442.932-.99.932-.543 0-.986-.419-.986-.932" opacity="1" data-original="#ffffff"></path><path fill="#ffffff" d="M-538.8-386.9c0-.513.437-.934.984-.934.544 0 .985.421.985.935 0 .517-.441.932-.985.932-.547 0-.985-.415-.985-.932" opacity="1" data-original="#ffffff"></path><path fill="#ffffff" d="M-535.653-386.37c0-.512.442-.928.985-.928.548 0 .986.416.986.929 0 .52-.438.935-.986.935-.543 0-.985-.416-.985-.935" opacity="1" data-original="#ffffff"></path><path fill="#ffffff" d="M-532.74-385.364c0-.517.44-.935.988-.935.543 0 .985.418.985.935 0 .513-.442.935-.985.935-.547 0-.988-.422-.988-.935" opacity="1" data-original="#ffffff"></path><path fill="#c8b100" stroke="#000" stroke-width=".47661899999999996" d="M-557.754-325.682h-.831v-.83h-1.456v3.322h1.456v2.283h-3.12v6.645h1.664v13.288h-3.327v6.852h25.578v-6.852h-3.327v-13.288h1.663v-6.645h-3.12v-2.283h1.457v-3.322h-1.456v.83h-.832v-.83h-1.456v.83h-1.04v-.83h-1.455v3.322h1.456v2.283h-3.12v-7.266h1.664v-3.322h-1.664v.83h-.831v-.83h-1.456v.83h-.832v-.83h-1.664v3.322h1.664v7.266h-3.119v-2.283h1.455v-3.322h-1.455v.83h-.832v-.83h-1.664zm-5.614 31.56h25.578m-25.578-1.661h25.578m-25.578-1.661h25.578m-25.578-1.66h25.578m-25.578-1.87h25.578m-22.251-1.453h18.924m-18.924-1.661h18.924m-18.924-1.868h18.924m-18.924-1.662h18.924m-18.924-1.661h18.924m-18.924-1.66h18.924m-18.924-1.662h18.924m-20.587-1.66h22.25m-22.25-1.662h22.25m-22.25-1.66h22.25m-22.25-1.662h22.25m-19.131-1.662h16.012m-9.566-1.66h3.12m-3.12-1.662h3.12m-3.12-1.66h3.12m-3.12-1.662h3.12m-4.784-2.075h6.447m-11.23 7.059h3.328m-4.783-2.077h6.238m-6.238 30.522v-1.661m0-1.661v-1.66m-1.663 1.66v1.661m3.119 0v-1.661m1.663 3.322v-1.661m0-1.661v-1.66m0-1.87v-1.453m0-1.661v-1.868m-1.663 6.851v-1.869m-3.12 1.87v-1.87m6.447 0v1.87m1.455-1.87v-1.453m-4.782-1.661v1.661m3.327-1.661v1.661m3.12-1.661v1.661m-1.665-1.661v-1.868m1.664-1.662v1.662m0-4.984v1.66m-1.664-3.321v1.661m1.664-3.322v1.66m-3.119-1.66v1.66m-3.327-1.66v1.66m-1.456-3.321v1.661m3.119-1.661v1.661m3.12-1.661v1.661m1.663-3.322v1.66m-3.119-1.66v1.66m-3.327-1.66v1.66m-1.456-3.321v1.661m6.238-1.661v1.661m-3.119-4.983v1.66m14.349-1.66h-3.327m4.783-2.077h-6.24m6.24 30.522v-1.661m0-1.661v-1.66m1.663 1.66v1.661m-3.12 0v-1.661m-1.663 3.322v-1.661m0-1.661v-1.66m0-1.87v-1.453m0-1.661v-1.868m1.664 6.851v-1.869m3.12 1.87v-1.87m-6.447 0v1.87m-1.456-1.87v-1.453m4.783-1.661v1.661m-3.327-1.661v1.661m-3.12-1.661v1.661m1.664-1.661v-1.868m-1.664-1.662v1.662m0-4.984v1.66m1.664-3.321v1.661m-1.664-3.322v1.66m3.12-1.66v1.66m3.327-1.66v1.66m1.456-3.321v1.661m-3.12-1.661v1.661m-3.12-1.661v1.661m-1.663-3.322v1.66m3.12-1.66v1.66m3.327-1.66v1.66m1.456-3.321v1.661m-6.24-1.661v1.661m3.12-4.983v1.66m-6.447 16.819v-1.868m0-4.984v-1.661m0 4.983v-1.661m0-4.983v-1.661m0-1.66v-1.662m0-3.322v-1.662m0-1.66v-1.662m-7.901 4.361h3.327m3.12-4.983h3.118m3.12 4.983h3.327" opacity="1" data-original="#c8b100"></path><path fill="#c8b100" stroke="#000" stroke-width=".47661899999999996" d="M-546.316-294.122v-4.36c0-.83-.416-3.322-4.368-3.322-3.742 0-4.158 2.492-4.158 3.322v4.36z" opacity="1" data-original="#c8b100"></path><path fill="#c8b100" stroke="#000" stroke-width=".47661899999999996" d="m-553.387-298.275-2.079-.207c0-.83.208-2.077.832-2.492l1.872 1.454c-.208.208-.625.83-.625 1.245zM-547.772-298.275l2.08-.207c0-.83-.208-2.077-.832-2.492l-1.872 1.454c.208.208.624.83.624 1.245zM-549.851-300.351l1.04-1.868c-.416-.208-1.249-.415-1.873-.415-.415 0-1.247.207-1.663.415l1.04 1.868zM-553.803-305.541v-4.569c0-1.245-.831-2.284-2.287-2.284s-2.287 1.039-2.287 2.284v4.569zM-547.356-305.541v-4.569c0-1.245.832-2.284 2.287-2.284 1.456 0 2.288 1.039 2.288 2.284v4.569zM-549.02-316.754l.416-4.153h-3.95l.207 4.153zM-545.9-316.754l-.416-4.153h4.159l-.416 4.153zM-555.258-316.754l.208-4.153h-3.952l.417 4.153z" opacity="1" data-original="#c8b100"></path><path fill="#0039f0" d="M-547.772-294.122v-3.738c0-.622-.416-2.491-2.912-2.491-2.286 0-2.703 1.869-2.703 2.491v3.738zM-554.219-305.956v-3.946c0-1.038-.623-2.077-1.871-2.077s-1.871 1.04-1.871 2.077v3.946zM-546.94-305.956v-3.946c0-1.038.624-2.077 1.871-2.077 1.249 0 1.872 1.04 1.872 2.077v3.946z" opacity="1" data-original="#0039f0"></path><path fill="#ad1519" d="M-542.604-287.408c0-9.078 6.55-16.437 14.628-16.437 8.082 0 14.632 7.36 14.632 16.437s-6.55 16.435-14.632 16.435c-8.078 0-14.628-7.358-14.628-16.435" opacity="1" data-original="#ad1519"></path><path fill="#005bbf" d="M-538.264-287.44c0-6.656 4.606-12.051 10.294-12.051 5.686 0 10.293 5.395 10.293 12.051 0 6.658-4.607 12.057-10.293 12.057-5.688 0-10.294-5.399-10.294-12.057" opacity="1" data-original="#005bbf"></path><path fill="#c8b100" d="M-532.832-295.737s-1.222 1.337-1.222 2.575c0 1.245.516 2.278.516 2.278-.184-.49-.684-.845-1.271-.845-.742 0-1.347.568-1.347 1.274 0 .204.125.523.22.698l.438.884c.145-.326.487-.508.885-.508.532 0 .965.406.965.91 0 .076-.01.153-.03.222l-1.097.004v.932h.978l-.728 1.442.965-.376.728.82.756-.82.962.376-.725-1.442h.978v-.932l-1.1-.004a.82.82 0 0 1-.023-.221c0-.505.424-.91.957-.91.398 0 .74.18.888.507l.434-.884c.096-.175.22-.494.22-.698 0-.706-.6-1.274-1.346-1.274-.587 0-1.083.354-1.269.845 0 0 .513-1.033.513-2.278 0-1.238-1.248-2.575-1.248-2.575" opacity="1" data-original="#c8b100"></path><path fill="#c8b100" d="M-534.775-287.313h3.917v-.932h-3.917z" opacity="1" data-original="#c8b100"></path><path fill="#c8b100" d="M-523.266-295.737s-1.22 1.337-1.22 2.575c0 1.245.512 2.278.512 2.278-.183-.49-.681-.845-1.269-.845-.746 0-1.346.568-1.346 1.274 0 .204.125.523.22.698l.434.884c.15-.326.49-.508.888-.508.533 0 .962.406.962.91a.834.834 0 0 1-.027.222l-1.097.004v.932h.979l-.73 1.442.963-.376.731.82.754-.82.964.376-.729-1.442h.979v-.932l-1.096-.004a.787.787 0 0 1-.027-.221c0-.505.428-.91.962-.91.397 0 .738.18.883.507l.439-.884c.095-.175.218-.494.218-.698 0-.706-.603-1.274-1.346-1.274-.586 0-1.087.354-1.27.845 0 0 .515-1.033.515-2.278 0-1.238-1.248-2.575-1.248-2.575" opacity="1" data-original="#c8b100"></path><path fill="#c8b100" d="M-525.21-287.313h3.915v-.932h-3.914z" opacity="1" data-original="#c8b100"></path><path fill="#c8b100" d="M-528.05-287.52s-1.222 1.336-1.222 2.578c0 1.241.517 2.274.517 2.274-.186-.491-.682-.845-1.272-.845-.742 0-1.347.569-1.347 1.273 0 .208.125.523.22.698l.438.884c.15-.325.486-.51.883-.51.534 0 .967.408.967.913 0 .08-.011.155-.031.226l-1.097.003v.931h.982l-.729 1.443.962-.38.73.82.755-.82.965.38-.733-1.443h.982v-.931l-1.097-.003a.84.84 0 0 1-.027-.226c0-.505.43-.913.963-.913.397 0 .735.185.884.51l.44-.884c.092-.175.218-.49.218-.698 0-.704-.604-1.273-1.346-1.273-.587 0-1.083.354-1.273.845 0 0 .517-1.033.517-2.274 0-1.242-1.252-2.579-1.252-2.579" opacity="1" data-original="#c8b100"></path><path fill="#c8b100" d="M-529.994-279.094h3.918v-.932h-3.918z" opacity="1" data-original="#c8b100"></path><path fill="#c8b100" d="m-498.77-330.809-.26.02a1.386 1.386 0 0 1-.24.319c-.23.22-.577.244-.772.06a.442.442 0 0 1-.125-.367.467.467 0 0 1-.46-.007c-.232-.134-.291-.453-.12-.718.026-.051.053-.118.094-.156l-.018-.29-.314.073-.09.172c-.196.22-.486.277-.631.147a.519.519 0 0 1-.118-.236.31.31 0 0 1-.156.095c-.481.119-.674-.94-.685-1.215l-.158.224s.142.633.07 1.17c-.07.536-.26 1.073-.26 1.073.672.171 1.678.717 2.676 1.486 1 .763 1.785 1.592 2.11 2.174 0 0 .516-.289 1.06-.46.536-.176 1.22-.18 1.22-.18l.196-.19c-.287.042-1.423.09-1.4-.387.004-.075.06-.16.07-.16a.625.625 0 0 1-.27-.06c-.164-.108-.16-.386.022-.616l.158-.115.01-.305-.304.041c-.028.038-.097.083-.138.121-.239.208-.584.223-.773.028a.394.394 0 0 1-.1-.418.514.514 0 0 1-.406-.04c-.232-.141-.277-.47-.097-.725.083-.125.249-.271.278-.287l-.062-.268" opacity="1" data-original="#c8b100"></path><path d="M-500.796-330.19c.045-.054.139-.052.21.003.07.053.09.14.047.191-.043.051-.135.051-.209-.007-.067-.05-.09-.137-.048-.188" fill="#000000" opacity="1" data-original="#000000"></path><path d="m-499.942-329.473-.294-.226c-.053-.041-.07-.108-.036-.147.034-.035.105-.035.159.003l.293.23.3.227c.051.038.07.105.037.147-.036.035-.108.031-.162-.007l-.297-.227" fill="#000000" opacity="1" data-original="#000000"></path><path d="m-501.51-330.545-.233-.136c-.058-.035-.088-.103-.06-.147.023-.048.093-.054.15-.02l.232.138.238.138c.057.031.084.098.06.146-.026.041-.094.05-.154.016l-.233-.135" fill="#000000" opacity="1" data-original="#000000"></path><path d="M-502.439-331.185c.044-.048.14-.048.21.006.07.055.09.14.047.192-.045.051-.138.047-.21-.002-.07-.059-.091-.14-.047-.195" fill="#000000" opacity="1" data-original="#000000"></path><path d="M-498.997-328.815c.045-.051.023-.134-.046-.191-.071-.055-.166-.058-.21-.002-.043.05-.023.136.047.19.07.055.164.055.21.003" fill="#000000" opacity="1" data-original="#000000"></path><path d="m-498.48-328.224.192.185c.047.044.121.06.163.025.04-.032.035-.095-.012-.14l-.189-.188-.196-.193c-.046-.044-.12-.056-.162-.021-.043.028-.037.099.014.143l.19.188" fill="#000000" opacity="1" data-original="#000000"></path><path d="M-497.628-327.498c.045-.053.025-.136-.046-.194-.07-.054-.165-.057-.21-.002-.043.054-.023.137.048.194.07.051.166.055.208.002" fill="#000000" opacity="1" data-original="#000000"></path><path fill="#c8b100" d="m-500.102-332.921-.532.016-.103.782.057.124.138-.01.682-.457-.242-.455" opacity="1" data-original="#c8b100"></path><path fill="#c8b100" d="m-501.543-332.487-.016.488.828.102.129-.055-.011-.134-.483-.641-.448.24" opacity="1" data-original="#c8b100"></path><path fill="#c8b100" d="m-499.834-331.514-.441.245-.484-.643-.01-.131.129-.055.83.099-.024.485" opacity="1" data-original="#c8b100"></path><path fill="#c8b100" d="M-500.904-332.117a.262.262 0 0 1 .354-.084.235.235 0 0 1 .09.333.27.27 0 0 1-.355.086.238.238 0 0 1-.09-.335" opacity="1" data-original="#c8b100"></path><path fill="#c8b100" d="M-502.84-332.924c-.013.002-.115-.411-.23-.642-.077-.166-.35-.382-.35-.382.026-.052.371-.176.782.082.334.275-.027.78-.027.78s-.088.12-.172.162" opacity="1" data-original="#c8b100"></path><path fill="#c8b100" d="m-501.91-332.644-.377.326-.614-.533.054-.077.021-.13.833-.062.083.476" opacity="1" data-original="#c8b100"></path><path fill="#c8b100" d="M-502.95-332.976c.046-.134.164-.213.258-.184.094.034.133.165.088.296-.047.134-.165.21-.26.185-.098-.036-.135-.166-.087-.297" opacity="1" data-original="#c8b100"></path><path fill="#c8b100" d="m-498.062-331.648-.53-.058-.223.763.042.13.138.004.742-.361-.17-.478" opacity="1" data-original="#c8b100"></path><path fill="#c8b100" d="m-499.557-331.413-.084.483.803.21.135-.038.01-.13-.382-.706-.482.181" opacity="1" data-original="#c8b100"></path><path fill="#c8b100" d="m-498.005-330.226-.475.19-.382-.704.01-.133.135-.036.803.212-.09.471" opacity="1" data-original="#c8b100"></path><path fill="#c8b100" d="M-498.977-330.959c.088-.109.254-.118.362-.035a.234.234 0 0 1 .04.342.272.272 0 0 1-.365.034.233.233 0 0 1-.037-.34" opacity="1" data-original="#c8b100"></path><path fill="#c8b100" d="m-496.283-329.998.096.5-.786.262-.138-.028-.016-.131.327-.725.517.122" opacity="1" data-original="#c8b100"></path><path fill="#c8b100" d="m-496.425-328.566-.503.111-.278-.746.032-.128.138-.019.766.313-.155.469" opacity="1" data-original="#c8b100"></path><path fill="#c8b100" d="m-497.789-329.952-.162.464.767.31.14-.02.027-.127-.272-.743-.5.116" opacity="1" data-original="#c8b100"></path><path fill="#c8b100" d="M-496.941-329.083a.243.243 0 0 0 .013-.348.28.28 0 0 0-.368-.013.24.24 0 0 0-.01.349.27.27 0 0 0 .365.012" opacity="1" data-original="#c8b100"></path><path fill="#c8b100" d="M-495.704-327.463c-.002.014.45.024.71.08.185.04.472.247.472.247.05-.038.102-.38-.253-.708-.354-.253-.797.191-.797.191s-.107.105-.132.19" opacity="1" data-original="#c8b100"></path><path fill="#c8b100" d="m-496.19-328.267-.259.419.681.46.084-.074.112-.038-.105-.786-.513.02" opacity="1" data-original="#c8b100"></path><path fill="#c8b100" d="M-495.629-327.37c.124-.07.185-.197.135-.277-.055-.083-.199-.093-.324-.022-.125.073-.185.194-.131.28.05.08.195.09.32.02" opacity="1" data-original="#c8b100"></path><g fill="none" stroke="#000"><path stroke-width=".268862" d="M-495.629-327.37c.124-.07.185-.197.135-.277-.055-.083-.199-.093-.324-.022-.125.073-.185.194-.131.28.05.08.195.09.32.02z" fill="" opacity="1"></path><path stroke-width=".31108" d="M-459.847-347.937v.52h-2.281v-.52h.844v-1.174h-.557v-.523h.557v-.514h.55v.514h.549v.523h-.55v1.174z" fill="" opacity="1"></path><path stroke-width=".021109" d="M-595.467-336.7v-1.138" fill="" opacity="1"></path><path stroke-width=".031108" d="M-595.777-336.7v-1.138" fill="" opacity="1"></path><path stroke-width=".041107" d="M-596.069-336.7v-1.138M-596.36-336.7v-1.138" fill="" opacity="1"></path><path stroke-width=".052217" d="M-596.618-336.7v-1.138" fill="" opacity="1"></path><path stroke-width=".062216" d="m-597.11-336.76-.007-1.038m.24 1.05v-1.084" fill="" opacity="1"></path><path stroke-width=".072215" d="M-597.566-336.808v-.955m.23.982-.006-1.016" fill="" opacity="1"></path><path stroke-width=".083325" d="M-598.176-336.862v-.84m.2.853v-.88m.207.908v-.915" fill="" opacity="1"></path><path stroke-width=".093324" d="M-598.39-336.869v-.812" fill="" opacity="1"></path><path stroke-width=".103323" d="M-598.589-336.91v-.757" fill="" opacity="1"></path><path stroke-width=".11443299999999999" d="M-598.803-336.93v-.703" fill="" opacity="1"></path><path stroke-width=".124432" d="m-599.24-336.992-.008-.56m.232.587v-.627M-599.465-337.04v-.49" fill="" opacity="1"></path><path stroke-width=".134431" d="M-599.67-337.08v-.409" fill="" opacity="1"></path><path stroke-width=".14443" d="M-599.896-337.134v-.32" fill="" opacity="1"></path><path stroke-width=".15554" d="M-600.126-337.16v-.24" fill="" opacity="1"></path><path stroke-width=".186648" d="M-600.37-337.215v-.116" fill="" opacity="1"></path><path stroke-width=".009999" d="M-594.234-336.76v-1.044m-.526 1.077.008-1.105m-.39 1.119v-1.125" fill="" opacity="1"></path><path stroke-width=".021109" d="M-461.074-336.68v-1.14" fill="" opacity="1"></path><path stroke-width=".031108" d="M-461.384-336.68v-1.14" fill="" opacity="1"></path><path stroke-width=".041107" d="M-461.676-336.68v-1.14M-461.966-336.68v-1.14" fill="" opacity="1"></path><path stroke-width=".052217" d="M-462.225-336.68v-1.14" fill="" opacity="1"></path><path stroke-width=".062216" d="m-462.718-336.742-.006-1.037m.24 1.05v-1.083" fill="" opacity="1"></path><path stroke-width=".072215" d="M-463.173-336.789v-.955m.231.983-.006-1.017" fill="" opacity="1"></path><path stroke-width=".083325" d="M-463.783-336.843v-.839m.2.853v-.88m.207.907v-.914" fill="" opacity="1"></path><path stroke-width=".093324" d="M-463.997-336.85v-.811" fill="" opacity="1"></path><path stroke-width=".103323" d="M-464.196-336.89v-.758" fill="" opacity="1"></path><path stroke-width=".11443299999999999" d="M-464.41-336.91v-.704" fill="" opacity="1"></path><path stroke-width=".124432" d="m-464.848-336.973-.007-.559m.232.587v-.628M-465.073-337.02v-.492" fill="" opacity="1"></path><path stroke-width=".134431" d="M-465.278-337.06v-.409" fill="" opacity="1"></path><path stroke-width=".14443" d="M-465.503-337.115v-.32" fill="" opacity="1"></path><path stroke-width=".15554" d="M-465.733-337.142v-.239" fill="" opacity="1"></path><path stroke-width=".186648" d="M-465.977-337.197v-.116" fill="" opacity="1"></path><path stroke-width=".009999" d="M-459.841-336.742v-1.043m-.525 1.077.007-1.104m-.39 1.118v-1.125" fill="" opacity="1"></path></g></g></g></svg>
